	<svg xmlns="http://www.w3.org/2000/svg" width="18" height="18" viewBox="0 0 18 18" x="108" y="142">
	<defs>
    <style>
      .fill {
        fill: #464646;
      }
    </style>
  </defs>
	<rect height="13" rx="0.5" ry="0.5" width="3" x="13" y="3"></rect><path d="M4,15.5a.5.5,0,0,1-.5.5h-2a.5.5,0,0,1,0-1h2A.5.5,0,0,1,4,15.5Z"></path><path d="M8,15.5a.5.5,0,0,1-.5.5h-2a.5.5,0,0,1,0-1h2A.5.5,0,0,1,8,15.5Z"></path><path d="M12,15.5a.5.5,0,0,1-.5.5h-2a.5.5,0,0,1,0-1h2A.5.5,0,0,1,12,15.5Z"></path>
	</svg>