<svg xmlns="http://www.w3.org/2000/svg" width="18" height="18" viewBox="0 0 36 36" class="wBx8DG_spectrum-Icon wBx8DG_spectrum-Icon--sizeS" focusable="false" aria-hidden="true" role="img"><path fill-rule="evenodd" d="M35.191,32.143,30.646,27.6A9.066,9.066,0,1,0,27.6,30.646l4.545,4.545a2.044,2.044,0,0,0,3.048,0A2.195,2.195,0,0,0,35.191,32.143ZM17.412,22.98a5.568,5.568,0,1,1,5.568,5.567A5.568,5.568,0,0,1,17.412,22.98Z"></path><path fill-rule="evenodd" d="M12.878,28H6V6H28v6.878a11.323,11.323,0,0,1,4,3.309V3a1,1,0,0,0-1-1H3A1,1,0,0,0,2,3V31a1,1,0,0,0,1,1H16.188A11.324,11.324,0,0,1,12.878,28Z"></path></svg>