<?xml version="1.0" encoding="UTF-8"?>
<svg xmlns="http://www.w3.org/2000/svg" version="1.1" viewBox="0 0 18 18" width="18" height="18">
  <!-- Generator: Adobe Illustrator 29.7.1, SVG Export Plug-In . SVG Version: 2.1.1 Build 8)  -->
  <defs>
    <style>
      .st0 {
        fill-rule: evenodd;
      }
    </style>
  </defs>
  <g id="Layer_1" focusable="false">
    <path d="M7.5,15h-2.3c-.1,0-.2-.1-.2-.2v-1.5c0-.1.1-.2.2-.2h2.1c0-.3,0-.7.2-1h-2.3c-.1,0-.2-.1-.2-.2v-1.5c0-.1.1-.2.2-.2h3.2c.3-.4.5-.7.9-1h-1.1c-.1,0-.2-.1-.2-.2v-3.5c0-.1.1-.2.2-.2h1.5c.1,0,.2.1.2.2v3.2c.3-.2.6-.4,1-.6V3.3c0-.1.1-.2.2-.2h1.5c.1,0,.2.1.2.2v4.1c.2,0,.3,0,.5,0s.3,0,.5,0V2.5c0-.3-.2-.5-.5-.5H4.5c-.3,0-.5.2-.5.5v13c0,.3.2.5.5.5h3.4c-.1-.3-.3-.7-.3-1ZM5,7.3c0-.1.1-.2.2-.2h1.5c.1,0,.2.1.2.2v1.5c0,.1-.1.2-.2.2h-1.5c-.1,0-.2-.1-.2-.2v-1.5Z"/>
    <path class="st0" d="M13.6,9.1c-2.5,0-4.4,2-4.4,4.4s2,4.4,4.4,4.4,4.4-2,4.4-4.4-2-4.4-4.4-4.4h0ZM16,13.8c0,.1-.1.2-.2.2h-1.7v1.8c0,.1-.1.2-.2.2h-.5c-.1,0-.2-.1-.2-.2v-1.7h-1.8c-.1,0-.2-.1-.2-.2v-.5c0-.1.1-.2.2-.2h1.8v-1.8c0-.1.1-.2.2-.2h.5c.1,0,.2.1.2.2v1.8h1.8c.1,0,.2.1.2.2v.5Z"/>
  </g>
</svg>