<svg fill="none" height="832" viewBox="0 0 1280 832" width="1280" xmlns="http://www.w3.org/2000/svg" xmlns:xlink="http://www.w3.org/1999/xlink"><clipPath id="a"><path d="m0 0h1280v832h-1280z"/></clipPath><mask id="b" height="832" maskUnits="userSpaceOnUse" width="1280" x="0" y="0"><path d="m1280 0h-1280v832h1280z" fill="#fff"/></mask><g clip-path="url(#a)"><g mask="url(#b)"><path d="m1280 0h-1280v832h1280z" fill="#fff"/><path d="m111.5 80.5998v2s0 .2-.2.3c-.7.3-1.8.4-3 .4-4.1 0-7.5-2.4-7.5-7.4s3.1-7.5 7.9-7.5 2.3 0 2.9.4v2.3c0 .1 0 .1-.2 0-.7-.3-1.7-.5-2.9-.5-3.1 0-5.1 2-5.1 5.1s2.8 5.1 5.1 5.1 1.9 0 2.7-.4h.2zm4.5-1.5v-10.4s0-.2.2-.2h2.3s.2 0 .2.2v10.1c0 .7 0 1.5-.2 2-.5 2.3-2.2 3.3-4.4 3.3s-.7 0-1 0-.2 0-.2-.2v-2s0-.2.2 0h.7c1.4 0 2.2-.5 2.2-2.6zm13.2.1h-5.3l-1.2 3.6s0 .2-.2.2h-2.2s-.2 0-.2-.2l4.5-12.9c0-.2.2-.4.2-1.2v-.2h3.3l5.1 14.1s0 .2-.1.2h-2.7l-1.3-3.7zm-4.6-2.4h3.8c-.5-1.5-1.5-4.5-1.9-6-.4 1.5-1.2 4-1.9 6zm15.4 6v-14.1s0-.2.2-.2h4.1c4.3 0 5.9 2.4 5.9 4.8 0 3.5-2.7 5-6 5h-1.4v4.5s0 .2-.2.2h-2.3c-.1 0-.2 0-.2-.2zm2.7-11.9v5.1h1.4c1.8 0 3.4-.6 3.4-2.6s-1.1-2.6-3.2-2.6-1.4 0-1.6 0zm15.9 7.3h-4.5c0 1.5 1.1 2.8 3.3 2.8s1.9-.2 2.7-.5h.1v1.8s0 .2-.1.2c-.8.4-1.8.6-3.3.6-4 0-5.4-2.8-5.4-5.5s1.8-5.8 5.2-5.8 4.5 2.6 4.5 4.6v1.4l-.2.2h-2.3zm-4.5-1.9h4.5v-.2c0-.6-.4-2-2.1-2s-2.2 1.2-2.4 2.2zm9.1-4.1h2.1c.1 0 .2 0 .2.2.1.3.2.8.2 1.3.7-.9 2-1.7 3.5-1.7s.2 0 .2.2v2.3s0 .2-.2.2c-1.6 0-2.9.5-3.4 1.2v7.1s0 .2-.2.2h-2.3c-.1 0-.2 0-.2-.2v-7.6c0-.9 0-2.2-.1-2.9h.1v-.2zm14.2 2.5c-.7-.4-1.8-.6-2.8-.6s-1.6.5-1.6.9.3.8 1.7 1.4c2.5.9 3.4 1.9 3.4 3.5s-1.6 3.4-4.3 3.4-2.4-.2-3.1-.6c-.1 0-.2 0-.2-.2v-2.1s0-.2.2 0c.9.6 2.2.9 3.1.9s1.7-.4 1.7-1-.4-.9-1.8-1.5c-2.4-.9-3.3-1.9-3.3-3.5s1.4-3.2 4.1-3.2 2.2.2 2.8.4c.1 0 .1.2.1.3v1.9s0 .2-.2 0zm7.5-2.8c3.4 0 5.2 2.6 5.2 5.6s-2.2 5.7-5.3 5.7-5.3-2.8-5.3-5.6 2-5.7 5.3-5.7zm-.1 2.3c-1.5 0-2.5 1.3-2.5 3.4s1 3.4 2.7 3.4 2.5-1.1 2.5-3.4-.8-3.4-2.7-3.4zm7.4 8.6v-10.5s0-.2.2-.2h2c.1 0 .2 0 .3.2 0 .2.1.5.2.8.9-.8 2-1.2 3.2-1.2s3.7.8 3.7 4.4v6.5c0 .1 0 .2-.2.2h-2.3c-.1 0-.2 0-.2-.2v-6.3c0-1.5-.6-2.3-1.9-2.3s-1.6.3-2.1.9v7.7s0 .2-.2.2h-2.3c-.1 0-.2 0-.2-.2zm17.4 0v-14.1s0-.2.1-.2h4.3c4.6 0 5.3 2.4 5.3 3.8s-.8 2.5-1.4 2.9c.8.4 2.1 1.4 2.1 3.4s-2.4 4.4-6 4.4h-4.2c-.1 0-.2 0-.2-.2zm2.6-6.2v4.2h1.7c2.1 0 3.4-.7 3.4-2.2s-.4-1.6-1.6-1.9-.9-.2-1.5-.2h-2zm0-5.8v3.5h3.7c.5-.4.8-.9.8-1.7 0-1.3-1-1.9-2.8-1.9s-1.3 0-1.7 0zm15.8 10.1v-2.7h-1.2c-1.7 0-2.5.6-2.5 1.5s.6 1.5 2.2 1.5 1.1 0 1.6-.3zm2.5-4.6v5.9c-1.8.8-3.1 1-4.6 1-2.4 0-4.3-1.1-4.3-3.6s2.1-3.5 4.9-3.5h1.4v-.3c0-.5-.3-1.6-2.2-1.6s-2.1.2-2.9.6h-.2v-1.9s0-.2.1-.2c.9-.4 2.2-.7 3.3-.7 3.1 0 4.4 1.9 4.4 4.4h.1zm9-1.6c-.7-.4-1.8-.6-2.8-.6s-1.6.5-1.6.9.3.8 1.7 1.4c2.5.9 3.4 1.9 3.4 3.5s-1.6 3.4-4.3 3.4-2.4-.2-3.1-.6c-.1 0-.2 0-.2-.2v-2.1s0-.2.2 0c.9.6 2.2.9 3.1.9s1.7-.4 1.7-1-.4-.9-1.8-1.5c-2.4-.9-3.3-1.9-3.3-3.5s1.4-3.2 4.1-3.2 2.2.2 2.8.4c.1 0 .1.2.1.3v1.9s0 .2-.2 0zm9.3 3.5h-4.5c0 1.5 1.1 2.8 3.3 2.8s1.9-.2 2.7-.5h.1v1.8s0 .2-.1.2c-.8.4-1.8.6-3.3.6-4 0-5.4-2.8-5.4-5.5s1.8-5.8 5.2-5.8 4.5 2.6 4.5 4.6v1.4l-.2.2h-2.3zm-4.5-1.9h4.5v-.2c0-.6-.4-2-2.1-2s-2.2 1.2-2.4 2.2zm14.2 6.9c-3.2 0-5.6-1.8-5.6-5.5s2.4-5.7 6.2-5.7h.9v-4.5s0-.2.1-.2h2.5v14.7s0 .2-.1.2c-1.4.6-2.8.9-4.2.9h.2zm1.5-2.4v-6.4c-.3 0-.6-.2-1-.2-2 0-3.4 1.3-3.4 3.4s1.4 3.4 3.2 3.4.9 0 1.3-.2zm10.8 2v-14.1s0-.2.1-.2h4.3c4.6 0 5.3 2.4 5.3 3.8s-.8 2.5-1.4 2.9c.8.4 2.1 1.4 2.1 3.4s-2.4 4.4-6 4.4h-4.2c-.1 0-.2 0-.2-.2zm2.6-6.2v4.2h1.7c2.1 0 3.4-.7 3.4-2.2s-.4-1.6-1.6-1.9-.9-.2-1.5-.2h-2zm0-5.8v3.5h3.7c.5-.4.8-.9.8-1.7 0-1.3-1-1.9-2.8-1.9s-1.3 0-1.7 0zm18.2 12.2h-8.9c-.1 0-.2 0-.2-.2v-1.8c.9-.7 2.4-1.8 3.7-3 2.2-2 2.6-3.3 2.6-4.4s-.7-2.4-2.6-2.4-2.3.4-3.2.9h-.2v-2s0-.2.1-.2c1.1-.6 2.4-.9 3.9-.9 3.2 0 4.7 2.1 4.7 4.5s-.6 3.3-2.5 5.1c-1.1 1.1-2 1.8-2.7 2.4h5.7c.1 0 .2 0 .2.2l-.5 2s0 .2-.2.2v-.4zm2.9-.2v-14.1s0-.2.1-.2h4.3c4.6 0 5.3 2.4 5.3 3.8s-.8 2.5-1.4 2.9c.8.4 2.1 1.4 2.1 3.4s-2.4 4.4-6 4.4h-4.2c-.1 0-.2 0-.2-.2zm2.6-6.2v4.2h1.7c2.1 0 3.4-.7 3.4-2.2s-.4-1.6-1.6-1.9-.9-.2-1.5-.2h-2zm0-5.8v3.5h3.7c.5-.4.8-.9.8-1.7 0-1.3-1-1.9-2.8-1.9s-1.3 0-1.7 0zm18.4 12.4c-1.6 0-2.9-.3-3.9-.8-.1 0-.2-.2-.2-.3v-2.3h.2c1.2.8 2.6 1.1 3.9 1.1s2.6-.7 2.6-1.6-.5-1.4-2.2-2.1l-1.1-.4c-2.7-1.1-3.4-2.5-3.4-4.2s1.8-4.2 5.1-4.2 2.6.2 3.4.6c.066 0 .1.1.1.3v2.1s0 .2-.2 0c-.8-.5-2-.7-3.3-.7-1.9 0-2.5.8-2.5 1.6s.5 1.3 2.2 2.1l.8.4c2.9 1.2 3.7 2.6 3.7 4.3 0 2.6-2 4.2-5.3 4.2zm15.2-2.5v2s0 .2-.1.2c-.7.3-1.6.4-2.4.4-3.6 0-5.7-2.4-5.7-5.6s2.4-5.7 6-5.7 1.7 0 2.1.2c0 0 .1 0 .1.2v2c0 .2-.1.2-.2 0-.5-.2-1-.3-1.9-.3-2 0-3.4 1.2-3.4 3.3s1.7 3.3 3.4 3.3 1.5 0 1.9-.2h.2zm4.7-5.7v7.8s0 .2-.2.2h-2.3c-.1 0-.2 0-.2-.2v-15.3s0-.2.2-.2h2.3c.1 0 .2 0 .2.2v5.5c.8-.6 1.8-1 3-1s3.7.8 3.7 4.4v6.5c0 .1 0 .2-.2.2h-2.3c-.1 0-.2 0-.2-.2v-6.2c0-1.5-.6-2.3-1.9-2.3s-1.5.3-2.1.8zm15.9 3.2h-4.5c0 1.5 1.1 2.8 3.3 2.8s1.9-.2 2.7-.5h.1v1.8s0 .2-.1.2c-.8.4-1.8.6-3.3.6-4 0-5.4-2.8-5.4-5.5s1.8-5.8 5.2-5.8 4.5 2.6 4.5 4.6v1.4l-.2.2h-2.3zm-4.5-1.9h4.5v-.2c0-.6-.4-2-2.1-2s-2.2 1.2-2.4 2.2zm11.6 6.7h-2.3c-.1 0-.2 0-.2-.2v-10.5s0-.2.2-.2h2.2c0 .2.1.5.1.9 1-.9 2-1.2 3.2-1.2s2.2.5 2.8 1.5c.9-.8 2.1-1.5 3.6-1.5s3.7 1 3.7 4.3v6.6s0 .2-.2.2h-2.3c-.1 0-.2 0-.2-.2v-6.3c0-1.3-.5-2.2-1.8-2.2s-1.6.4-2.2.9v7.7s0 .2-.2.2h-2.3c-.1 0-.2 0-.2-.2v-6.4c0-1.5-.7-2.2-1.8-2.2s-1.4.3-2.1.8v7.8s0 .2-.2.2zm21.7-2.1v-2.7h-1.2c-1.7 0-2.5.6-2.5 1.5s.6 1.5 2.2 1.5 1.1 0 1.6-.3zm2.5-4.6v5.9c-1.8.8-3.1 1-4.6 1-2.4 0-4.3-1.1-4.3-3.6s2.1-3.5 4.9-3.5h1.4v-.3c0-.5-.3-1.6-2.2-1.6s-2.1.2-2.9.6h-.2v-1.9s0-.2.1-.2c.9-.4 2.2-.7 3.3-.7 3.1 0 4.4 1.9 4.4 4.4h.1zm10.7-7.6v14.1c0 .1 0 .2-.2.2h-2.3c-.1 0-.2 0-.2-.2v-14.1c0-.1 0-.2.2-.2h2.3c.1 0 .2 0 .2.2zm2.9 14.1v-10.5s0-.2.2-.2h2c.1 0 .2 0 .3.2 0 .2.1.5.2.8.9-.8 2-1.2 3.2-1.2s3.7.8 3.7 4.4v6.5c0 .1 0 .2-.2.2h-2.3c-.1 0-.2 0-.2-.2v-6.3c0-1.5-.6-2.3-1.9-2.3s-1.6.3-2.1.9v7.7s0 .2-.2.2h-2.3c-.1 0-.2 0-.2-.2zm16.8.1h-2.4c-.6.3-1.1 1-1.1 1.4 0 .8 1.1 1.6 2.9 1.6s3-.9 3-1.7-1.1-1.2-2.4-1.3zm-1.1-9.1c-1.1 0-1.8.7-1.8 1.8s.6 1.8 1.8 1.8 1.8-.6 1.8-1.7-.5-1.8-1.8-1.8zm-.6 6.8h2.2c3 .2 4.3 1.4 4.3 3.2s-2.2 4-5.6 4-5.1-1.8-5.1-3.4.6-1.6 2-2.9c-.3-.5-.5-1.1-.5-1.7s.1-1 .4-1.4c-.9-.6-1.5-1.5-1.5-2.9 0-2.1 1.6-3.8 4.4-3.8s1.5 0 1.9.2h3.7v1.8h-1.8c.2.4.5.9.5 1.7 0 2.4-1.9 3.5-4.2 3.5s-.6 0-.9 0c0 .2-.1.4 0 .7 0 .2.1.5.3.7v.2zm14.3-2.4h-4.5c0 1.5 1.1 2.8 3.3 2.8s1.9-.2 2.7-.5h.1v1.8s0 .2-.1.2c-.8.4-1.8.6-3.3.6-4 0-5.4-2.8-5.4-5.5s1.8-5.8 5.2-5.8 4.5 2.6 4.5 4.6v1.4l-.2.2h-2.3zm-4.5-1.9h4.5v-.2c0-.6-.4-2-2.1-2s-2.2 1.2-2.4 2.2zm15.4-1.6c-.7-.4-1.8-.6-2.8-.6s-1.6.5-1.6.9.3.8 1.7 1.4c2.5.9 3.4 1.9 3.4 3.5s-1.6 3.4-4.3 3.4-2.4-.2-3.1-.6c-.1 0-.2 0-.2-.2v-2.1s0-.2.2 0c.9.6 2.2.9 3.1.9s1.7-.4 1.7-1-.4-.9-1.8-1.5c-2.4-.9-3.3-1.9-3.3-3.5s1.4-3.2 4.1-3.2 2.2.2 2.8.4c.1 0 .1.2.1.3v1.9s0 .2-.2 0zm8 6.4v1.6s0 .2-.1.3c-.6.2-1.1.3-1.9.3-1.8 0-2.9-.9-2.9-3.1v-5.8h-1.4c-.1 0-.2 0-.2-.2v-1.8s0-.2.2-.2h1.4c0-.8.1-2.2.2-2.7 0 0 0-.2.2-.2l2.2-.3h.2c0 .7-.1 2-.1 3.1h2.1c.1 0 .2 0 .2.2v1.9s0 .2-.2.2h-2.2v5.2c0 1 .3 1.4 1.3 1.4h.8.2zm2 1.7v-10.5s0-.2.2-.2h2.3c.1 0 .2 0 .2.2v10.5s0 .2-.2.2h-2.3c-.1 0-.2 0-.2-.2zm1.3-12.1c-.9 0-1.5-.6-1.5-1.5s.6-1.5 1.5-1.5 1.5.6 1.5 1.5-.6 1.5-1.5 1.5zm8.8 1.2c3.4 0 5.2 2.6 5.2 5.6s-2.2 5.7-5.3 5.7-5.3-2.8-5.3-5.6 2-5.7 5.3-5.7zm-.1 2.3c-1.5 0-2.5 1.3-2.5 3.4s1 3.4 2.7 3.4 2.5-1.1 2.5-3.4-.8-3.4-2.7-3.4zm7.4 8.6v-10.5s0-.2.2-.2h2c.1 0 .2 0 .3.2 0 .2.1.5.2.8.9-.8 2-1.2 3.2-1.2s3.7.8 3.7 4.4v6.5c0 .1 0 .2-.2.2h-2.3c-.1 0-.2 0-.2-.2v-6.3c0-1.5-.6-2.3-1.9-2.3s-1.6.3-2.1.9v7.7s0 .2-.2.2h-2.3c-.1 0-.2 0-.2-.2z" fill="#000"/><path d="m111.9 756.3h-10.6c-.718 0-1.3.582-1.3 1.3v10.6c0 .718.582 1.3 1.3 1.3h10.6c.718 0 1.3-.582 1.3-1.3v-10.6c0-.718-.582-1.3-1.3-1.3z" fill="#0fb5ae"/><path d="m126 767.8-.2 1h-6.1v-10.2h5.9v1h-4.7v3.3h4.3v1h-4.3v3.5h5v.5zm4.5 1.1h-1.4c-.3-1-2.3-6.4-2.7-7.5h1.2c1.3 4 1.9 5.7 2.1 6.4.2-.6.8-2.3 2.2-6.4h1.2c-.5 1.3-2.4 6.6-2.7 7.6h-.1.2zm8.4-3.7h-3.4c0 1.5.9 2.7 2.6 2.7s1.4 0 2-.4v1.1c-.5.3-1.2.5-2.2.5-2.7 0-3.7-2-3.7-3.9s1.3-4.1 3.5-4.1 3.1 1.8 3.1 3.2v.8h-1.9zm-3.4-1h3.9v-.2c0-.6-.4-1.9-1.9-1.9s-2 1-2.1 2.1zm6.8 4.6v-7.5h1.1v.8c.7-.7 1.5-1 2.4-1s2.6.6 2.6 3.1v4.7h-1.3v-4.5c0-1.2-.5-2-1.6-2s-1.5.4-2 1v5.6h-1.1v-.3zm11.8-1v1c-.4.2-.8.2-1.2.2-1.2 0-1.9-.6-1.9-2.1v-4.6h-1.2v-.9h1.2c0-.6 0-1.7.1-2h.1l1.1-.3v2.2h1.7v1h-1.7v4.4c0 .7.3 1.1 1 1.1h.7zm5.6-5.2c-.4-.3-1.2-.5-1.8-.5-1 0-1.4.5-1.4 1s.3.8 1.5 1.3c1.6.6 2.2 1.3 2.2 2.4s-1.2 2.3-2.8 2.3-1.7-.2-2.1-.5v-1.2c.6.4 1.4.6 2.1.6 1 0 1.5-.4 1.5-1s-.3-.9-1.4-1.4c-1.6-.6-2.2-1.2-2.2-2.4s1-2.1 2.7-2.1 1.5.2 1.9.3v1.2z" fill="#464646"/><path d="m194.3 756.3h-10.6c-.718 0-1.3.582-1.3 1.3v10.6c0 .718.582 1.3 1.3 1.3h10.6c.718 0 1.3-.582 1.3-1.3v-10.6c0-.718-.582-1.3-1.3-1.3z" fill="#4046ca"/><path d="m202 768.8v-10.2h2.6c2.8 0 4 1.6 4 3.4s-1.9 3.5-4.2 3.5-.9 0-1.2 0v3.5h-1.1v-.2zm1.3-9.2v4.5h1.2c1.6 0 2.9-.6 2.9-2.3s-1.1-2.2-2.7-2.2-1.1 0-1.4 0zm6.9 1.6h1.1c0 .2.1.7.1 1.1.6-.8 1.5-1.4 2.5-1.4h.1v1.1h-.1c-1.1 0-2.1.5-2.5 1.2v5.3h-1.3v-7.5h.1zm8.3-.2c2.2 0 3.6 1.7 3.6 4s-1.5 4-3.6 4-3.6-2.1-3.6-4 1.4-4 3.6-4zm-.1 1.2c-1.3 0-2.2 1.1-2.2 2.8s.8 2.9 2.3 2.9 2.2-.9 2.2-2.8-.7-2.9-2.3-2.9zm9.5 6.5v-7.5h1.2v7.5h-1.3zm.7-9.1c-.5 0-.8-.3-.8-.8s.3-.8.8-.8.8.3.8.8-.3.8-.8.8zm-4.7 2.7h-1v-1h1v-.7c0-.8.1-1.5.3-1.9.4-.8 1.1-1.2 2-1.2h.7v1.1h-.6c-.7 0-1.2.3-1.2 1.9v.8h1.5v.9h-1.5v6.4h-1.1v-6.5.2zm7.6 5v-9.7h1.2v9.5c0 .6.3.8.6.8h.3v.8c-.1 0-.4.2-.7.2-.8 0-1.5-.3-1.5-1.8v.2zm8-2.1h-3.5c0 1.5.9 2.7 2.6 2.7s1.4 0 2-.4v1.1c-.5.3-1.2.5-2.2.5-2.7 0-3.7-2-3.7-3.9s1.3-4.1 3.5-4.1 3.1 1.8 3.1 3.2v.8h-1.8zm-3.4-1h3.9v-.2c0-.6-.4-1.9-1.9-1.9s-2 1-2.1 2.1zm11-1.6c-.4-.3-1.2-.5-1.8-.5-1 0-1.4.5-1.4 1s.3.8 1.5 1.3c1.6.6 2.2 1.3 2.2 2.4s-1.2 2.3-2.8 2.3-1.7-.2-2.1-.5v-1.2c.6.4 1.4.6 2.1.6 1 0 1.5-.4 1.5-1s-.3-.9-1.4-1.4c-1.6-.6-2.2-1.2-2.2-2.4s1-2.1 2.7-2.1 1.5.2 1.9.3v1.2z" fill="#464646"/><path d="m375.7 756.3h-10.6c-.718 0-1.3.582-1.3 1.3v10.6c0 .718.582 1.3 1.3 1.3h10.6c.718 0 1.3-.582 1.3-1.3v-10.6c0-.718-.582-1.3-1.3-1.3z" fill="#f68511"/><path d="m295.4 768.9h-6v-10.2h1.1v9.2h4.9l-.2 1h-.1l.3.2zm4.6-7.9c2.2 0 3.6 1.7 3.6 4s-1.5 4-3.6 4-3.6-2.1-3.6-4 1.4-4 3.6-4zm0 1.2c-1.3 0-2.2 1.1-2.2 2.8s.8 2.9 2.3 2.9 2.2-.9 2.2-2.8-.7-2.9-2.3-2.9zm8.5-1.2c2.2 0 3.6 1.7 3.6 4s-1.5 4-3.6 4-3.6-2.1-3.6-4 1.4-4 3.6-4zm-.1 1.2c-1.3 0-2.2 1.1-2.2 2.8s.8 2.9 2.3 2.9 2.2-.9 2.2-2.8-.7-2.9-2.3-2.9zm10.2-1h1.3c-.4.5-2.8 2.8-3.4 3.4 1 1.1 2.8 2.9 3.9 4h-1.7c-.8-.8-2.8-2.9-3.6-3.8v3.7h-1.2v-11.1h1.2v7.1c.7-.7 2.9-3 3.3-3.4h.2zm8.4.1v7.5h-1.1v-.7c-.7.7-1.5.9-2.3.9-1.3 0-2.6-.7-2.6-3v-4.8h1.2v4.6c0 1.2.6 2 1.7 2s1.4-.3 1.8-.8v-5.8h1.3zm5.2-.3c2.3 0 3.7 1.6 3.7 3.7s-2.3 4.3-4.5 4.3-.6 0-.8 0v3.2c-.4 0-1.1.2-1.2.2v-10.6c.6-.2 1.6-.6 2.9-.6v-.2zm-.2 1.2c-.6 0-1 0-1.5.3v5.4h.9c1.5 0 3.1-.9 3.1-3.1s-.9-2.7-2.5-2.7zm9.8.4c-.4-.3-1.2-.5-1.8-.5-1 0-1.4.5-1.4 1s.3.8 1.5 1.3c1.6.6 2.2 1.3 2.2 2.4s-1.2 2.3-2.8 2.3-1.7-.2-2.1-.5v-1.2c.6.4 1.4.6 2.1.6 1 0 1.5-.4 1.5-1s-.3-.9-1.4-1.4c-1.6-.6-2.2-1.2-2.2-2.4s1-2.1 2.7-2.1 1.5.2 1.9.3v1.2z" fill="#464646"/><path d="m279.2 756.3h-10.6c-.718 0-1.3.582-1.3 1.3v10.6c0 .718.582 1.3 1.3 1.3h10.6c.718 0 1.3-.582 1.3-1.3v-10.6c0-.718-.582-1.3-1.3-1.3z" fill="#de3d82"/><path d="m386 768.8v-9.1h-3.4l.2-1.1h7.9v1h-3.4v9.1h-1.3zm4.6-7.6h1.1c0 .2.1.7.1 1.1.6-.8 1.5-1.4 2.5-1.4h.1v1.1h-.1c-1.1 0-2.1.5-2.5 1.2v5.3h-1.3v-7.5h.1zm9.1 6.5v-2.5h-1c-1.5 0-2.3.5-2.3 1.4s.5 1.4 1.9 1.4 1 0 1.4-.3zm1.3-3.7v4.3c-1.1.5-2 .7-3 .7-1.7 0-2.9-.8-2.9-2.5s1.6-2.4 3.5-2.4h1.1v-.4c0-.5-.2-1.6-1.8-1.6s-1.5.2-2 .5h-.1v-1c.6-.4 1.4-.6 2.2-.6 2 0 2.9 1.3 2.9 3zm2.2 4.8v-7.5h1.1v.8c.7-.7 1.5-1 2.4-1s2.6.6 2.6 3.1v4.7h-1.3v-4.5c0-1.2-.5-2-1.6-2s-1.5.4-2 1v5.6h-1.1v-.3zm12.4-6.2c-.4-.3-1.2-.5-1.8-.5-1 0-1.4.5-1.4 1s.3.8 1.5 1.3c1.6.6 2.2 1.3 2.2 2.4s-1.2 2.3-2.8 2.3-1.7-.2-2.1-.5v-1.2c.6.4 1.4.6 2.1.6 1 0 1.5-.4 1.5-1s-.3-.9-1.4-1.4c-1.6-.6-2.2-1.2-2.2-2.4s1-2.1 2.7-2.1 1.5.2 1.9.3v1.2zm2.4-.3h-1v-1h1v-.6c0-.9.1-1.5.4-2 .4-.8 1.1-1.2 2.1-1.2h.7v1h-.6c-.8 0-1.3.4-1.3 1.9v.7h1.5v.9h-1.5v6.4h-1.1v-6.5h-.2zm7.2-1.3c2.2 0 3.6 1.7 3.6 4s-1.5 4-3.6 4-3.6-2.1-3.6-4 1.4-4 3.6-4zm-.1 1.2c-1.3 0-2.2 1.1-2.2 2.8s.8 2.9 2.3 2.9 2.2-.9 2.2-2.8-.7-2.9-2.3-2.9zm5.3-1h1.1c0 .2.1.7.1 1.1.6-.8 1.5-1.4 2.5-1.4h.1v1.1h-.1c-1.1 0-2.1.5-2.5 1.2v5.3h-1.3v-7.5h.1zm6.4 7.7h-1.1v-7.6h1.1v.8c.7-.7 1.5-1 2.4-1s1.7.4 2.1 1.2c.7-.6 1.5-1.2 2.6-1.2s2.6.6 2.6 3v4.7h-1.3v-4.6c0-1.1-.5-1.9-1.6-1.9s-1.4.3-1.9.9v5.6h-1.3v-4.7c0-1.2-.6-1.9-1.6-1.9s-1.3.3-1.9.9v5.7.2zm16.2-3.7h-3.5c0 1.5.9 2.7 2.6 2.7s1.4 0 2-.4v1.1c-.5.3-1.2.5-2.2.5-2.7 0-3.7-2-3.7-3.9s1.3-4.1 3.5-4.1 3.1 1.8 3.1 3.2v.8h-1.8zm-3.4-1h3.9v-.2c0-.6-.4-1.9-1.9-1.9s-2 1-2.1 2.1zm10.3 4.8c-2.2 0-3.9-1.3-3.9-3.9s1.7-4.1 4.3-4.1h1v-3.5h1.1v10.8c-.9.5-1.8.7-2.7.7zm1.4-1.3v-5.3c-.3 0-.6-.2-1-.2-1.8 0-2.9 1.2-2.9 2.9s1.3 2.8 2.7 2.8.9 0 1.3-.2zm7.2-.4v-9.7h1.2v9.5c0 .6.3.8.6.8h.3v.8c-.1 0-.4.2-.7.2-.8 0-1.5-.3-1.5-1.8v.2zm6.9-6.3c2.2 0 3.6 1.7 3.6 4s-1.5 4-3.6 4-3.6-2.1-3.6-4 1.4-4 3.6-4zm-.1 1.2c-1.3 0-2.2 1.1-2.2 2.8s.8 2.9 2.3 2.9 2.2-.9 2.2-2.8-.7-2.9-2.3-2.9zm8.6-1.2c2.2 0 3.6 1.7 3.6 4s-1.5 4-3.6 4-3.6-2.1-3.6-4 1.4-4 3.6-4zm-.1 1.2c-1.3 0-2.2 1.1-2.2 2.8s.8 2.9 2.3 2.9 2.2-.9 2.2-2.8-.7-2.9-2.3-2.9zm10.1-1h1.3c-.4.5-2.8 2.8-3.4 3.4 1 1.1 2.8 2.9 3.9 4h-1.7c-.8-.8-2.8-2.9-3.6-3.8v3.7h-1.2v-11.1h1.2v7.1c.7-.7 2.9-3 3.3-3.4h.2zm8.5.1v7.5h-1.1v-.7c-.7.7-1.5.9-2.3.9-1.3 0-2.6-.7-2.6-3v-4.8h1.2v4.6c0 1.2.6 2 1.7 2s1.4-.3 1.8-.8v-5.8h1.3zm5.2-.3c2.3 0 3.7 1.6 3.7 3.7s-2.3 4.3-4.5 4.3-.6 0-.8 0v3.2c-.4 0-1.1.2-1.2.2v-10.6c.6-.2 1.6-.6 2.9-.6v-.2zm-.2 1.2c-.6 0-1 0-1.5.3v5.4h.9c1.5 0 3.1-.9 3.1-3.1s-.9-2.7-2.5-2.7zm9.8.4c-.4-.3-1.2-.5-1.8-.5-1 0-1.4.5-1.4 1s.3.8 1.5 1.3c1.6.6 2.2 1.3 2.2 2.4s-1.2 2.3-2.8 2.3-1.7-.2-2.1-.5v-1.2c.6.4 1.4.6 2.1.6 1 0 1.5-.4 1.5-1s-.3-.9-1.4-1.4c-1.6-.6-2.2-1.2-2.2-2.4s1-2.1 2.7-2.1 1.5.2 1.9.3v1.2z" fill="#464646"/><path d="m295.7 622h-191.4c-2.375 0-4.3 1.925-4.3 4.3v51.4c0 2.375 1.925 4.3 4.3 4.3h191.4c2.375 0 4.3-1.925 4.3-4.3v-51.4c0-2.375-1.925-4.3-4.3-4.3z" fill="#de3d82"/><path d="m153.3 637.6h2.9c.5 1.6 1.9 6.4 2.2 7.9.3-1.4 1.9-6.2 2.4-7.9h2.7l.4 10.3h-2c0-3.4-.1-8 0-9-.4 1.5-2 6.9-2.7 9h-1.9c-.7-2.4-2-7.1-2.4-9 0 1.6-.1 5.7-.3 9h-1.8l.6-10.3zm16.7 8.8v-2h-.9c-1.3 0-1.8.4-1.8 1.1s.4 1.1 1.6 1.1.8 0 1.1-.2zm1.9-3.3v4.2c-1.3.6-2.2.7-3.3.7-1.7 0-3.1-.8-3.1-2.6s1.5-2.5 3.6-2.5h1v-.2c0-.4-.2-1.2-1.6-1.2s-1.5.2-2.1.4h-.1v-1.6c.7-.3 1.6-.5 2.4-.5 2.2 0 3.2 1.4 3.2 3.2zm2-3h1.7c0 .2.1.6.2 1 .5-.7 1.5-1.2 2.6-1.2h.1v1.7h-.1c-1.1 0-2.1.4-2.4.8v5.2h-1.9v-7.6l-.2-.2zm10.8 0h1.8c-.5.6-2.6 2.8-3.2 3.4 1 1.1 2.6 3 3.6 4.1h-2.4c-.6-.7-2.2-2.6-2.9-3.5v3.5h-1.9v-11.1h1.9v6.8c.8-.9 2.5-2.9 2.9-3.3h.2zm7.6 4.4h-3.2c0 1.1.8 2 2.4 2s1.4 0 2-.4v1.5c-.6.3-1.3.5-2.4.5-2.9 0-4-2-4-4s1.3-4.2 3.8-4.2 3.3 1.9 3.3 3.4v1h-1.9zm-3.2-1.4h3.3c0-.6-.3-1.6-1.5-1.6s-1.6.8-1.7 1.6zm10.5 3.5v1.4c-.4.2-.8.2-1.4.2-1.3 0-2.1-.6-2.1-2.2v-4.2h-1.1v-1.3h1.1c0-.6 0-1.6.2-2h.1l1.6-.2h.1v2.3h1.7v1.4h-1.7v3.8c0 .7.2 1 .9 1h.6zm1.4 1.3v-7.6h1.9v7.6zm1-8.9c-.7 0-1.1-.4-1.1-1.1s.5-1.1 1.1-1.1 1.1.5 1.1 1.1-.4 1.1-1.1 1.1zm2.9 8.9v-7.6h1.8s0 .4.1.6c.7-.6 1.5-.9 2.3-.9s2.7.6 2.7 3.2v4.7h-1.9v-4.6c0-1.1-.4-1.7-1.4-1.7s-1.2.2-1.6.7v5.6zm12.2.1h-1.7c-.5.2-.8.8-.8 1 0 .6.8 1.2 2.1 1.2s2.2-.6 2.2-1.2-.8-.9-1.8-.9zm-.8-6.7c-.8 0-1.3.5-1.3 1.3s.4 1.3 1.3 1.3 1.3-.5 1.3-1.2-.4-1.3-1.3-1.3zm-.4 5h1.6c2.2.2 3.1 1 3.1 2.4s-1.6 2.9-4.1 2.9-3.7-1.3-3.7-2.5.4-1.2 1.5-2.1c-.2-.4-.4-.8-.3-1.2 0-.4 0-.7.3-1-.7-.4-1.1-1.1-1.1-2.1 0-1.5 1.2-2.7 3.2-2.7h1.4 2.6v1.3h-1.2c.2.3.4.6.4 1.2 0 1.7-1.4 2.6-3.1 2.6s-.4 0-.6 0v.5c0 .2 0 .3.2.5h-.2zm15.9 1.7h-6.2c-.1 0-.2 0-.2-.2v-10.2h1.8v8.8h4.8l-.3 1.5h-.1.2zm1.8-.1v-7.6h1.9v7.6zm.9-8.9c-.7 0-1.1-.4-1.1-1.1s.5-1.1 1.1-1.1 1.1.5 1.1 1.1-.4 1.1-1.1 1.1zm7.6 3c-.5-.3-1.3-.5-2-.5s-1.1.4-1.1.7.2.6 1.3 1c1.8.7 2.4 1.4 2.4 2.5s-1.2 2.4-3.2 2.4-1.8-.2-2.3-.4c0 0-.1 0-.1-.2v-1.5h.1c.7.4 1.6.6 2.3.6s1.2-.3 1.2-.7-.3-.7-1.3-1.1c-1.7-.6-2.4-1.4-2.4-2.5s1-2.4 3-2.4 1.6 0 2 .3v1.6h-.1zm5.9 4.6v1.4c-.4.2-.8.2-1.4.2-1.3 0-2.1-.6-2.1-2.2v-4.2h-1.1v-1.3h1.1c0-.6 0-1.6.2-2h.1l1.6-.2h.1v2.3h1.7v1.4h-1.7v3.8c0 .7.2 1 .9 1h.6zm-116.2 16.7c0-3.4 1.4-6 2.5-7.3h1.8c-1.7 2.2-2.6 4.4-2.6 7.2s.9 5.1 2.6 7.2h-1.8c-1.2-1.3-2.5-3.8-2.5-7.3zm5.9 4.6v-10.2h3.1c3.3 0 3.9 1.8 3.9 2.8s-.6 1.8-1 2.1c.6.3 1.5 1 1.5 2.5s-1.7 3.2-4.4 3.2h-3.2v-.4zm1.9-4.6v3h1.2c1.5 0 2.5-.5 2.5-1.6s-.3-1.2-1.2-1.4h-2.6zm0-4.2v2.6h2.7c.3-.3.6-.6.6-1.3s-.7-1.4-2-1.4h-1.3zm13.3 8.9h-6.6v-1.3c.7-.5 1.8-1.3 2.7-2.2 1.6-1.5 1.9-2.4 1.9-3.2s-.5-1.8-1.9-1.8-1.7.3-2.4.7h-.1v-1.7c.8-.4 1.7-.7 2.8-.7 2.4 0 3.4 1.5 3.4 3.2s-.4 2.4-1.8 3.7c-.8.8-1.4 1.3-2 1.7h4.3l-.3 1.4zm2.1-.1v-10.2h3.1c3.3 0 3.9 1.8 3.9 2.8s-.6 1.8-1 2.1c.6.3 1.5 1 1.5 2.5s-1.7 3.2-4.4 3.2h-3.2v-.4zm1.9-4.6v3h1.2c1.5 0 2.5-.5 2.5-1.6s-.3-1.2-1.2-1.4h-2.6zm0-4.2v2.6h2.7c.3-.3.6-.6.6-1.3s-.7-1.4-2-1.4h-1.3zm11.5-1.5h2.9c.5 1.6 1.9 6.4 2.2 7.9.3-1.4 1.9-6.2 2.4-7.9h2.7l.4 10.3h-2c0-3.4-.1-8 0-9-.4 1.5-2 6.9-2.7 9h-1.9c-.7-2.4-2-7.1-2.4-9 0 1.6-.1 5.7-.3 9h-1.8l.6-10.3zm16.7 8.8v-2h-.9c-1.3 0-1.8.4-1.8 1.1s.4 1.1 1.6 1.1.8 0 1.1-.2zm1.9-3.3v4.2c-1.3.6-2.2.7-3.3.7-1.7 0-3.1-.8-3.1-2.6s1.5-2.5 3.6-2.5h1v-.2c0-.4-.2-1.2-1.6-1.2s-1.5.2-2.1.4h-.1v-1.6c.7-.3 1.6-.5 2.4-.5 2.2 0 3.2 1.4 3.2 3.2zm2-3h1.7c0 .2.1.6.2 1 .5-.7 1.5-1.2 2.6-1.2h.1v1.7h-.1c-1.1 0-2.1.4-2.4.8v5.2h-1.9v-7.6l-.2-.2zm10.7 0h1.8c-.5.6-2.6 2.8-3.2 3.4 1 1.1 2.6 3 3.6 4.1h-2.4c-.6-.7-2.2-2.6-2.9-3.5v3.5h-1.9v-11.1h1.9v6.8c.8-.9 2.5-2.9 2.9-3.3h.2zm7.7 4.4h-3.2c0 1.1.8 2 2.4 2s1.4 0 2-.4v1.5c-.6.3-1.3.5-2.4.5-2.9 0-4-2-4-4s1.3-4.2 3.8-4.2 3.3 1.9 3.3 3.4v1h-1.9zm-3.3-1.4h3.3c0-.6-.3-1.6-1.5-1.6s-1.6.8-1.7 1.6zm10.5 3.5v1.4c-.4.2-.8.2-1.4.2-1.3 0-2.1-.6-2.1-2.2v-4.2h-1.1v-1.3h1.1c0-.6 0-1.6.2-2h.1l1.6-.2h.1v2.3h1.7v1.4h-1.7v3.8c0 .7.2 1 .9 1h.6zm1.5 1.3v-7.6h1.9v7.6zm.9-8.9c-.7 0-1.1-.4-1.1-1.1s.5-1.1 1.1-1.1 1.1.5 1.1 1.1-.4 1.1-1.1 1.1zm3 8.9v-7.6h1.8s0 .4.1.6c.7-.6 1.5-.9 2.3-.9s2.7.6 2.7 3.2v4.7h-1.9v-4.6c0-1.1-.4-1.7-1.4-1.7s-1.2.2-1.6.7v5.6zm12.2.1h-1.7c-.5.2-.8.8-.8 1 0 .6.8 1.2 2.1 1.2s2.2-.6 2.2-1.2-.8-.9-1.8-.9zm-.8-6.7c-.8 0-1.3.5-1.3 1.3s.4 1.3 1.3 1.3 1.3-.5 1.3-1.2-.4-1.3-1.3-1.3zm-.4 5h1.6c2.2.2 3.1 1 3.1 2.4s-1.6 2.9-4.1 2.9-3.7-1.3-3.7-2.5.4-1.2 1.5-2.1c-.2-.4-.4-.8-.3-1.2 0-.4 0-.7.3-1-.7-.4-1.1-1.1-1.1-2.1 0-1.5 1.2-2.7 3.2-2.7h1.4 2.6v1.3h-1.2c.2.3.4.6.4 1.2 0 1.7-1.4 2.6-3.1 2.6s-.4 0-.6 0v.5c0 .2 0 .3.2.5h-.2zm15.9 1.7h-6.2c-.1 0-.2 0-.2-.2v-10.2h1.8v8.8h4.8l-.3 1.5h-.1.2zm1.7-.1v-7.6h1.9v7.6zm1-8.9c-.7 0-1.1-.4-1.1-1.1s.5-1.1 1.1-1.1 1.1.5 1.1 1.1-.4 1.1-1.1 1.1zm7.6 3c-.5-.3-1.3-.5-2-.5s-1.1.4-1.1.7.2.6 1.3 1c1.8.7 2.4 1.4 2.4 2.5s-1.2 2.4-3.2 2.4-1.8-.2-2.3-.4c0 0-.1 0-.1-.2v-1.5h.1c.7.4 1.6.6 2.3.6s1.2-.3 1.2-.7-.3-.7-1.3-1.1c-1.7-.6-2.4-1.4-2.4-2.5s1-2.4 3-2.4 1.6 0 2 .3v1.6h-.1zm5.8 4.6v1.4c-.4.2-.8.2-1.4.2-1.3 0-2.1-.6-2.1-2.2v-4.2h-1.1v-1.3h1.1c0-.6 0-1.6.2-2h.1l1.6-.2h.1v2.3h1.7v1.4h-1.7v3.8c0 .7.2 1 .9 1h.6zm5.3-3.3c0 3.5-1.4 5.9-2.5 7.3h-1.8c1.7-2.2 2.6-4.4 2.6-7.2s-.9-5.1-2.6-7.2h1.8c1.2 1.4 2.5 3.8 2.5 7.3z" fill="#fdfdfd"/><path d="m535.7 249h-251.4c-2.375 0-4.3 1.925-4.3 4.3v51.4c0 2.375 1.925 4.3 4.3 4.3h251.4c2.375 0 4.3-1.925 4.3-4.3v-51.4c0-2.375-1.925-4.3-4.3-4.3z" fill="#f68511"/><path d="m349.8 274.9v-10.3s0-.1.1-.1h3c3.1 0 4.3 1.7 4.3 3.5s-2 3.6-4.4 3.6h-1v3.3s0 .1-.1.1h-1.7s-.1 0-.1-.1zm1.9-8.7v3.7h1c1.3 0 2.5-.4 2.5-1.9s-.8-1.9-2.3-1.9-1 0-1.2 0zm11.6 5.3h-3.2c0 1.1.8 2 2.4 2s1.4-.1 2-.4v1.5c-.6.3-1.3.5-2.4.5-2.9 0-4-2-4-4s1.3-4.2 3.8-4.2 3.3 1.9 3.3 3.4v1h-.1c-.2.1-.9.1-1.6.1h-.2zm-3.3-1.4h3.3c0-.6-.3-1.6-1.5-1.6s-1.6.8-1.7 1.6zm6.6-3h1.5s.1 0 .2.1c0 .2.1.6.2 1 .5-.7 1.5-1.2 2.6-1.2s.1 0 .1.1v1.7s0 .1-.1.1c-1.1 0-2.1.4-2.4.8v5.2s0 .1-.1.1h-1.7s-.1 0-.1-.1v-7.6zm10.4 1.9c-.5-.3-1.3-.5-2-.5s-1.1.4-1.1.7.2.6 1.3 1c1.8.7 2.4 1.4 2.4 2.5s-1.2 2.4-3.2 2.4-1.8-.2-2.3-.4c0 0-.1 0-.1-.2v-1.5s0-.1.1 0c.7.4 1.6.6 2.3.6s1.2-.3 1.2-.7-.3-.7-1.3-1.1c-1.7-.6-2.4-1.4-2.4-2.5s1-2.4 3-2.4 1.6.1 2 .3v1.6s0 .1-.1 0zm5.4-2c2.5 0 3.8 1.9 3.8 4.1s-1.6 4.1-3.8 4.1-3.9-2.1-3.9-4.1 1.5-4.1 3.9-4.1zm0 1.6c-1.1 0-1.8.9-1.8 2.5s.7 2.5 1.9 2.5 1.8-.8 1.8-2.5-.6-2.5-1.9-2.5zm5.4 6.3v-7.6s0-.1.1-.1h1.5c.1 0 .2 0 .2.1s0 .4.1.6c.7-.6 1.5-.9 2.3-.9s2.7.6 2.7 3.2v4.7s0 .1-.1.1h-1.7s-.1 0-.1-.1v-4.6c0-1.1-.4-1.7-1.4-1.7s-1.2.2-1.6.7v5.6s0 .1-.1.1h-1.7s-.1 0-.1-.1zm16.2-1.3v1.4c-.4.2-.8.2-1.4.2-1.3 0-2.1-.6-2.1-2.2v-4.2h-1s-.1 0-.1-.1v-1.3s0-.1.1-.1h1c0-.6 0-1.6.2-2 0 0 0-.1.1-.1l1.6-.2h.1v2.3h1.6s.1 0 .1.1v1.4s0 .1-.1.1h-1.6v3.8c0 .7.2 1 .9 1h.6zm4.7-6.6c2.5 0 3.8 1.9 3.8 4.1s-1.6 4.1-3.8 4.1-3.9-2.1-3.9-4.1 1.5-4.1 3.9-4.1zm-.1 1.6c-1.1 0-1.8.9-1.8 2.5s.7 2.5 1.9 2.5 1.8-.8 1.8-2.5-.6-2.5-1.9-2.5zm14.7 3.6h-3.8l-.9 2.6s0 .1-.2.1h-1.6s-.1 0-.1-.2l3.3-9.4c0-.2.1-.3.1-.9 0-.1 2.2-.1 2.2-.1h.1l3.7 10.3c0 .1-1.8.1-1.8.1h-.2l-.9-2.7v.2zm-3.3-1.7h2.8c-.3-1.1-1.1-3.3-1.4-4.4-.3 1.1-.9 2.9-1.4 4.4zm12.8 2.9v1.4c-.5.3-1.2.4-1.8.4-2.6 0-4.1-1.8-4.1-4.1s1.8-4.1 4.4-4.1 1.2 0 1.5.2v1.6s0 0-.1 0c-.3-.1-.8-.2-1.4-.2-1.5 0-2.5.9-2.5 2.4s1.3 2.4 2.5 2.4 1.1 0 1.4-.2h.1zm6.9 0v1.4c-.5.3-1.2.4-1.8.4-2.6 0-4.1-1.8-4.1-4.1s1.8-4.1 4.4-4.1 1.2 0 1.5.2v1.6s0 0-.1 0c-.3-.1-.8-.2-1.4-.2-1.5 0-2.5.9-2.5 2.4s1.3 2.4 2.5 2.4 1.1 0 1.4-.2h.1zm4.8-6.4c2.5 0 3.8 1.9 3.8 4.1s-1.6 4.1-3.8 4.1-3.9-2.1-3.9-4.1 1.5-4.1 3.9-4.1zm-.1 1.6c-1.1 0-1.8.9-1.8 2.5s.7 2.5 1.9 2.5 1.8-.8 1.8-2.5-.6-2.5-1.9-2.5zm12.1-1.4v7.6s0 .1-.1.1h-1.7c0-.2 0-.4-.1-.6-.7.6-1.5.8-2.2.8-1.5 0-2.7-.8-2.7-3.1v-4.9s0-.1.1-.1h1.7s.1 0 .1.1v4.7c0 1 .4 1.6 1.4 1.6s1.1-.2 1.5-.6v-5.7s0-.1.1-.1h1.7s.1 0 .1.1h.1zm2 7.7v-7.6s0-.1.1-.1h1.5c.1 0 .2 0 .2.1s0 .4.1.6c.7-.6 1.5-.9 2.3-.9s2.7.6 2.7 3.2v4.7s0 .1-.1.1h-1.7s-.1 0-.1-.1v-4.6c0-1.1-.4-1.7-1.4-1.7s-1.2.2-1.6.7v5.6s0 .1-.1.1h-1.7s-.1 0-.1-.1zm12.6-1.3v1.4c-.4.2-.8.2-1.4.2-1.3 0-2.1-.6-2.1-2.2v-4.2h-1s-.1 0-.1-.1v-1.3s0-.1.1-.1h1c0-.6 0-1.6.2-2 0 0 0-.1.1-.1l1.6-.2h.1v2.3h1.6s.1 0 .1.1v1.4s0 .1-.1.1h-1.6v3.8c0 .7.2 1 .9 1h.6zm-163.3 16.7c0-3.4 1.4-6 2.5-7.3h1.8s.1 0 0 .1c-1.7 2.2-2.6 4.4-2.6 7.2s.9 5.1 2.6 7.2c0 .1-1.6.1-1.6.1h-.2c-1.2-1.3-2.5-3.8-2.5-7.3zm6 4.6v-10.2c.6-.1 2-.1 3.1-.1 3.3 0 3.9 1.8 3.9 2.8s-.6 1.8-1 2.1c.6.3 1.5 1 1.5 2.5s-1.7 3.2-4.4 3.2h-3.1s-.1 0-.1-.1v-.2zm1.9-4.6v3h1.2c1.5 0 2.5-.5 2.5-1.6s-.3-1.2-1.2-1.4c-.3 0-.7-.1-1.1-.1h-1.5.1zm0-4.2v2.6h2.7c.3-.3.6-.6.6-1.3s-.7-1.4-2-1.4h-1.3zm13.2 8.9h-6.5s-.1 0-.1-.1v-1.3c.7-.5 1.8-1.3 2.7-2.2 1.6-1.5 1.9-2.4 1.9-3.2s-.5-1.8-1.9-1.8-1.7.3-2.4.7h-.1v-1.7c.8-.4 1.7-.7 2.8-.7 2.4 0 3.4 1.5 3.4 3.2s-.4 2.4-1.8 3.7c-.8.8-1.4 1.3-2 1.7h4.2s.1 0 .1.1l-.3 1.4s0 .1-.2.1h.2zm2.1-.1v-10.2c.6-.1 2-.1 3.1-.1 3.3 0 3.9 1.8 3.9 2.8s-.6 1.8-1 2.1c.6.3 1.5 1 1.5 2.5s-1.7 3.2-4.4 3.2h-3.1s-.1 0-.1-.1v-.2zm1.9-4.6v3h1.2c1.5 0 2.5-.5 2.5-1.6s-.3-1.2-1.2-1.4c-.3 0-.7-.1-1.1-.1h-1.5.1zm0-4.2v2.6h2.7c.3-.3.6-.6.6-1.3s-.7-1.4-2-1.4h-1.3zm16.6 6.1h-3.8l-.9 2.6s0 .1-.2.1h-1.6s-.1 0-.1-.2l3.3-9.4c0-.2.1-.3.1-.9 0-.1 2.2-.1 2.2-.1h.1l3.7 10.3c0 .1-1.8.1-1.8.1h-.2l-.9-2.7v.2zm-3.4-1.7h2.8c-.3-1.1-1.1-3.3-1.4-4.4-.3 1.1-.9 2.9-1.4 4.4zm12.9 2.9v1.4c-.5.3-1.2.4-1.8.4-2.6 0-4.1-1.8-4.1-4.1s1.8-4.1 4.4-4.1 1.2 0 1.5.2v1.6s0 0-.1 0c-.3-.1-.8-.2-1.4-.2-1.5 0-2.5.9-2.5 2.4s1.3 2.4 2.5 2.4 1.1 0 1.4-.2h.1zm6.9 0v1.4c-.5.3-1.2.4-1.8.4-2.6 0-4.1-1.8-4.1-4.1s1.8-4.1 4.4-4.1 1.2 0 1.5.2v1.6s0 0-.1 0c-.3-.1-.8-.2-1.4-.2-1.5 0-2.5.9-2.5 2.4s1.3 2.4 2.5 2.4 1.1 0 1.4-.2h.1zm4.8-6.4c2.5 0 3.8 1.9 3.8 4.1s-1.6 4.1-3.8 4.1-3.9-2.1-3.9-4.1 1.5-4.1 3.9-4.1zm-.1 1.6c-1.1 0-1.8.9-1.8 2.5s.7 2.5 1.9 2.5 1.8-.8 1.8-2.5-.6-2.5-1.9-2.5zm12.1-1.4v7.6s0 .1-.1.1h-1.7c0-.2 0-.4-.1-.6-.7.6-1.5.8-2.2.8-1.5 0-2.7-.8-2.7-3.1v-4.9s0-.1.1-.1h1.7s.1 0 .1.1v4.7c0 1 .4 1.6 1.4 1.6s1.1-.2 1.5-.6v-5.7s0-.1.1-.1h1.7s.1 0 .1.1h.1zm2 7.7v-7.6s0-.1.1-.1h1.5c.1 0 .2 0 .2.1s0 .4.1.6c.7-.6 1.5-.9 2.3-.9s2.7.6 2.7 3.2v4.7s0 .1-.1.1h-1.7s-.1 0-.1-.1v-4.6c0-1.1-.4-1.7-1.4-1.7s-1.2.2-1.6.7v5.6s0 .1-.1.1h-1.7s-.1 0-.1-.1zm12.6-1.3v1.4c-.4.2-.8.2-1.4.2-1.3 0-2.1-.6-2.1-2.2v-4.2h-1s-.1 0-.1-.1v-1.3s0-.1.1-.1h1c0-.6 0-1.6.2-2 0 0 0-.1.1-.1l1.6-.2h.1v2.3h1.6s.1 0 .1.1v1.4s0 .1-.1.1h-1.6v3.8c0 .7.2 1 .9 1h.6zm5.1 1.3v-10.3s0-.1.1-.1h3c3.1 0 4.3 1.7 4.3 3.5s-2 3.6-4.4 3.6h-1v3.3s0 .1-.1.1h-1.7s-.1 0-.1-.1zm1.9-8.7v3.7h1c1.3 0 2.5-.4 2.5-1.9s-.8-1.9-2.3-1.9-1 0-1.2 0zm11.6 5.3h-3.2c0 1.1.8 2 2.4 2s1.4-.1 2-.4v1.5c-.6.3-1.3.5-2.4.5-2.9 0-4-2-4-4s1.3-4.2 3.8-4.2 3.3 1.9 3.3 3.4v1h-.1c-.2.1-.9.1-1.6.1h-.2zm-3.2-1.4h3.3c0-.6-.3-1.6-1.5-1.6s-1.6.8-1.7 1.6zm6.6-3h1.5s.1 0 .2.1c0 .2.1.6.2 1 .5-.7 1.5-1.2 2.6-1.2s.1 0 .1.1v1.7s0 .1-.1.1c-1.1 0-2.1.4-2.4.8v5.2s0 .1-.1.1h-1.7s-.1 0-.1-.1v-7.6zm10.3 1.9c-.5-.3-1.3-.5-2-.5s-1.1.4-1.1.7.2.6 1.3 1c1.8.7 2.4 1.4 2.4 2.5s-1.2 2.4-3.2 2.4-1.8-.2-2.3-.4c0 0-.1 0-.1-.2v-1.5s0-.1.1 0c.7.4 1.6.6 2.3.6s1.2-.3 1.2-.7-.3-.7-1.3-1.1c-1.7-.6-2.4-1.4-2.4-2.5s1-2.4 3-2.4 1.6.1 2 .3v1.6s0 .1-.1 0zm5.5-2c2.5 0 3.8 1.9 3.8 4.1s-1.6 4.1-3.8 4.1-3.9-2.1-3.9-4.1 1.5-4.1 3.9-4.1zm-.1 1.6c-1.1 0-1.8.9-1.8 2.5s.7 2.5 1.9 2.5 1.8-.8 1.8-2.5-.6-2.5-1.9-2.5zm5.4 6.3v-7.6s0-.1.1-.1h1.5c.1 0 .2 0 .2.1s0 .4.1.6c.7-.6 1.5-.9 2.3-.9s2.7.6 2.7 3.2v4.7s0 .1-.1.1h-1.7s-.1 0-.1-.1v-4.6c0-1.1-.4-1.7-1.4-1.7s-1.2.2-1.6.7v5.6s0 .1-.1.1h-1.7s-.1 0-.1-.1zm14.4.1h-1.6s-.1 0-.1-.1v-10.2s0-.1.1-.1h3.2c2.6 0 4.1 1.1 4.1 3.2s-.9 2.4-2.1 2.8c.5.7 2.4 3.6 2.9 4.4v.2h-2.2c-.5-.7-1.6-2.6-2.3-3.7-.1-.2-.2-.3-.4-.3h-1.4v3.9s0 .1-.1.1v-.2zm.1-5.7h1.4c1.3 0 2.1-.6 2.1-1.6s-.8-1.6-2.2-1.6-1.1 0-1.3 0zm11.9 2.2h-3.2c0 1.1.8 2 2.4 2s1.4-.1 2-.4v1.5c-.6.3-1.3.5-2.4.5-2.9 0-4-2-4-4s1.3-4.2 3.8-4.2 3.3 1.9 3.3 3.4v1h-.1c-.2.1-.9.1-1.6.1h-.2zm-3.3-1.4h3.3c0-.6-.3-1.6-1.5-1.6s-1.6.8-1.7 1.6zm6.5 3v-9.4s0-.1.1-.1h1.6s.1 0 .1.1v9.2c0 .5.2.7.6.7h.3v1.4c-.2 0-.5.1-.9.1-1 0-1.9-.4-1.9-2.1zm8.4.3v-2h-.9c-1.3 0-1.8.4-1.8 1.1s.4 1.1 1.6 1.1.8 0 1.1-.2zm1.8-3.3v4.2c-1.3.6-2.2.7-3.3.7-1.7 0-3.1-.8-3.1-2.6s1.5-2.5 3.6-2.5h1v-.2c0-.4-.2-1.2-1.6-1.2s-1.5.2-2.1.4h-.1v-1.6c.7-.3 1.6-.5 2.4-.5 2.2 0 3.2 1.4 3.2 3.2zm5.7 3.5v1.4c-.4.2-.8.2-1.4.2-1.3 0-2.1-.6-2.1-2.2v-4.2h-1s-.1 0-.1-.1v-1.3s0-.1.1-.1h1c0-.6 0-1.6.2-2 0 0 0-.1.1-.1l1.6-.2h.1v2.3h1.6s.1 0 .1.1v1.4s0 .1-.1.1h-1.6v3.8c0 .7.2 1 .9 1h.6zm1.4 1.3v-7.6s0-.1.1-.1h1.7s.1 0 .1.1v7.6s0 .1-.1.1h-1.6c-.1 0-.2 0-.2-.1zm1-8.9c-.7 0-1.1-.4-1.1-1.1s.5-1.1 1.1-1.1 1.1.5 1.1 1.1-.4 1.1-1.1 1.1zm6.4 1c2.5 0 3.8 1.9 3.8 4.1s-1.6 4.1-3.8 4.1-3.9-2.1-3.9-4.1 1.5-4.1 3.9-4.1zm-.1 1.6c-1.1 0-1.8.9-1.8 2.5s.7 2.5 1.9 2.5 1.8-.8 1.8-2.5-.6-2.5-1.9-2.5zm5.4 6.3v-7.6s0-.1.1-.1h1.5c.1 0 .2 0 .2.1s0 .4.1.6c.7-.6 1.5-.9 2.3-.9s2.7.6 2.7 3.2v4.7s0 .1-.1.1h-1.7s-.1 0-.1-.1v-4.6c0-1.1-.4-1.7-1.4-1.7s-1.2.2-1.6.7v5.6s0 .1-.1.1h-1.7s-.1 0-.1-.1zm12.2-4.6c0 3.5-1.4 5.9-2.5 7.3h-1.8s-.1 0 0-.1c1.7-2.2 2.6-4.4 2.6-7.2s-.9-5.1-2.6-7.2c0-.1 1.6-.1 1.6-.1h.2c1.2 1.4 2.5 3.8 2.5 7.3z" fill="#fdfdfd"/><path d="m995.7 249h-251.4c-2.375 0-4.3 1.925-4.3 4.3v51.4c0 2.375 1.925 4.3 4.3 4.3h251.4c2.375 0 4.3-1.925 4.3-4.3v-51.4c0-2.375-1.925-4.3-4.3-4.3z" fill="#f68511"/><path d="m795.5 274.9v-10.3c0-.1 3-.1 3-.1 3.1 0 4.3 1.7 4.3 3.5s-2 3.6-4.4 3.6h-1v3.3c0 .1-1.7.1-1.7.1 0-.1-.2-.1-.2-.1zm1.9-8.7v3.7h1c1.3 0 2.5-.4 2.5-1.9s-.8-1.9-2.3-1.9-1 0-1.2 0zm11.6 5.3h-3.2c0 1.1.8 2 2.4 2s1.4-.1 2-.4v1.5c-.6.3-1.3.5-2.4.5-2.9 0-4-2-4-4s1.3-4.2 3.8-4.2 3.3 1.9 3.3 3.4v1c-.2.1-.9.1-1.6.1h-.3zm-3.2-1.4h3.3c0-.6-.3-1.6-1.5-1.6s-1.6.8-1.7 1.6zm6.5-3h1.7c0 .3 0 .7.2 1.1.5-.7 1.5-1.2 2.6-1.2s0 0 0 .1v1.7c-1.1.1-2.1.5-2.4.9v5.2c0 .1-1.7.1-1.7.1v-7.7l-.2-.2zm10.4 1.9c-.5-.3-1.3-.5-2-.5s-1.1.4-1.1.7.2.6 1.3 1c1.8.7 2.4 1.4 2.4 2.5s-1.2 2.4-3.2 2.4-1.8-.2-2.3-.4v-1.7c.7.4 1.6.6 2.3.6s1.2-.3 1.2-.7-.3-.7-1.3-1.1c-1.7-.6-2.4-1.4-2.4-2.5s1-2.4 3-2.4 1.6.1 2 .3v1.6l.2.2zm5.5-2c2.5 0 3.8 1.9 3.8 4.1s-1.6 4.1-3.8 4.1-3.9-2.1-3.9-4.1 1.5-4.1 3.9-4.1zm-.1 1.6c-1.1 0-1.8.9-1.8 2.5s.7 2.5 1.9 2.5 1.8-.8 1.8-2.5-.6-2.5-1.9-2.5zm5.4 6.3v-7.6c0-.1 1.5-.1 1.5-.1s.2 0 .2.1v.6c.7-.6 1.5-.9 2.3-.9s2.7.6 2.7 3.2v4.7c0 .1-1.7.1-1.7.1v-4.7c0-1.1-.4-1.7-1.4-1.7s-1.2.2-1.6.7v5.6c0 .1-1.7.1-1.7.1 0-.1 0-.1 0-.1h-.2zm16.2-1.3v1.4c-.4.2-.8.2-1.4.2-1.3 0-2.1-.6-2.1-2.2v-4.2h-1v-1.4c0-.1 1-.1 1-.1 0-.6 0-1.6.2-2 0-.1 1.6-.3 1.6-.3v2.3h1.6v1.5c0 .1-1.6.1-1.6.1v3.8c0 .7.2 1 .9 1h.6.2zm4.7-6.6c2.5 0 3.8 1.9 3.8 4.1s-1.6 4.1-3.8 4.1-3.9-2.1-3.9-4.1 1.5-4.1 3.9-4.1zm-.1 1.6c-1.1 0-1.8.9-1.8 2.5s.7 2.5 1.9 2.5 1.8-.8 1.8-2.5-.6-2.5-1.9-2.5zm13.6-4.3c3.1 0 4.9 2.4 4.9 5.4s-2 5.5-4.9 5.5-5-2.3-5-5.4 2-5.4 5-5.4zm-3 5.4c0 2.1 1.1 3.7 3 3.7s2.9-1.5 2.9-3.7-1.1-3.7-3-3.7-2.9 1.3-2.9 3.7zm12.8-2.7c2.6 0 4 1.8 4 3.8 0 2.9-2.4 4.4-4.8 4.4s-.3 0-.5 0v2.9c-.6.1-1.6.3-1.7.3v-10.5c.7-.2 1.8-.6 3.2-.6v-.3zm-.2 1.6c-.4 0-.8 0-1.1.2v4.7h.6c1.2 0 2.6-.7 2.6-2.6s-.8-2.3-2.1-2.3zm8.9-1.6c2.6 0 4 1.8 4 3.8 0 2.9-2.4 4.4-4.8 4.4s-.3 0-.5 0v2.9c-.6.1-1.6.3-1.7.3v-10.5c.7-.2 1.8-.6 3.2-.6v-.3zm-.2 1.6c-.4 0-.8 0-1.1.2v4.7h.6c1.2 0 2.6-.7 2.6-2.6s-.8-2.3-2.1-2.3zm9.1-1.6c2.5 0 3.8 1.9 3.8 4.1s-1.6 4.1-3.8 4.1-3.9-2.1-3.9-4.1 1.5-4.1 3.9-4.1zm-.1 1.6c-1.1 0-1.8.9-1.8 2.5s.7 2.5 1.9 2.5 1.8-.8 1.8-2.5-.6-2.5-1.9-2.5zm5.5-1.5h1.7c0 .3 0 .7.2 1.1.5-.7 1.5-1.2 2.6-1.2s0 0 0 .1v1.7c-1.1.1-2.1.5-2.4.9v5.2c0 .1-1.7.1-1.7.1s0 0 0-.1v-7.6l-.2-.2zm10 6.5v1.4c-.4.2-.8.2-1.4.2-1.3 0-2.1-.6-2.1-2.2v-4.2h-1v-1.4c0-.1 1-.1 1-.1 0-.6 0-1.6.2-2 0-.1 1.6-.3 1.6-.3v2.3h1.6v1.5c0 .1-1.6.1-1.6.1v3.8c0 .7.2 1 .9 1h.6.2zm8-6.4v7.6c0 .1-1.7.1-1.7.1v-.6c-.7.6-1.5.8-2.2.8-1.5 0-2.7-.8-2.7-3.1v-4.9c0-.1 1.7-.1 1.7-.1v4.8c0 1 .4 1.6 1.4 1.6s1.1-.2 1.5-.6v-5.7c0-.1 1.7-.1 1.7-.1v.1h.2zm2 7.7v-7.6c0-.1 1.5-.1 1.5-.1s.2 0 .2.1v.6c.7-.6 1.5-.9 2.3-.9s2.7.6 2.7 3.2v4.7.1h-1.7v-4.7c0-1.1-.4-1.7-1.4-1.7s-1.2.2-1.6.7v5.6c0 .1-1.7.1-1.7.1 0-.1 0-.1 0-.1h-.2zm8.8 0v-7.6c0-.1 1.7-.1 1.7-.1v7.7c0 .1-1.6.1-1.6.1s-.2 0-.2-.1zm1-8.9c-.7 0-1.1-.4-1.1-1.1s.5-1.1 1.1-1.1 1.1.5 1.1 1.1-.4 1.1-1.1 1.1zm6.9 7.6v1.4c-.4.2-.8.2-1.4.2-1.3 0-2.1-.6-2.1-2.2v-4.2h-1v-1.4c0-.1 1-.1 1-.1 0-.6 0-1.6.2-2 0-.1 1.6-.3 1.6-.3v2.3h1.6v1.5c0 .1-1.6.1-1.6.1v3.8c0 .7.2 1 .9 1h.6.2zm.8-6.5h2c1 3 1.6 4.7 1.8 5.5.5-1.6 1.1-3.3 1.8-5.5h1.8c-1.2 3.6-2.9 8-4.2 10.9 0 0 0 .1-.2.1h-1.7c.5-1 1-2.1 1.5-3.3v-.3c-.4-1.1-2-4.9-2.9-7.4zm-184.7 23.2c0-3.4 1.4-6 2.5-7.3h1.8c-1.7 2.3-2.6 4.5-2.6 7.3s.9 5.1 2.6 7.2c0 .1-1.6.1-1.6.1h-.2c-1.2-1.3-2.5-3.8-2.5-7.3zm6 4.6v-10.2c.6-.1 2-.1 3.1-.1 3.3 0 3.9 1.8 3.9 2.8s-.6 1.8-1 2.1c.6.3 1.5 1 1.5 2.5s-1.7 3.2-4.4 3.2h-3.1zm1.9-4.6v3h1.2c1.5 0 2.5-.5 2.5-1.6s-.3-1.2-1.2-1.4c-.3 0-.7-.1-1.1-.1h-1.5zm0-4.2v2.6h2.7c.3-.3.6-.6.6-1.3s-.7-1.4-2-1.4h-1.3zm13.2 8.9h-6.5s0 0 0-.1v-1.3c.7-.5 1.8-1.3 2.7-2.2 1.6-1.5 1.9-2.4 1.9-3.2s-.5-1.8-1.9-1.8-1.7.3-2.4.7v-1.7c.8-.4 1.7-.7 2.8-.7 2.4 0 3.4 1.5 3.4 3.2s-.4 2.4-1.8 3.7c-.8.8-1.4 1.3-2 1.7h4.2c0 .1-.3 1.5-.3 1.5s0 .1-.2.1h.2-.1zm2.1-.1v-10.2c.6-.1 2-.1 3.1-.1 3.3 0 3.9 1.8 3.9 2.8s-.6 1.8-1 2.1c.6.3 1.5 1 1.5 2.5s-1.7 3.2-4.4 3.2h-3.1zm1.9-4.6v3h1.2c1.5 0 2.5-.5 2.5-1.6s-.3-1.2-1.2-1.4c-.3 0-.7-.1-1.1-.1h-1.5zm0-4.2v2.6h2.7c.3-.3.6-.6.6-1.3s-.7-1.4-2-1.4h-1.3zm15.5-1.8c3.1 0 4.9 2.4 4.9 5.4s-2 5.5-4.9 5.5-5-2.3-5-5.4 2-5.4 5-5.4zm-3 5.4c0 2.1 1.1 3.7 3 3.7s2.9-1.5 2.9-3.7-1.1-3.7-3-3.7-2.9 1.3-2.9 3.7zm12.7-2.7c2.6 0 4 1.8 4 3.8 0 2.9-2.4 4.4-4.8 4.4s-.3 0-.5 0v2.9c-.6.1-1.6.3-1.7.3v-10.5c.7-.2 1.8-.6 3.2-.6v-.3zm-.1 1.6c-.4 0-.8 0-1.1.2v4.7h.6c1.2 0 2.6-.7 2.6-2.6s-.8-2.3-2.1-2.3zm8.9-1.6c2.6 0 4 1.8 4 3.8 0 2.9-2.4 4.4-4.8 4.4s-.3 0-.5 0v2.9c-.6.1-1.6.3-1.7.3v-10.5c.7-.2 1.8-.6 3.2-.6v-.3zm-.2 1.6c-.4 0-.8 0-1.1.2v4.7h.6c1.2 0 2.6-.7 2.6-2.6s-.8-2.3-2.1-2.3zm9.1-1.6c2.5 0 3.8 1.9 3.8 4.1s-1.6 4.1-3.8 4.1-3.9-2.1-3.9-4.1 1.5-4.1 3.9-4.1zm-.1 1.6c-1.1 0-1.8.9-1.8 2.5s.7 2.5 1.9 2.5 1.8-.8 1.8-2.5-.6-2.5-1.9-2.5zm5.5-1.5h1.7c0 .3 0 .7.2 1.1.5-.7 1.5-1.2 2.6-1.2s0 0 0 .1v1.7c-1.1.1-2.1.5-2.4.9v5.2c0 .1-1.7.1-1.7.1v-7.7l-.2-.2zm10 6.5v1.4c-.4.2-.8.2-1.4.2-1.3 0-2.1-.6-2.1-2.2v-4.2h-1v-1.4c0-.1 1-.1 1-.1 0-.6 0-1.6.2-2 0-.1 1.6-.3 1.6-.3v2.3h1.6v1.5c0 .1-1.6.1-1.6.1v3.8c0 .7.2 1 .9 1h.6.2zm7.9-6.4v7.6c0 .1-1.7.1-1.7.1v-.6c-.7.6-1.5.8-2.2.8-1.5 0-2.7-.8-2.7-3.1v-4.9c0-.1 1.7-.1 1.7-.1v4.8c0 1 .4 1.6 1.4 1.6s1.1-.2 1.5-.6v-5.7c0-.1 1.7-.1 1.7-.1v.1h.2zm2.1 7.7v-7.6c0-.1 1.5-.1 1.5-.1s.2 0 .2.1v.6c.7-.6 1.5-.9 2.3-.9s2.7.6 2.7 3.2v4.7c0 .1-1.7.1-1.7.1v-4.7c0-1.1-.4-1.7-1.4-1.7s-1.2.2-1.6.7v5.6c0 .1-1.7.1-1.7.1 0-.1 0-.1 0-.1h-.2zm8.8 0v-7.6c0-.1 1.7-.1 1.7-.1v7.7c0 .1-1.6.1-1.6.1s-.2 0-.2-.1zm1-8.9c-.7 0-1.1-.4-1.1-1.1s.5-1.1 1.1-1.1 1.1.5 1.1 1.1-.4 1.1-1.1 1.1zm6.8 7.6v1.4c-.4.2-.8.2-1.4.2-1.3 0-2.1-.6-2.1-2.2v-4.2h-1v-1.4c0-.1 1-.1 1-.1 0-.6 0-1.6.2-2 0-.1 1.6-.3 1.6-.3v2.3h1.6v1.5c0 .1-1.6.1-1.6.1v3.8c0 .7.2 1 .9 1h.6.2zm.8-6.5h2c1 3 1.6 4.7 1.8 5.5.5-1.6 1.1-3.3 1.8-5.5h1.8c-1.2 3.6-2.9 8-4.2 10.9 0 0 0 .1-.2.1h-1.7c.5-1 1-2.1 1.5-3.3v-.3c-.4-1.1-2-4.9-2.9-7.4zm12.4 7.8v-10.3c0-.1 3-.1 3-.1 3.1 0 4.3 1.7 4.3 3.5s-2 3.6-4.4 3.6h-1v3.3c0 .1-1.7.1-1.7.1 0-.1-.2-.1-.2-.1zm1.9-8.7v3.7h1c1.3 0 2.5-.4 2.5-1.9s-.8-1.9-2.3-1.9-1 0-1.2 0zm11.6 5.3h-3.2c0 1.1.8 2 2.4 2s1.4-.1 2-.4v1.5c-.6.3-1.3.5-2.4.5-2.9 0-4-2-4-4s1.3-4.2 3.8-4.2 3.3 1.9 3.3 3.4v1c-.2.1-.9.1-1.6.1h-.3zm-3.3-1.4h3.3c0-.6-.3-1.6-1.5-1.6s-1.6.8-1.7 1.6zm6.6-3h1.7c0 .3 0 .7.2 1.1.5-.7 1.5-1.2 2.6-1.2s0 0 0 .1v1.7c-1.1.1-2.1.5-2.4.9v5.2c0 .1-1.7.1-1.7.1v-7.7l-.2-.2zm10.4 1.9c-.5-.3-1.3-.5-2-.5s-1.1.4-1.1.7.2.6 1.3 1c1.8.7 2.4 1.4 2.4 2.5s-1.2 2.4-3.2 2.4-1.8-.2-2.3-.4v-1.7c.7.4 1.6.6 2.3.6s1.2-.3 1.2-.7-.3-.7-1.3-1.1c-1.7-.6-2.4-1.4-2.4-2.5s1-2.4 3-2.4 1.6.1 2 .3v1.6l.2.2zm5.5-2c2.5 0 3.8 1.9 3.8 4.1s-1.6 4.1-3.8 4.1-3.9-2.1-3.9-4.1 1.5-4.1 3.9-4.1zm-.1 1.6c-1.1 0-1.8.9-1.8 2.5s.7 2.5 1.9 2.5 1.8-.8 1.8-2.5-.6-2.5-1.9-2.5zm5.4 6.3v-7.6c0-.1 1.5-.1 1.5-.1s.2 0 .2.1v.6c.7-.6 1.5-.9 2.3-.9s2.7.6 2.7 3.2v4.7.1h-1.7v-4.7c0-1.1-.4-1.7-1.4-1.7s-1.2.2-1.6.7v5.6c0 .1-1.7.1-1.7.1 0-.1 0-.1 0-.1h-.2zm14.4.1h-1.6v-10.3c0-.1 3.2-.1 3.2-.1 2.6 0 4.1 1.1 4.1 3.2s-.9 2.4-2.1 2.8c.5.7 2.4 3.6 2.9 4.4v.2h-2.2c-.5-.7-1.6-2.6-2.3-3.7 0-.2-.2-.3-.4-.3h-1.4v3.9-.1zm.1-5.7h1.4c1.3 0 2.1-.6 2.1-1.6s-.8-1.6-2.2-1.6-1.1 0-1.3 0zm11.8 2.2h-3.2c0 1.1.8 2 2.4 2s1.4-.1 2-.4v1.5c-.6.3-1.3.5-2.4.5-2.9 0-4-2-4-4s1.3-4.2 3.8-4.2 3.3 1.9 3.3 3.4v1c-.2.1-.9.1-1.6.1h-.3zm-3.2-1.4h3.3c0-.6-.3-1.6-1.5-1.6s-1.6.8-1.7 1.6zm6.5 3v-9.4c0-.1 1.6-.1 1.6-.1v9.3c0 .5.2.7.6.7h.3v1.4c-.2 0-.5.1-.9.1-1 0-1.9-.4-1.9-2.1h.3zm8.4.3v-2h-.9c-1.3 0-1.8.4-1.8 1.1s.4 1.1 1.6 1.1.8 0 1.1-.2zm1.8-3.3v4.2c-1.3.6-2.2.7-3.3.7-1.7 0-3.1-.8-3.1-2.6s1.5-2.5 3.6-2.5h1v-.2c0-.4-.2-1.2-1.6-1.2s-1.5.2-2.1.4v-1.6c.7-.3 1.6-.5 2.4-.5 2.2 0 3.2 1.4 3.2 3.2h-.1zm5.7 3.5v1.4c-.4.2-.8.2-1.4.2-1.3 0-2.1-.6-2.1-2.2v-4.2h-1v-1.4c0-.1 1-.1 1-.1 0-.6 0-1.6.2-2 0-.1 1.6-.3 1.6-.3v2.3h1.6v1.5c0 .1-1.6.1-1.6.1v3.8c0 .7.2 1 .9 1h.6.2zm1.4 1.3v-7.6c0-.1 1.7-.1 1.7-.1v7.7c0 .1-1.6.1-1.6.1s-.2 0-.2-.1zm1-8.9c-.7 0-1.1-.4-1.1-1.1s.5-1.1 1.1-1.1 1.1.5 1.1 1.1-.4 1.1-1.1 1.1zm6.4 1c2.5 0 3.8 1.9 3.8 4.1s-1.6 4.1-3.8 4.1-3.9-2.1-3.9-4.1 1.5-4.1 3.9-4.1zm-.1 1.6c-1.1 0-1.8.9-1.8 2.5s.7 2.5 1.9 2.5 1.8-.8 1.8-2.5-.6-2.5-1.9-2.5zm5.4 6.3v-7.6c0-.1 1.5-.1 1.5-.1s.2 0 .2.1v.6c.7-.6 1.5-.9 2.3-.9s2.7.6 2.7 3.2v4.7c0 .1-1.7.1-1.7.1v-4.7c0-1.1-.4-1.7-1.4-1.7s-1.2.2-1.6.7v5.6c0 .1-1.7.1-1.7.1 0-.1 0-.1 0-.1h-.2zm12.2-4.6c0 3.5-1.4 5.9-2.5 7.3h-1.8c1.7-2.3 2.6-4.5 2.6-7.3s-.9-5.1-2.6-7.2c0-.1 1.6-.1 1.6-.1h.2c1.2 1.4 2.5 3.8 2.5 7.3z" fill="#fdfdfd"/><path d="m535.7 497h-251.4c-2.375 0-4.3 1.925-4.3 4.3v51.4c0 2.375 1.925 4.3 4.3 4.3h251.4c2.375 0 4.3-1.925 4.3-4.3v-51.4c0-2.375-1.925-4.3-4.3-4.3z" fill="#f68511"/><path d="m328.9 522.9v-10.3h3.1c3.1 0 4.3 1.7 4.3 3.5s-2 3.6-4.4 3.6h-1v3.3h-2zm1.9-8.7v3.7h1c1.3 0 2.5-.4 2.5-1.9s-.8-1.9-2.3-1.9-1 0-1.2 0zm11.6 5.3h-3.2c0 1.1.8 2 2.4 2s1.4 0 2-.4v1.5c-.6.3-1.3.5-2.4.5-2.9 0-4-2-4-4s1.3-4.2 3.8-4.2 3.3 1.9 3.3 3.4v1h-1.9zm-3.3-1.4h3.3c0-.6-.3-1.6-1.5-1.6s-1.6.8-1.7 1.6zm6.6-3h1.7c0 .2.1.6.2 1 .5-.7 1.5-1.2 2.6-1.2h.1v1.7h-.1c-1.1 0-2.1.4-2.4.8v5.2h-1.9v-7.6l-.2-.2zm10.4 1.9c-.5-.3-1.3-.5-2-.5s-1.1.4-1.1.7.2.6 1.3 1c1.8.7 2.4 1.4 2.4 2.5s-1.2 2.4-3.2 2.4-1.8-.2-2.3-.4c0 0-.1 0-.1-.2v-1.5h.1c.7.4 1.6.6 2.3.6s1.2-.3 1.2-.7-.3-.7-1.3-1.1c-1.7-.6-2.4-1.4-2.4-2.5s1-2.4 3-2.4 1.6 0 2 .3v1.6h-.1zm5.4-2c2.5 0 3.8 1.9 3.8 4.1s-1.6 4.1-3.8 4.1-3.9-2.1-3.9-4.1 1.5-4.1 3.9-4.1zm0 1.6c-1.1 0-1.8.9-1.8 2.5s.7 2.5 1.9 2.5 1.8-.8 1.8-2.5-.6-2.5-1.9-2.5zm5.4 6.3v-7.6h1.8s0 .4.1.6c.7-.6 1.5-.9 2.3-.9s2.7.6 2.7 3.2v4.7h-1.9v-4.6c0-1.1-.4-1.7-1.4-1.7s-1.2.2-1.6.7v5.6zm16.2-1.3v1.4c-.4.2-.8.2-1.4.2-1.3 0-2.1-.6-2.1-2.2v-4.2h-1.1v-1.3h1.1c0-.6 0-1.6.2-2h.1l1.6-.2h.1v2.3h1.7v1.4h-1.7v3.8c0 .7.2 1 .9 1h.6zm4.7-6.6c2.5 0 3.8 1.9 3.8 4.1s-1.6 4.1-3.8 4.1-3.9-2.1-3.9-4.1 1.5-4.1 3.9-4.1zm-.1 1.6c-1.1 0-1.8.9-1.8 2.5s.7 2.5 1.9 2.5 1.8-.8 1.8-2.5-.6-2.5-1.9-2.5zm9.6-4h2.9c.5 1.6 1.9 6.4 2.2 7.9.3-1.4 1.9-6.2 2.4-7.9h2.7l.4 10.3h-2c0-3.4-.1-8 0-9-.4 1.5-2 6.9-2.7 9 0 0 0 0-.1 0h-1.8c-.7-2.4-2-7.1-2.4-9 0 1.6-.1 5.7-.3 9h-1.8l.6-10.3zm16.7 8.8v-2h-.9c-1.3 0-1.8.4-1.8 1.1s.4 1.1 1.6 1.1.8 0 1.1-.2zm1.9-3.3v4.2c-1.3.6-2.2.7-3.3.7-1.7 0-3.1-.8-3.1-2.6s1.5-2.5 3.6-2.5h1v-.2c0-.4-.2-1.2-1.6-1.2s-1.5.2-2.1.4h-.1v-1.6c.7-.3 1.6-.5 2.4-.5 2.2 0 3.2 1.4 3.2 3.2zm2-3h1.7c0 .2.1.6.2 1 .5-.7 1.5-1.2 2.6-1.2h.1v1.7h-.1c-1.1 0-2.1.4-2.4.8v5.2h-1.9v-7.6l-.2-.2zm10.8 0h1.8c-.5.6-2.6 2.8-3.2 3.4 1 1.1 2.6 3 3.6 4.1h-2.4c-.6-.7-2.2-2.6-2.9-3.5v3.5h-1.9v-11.1s0-.1.1-.1h1.7s.1 0 .1.1v6.8c.8-.9 2.5-2.9 2.9-3.3h.2zm7.6 4.4h-3.2c0 1.1.8 2 2.4 2s1.4 0 2-.4v1.5c-.6.3-1.3.5-2.4.5-2.9 0-4-2-4-4s1.3-4.2 3.8-4.2 3.3 1.9 3.3 3.4v1h-1.9zm-3.2-1.4h3.3c0-.6-.3-1.6-1.5-1.6s-1.6.8-1.7 1.6zm10.5 3.5v1.4c-.4.2-.8.2-1.4.2-1.3 0-2.1-.6-2.1-2.2v-4.2h-1.1v-1.3h1.1c0-.6 0-1.6.2-2h.1l1.6-.2h.1v2.3h1.7v1.4h-1.7v3.8c0 .7.2 1 .9 1h.6zm1.4 1.3v-7.6h1.9v7.6zm1-8.9c-.7 0-1.1-.4-1.1-1.1s.5-1.1 1.1-1.1 1.1.5 1.1 1.1-.4 1.1-1.1 1.1zm2.9 8.9v-7.6h1.8s0 .4.1.6c.7-.6 1.5-.9 2.3-.9s2.7.6 2.7 3.2v4.7h-1.9v-4.6c0-1.1-.4-1.7-1.4-1.7s-1.2.2-1.6.7v5.6zm12.2.1h-1.7c-.5.2-.8.8-.8 1 0 .6.8 1.2 2.1 1.2s2.2-.6 2.2-1.2-.8-.9-1.8-.9zm-.8-6.7c-.8 0-1.3.5-1.3 1.3s.4 1.3 1.3 1.3 1.3-.5 1.3-1.2-.4-1.3-1.3-1.3zm-.4 5h1.6c2.2.2 3.1 1 3.1 2.4s-1.6 2.9-4.1 2.9-3.7-1.3-3.7-2.5.4-1.2 1.5-2.1c-.2-.4-.4-.8-.3-1.2 0-.4 0-.7.3-1-.7-.4-1.1-1.1-1.1-2.1 0-1.5 1.2-2.7 3.2-2.7h1.4 2.6v1.3h-1.2c.2.3.4.6.4 1.2 0 1.7-1.4 2.6-3.1 2.6s-.4 0-.6 0v.5c0 .2 0 .3.2.5h-.2zm16 1.7h-6.2c-.1 0-.2 0-.2-.2v-10.2h1.8v8.8h4.8l-.3 1.5h-.1.2zm1.7-.1v-7.6h1.9v7.6zm.9-8.9c-.7 0-1.1-.4-1.1-1.1s.5-1.1 1.1-1.1 1.1.5 1.1 1.1-.4 1.1-1.1 1.1zm7.6 3c-.5-.3-1.3-.5-2-.5s-1.1.4-1.1.7.2.6 1.3 1c1.8.7 2.4 1.4 2.4 2.5s-1.2 2.4-3.2 2.4-1.8-.2-2.3-.4c0 0-.1 0-.1-.2v-1.5h.1c.7.4 1.6.6 2.3.6s1.2-.3 1.2-.7-.3-.7-1.3-1.1c-1.7-.6-2.4-1.4-2.4-2.5s1-2.4 3-2.4 1.6 0 2 .3v1.6h-.1zm5.9 4.6v1.4c-.4.2-.8.2-1.4.2-1.3 0-2.1-.6-2.1-2.2v-4.2h-1.1v-1.3h1.1c0-.6 0-1.6.2-2h.1l1.6-.2h.1v2.3h1.7v1.4h-1.7v3.8c0 .7.2 1 .9 1h.6zm-180.5 16.7c0-3.4 1.4-6 2.5-7.3h1.8c-1.7 2.2-2.6 4.4-2.6 7.2s.9 5.1 2.6 7.2h-1.8c-1.2-1.3-2.5-3.8-2.5-7.3zm5.9 4.6v-10.2h3.1c3.3 0 3.9 1.8 3.9 2.8s-.6 1.8-1 2.1c.6.3 1.5 1 1.5 2.5s-1.7 3.2-4.4 3.2h-3.2v-.4zm1.9-4.6v3h1.2c1.5 0 2.5-.5 2.5-1.6s-.3-1.2-1.2-1.4h-2.6zm0-4.2v2.6h2.7c.3-.3.6-.6.6-1.3s-.7-1.4-2-1.4h-1.3zm13.3 8.9h-6.6v-1.3c.7-.5 1.8-1.3 2.7-2.2 1.6-1.5 1.9-2.4 1.9-3.2s-.5-1.8-1.9-1.8-1.7.3-2.4.7h-.1v-1.7c.8-.4 1.7-.7 2.8-.7 2.4 0 3.4 1.5 3.4 3.2s-.4 2.4-1.8 3.7c-.8.8-1.4 1.3-2 1.7h4.3l-.3 1.4zm2.1-.1v-10.2h3.1c3.3 0 3.9 1.8 3.9 2.8s-.6 1.8-1 2.1c.6.3 1.5 1 1.5 2.5s-1.7 3.2-4.4 3.2h-3.2v-.4zm1.9-4.6v3h1.2c1.5 0 2.5-.5 2.5-1.6s-.3-1.2-1.2-1.4h-2.6zm0-4.2v2.6h2.7c.3-.3.6-.6.6-1.3s-.7-1.4-2-1.4h-1.3zm11.5-1.5h2.9c.5 1.6 1.9 6.4 2.2 7.9.3-1.4 1.9-6.2 2.4-7.9h2.7l.4 10.3h-2c0-3.4-.1-8 0-9-.4 1.5-2 6.9-2.7 9h-1.9c-.7-2.4-2-7.1-2.4-9 0 1.6-.1 5.7-.3 9h-1.8l.6-10.3zm16.7 8.8v-2h-.9c-1.3 0-1.8.4-1.8 1.1s.4 1.1 1.6 1.1.8 0 1.1-.2zm1.9-3.3v4.2c-1.3.6-2.2.7-3.3.7-1.7 0-3.1-.8-3.1-2.6s1.5-2.5 3.6-2.5h1v-.2c0-.4-.2-1.2-1.6-1.2s-1.5.2-2.1.4h-.1v-1.6c.7-.3 1.6-.5 2.4-.5 2.2 0 3.2 1.4 3.2 3.2zm2-3h1.7c0 .2.1.6.2 1 .5-.7 1.5-1.2 2.6-1.2h.1v1.7h-.1c-1.1 0-2.1.4-2.4.8v5.2h-1.9v-7.6l-.2-.2zm10.7 0h1.8c-.5.6-2.6 2.8-3.2 3.4 1 1.1 2.6 3 3.6 4.1h-2.4c-.6-.7-2.2-2.6-2.9-3.5v3.5h-1.9v-11.1h1.9v6.8c.8-.9 2.5-2.9 2.9-3.3h.2zm7.7 4.4h-3.2c0 1.1.8 2 2.4 2s1.4 0 2-.4v1.5c-.6.3-1.3.5-2.4.5-2.9 0-4-2-4-4s1.3-4.2 3.8-4.2 3.3 1.9 3.3 3.4v1h-1.9zm-3.3-1.4h3.3c0-.6-.3-1.6-1.5-1.6s-1.6.8-1.7 1.6zm10.5 3.5v1.4c-.4.2-.8.2-1.4.2-1.3 0-2.1-.6-2.1-2.2v-4.2h-1.1v-1.3h1.1c0-.6 0-1.6.2-2h.1l1.6-.2h.1v2.3h1.7v1.4h-1.7v3.8c0 .7.2 1 .9 1h.6zm1.5 1.3v-7.6h1.9v7.6zm.9-8.9c-.7 0-1.1-.4-1.1-1.1s.5-1.1 1.1-1.1 1.1.5 1.1 1.1-.4 1.1-1.1 1.1zm3 8.9v-7.6h1.8s0 .4.1.6c.7-.6 1.5-.9 2.3-.9s2.7.6 2.7 3.2v4.7h-1.9v-4.6c0-1.1-.4-1.7-1.4-1.7s-1.2.2-1.6.7v5.6zm12.2.1h-1.7c-.5.2-.8.8-.8 1 0 .6.8 1.2 2.1 1.2s2.2-.6 2.2-1.2-.8-.9-1.8-.9zm-.8-6.7c-.8 0-1.3.5-1.3 1.3s.4 1.3 1.3 1.3 1.3-.5 1.3-1.2-.4-1.3-1.3-1.3zm-.4 5h1.6c2.2.2 3.1 1 3.1 2.4s-1.6 2.9-4.1 2.9-3.7-1.3-3.7-2.5.4-1.2 1.5-2.1c-.2-.4-.4-.8-.3-1.2 0-.4 0-.7.3-1-.7-.4-1.1-1.1-1.1-2.1 0-1.5 1.2-2.7 3.2-2.7h1.4 2.6v1.3h-1.2c.2.3.4.6.4 1.2 0 1.7-1.4 2.6-3.1 2.6s-.4 0-.6 0v.5c0 .2 0 .3.2.5h-.2zm15.9 1.7h-6.2c-.1 0-.2 0-.2-.2v-10.2h1.8v8.8h4.8l-.3 1.5h-.1.2zm1.7-.1v-7.6h1.9v7.6zm1-8.9c-.7 0-1.1-.4-1.1-1.1s.5-1.1 1.1-1.1 1.1.5 1.1 1.1-.4 1.1-1.1 1.1zm7.6 3c-.5-.3-1.3-.5-2-.5s-1.1.4-1.1.7.2.6 1.3 1c1.8.7 2.4 1.4 2.4 2.5s-1.2 2.4-3.2 2.4-1.8-.2-2.3-.4c0 0-.1 0-.1-.2v-1.5h.1c.7.4 1.6.6 2.3.6s1.2-.3 1.2-.7-.3-.7-1.3-1.1c-1.7-.6-2.4-1.4-2.4-2.5s1-2.4 3-2.4 1.6 0 2 .3v1.6h-.1zm5.8 4.6v1.4c-.4.2-.8.2-1.4.2-1.3 0-2.1-.6-2.1-2.2v-4.2h-1.1v-1.3h1.1c0-.6 0-1.6.2-2h.1l1.6-.2h.1v2.3h1.7v1.4h-1.7v3.8c0 .7.2 1 .9 1h.6zm5.6-9h2.9c.5 1.6 1.9 6.4 2.2 7.9.3-1.4 1.9-6.2 2.4-7.9h2.7l.4 10.3h-2c0-3.4-.1-8 0-9-.4 1.5-2 6.9-2.7 9 0 0 0 0-.1 0h-1.8c-.7-2.4-2-7.1-2.4-9 0 1.6-.1 5.7-.3 9h-1.8l.6-10.3zm17.3 6.9h-3.2c0 1.1.8 2 2.4 2s1.4 0 2-.4v1.5c-.6.3-1.3.5-2.4.5-2.9 0-4-2-4-4s1.3-4.2 3.8-4.2 3.3 1.9 3.3 3.4v1h-1.9zm-3.3-1.4h3.3c0-.6-.3-1.6-1.5-1.6s-1.6.8-1.7 1.6zm8.4 4.9h-1.8v-7.6h1.8v.6c.8-.6 1.5-.9 2.3-.9s1.6.4 2.1 1.1c.7-.6 1.5-1.1 2.6-1.1s2.7.7 2.7 3.1v4.8h-1.8v-4.6c0-.9-.4-1.6-1.3-1.6s-1.2.3-1.6.7v5.6h-1.9v-4.7c0-1.1-.5-1.6-1.3-1.6s-1 .2-1.5.6v5.6zm11.8-11.4h1.8v3.4c.4 0 .9-.2 1.5-.2 2.3 0 3.8 1.6 3.8 3.8s-2.3 4.4-4.7 4.4-1.6 0-2.4-.4h-.1v-10.9h.1zm5.2 7.3c0-1.5-.9-2.3-2.1-2.3s-.9 0-1.1.2v4.7h.7c1.3 0 2.5-.8 2.5-2.6zm8.3.6h-3.2c0 1.1.8 2 2.4 2s1.4 0 2-.4v1.5c-.6.3-1.3.5-2.4.5-2.9 0-4-2-4-4s1.3-4.2 3.8-4.2 3.3 1.9 3.3 3.4v1h-1.9zm-3.3-1.4h3.3c0-.6-.3-1.6-1.5-1.6s-1.6.8-1.7 1.6zm6.6-3h1.7c0 .2.1.6.2 1 .5-.7 1.5-1.2 2.6-1.2h.1v1.7h-.1c-1.1 0-2.1.4-2.4.8v5.2h-1.9v-7.6l-.2-.2zm9.3 3.2c0 3.5-1.4 5.9-2.5 7.3h-1.8c1.7-2.2 2.6-4.4 2.6-7.2s-.9-5.1-2.6-7.2h1.8c1.2 1.4 2.5 3.8 2.5 7.3z" fill="#fdfdfd"/><path d="m995.7 497h-251.4c-2.375 0-4.3 1.925-4.3 4.3v51.4c0 2.375 1.925 4.3 4.3 4.3h251.4c2.375 0 4.3-1.925 4.3-4.3v-51.4c0-2.375-1.925-4.3-4.3-4.3z" fill="#f68511"/><path d="m803.1 522.9v-10.3h3c3.1 0 4.3 1.7 4.3 3.5s-2 3.6-4.4 3.6h-1v3.3h-1.9zm2-8.7v3.7h1c1.3 0 2.5-.4 2.5-1.9s-.8-1.9-2.3-1.9-1 0-1.2 0zm11.5 5.3h-3.2c0 1.1.8 2 2.4 2s1.4 0 2-.4v1.5c-.6.3-1.3.5-2.4.5-2.9 0-4-2-4-4s1.3-4.2 3.8-4.2 3.3 1.9 3.3 3.4v1h-1.8v.2zm-3.2-1.4h3.3c0-.6-.3-1.6-1.5-1.6s-1.6.8-1.7 1.6zm6.6-3h1.7c0 .2 0 .6.2 1 .5-.7 1.5-1.2 2.6-1.2v1.7c-1.1 0-2.1.4-2.4.8v5.2h-1.7v-7.6l-.2-.2zm10.3 1.9c-.5-.3-1.3-.5-2-.5s-1.1.4-1.1.7.2.6 1.3 1c1.8.7 2.4 1.4 2.4 2.5s-1.2 2.4-3.2 2.4-1.8-.2-2.3-.4v-1.7c.7.4 1.6.6 2.3.6s1.2-.3 1.2-.7-.3-.7-1.3-1.1c-1.7-.6-2.4-1.4-2.4-2.5s1-2.4 3-2.4 1.6 0 2 .3v1.6l.2.2zm5.5-2c2.5 0 3.8 1.9 3.8 4.1s-1.6 4.1-3.8 4.1-3.9-2.1-3.9-4.1 1.5-4.1 3.9-4.1zm-.1 1.6c-1.1 0-1.8.9-1.8 2.5s.7 2.5 1.9 2.5 1.8-.8 1.8-2.5-.6-2.5-1.9-2.5zm5.4 6.3v-7.6h1.7v.6c.7-.6 1.5-.9 2.3-.9s2.7.6 2.7 3.2v4.7h-1.7v-4.6c0-1.1-.4-1.7-1.4-1.7s-1.2.2-1.6.7v5.6zm16.2-1.3v1.4c-.4.2-.8.2-1.4.2-1.3 0-2.1-.6-2.1-2.2v-4.2h-1v-1.3h1c0-.6 0-1.6.2-2l1.6-.2v2.3h1.6v1.4h-1.6v3.8c0 .7.2 1 .9 1h.6zm4.7-6.6c2.5 0 3.8 1.9 3.8 4.1s-1.6 4.1-3.8 4.1-3.9-2.1-3.9-4.1 1.5-4.1 3.9-4.1zm-.1 1.6c-1.1 0-1.8.9-1.8 2.5s.7 2.5 1.9 2.5 1.8-.8 1.8-2.5-.6-2.5-1.9-2.5zm16.5 4.6v1.6c-.5.2-1.3.3-2.2.3-3 0-5.5-1.7-5.5-5.4s2.2-5.4 5.7-5.4 1.7 0 2.1.3v1.7c-.5-.2-1.2-.4-2.1-.4-2.3 0-3.7 1.4-3.7 3.7s2 3.7 3.7 3.7 1.4 0 2-.3zm5.7.2v-2h-.9c-1.3 0-1.8.4-1.8 1.1s.4 1.1 1.6 1.1.8 0 1.1-.2zm1.9-3.3v4.2c-1.3.6-2.2.7-3.3.7-1.7 0-3.1-.8-3.1-2.6s1.5-2.5 3.6-2.5h1v-.2c0-.4-.2-1.2-1.6-1.2s-1.5.2-2.1.4v-1.6c.7-.3 1.6-.5 2.4-.5 2.2 0 3.2 1.4 3.2 3.2h-.1zm3.8 4.9h-1.7v-7.6h1.7v.6c.8-.6 1.5-.9 2.3-.9s1.6.4 2.1 1.1c.7-.6 1.5-1.1 2.6-1.1s2.7.7 2.7 3.1v4.8h-1.6v-4.6c0-.9-.4-1.6-1.3-1.6s-1.2.3-1.6.7v5.6h-1.7v-4.7c0-1.1-.5-1.6-1.3-1.6s-1 .2-1.5.6v5.6zm15-8c2.6 0 4 1.8 4 3.8 0 2.9-2.4 4.4-4.8 4.4s-.3 0-.5 0v2.9c-.6 0-1.6.2-1.7.2v-10.5c.7-.2 1.8-.6 3.2-.6v-.3h-.2zm-.2 1.6c-.4 0-.8 0-1.1.2v4.7h.6c1.2 0 2.6-.7 2.6-2.6s-.8-2.3-2.1-2.3zm9.8 4.8v-2h-.9c-1.3 0-1.8.4-1.8 1.1s.4 1.1 1.6 1.1.8 0 1.1-.2zm1.8-3.3v4.2c-1.3.6-2.2.7-3.3.7-1.7 0-3.1-.8-3.1-2.6s1.5-2.5 3.6-2.5h1v-.2c0-.4-.2-1.2-1.6-1.2s-1.5.2-2.1.4v-1.6c.7-.3 1.6-.5 2.4-.5 2.2 0 3.2 1.4 3.2 3.2h-.1zm2 4.8v-7.6h1.7v7.6h-1.8zm1-8.9c-.7 0-1.1-.4-1.1-1.1s.5-1.1 1.1-1.1 1.1.5 1.1 1.1-.4 1.1-1.1 1.1zm6.5 9h-1.7c-.5.2-.8.8-.8 1 0 .6.8 1.2 2.1 1.2s2.2-.6 2.2-1.2-.8-.9-1.8-.9zm-.8-6.7c-.8 0-1.3.5-1.3 1.3s.4 1.3 1.3 1.3 1.3-.5 1.3-1.2-.4-1.3-1.3-1.3zm-.5 5h1.6c2.2.2 3.1 1 3.1 2.4s-1.6 2.9-4.1 2.9-3.7-1.3-3.7-2.5.4-1.2 1.5-2.1c-.2-.4-.4-.8-.3-1.2 0-.4 0-.7.3-1-.7-.4-1.1-1.1-1.1-2.1 0-1.5 1.2-2.7 3.2-2.7h1.4 2.6v1.3h-1.2c.2.3.4.6.4 1.2 0 1.7-1.4 2.6-3.1 2.6s-.4 0-.6 0v.5c0 .2 0 .3.2.5h-.2zm5.8 1.6v-7.6h1.7v.6c.7-.6 1.5-.9 2.3-.9s2.7.6 2.7 3.2v4.7h-1.7v-4.6c0-1.1-.4-1.7-1.4-1.7s-1.2.2-1.6.7v5.6zm-143.7 15.4c0-3.4 1.4-6 2.5-7.3h1.8c-1.7 2.2-2.6 4.4-2.6 7.2s.9 5.1 2.6 7.2h-1.8c-1.2-1.3-2.5-3.8-2.5-7.3zm6 4.6v-10.2h3.1c3.3 0 3.9 1.8 3.9 2.8s-.6 1.8-1 2.1c.6.3 1.5 1 1.5 2.5s-1.7 3.2-4.4 3.2h-3.1zm1.9-4.6v3h1.2c1.5 0 2.5-.5 2.5-1.6s-.3-1.2-1.2-1.4h-2.6zm0-4.2v2.6h2.7c.3-.3.6-.6.6-1.3s-.7-1.4-2-1.4h-1.3zm13.2 8.9h-6.5v-1.3c.7-.5 1.8-1.3 2.7-2.2 1.6-1.5 1.9-2.4 1.9-3.2s-.5-1.8-1.9-1.8-1.7.3-2.4.7v-1.7c.8-.4 1.7-.7 2.8-.7 2.4 0 3.4 1.5 3.4 3.2s-.4 2.4-1.8 3.7c-.8.8-1.4 1.3-2 1.7h4.2l-.3 1.4v.2zm2.1-.1v-10.2h3.1c3.3 0 3.9 1.8 3.9 2.8s-.6 1.8-1 2.1c.6.3 1.5 1 1.5 2.5s-1.7 3.2-4.4 3.2h-3.1zm1.9-4.6v3h1.2c1.5 0 2.5-.5 2.5-1.6s-.3-1.2-1.2-1.4h-2.6zm0-4.2v2.6h2.7c.3-.3.6-.6.6-1.3s-.7-1.4-2-1.4h-1.3zm128.7-2.4h1.6z" fill="#fdfdfd"/><path d="m1175.7 372h-191.4c-2.375 0-4.3 1.925-4.3 4.3v51.4c0 2.375 1.925 4.3 4.3 4.3h191.4c2.37 0 4.3-1.925 4.3-4.3v-51.4c0-2.375-1.93-4.3-4.3-4.3z" fill="#4046ca"/><path d="m1057.7 397.9v-10.3c0-.1 3-.1 3-.1 3.1 0 4.3 1.7 4.3 3.5s-2 3.6-4.4 3.6h-1v3.3c0 .1-1.7.1-1.7.1 0-.1 0-.1 0-.1h-.1zm1.9-8.7v3.7h1c1.3 0 2.5-.4 2.5-1.9s-.8-1.9-2.3-1.9-1 0-1.2 0zm11.6 5.3h-3.2c0 1.1.8 2 2.4 2s1.4-.1 2-.4v1.5c-.6.3-1.3.5-2.4.5-2.9 0-4-2-4-4s1.3-4.2 3.8-4.2 3.3 1.9 3.3 3.4v1c-.2.1-.9.1-1.7.1h-.2zm-3.2-1.4h3.3c0-.6-.3-1.6-1.5-1.6s-1.6.8-1.7 1.6zm6.6-3h1.7c0 .3 0 .7.2 1.1.5-.7 1.4-1.2 2.6-1.2s0 0 0 .1v1.7c-1.1.1-2.1.5-2.5.9v5.2c0 .1-1.7.1-1.7.1s-.2 0-.2-.1v-7.6-.2zm10.3 1.9c-.5-.3-1.3-.5-2-.5s-1.1.4-1.1.7.2.6 1.3 1c1.8.7 2.4 1.4 2.4 2.5s-1.2 2.4-3.1 2.4-1.8-.2-2.2-.4v-1.7c.7.4 1.6.6 2.3.6s1.2-.3 1.2-.7-.3-.7-1.3-1.1c-1.8-.6-2.4-1.4-2.4-2.5s1-2.4 3-2.4 1.6.1 2 .3v1.6.2zm5.5-2c2.5 0 3.8 1.9 3.8 4.1s-1.6 4.1-3.8 4.1-3.9-2.1-3.9-4.1 1.5-4.1 3.9-4.1zm-.1 1.6c-1.1 0-1.8.9-1.8 2.5s.7 2.5 1.9 2.5 1.8-.8 1.8-2.5-.6-2.5-1.9-2.5zm5.4 6.3v-7.6c0-.1 1.5-.1 1.5-.1s.2 0 .2.1v.6c.7-.6 1.5-.9 2.3-.9s2.7.6 2.7 3.2v4.7c0 .1-1.7.1-1.7.1v-4.7c0-1.1-.5-1.7-1.4-1.7s-1.2.2-1.6.7v5.6c0 .1-1.7.1-1.7.1 0-.1 0-.1 0-.1h-.2zm-58.8 15.4c0-3.4 1.4-6 2.5-7.3h1.8c-1.7 2.3-2.6 4.5-2.6 7.3s.9 5.1 2.6 7.2c0 .1-1.6.1-1.6.1h-.2c-1.2-1.3-2.5-3.8-2.5-7.3zm5.9 4.6v-10.2c.6-.1 2-.1 3.1-.1 3.3 0 3.8 1.8 3.8 2.8s-.6 1.8-1 2.1c.6.3 1.5 1 1.5 2.5s-1.7 3.2-4.4 3.2h-3.1c0-.1.2-.3.2-.3zm1.9-4.6v3h1.2c1.5 0 2.5-.5 2.5-1.6s-.3-1.2-1.2-1.4c-.3 0-.7-.1-1.1-.1h-1.5zm0-4.2v2.6h2.6c.3-.3.6-.6.6-1.3s-.7-1.4-2-1.4h-1.3.1zm13.2 8.9h-6.5v-1.4c.7-.5 1.8-1.3 2.7-2.2 1.6-1.5 1.9-2.4 1.9-3.2s-.5-1.8-1.9-1.8-1.7.3-2.4.7v-1.7c.8-.4 1.7-.7 2.8-.7 2.4 0 3.4 1.5 3.4 3.2s-.4 2.4-1.8 3.7c-.8.8-1.4 1.3-2 1.7h4.1s.2 0 0 .1l-.3 1.4s0 .1-.2.1h.3zm2.1-.1v-10.2c.6-.1 2-.1 3.1-.1 3.3 0 3.8 1.8 3.8 2.8s-.6 1.8-1 2.1c.6.3 1.5 1 1.5 2.5s-1.7 3.2-4.4 3.2h-3.1c0-.1.2-.3.2-.3zm1.9-4.6v3h1.2c1.5 0 2.5-.5 2.5-1.6s-.3-1.2-1.2-1.4c-.3 0-.7-.1-1.1-.1h-1.5zm0-4.2v2.6h2.6c.3-.3.6-.6.6-1.3s-.7-1.4-2-1.4h-1.3.1zm11.1 8.8v-10.3c0-.1 3-.1 3-.1 3.1 0 4.3 1.7 4.3 3.5s-2 3.6-4.4 3.6h-1v3.3c0 .1-1.7.1-1.7.1 0-.1 0-.1 0-.1h-.1zm1.9-8.7v3.7h1c1.3 0 2.5-.4 2.5-1.9s-.8-1.9-2.3-1.9-1 0-1.2 0zm11.6 5.3h-3.2c0 1.1.8 2 2.4 2s1.4-.1 2-.4v1.5c-.6.3-1.3.5-2.4.5-2.9 0-3.9-2-3.9-4s1.3-4.2 3.8-4.2 3.3 1.9 3.3 3.4v1c-.2.1-.9.1-1.7.1h-.3zm-3.2-1.4h3.3c0-.6-.3-1.6-1.5-1.6s-1.6.8-1.7 1.6zm6.5-3h1.7c0 .3.2.7.2 1.1.6-.7 1.5-1.2 2.6-1.2s0 0 0 .1v1.7c-1.1.1-2.1.5-2.4.9v5.2s0 .1-.2.1h-1.7v-7.7-.2zm10.4 1.9c-.5-.3-1.3-.5-2-.5s-1.1.4-1.1.7.2.6 1.3 1c1.8.7 2.4 1.4 2.4 2.5s-1.2 2.4-3.2 2.4-1.8-.2-2.3-.4v-1.7c.7.4 1.6.6 2.3.6s1.2-.3 1.2-.7-.3-.7-1.3-1.1c-1.7-.6-2.4-1.4-2.4-2.5s1-2.4 3-2.4 1.6.1 2 .3v1.6l.2.2zm5.5-2c2.5 0 3.8 1.9 3.8 4.1s-1.6 4.1-3.8 4.1-3.8-2.1-3.8-4.1 1.5-4.1 3.9-4.1zm-.1 1.6c-1.1 0-1.8.9-1.8 2.5s.7 2.5 1.9 2.5 1.8-.8 1.8-2.5-.6-2.5-1.9-2.5zm5.4 6.3v-7.6c0-.1 1.5-.1 1.5-.1s.2 0 .2.1v.6c.7-.6 1.5-.9 2.3-.9s2.7.6 2.7 3.2v4.7c0 .1-1.7.1-1.7.1v-4.7c0-1.1-.4-1.7-1.4-1.7s-1.2.2-1.5.7v5.6c0 .1-1.7.1-1.7.1 0-.1-.2-.1-.2-.1zm12.2-4.6c0 3.5-1.4 5.9-2.5 7.3h-1.8c1.7-2.3 2.6-4.5 2.6-7.3s-.9-5.1-2.6-7.2c0-.1 1.6-.1 1.6-.1h.2c1.2 1.4 2.5 3.8 2.5 7.3z" fill="#fdfdfd"/><path d="m295.7 126h-191.4c-2.375 0-4.3 1.925-4.3 4.3v51.4c0 2.375 1.925 4.3 4.3 4.3h191.4c2.375 0 4.3-1.925 4.3-4.3v-51.4c0-2.375-1.925-4.3-4.3-4.3z" fill="#de3d82"/><path d="m177.4 149.2h-3.8l-.9 2.6s0 .1-.2.1h-1.6s-.1 0-.1-.2l3.3-9.4c0-.2.1-.3.1-.9 0-.1 2.2-.1 2.2-.1h.1l3.7 10.3c0 .1-1.8.1-1.8.1h-.2l-.9-2.7v.2zm-3.3-1.7h2.8c-.3-1.1-1.1-3.3-1.4-4.4-.3 1.1-.9 2.9-1.4 4.4zm12.9 2.9v1.4c-.5.3-1.2.4-1.8.4-2.6 0-4.1-1.8-4.1-4.1s1.8-4.1 4.4-4.1 1.2 0 1.5.2v1.6s0 0-.1 0c-.3-.1-.8-.2-1.4-.2-1.5 0-2.5.9-2.5 2.4s1.3 2.4 2.5 2.4 1.1 0 1.4-.2h.1zm6.9 0v1.4c-.5.3-1.2.4-1.8.4-2.6 0-4.1-1.8-4.1-4.1s1.8-4.1 4.4-4.1 1.2 0 1.5.2v1.6s0 0-.1 0c-.3-.1-.8-.2-1.4-.2-1.5 0-2.5.9-2.5 2.4s1.3 2.4 2.5 2.4 1.1 0 1.4-.2h.1zm4.8-6.4c2.5 0 3.8 1.9 3.8 4.1s-1.6 4.1-3.8 4.1-3.9-2.1-3.9-4.1 1.5-4.1 3.9-4.1zm-.1 1.6c-1.1 0-1.8.9-1.8 2.5s.7 2.5 1.9 2.5 1.8-.8 1.8-2.5-.6-2.5-1.9-2.5zm12.1-1.4v7.6s0 .1-.1.1h-1.7c0-.2 0-.4-.1-.6-.7.6-1.5.8-2.2.8-1.5 0-2.7-.8-2.7-3.1v-4.9s0-.1.1-.1h1.7s.1 0 .1.1v4.7c0 1 .4 1.6 1.4 1.6s1.1-.2 1.5-.6v-5.7s0-.1.1-.1h1.7s.1 0 .1.1zm2 7.7v-7.6s0-.1.1-.1h1.5c.1 0 .2 0 .2.1s0 .4.1.6c.7-.6 1.5-.9 2.3-.9s2.7.6 2.7 3.2v4.7s0 .1-.1.1h-1.7s-.1 0-.1-.1v-4.6c0-1.1-.4-1.7-1.4-1.7s-1.2.2-1.6.7v5.6s0 .1-.1.1h-1.7s-.1 0-.1-.1zm12.5-1.3v1.4c-.4.2-.8.2-1.4.2-1.3 0-2.1-.6-2.1-2.2v-4.2h-1s-.1 0-.1-.1v-1.3s0-.1.1-.1h1c0-.6 0-1.6.2-2 0 0 0-.1.1-.1l1.6-.2h.1v2.3h1.6s.1 0 .1.1v1.4s0 .1-.1.1h-1.6v3.8c0 .7.2 1 .9 1h.6zm-72.5 16.7c0-3.4 1.4-6 2.5-7.3h1.8s.1 0 0 .1c-1.7 2.2-2.6 4.4-2.6 7.2s.9 5.1 2.6 7.2c0 .1-1.6.1-1.6.1h-.2c-1.2-1.3-2.5-3.8-2.5-7.3zm5.9 4.6v-10.2c.6-.1 2-.1 3.1-.1 3.3 0 3.9 1.8 3.9 2.8s-.6 1.8-1 2.1c.6.3 1.5 1 1.5 2.5s-1.7 3.2-4.4 3.2h-3.1s-.1 0-.1-.1v-.2zm1.9-4.6v3h1.2c1.5 0 2.5-.5 2.5-1.6s-.3-1.2-1.2-1.4c-.3 0-.7-.1-1.1-.1h-1.5.1zm0-4.2v2.6h2.7c.3-.3.6-.6.6-1.3s-.7-1.4-2-1.4h-1.3zm13.3 8.9h-6.5s-.1 0-.1-.1v-1.3c.7-.5 1.8-1.3 2.7-2.2 1.6-1.5 1.9-2.4 1.9-3.2s-.5-1.8-1.9-1.8-1.7.3-2.4.7h-.1v-1.7c.8-.4 1.7-.7 2.8-.7 2.4 0 3.4 1.5 3.4 3.2s-.4 2.4-1.8 3.7c-.8.8-1.4 1.3-2 1.7h4.2s.1 0 .1.1l-.3 1.4s0 .1-.2.1h.2zm2.1-.1v-10.2c.6-.1 2-.1 3.1-.1 3.3 0 3.9 1.8 3.9 2.8s-.6 1.8-1 2.1c.6.3 1.5 1 1.5 2.5s-1.7 3.2-4.4 3.2h-3.1s-.1 0-.1-.1v-.2zm1.9-4.6v3h1.2c1.5 0 2.5-.5 2.5-1.6s-.3-1.2-1.2-1.4c-.3 0-.7-.1-1.1-.1h-1.5.1zm0-4.2v2.6h2.7c.3-.3.6-.6.6-1.3s-.7-1.4-2-1.4h-1.3zm16.5 6.1h-3.8l-.9 2.6s0 .1-.2.1h-1.6s-.1 0-.1-.2l3.3-9.4c0-.2.1-.3.1-.9 0-.1 2.2-.1 2.2-.1h.1l3.7 10.3c0 .1-1.8.1-1.8.1h-.2l-.9-2.7v.2zm-3.3-1.7h2.8c-.3-1.1-1.1-3.3-1.4-4.4-.3 1.1-.9 2.9-1.4 4.4zm12.9 2.9v1.4c-.5.3-1.2.4-1.8.4-2.6 0-4.1-1.8-4.1-4.1s1.8-4.1 4.4-4.1 1.2 0 1.5.2v1.6s0 0-.1 0c-.3-.1-.8-.2-1.4-.2-1.5 0-2.5.9-2.5 2.4s1.3 2.4 2.5 2.4 1.1 0 1.4-.2h.1zm6.9 0v1.4c-.5.3-1.2.4-1.8.4-2.6 0-4.1-1.8-4.1-4.1s1.8-4.1 4.4-4.1 1.2 0 1.5.2v1.6s0 0-.1 0c-.3-.1-.8-.2-1.4-.2-1.5 0-2.5.9-2.5 2.4s1.3 2.4 2.5 2.4 1.1 0 1.4-.2h.1zm4.8-6.4c2.5 0 3.8 1.9 3.8 4.1s-1.6 4.1-3.8 4.1-3.9-2.1-3.9-4.1 1.5-4.1 3.9-4.1zm-.1 1.6c-1.1 0-1.8.9-1.8 2.5s.7 2.5 1.9 2.5 1.8-.8 1.8-2.5-.6-2.5-1.9-2.5zm12.1-1.4v7.6s0 .1-.1.1h-1.7c0-.2 0-.4-.1-.6-.7.6-1.5.8-2.2.8-1.5 0-2.7-.8-2.7-3.1v-4.9s0-.1.1-.1h1.7s.1 0 .1.1v4.7c0 1 .4 1.6 1.4 1.6s1.1-.2 1.5-.6v-5.7s0-.1.1-.1h1.7s.1 0 .1.1zm2 7.7v-7.6s0-.1.1-.1h1.5c.1 0 .2 0 .2.1s0 .4.1.6c.7-.6 1.5-.9 2.3-.9s2.7.6 2.7 3.2v4.7s0 .1-.1.1h-1.7s-.1 0-.1-.1v-4.6c0-1.1-.4-1.7-1.4-1.7s-1.2.2-1.6.7v5.6s0 .1-.1.1h-1.7s-.1 0-.1-.1zm12.5-1.3v1.4c-.4.2-.8.2-1.4.2-1.3 0-2.1-.6-2.1-2.2v-4.2h-1s-.1 0-.1-.1v-1.3s0-.1.1-.1h1c0-.6 0-1.6.2-2 0 0 0-.1.1-.1l1.6-.2h.1v2.3h1.6s.1 0 .1.1v1.4s0 .1-.1.1h-1.6v3.8c0 .7.2 1 .9 1h.6zm5.3-3.3c0 3.5-1.4 5.9-2.5 7.3h-1.8s-.1 0 0-.1c1.7-2.2 2.6-4.4 2.6-7.2s-.9-5.1-2.6-7.2c0-.1 1.6-.1 1.6-.1h.2c1.2 1.4 2.5 3.8 2.5 7.3z" fill="#fdfdfd"/><path d="m617.4 149.2h-3.8l-.9 2.6s0 .1-.2.1h-1.6v-.2l3.3-9.4v-.9c0-.1 2.2-.1 2.2-.1l3.7 10.3c0 .1-1.8.1-1.8.1h-.2l-.9-2.7v.2zm-3.3-1.7h2.8c-.3-1.1-1.1-3.3-1.4-4.4-.3 1.1-.9 2.9-1.4 4.4zm12.9 2.9v1.4c-.5.3-1.2.4-1.8.4-2.6 0-4.1-1.8-4.1-4.1s1.8-4.1 4.4-4.1 1.2 0 1.5.2v1.6c-.3-.1-.8-.2-1.4-.2-1.5 0-2.5.9-2.5 2.4s1.3 2.4 2.5 2.4 1.1 0 1.4-.2zm6.9 0v1.4c-.5.3-1.2.4-1.8.4-2.6 0-4.1-1.8-4.1-4.1s1.8-4.1 4.4-4.1 1.2 0 1.5.2v1.6c-.3-.1-.8-.2-1.4-.2-1.5 0-2.5.9-2.5 2.4s1.3 2.4 2.5 2.4 1.1 0 1.4-.2zm4.8-6.4c2.5 0 3.8 1.9 3.8 4.1s-1.6 4.1-3.8 4.1-3.9-2.1-3.9-4.1 1.5-4.1 3.9-4.1zm-.1 1.6c-1.1 0-1.8.9-1.8 2.5s.7 2.5 1.9 2.5 1.8-.8 1.8-2.5-.6-2.5-1.9-2.5zm12.1-1.4v7.6c0 .1-1.7.1-1.7.1v-.6c-.7.6-1.5.8-2.2.8-1.5 0-2.7-.8-2.7-3.1v-4.9c0-.1 1.7-.1 1.7-.1v4.8c0 1 .4 1.6 1.4 1.6s1.1-.2 1.5-.6v-5.7c0-.1 1.7-.1 1.7-.1v.1h.2zm2 7.7v-7.6c0-.1 1.5-.1 1.5-.1s.2 0 .2.1v.6c.7-.6 1.5-.9 2.3-.9s2.7.6 2.7 3.2v4.7c0 .1-1.7.1-1.7.1v-4.7c0-1.1-.4-1.7-1.4-1.7s-1.2.2-1.6.7v5.6c0 .1-1.7.1-1.7.1 0-.1 0-.1 0-.1h-.2zm12.5-1.3v1.4c-.4.2-.8.2-1.4.2-1.3 0-2.1-.6-2.1-2.2v-4.2h-1v-1.4c0-.1 1-.1 1-.1 0-.6 0-1.6.2-2s0-.1 0-.1l1.6-.2v2.3h1.6v1.5c0 .1-1.6.1-1.6.1v3.8c0 .7.2 1 .9 1h.6.2zm-72.5 16.7c0-3.4 1.4-6 2.5-7.3h1.8c-1.7 2.3-2.6 4.5-2.6 7.3s.9 5.1 2.6 7.2c0 .1-1.6.1-1.6.1h-.2c-1.2-1.3-2.5-3.8-2.5-7.3zm5.9 4.6v-10.2c.6-.1 2-.1 3.1-.1 3.3 0 3.9 1.8 3.9 2.8s-.6 1.8-1 2.1c.6.3 1.5 1 1.5 2.5s-1.7 3.2-4.4 3.2h-3.1zm1.9-4.6v3h1.2c1.5 0 2.5-.5 2.5-1.6s-.3-1.2-1.2-1.4c-.3 0-.7-.1-1.1-.1h-1.5zm0-4.2v2.6h2.7c.3-.3.6-.6.6-1.3s-.7-1.4-2-1.4h-1.3zm13.3 8.9h-6.5v-1.4c.7-.5 1.8-1.3 2.7-2.2 1.6-1.5 1.9-2.4 1.9-3.2s-.5-1.8-1.9-1.8-1.7.3-2.4.7v-1.7c.8-.4 1.7-.7 2.8-.7 2.4 0 3.4 1.5 3.4 3.2s-.4 2.4-1.8 3.7c-.8.8-1.4 1.3-2 1.7h4.2c0 .1-.3 1.5-.3 1.5s0 .1-.2.1h.2-.1zm2.1-.1v-10.2c.6-.1 2-.1 3.1-.1 3.3 0 3.9 1.8 3.9 2.8s-.6 1.8-1 2.1c.6.3 1.5 1 1.5 2.5s-1.7 3.2-4.4 3.2h-3.1zm1.9-4.6v3h1.2c1.5 0 2.5-.5 2.5-1.6s-.3-1.2-1.2-1.4c-.3 0-.7-.1-1.1-.1h-1.5zm0-4.2v2.6h2.7c.3-.3.6-.6.6-1.3s-.7-1.4-2-1.4h-1.3zm16.5 6.1h-3.8l-.9 2.6s0 .1-.2.1h-1.6v-.2l3.3-9.4v-.9c0-.1 2.2-.1 2.2-.1l3.7 10.3c0 .1-1.8.1-1.8.1h-.2l-.9-2.7v.2zm-3.3-1.7h2.8c-.3-1.1-1.1-3.3-1.4-4.4-.3 1.1-.9 2.9-1.4 4.4zm12.9 2.9v1.4c-.5.3-1.2.4-1.8.4-2.6 0-4.1-1.8-4.1-4.1s1.8-4.1 4.4-4.1 1.2 0 1.5.2v1.6c-.3-.1-.8-.2-1.4-.2-1.5 0-2.5.9-2.5 2.4s1.3 2.4 2.5 2.4 1.1 0 1.4-.2zm6.9 0v1.4c-.5.3-1.2.4-1.8.4-2.6 0-4.1-1.8-4.1-4.1s1.8-4.1 4.4-4.1 1.2 0 1.5.2v1.6c-.3-.1-.8-.2-1.4-.2-1.5 0-2.5.9-2.5 2.4s1.3 2.4 2.5 2.4 1.1 0 1.4-.2zm4.8-6.4c2.5 0 3.8 1.9 3.8 4.1s-1.6 4.1-3.8 4.1-3.9-2.1-3.9-4.1 1.5-4.1 3.9-4.1zm-.1 1.6c-1.1 0-1.8.9-1.8 2.5s.7 2.5 1.9 2.5 1.8-.8 1.8-2.5-.6-2.5-1.9-2.5zm12.1-1.4v7.6c0 .1-1.7.1-1.7.1v-.6c-.7.6-1.5.8-2.2.8-1.5 0-2.7-.8-2.7-3.1v-4.9c0-.1 1.7-.1 1.7-.1v4.8c0 1 .4 1.6 1.4 1.6s1.1-.2 1.5-.6v-5.7c0-.1 1.7-.1 1.7-.1v.1h.2zm2 7.7v-7.6c0-.1 1.5-.1 1.5-.1s.2 0 .2.1v.6c.7-.6 1.5-.9 2.3-.9s2.7.6 2.7 3.2v4.7c0 .1-1.7.1-1.7.1v-4.7c0-1.1-.4-1.7-1.4-1.7s-1.2.2-1.6.7v5.6c0 .1-1.7.1-1.7.1 0-.1 0-.1 0-.1h-.2zm12.5-1.3v1.4c-.4.2-.8.2-1.4.2-1.3 0-2.1-.6-2.1-2.2v-4.2h-1v-1.4c0-.1 1-.1 1-.1 0-.6 0-1.6.2-2 0-.1 1.6-.3 1.6-.3v2.3h1.6v1.5c0 .1-1.6.1-1.6.1v3.8c0 .7.2 1 .9 1h.6.2zm5.3-3.3c0 3.5-1.4 5.9-2.5 7.3h-1.8c1.7-2.3 2.6-4.5 2.6-7.3s-.9-5.1-2.6-7.2c0-.1 1.6-.1 1.6-.1h.2c1.2 1.4 2.5 3.8 2.5 7.3z" fill="#fdfdfd"/><path d="m1175.7 126h-191.4c-2.375 0-4.3 1.925-4.3 4.3v51.4c0 2.375 1.925 4.3 4.3 4.3h191.4c2.37 0 4.3-1.925 4.3-4.3v-51.4c0-2.375-1.93-4.3-4.3-4.3z" fill="#de3d82"/><path d="m1043.9 141.3c3.1 0 4.9 2.4 5 5.4 0 3.3-2 5.5-5 5.5s-5-2.3-5-5.4 2-5.4 5-5.4zm-3 5.4c0 2.1 1.1 3.7 3 3.7s2.9-1.5 2.9-3.7-1.1-3.7-3-3.7-2.9 1.3-2.9 3.7zm12.8-2.7c2.6 0 3.9 1.8 3.9 3.8 0 2.9-2.4 4.4-4.8 4.4s-.3 0-.5 0v2.9c-.6.1-1.6.3-1.7.3v-10.5c.7-.2 1.8-.6 3.2-.6v-.3zm-.2 1.6c-.4 0-.8 0-1.1.2v4.7h.6c1.2 0 2.6-.7 2.6-2.6s-.8-2.3-2.1-2.3zm8.9-1.6c2.6 0 3.9 1.8 3.9 3.8 0 2.9-2.4 4.4-4.8 4.4s-.3 0-.5 0v2.9c-.6.1-1.6.3-1.7.3v-10.5c.7-.2 1.8-.6 3.2-.6v-.3zm-.2 1.6c-.4 0-.8 0-1.1.2v4.7h.6c1.2 0 2.6-.7 2.6-2.6s-.8-2.3-2.2-2.3zm9.1-1.6c2.5 0 3.8 1.9 3.8 4.1s-1.6 4.1-3.8 4.1-3.9-2.1-3.9-4.1 1.5-4.1 3.9-4.1zm-.1 1.6c-1.1 0-1.8.9-1.8 2.5s.7 2.5 1.9 2.5 1.8-.8 1.8-2.5-.6-2.5-1.9-2.5zm5.5-1.5h1.7c0 .3.2.7.2 1.1.6-.7 1.5-1.2 2.6-1.2s0 0 0 .1v1.7c-1.1.1-2.1.5-2.5.9v5.2c0 .1-1.7.1-1.7.1v-7.7-.2zm10 6.5v1.4c-.4.2-.8.2-1.4.2-1.3 0-2.1-.6-2.1-2.2v-4.2h-1v-1.4c0-.1 1-.1 1-.1 0-.6 0-1.6.2-2 0-.1 1.6-.3 1.6-.3v2.3h1.6v1.5c0 .1-1.6.1-1.6.1v3.8c0 .7.2 1 .9 1h.6.2zm8-6.4v7.6c0 .1-1.7.1-1.7.1v-.6c-.7.6-1.5.8-2.2.8-1.5 0-2.7-.8-2.7-3.1v-4.9c0-.1 1.7-.1 1.7-.1v4.8c0 1 .4 1.6 1.4 1.6s1.1-.2 1.5-.6v-5.7c0-.1 1.7-.1 1.7-.1 0 .1.3.2.3.2zm2 7.7v-7.6c0-.1 1.5-.1 1.5-.1s.2 0 .2.1v.6c.7-.6 1.4-.9 2.3-.9s2.7.6 2.7 3.2v4.7c0 .1-1.7.1-1.7.1v-4.7c0-1.1-.4-1.7-1.4-1.7s-1.2.2-1.6.7v5.6c0 .1-1.7.1-1.7.1 0-.1 0-.1 0-.1h-.2zm8.8 0v-7.6c0-.1 1.7-.1 1.7-.1v7.7c0 .1-1.7.1-1.7.1s-.2 0-.2-.1zm1-8.9c-.7 0-1.1-.4-1.1-1.1s.5-1.1 1.1-1.1 1.1.5 1.1 1.1-.4 1.1-1.1 1.1zm6.8 7.6v1.4c-.4.2-.8.2-1.4.2-1.3 0-2.1-.6-2.1-2.2v-4.2h-1v-1.4c0-.1 1-.1 1-.1 0-.6 0-1.6.2-2 0-.1 1.6-.3 1.6-.3v2.3h1.6v1.5c0 .1-1.6.1-1.6.1v3.8c0 .7.2 1 .9 1h.6.2zm.8-6.5h2c1 3 1.6 4.7 1.8 5.5.5-1.6 1.1-3.3 1.8-5.5h1.8c-1.2 3.6-2.9 8-4.2 10.9 0 0 0 .1-.2.1h-1.7c.5-1 1-2.1 1.5-3.3v-.3c-.4-1.1-2-4.9-2.9-7.4zm-95.7 23.2c0-3.4 1.4-6 2.5-7.3h1.8c-1.7 2.3-2.6 4.5-2.6 7.3s.9 5.1 2.6 7.2c0 .1-1.6.1-1.6.1h-.2c-1.1-1.3-2.5-3.8-2.5-7.3zm5.9 4.6v-10.2c.6-.1 2-.1 3.1-.1 3.3 0 3.8 1.8 3.8 2.8s-.6 1.8-1 2.1c.6.3 1.5 1 1.5 2.5s-1.7 3.2-4.4 3.2h-3.1c0-.1.2-.3.2-.3zm1.9-4.6v3h1.2c1.5 0 2.5-.5 2.5-1.6s-.3-1.2-1.1-1.4c-.3 0-.7-.1-1.1-.1h-1.5zm0-4.2v2.6h2.7c.3-.3.6-.6.6-1.3s-.7-1.4-2-1.4h-1.3zm13.3 8.9h-6.5v-1.4c.7-.5 1.8-1.3 2.7-2.2 1.6-1.5 1.9-2.4 1.9-3.2s-.5-1.8-1.9-1.8-1.7.3-2.4.7v-1.7c.8-.4 1.7-.7 2.8-.7 2.3 0 3.4 1.5 3.4 3.2s-.4 2.4-1.8 3.7c-.8.8-1.4 1.3-2 1.7h4.1s.2 0 0 .1l-.3 1.4s0 .1-.2.1h.3zm2.1-.1v-10.2c.6-.1 2-.1 3.1-.1 3.3 0 3.8 1.8 3.8 2.8s-.6 1.8-1 2.1c.6.3 1.5 1 1.5 2.5s-1.7 3.2-4.4 3.2h-3.1c0-.1.2-.3.2-.3zm1.9-4.6v3h1.2c1.5 0 2.5-.5 2.5-1.6s-.3-1.2-1.1-1.4c-.3 0-.7-.1-1.1-.1h-1.5zm0-4.2v2.6h2.7c.3-.3.6-.6.6-1.3s-.7-1.4-2-1.4h-1.3zm15.4-1.8c3.1 0 4.9 2.4 4.9 5.4s-2 5.5-4.9 5.5-5-2.3-5-5.4 2-5.4 5-5.4zm-2.9 5.4c0 2.1 1.1 3.7 3 3.7s2.9-1.5 2.9-3.7-1.1-3.7-3-3.7-2.9 1.3-2.9 3.7zm12.7-2.7c2.6 0 4 1.8 4 3.8 0 2.9-2.4 4.4-4.8 4.4s-.3 0-.5 0v2.9c-.6.1-1.6.3-1.7.3v-10.5c.7-.2 1.8-.6 3.2-.6v-.3zm-.1 1.6c-.4 0-.8 0-1.1.2v4.7h.6c1.2 0 2.6-.7 2.6-2.6s-.8-2.3-2.1-2.3zm8.8-1.6c2.6 0 4 1.8 4 3.8 0 2.9-2.4 4.4-4.8 4.4s-.3 0-.5 0v2.9c-.6.1-1.6.3-1.7.3v-10.5c.7-.2 1.8-.6 3.2-.6v-.3zm-.1 1.6c-.4 0-.8 0-1.1.2v4.7h.6c1.2 0 2.6-.7 2.6-2.6s-.8-2.3-2.1-2.3zm9.1-1.6c2.5 0 3.8 1.9 3.8 4.1s-1.6 4.1-3.8 4.1-3.9-2.1-3.9-4.1 1.5-4.1 3.9-4.1zm-.1 1.6c-1.1 0-1.8.9-1.8 2.5s.7 2.5 1.9 2.5 1.8-.8 1.8-2.5-.6-2.5-1.9-2.5zm5.4-1.5h1.7c0 .3.2.7.2 1.1.6-.7 1.5-1.2 2.6-1.2s0 0 0 .1v1.7c-1.1.1-2.1.5-2.4.9v5.2c0 .1-1.7.1-1.7.1s0 0 0-.1v-7.6l-.2-.2zm10.1 6.5v1.4c-.4.2-.8.2-1.4.2-1.3 0-2.1-.6-2.1-2.2v-4.2h-1v-1.4c0-.1 1-.1 1-.1 0-.6 0-1.6.2-2 0-.1 1.6-.3 1.6-.3v2.3h1.5v1.5c0 .1-1.6.1-1.6.1v3.8c0 .7.2 1 .9 1h.6.3zm7.9-6.4v7.6c0 .1-1.7.1-1.7.1v-.6c-.7.6-1.5.8-2.2.8-1.5 0-2.7-.8-2.7-3.1v-4.9c0-.1 1.7-.1 1.7-.1v4.8c0 1 .4 1.6 1.4 1.6s1.1-.2 1.5-.6v-5.7c0-.1 1.7-.1 1.7-.1 0 .1.3.2.3.2zm2.1 7.7v-7.6c0-.1 1.4-.1 1.4-.1s.2 0 .2.1v.6c.7-.6 1.4-.9 2.3-.9s2.7.6 2.7 3.2v4.7c0 .1-1.7.1-1.7.1s-.2 0-.2-.1v-4.6c0-1.1-.4-1.7-1.4-1.7s-1.2.2-1.6.7v5.6c0 .1-1.7.1-1.7.1 0-.067 0-.1 0-.1zm8.8 0v-7.6c0-.1 1.7-.1 1.7-.1v7.7c0 .1-1.7.1-1.7.1s-.2 0-.2-.1zm.9-8.9c-.7 0-1.1-.4-1.1-1.1s.5-1.1 1.1-1.1 1.1.5 1.1 1.1-.4 1.1-1.1 1.1zm6.9 7.6v1.4c-.4.2-.8.2-1.4.2-1.3 0-2.1-.6-2.1-2.2v-4.2h-1v-1.4c0-.1 1-.1 1-.1 0-.6 0-1.6.2-2 0-.1 1.6-.3 1.6-.3v2.3h1.6v1.5c0 .1-1.6.1-1.6.1v3.8c0 .7.2 1 .9 1h.6.2zm.8-6.5h2c1 3 1.6 4.7 1.8 5.5.5-1.6 1.1-3.3 1.8-5.5h1.8c-1.2 3.6-2.9 8-4.2 10.9 0 0 0 .1-.2.1h-1.7c.5-1 1-2.1 1.5-3.3v-.3c-.4-1.1-2-4.9-2.9-7.4zm12.5 3.2c0 3.5-1.4 5.9-2.5 7.3h-1.8c1.7-2.3 2.6-4.5 2.6-7.3s-.9-5.1-2.6-7.2c0-.1 1.6-.1 1.6-.1h.2c1.2 1.4 2.5 3.8 2.5 7.3z" fill="#fdfdfd"/><path d="m1175.7 622h-191.4c-2.375 0-4.3 1.925-4.3 4.3v51.4c0 2.375 1.925 4.3 4.3 4.3h191.4c2.37 0 4.3-1.925 4.3-4.3v-51.4c0-2.375-1.93-4.3-4.3-4.3z" fill="#de3d82"/><path d="m1054.3 646.2v1.6c-.5.2-1.3.3-2.2.3-3 0-5.5-1.7-5.5-5.4s2.2-5.4 5.7-5.4 1.7 0 2.1.3v1.7c-.5-.2-1.2-.4-2.1-.4-2.3 0-3.7 1.4-3.7 3.7s2 3.7 3.7 3.7 1.4 0 2-.3zm5.8.2v-2h-.9c-1.3 0-1.8.4-1.8 1.1s.4 1.1 1.6 1.1.8 0 1.1-.2zm1.9-3.3v4.2c-1.3.6-2.2.7-3.3.7-1.7 0-3.1-.8-3.1-2.6s1.5-2.5 3.6-2.5h1v-.2c0-.4-.2-1.2-1.6-1.2s-1.5.2-2.1.4v-1.6c.7-.3 1.6-.5 2.4-.5 2.2 0 3.2 1.4 3.2 3.2zm3.8 4.9h-1.7v-7.6h1.7v.6c.8-.6 1.5-.9 2.3-.9s1.6.4 2.1 1.1c.7-.6 1.5-1.1 2.6-1.1s2.7.7 2.7 3.1v4.8h-1.9v-4.6c0-.9-.4-1.6-1.3-1.6s-1.2.3-1.6.7v5.6h-1.7v-4.7c0-1.1-.5-1.6-1.3-1.6s-1 .2-1.5.6v5.6zm15-8c2.6 0 3.9 1.8 3.9 3.8 0 2.9-2.4 4.4-4.8 4.4s-.3 0-.5 0v2.9c-.6 0-1.6.2-1.7.2v-10.5c.7-.2 1.8-.6 3.2-.6v-.3zm-.2 1.6c-.4 0-.8 0-1.1.2v4.7h.6c1.2 0 2.6-.7 2.6-2.6s-.8-2.3-2.1-2.3zm9.7 4.8v-2h-.9c-1.3 0-1.8.4-1.8 1.1s.4 1.1 1.6 1.1.8 0 1.1-.2zm1.9-3.3v4.2c-1.3.6-2.2.7-3.3.7-1.8 0-3.1-.8-3.1-2.6s1.5-2.5 3.6-2.5h1v-.2c0-.4-.2-1.2-1.6-1.2s-1.5.2-2.1.4v-1.6c.7-.3 1.6-.5 2.4-.5 2.2 0 3.2 1.4 3.2 3.2zm2 4.8v-7.6h1.7v7.6h-1.9zm1-8.9c-.7 0-1.1-.4-1.1-1.1s.5-1.1 1.1-1.1 1.1.5 1.1 1.1-.4 1.1-1.1 1.1zm6.5 9h-1.8c-.5.2-.8.8-.8 1 0 .6.8 1.2 2.1 1.2s2.2-.6 2.2-1.2-.8-.9-1.8-.9h.1zm-.8-6.7c-.8 0-1.3.5-1.3 1.3s.5 1.3 1.3 1.3 1.3-.5 1.3-1.2-.4-1.3-1.3-1.3zm-.5 5h1.6c2.2.2 3.1 1 3.1 2.4s-1.6 2.9-4.1 2.9-3.7-1.3-3.7-2.5.4-1.2 1.5-2.1c-.2-.4-.4-.8-.3-1.2 0-.4 0-.7.3-1-.7-.4-1.1-1.1-1.1-2.1 0-1.5 1.2-2.7 3.2-2.7h1.4 2.6v1.3h-1.2c.2.3.3.6.3 1.2 0 1.7-1.4 2.6-3.1 2.6s-.4 0-.6 0v.5c0 .2 0 .3.2.5v.2zm5.8 1.6v-7.6h1.7v.6c.7-.6 1.5-.9 2.3-.9s2.7.6 2.7 3.2v4.7h-1.7v-4.6c0-1.1-.4-1.7-1.4-1.7s-1.2.2-1.5.7v5.6zm-79.9 15.4c0-3.4 1.4-6 2.5-7.3h1.8c-1.7 2.2-2.6 4.4-2.6 7.2s.9 5.1 2.6 7.2h-1.8c-1.2-1.3-2.5-3.8-2.5-7.3zm5.9 4.6v-10.2h3.1c3.3 0 3.9 1.8 3.9 2.8s-.6 1.8-1 2.1c.6.3 1.5 1 1.5 2.5s-1.8 3.2-4.4 3.2h-3.1zm1.9-4.6v3h1.2c1.5 0 2.5-.5 2.5-1.6s-.3-1.2-1.1-1.4zm0-4.2v2.6h2.7c.3-.3.6-.6.6-1.3s-.7-1.4-2-1.4h-1.3zm13.3 8.9h-6.5v-1.3c.7-.5 1.8-1.3 2.7-2.2 1.6-1.5 1.9-2.4 1.9-3.2s-.5-1.8-1.9-1.8-1.7.3-2.3.7v-1.7c.8-.4 1.8-.7 2.8-.7 2.3 0 3.4 1.5 3.4 3.2s-.4 2.4-1.8 3.7c-.8.8-1.4 1.3-2 1.7h4.1l-.3 1.4v.2zm2.1-.1v-10.2h3.1c3.3 0 3.9 1.8 3.9 2.8s-.6 1.8-1 2.1c.6.3 1.5 1 1.5 2.5s-1.8 3.2-4.4 3.2h-3.1zm1.9-4.6v3h1.2c1.5 0 2.5-.5 2.5-1.6s-.3-1.2-1.1-1.4zm0-4.2v2.6h2.7c.3-.3.6-.6.6-1.3s-.7-1.4-2-1.4h-1.3zm18.3 7.1v1.6c-.5.2-1.3.3-2.2.3-3 0-5.5-1.7-5.5-5.4s2.2-5.4 5.7-5.4 1.7 0 2.1.3v1.7c-.5-.2-1.2-.4-2.1-.4-2.3 0-3.7 1.4-3.7 3.7s2.1 3.7 3.7 3.7 1.4 0 2-.3zm5.7.2v-2h-.9c-1.3 0-1.8.4-1.8 1.1s.4 1.1 1.6 1.1.8 0 1.1-.2zm1.9-3.3v4.2c-1.3.6-2.2.7-3.3.7-1.8 0-3.1-.8-3.1-2.6s1.5-2.5 3.6-2.5h1v-.2c0-.4-.2-1.2-1.6-1.2s-1.5.2-2.1.4v-1.6c.7-.3 1.6-.5 2.4-.5 2.2 0 3.2 1.4 3.2 3.2zm3.8 4.9h-1.7v-7.6h1.7v.6c.8-.6 1.5-.9 2.3-.9s1.6.4 2.1 1.1c.7-.6 1.5-1.1 2.6-1.1s2.7.7 2.7 3.1v4.8h-1.7v-4.6c0-.9-.4-1.6-1.3-1.6s-1.2.3-1.6.7v5.6h-1.9v-4.7c0-1.1-.5-1.6-1.3-1.6s-1 .2-1.5.6v5.6zm15-8c2.6 0 3.9 1.8 3.9 3.8 0 2.9-2.4 4.4-4.8 4.4s-.3 0-.5 0v2.9c-.6 0-1.6.2-1.7.2v-10.5c.7-.2 1.8-.6 3.2-.6v-.3zm-.2 1.6c-.4 0-.8 0-1.1.2v4.7h.6c1.2 0 2.6-.7 2.6-2.6s-.8-2.3-2.2-2.3zm9.8 4.8v-2h-.9c-1.3 0-1.8.4-1.8 1.1s.4 1.1 1.6 1.1.8 0 1.1-.2zm1.8-3.3v4.2c-1.3.6-2.2.7-3.3.7-1.7 0-3.1-.8-3.1-2.6s1.5-2.5 3.6-2.5h1v-.2c0-.4-.2-1.2-1.6-1.2s-1.5.2-2.1.4v-1.6c.7-.3 1.6-.5 2.4-.5 2.2 0 3.2 1.4 3.2 3.2zm2.1 4.8v-7.6h1.7v7.6h-1.9zm.9-8.9c-.7 0-1.1-.4-1.1-1.1s.5-1.1 1.1-1.1 1.1.5 1.1 1.1-.4 1.1-1.1 1.1zm6.5 9h-1.7c-.5.2-.8.8-.8 1 0 .6.8 1.2 2.1 1.2s2.2-.6 2.2-1.2-.8-.9-1.8-.9zm-.8-6.7c-.8 0-1.3.5-1.3 1.3s.4 1.3 1.3 1.3 1.3-.5 1.3-1.2-.4-1.3-1.3-1.3zm-.5 5h1.6c2.2.2 3.1 1 3.1 2.4s-1.6 2.9-4.1 2.9-3.8-1.3-3.8-2.5.4-1.2 1.5-2.1c-.2-.4-.3-.8-.3-1.2s0-.7.3-1c-.7-.4-1.1-1.1-1.1-2.1 0-1.5 1.2-2.7 3.2-2.7h1.4 2.7v1.3h-1.3c.2.3.4.6.4 1.2 0 1.7-1.4 2.6-3.1 2.6s-.4 0-.6 0v.5c0 .2 0 .3.2.5v.2zm5.8 1.6v-7.6h1.7v.6c.7-.6 1.5-.9 2.3-.9s2.7.6 2.7 3.2v4.7h-1.7v-4.6c0-1.1-.5-1.7-1.4-1.7s-1.2.2-1.6.7v5.6zm12.3-4.6c0 3.5-1.4 5.9-2.5 7.3h-1.8c1.7-2.2 2.6-4.4 2.6-7.2s-.9-5.1-2.6-7.2h1.8c1.2 1.4 2.5 3.8 2.5 7.3z" fill="#fdfdfd"/><path d="m101 730h198c.6 0 1 .4 1 1s-.4 1-1 1h-198c-.6 0-1-.4-1-1s.4-1 1-1z" fill="#000" fill-opacity=".2"/><path d="m591.2 300v-20" stroke="#464646" stroke-linecap="round" stroke-width="1.7"/><path d="m591.1 279.1c.5 0 .9.4.9.9s-.4.9-.9.9v-1.7zm-50.5 1.5c-.3-.3-.3-.9 0-1.2l5.5-5.5c.3-.3.9-.3 1.2 0s.3.9 0 1.2l-4.9 4.9 4.9 4.9c.3.3.3.9 0 1.2s-.9.3-1.2 0zm50.5.3h-49.9v-1.7h49.9z" fill="#464646"/><path d="m571.8 315.6v-8.5h1v8.4c0 .5.2.7.6.7h.3v.7c0 .1-.3.1-.6.1-.7 0-1.3-.2-1.3-1.6zm6.1-5.5c2 0 3.2 1.5 3.2 3.5s-1.3 3.6-3.2 3.6-3.2-1.8-3.2-3.5 1.3-3.5 3.2-3.5zm0 1c-1.2 0-2 1-2 2.5s.7 2.6 2.1 2.6 2-.8 2-2.5-.6-2.5-2.1-2.5zm7.5-1c2 0 3.2 1.5 3.2 3.5s-1.3 3.6-3.2 3.6-3.2-1.8-3.2-3.5 1.3-3.5 3.2-3.5zm0 1c-1.2 0-2 1-2 2.5s.7 2.6 2.1 2.6 2-.8 2-2.5-.6-2.5-2.1-2.5zm8.9-.9h1.1c-.4.5-2.5 2.6-3 3.1.9 1 2.4 2.5 3.5 3.6h-1.4c-.7-.7-2.5-2.6-3.2-3.3v3.3h-1v-9.9h1v6.3c.7-.7 2.6-2.7 3-3.1zm7.5.1v6.6h-1v-.6c-.6.6-1.3.8-2 .8-1.2 0-2.3-.6-2.3-2.6v-4.2h1v4.1c0 1.1.5 1.7 1.5 1.7s1.2-.3 1.6-.7v-5.1zm4.6-.2c2.1 0 3.3 1.4 3.3 3.3s-2 3.8-4 3.8-.5 0-.7 0v2.8c-.3 0-1 0-1 .1v-9.3c.5-.2 1.4-.6 2.6-.6h-.2zm-.2 1c-.5 0-.9 0-1.3.2v4.7h.8c1.4 0 2.7-.8 2.7-2.7s-.8-2.4-2.2-2.4zm-49.8 22.8c0-3 1.2-5.2 2.3-6.4h1.1c-1.5 1.9-2.4 3.9-2.4 6.4s.8 4.5 2.4 6.4h-1.1c-1.1-1.2-2.3-3.4-2.3-6.5zm7.5-2.8c2.1 0 3.3 1.4 3.3 3.3s-2 3.8-4 3.8-.5 0-.7 0v2.8c-.3 0-1 0-1 .1v-9.3c.5-.2 1.4-.6 2.6-.6h-.2zm-.1 1c-.5 0-.9 0-1.3.2v4.7h.8c1.4 0 2.7-.8 2.7-2.7s-.8-2.4-2.2-2.4zm8.7 2.6h-3.1c0 1.3.8 2.4 2.3 2.4s1.2-.1 1.8-.4v.8c-.5.3-1.1.5-2 .5-2.4 0-3.3-1.8-3.3-3.5s1.1-3.6 3.1-3.6 2.7 1.6 2.7 2.8v.7h-1.4v.3zm-3-.8h3.5v-.2c0-.5-.3-1.7-1.7-1.7s-1.7.9-1.9 1.8h.1zm6-2.7h1v1c.5-.7 1.4-1.2 2.3-1.2v1c-1 0-1.8.5-2.2 1v4.6h-1v-6.6l-.2.2zm8.3 1.2c-.4-.2-1-.4-1.6-.4-.9 0-1.2.4-1.2.9s.3.7 1.3 1.1c1.4.5 2 1.1 2 2.1s-1 2-2.5 2-1.5-.2-1.9-.4v-1c.6.4 1.3.6 1.9.6.9 0 1.3-.4 1.3-.9s-.3-.8-1.3-1.2c-1.4-.5-2-1.1-2-2.1s.9-1.9 2.4-1.9 1.3.1 1.6.3v1zm4.6-1.3c2 0 3.2 1.5 3.2 3.5s-1.3 3.6-3.2 3.6-3.2-1.8-3.2-3.5 1.3-3.5 3.2-3.5zm0 1c-1.2 0-2 1-2 2.5s.7 2.6 2.1 2.6 2-.8 2-2.5-.6-2.5-2.1-2.5zm4.7 5.8v-6.6h1v.7c.6-.6 1.3-.9 2.1-.9s2.3.5 2.3 2.7v4.1h-1v-4.1c0-1.1-.5-1.8-1.4-1.8s-1.3.3-1.8.9v5zm13-9.2h1.1c0 .1-4.1 4.4-4.1 4.4l4.4 4.6c0 .1-1.2.1-1.2.1h-.2l-4.3-4.5v-.2l4.1-4.4zm-4.3.1v9.1h-1v-9.2h1zm10.2 5.9h-3.1c0 1.3.8 2.4 2.3 2.4s1.2-.1 1.8-.4v.8c-.5.3-1.1.5-2 .5-2.4 0-3.3-1.8-3.3-3.5s1.1-3.6 3.1-3.6 2.7 1.6 2.7 2.8v.7h-1.4v.3zm-3-.8h3.5v-.2c0-.5-.3-1.7-1.7-1.7s-1.7.9-1.9 1.8h.1zm5.4-2.7h1.1c1.2 3.1 1.7 4.7 1.9 5.3.4-1.3 1-2.9 1.9-5.3h1.1c-1 3-2.5 6.6-3.8 9.6h-1.2c.4-.9.9-2 1.4-3.1v-.2c-.3-.8-1.7-4.2-2.6-6.4h.2zm10.2 2.7c0 3-1.2 5.2-2.3 6.4h-1.1c1.5-1.9 2.4-3.9 2.4-6.4s-.9-4.5-2.4-6.4h1.1c1.1 1.2 2.3 3.4 2.3 6.5z" fill="#464646"/><path d="m590.3 342.5c0-.5.4-.9.9-.9s.9.4.9.9zm0 30v-30h1.7v30z" fill="#464646"/><path d="m688.2 300v-20" stroke="#464646" stroke-linecap="round" stroke-width="1.7"/><path d="m688.3 279.1c-.5 0-.9.4-.9.9s.4.9.9.9v-1.7zm50.6 1.5c.3-.3.3-.9 0-1.2l-5.5-5.5c-.3-.3-.9-.3-1.2 0s-.3.9 0 1.2l4.9 4.9-4.9 4.9c-.3.3-.3.9 0 1.2s.9.3 1.2 0zm-50.6.3h50v-1.7h-50z" fill="#464646"/><path d="m670.8 315.6v-8.5h1v8.4c0 .5.2.7.6.7h.3v.7c0 .1-.3.1-.6.1-.7 0-1.3-.2-1.3-1.6zm6.1-5.5c2 0 3.2 1.5 3.2 3.5s-1.3 3.6-3.2 3.6-3.2-1.8-3.2-3.5 1.3-3.5 3.2-3.5zm0 1c-1.2 0-2 1-2 2.5s.7 2.6 2.1 2.6 2-.8 2-2.5-.6-2.5-2.1-2.5zm7.5-1c2 0 3.2 1.5 3.2 3.5s-1.3 3.6-3.2 3.6-3.2-1.8-3.2-3.5 1.3-3.5 3.2-3.5zm0 1c-1.2 0-2 1-2 2.5s.7 2.6 2.1 2.6 2-.8 2-2.5-.6-2.5-2.1-2.5zm8.9-.9h1.1c-.4.5-2.5 2.6-3 3.1.9 1 2.4 2.5 3.5 3.6h-1.4c-.7-.7-2.5-2.6-3.2-3.3v3.3h-1v-9.9h1v6.3c.7-.7 2.6-2.7 3-3.1zm7.5.1v6.6h-1v-.6c-.6.6-1.3.8-2 .8-1.2 0-2.3-.6-2.3-2.6v-4.2h1v4.1c0 1.1.5 1.7 1.5 1.7s1.2-.3 1.6-.7v-5.1zm4.6-.2c2.1 0 3.3 1.4 3.3 3.3s-2 3.8-4 3.8-.5 0-.7 0v2.8c-.3 0-1 0-1 .1v-9.3c.5-.2 1.4-.6 2.6-.6h-.2zm-.2 1c-.5 0-.9 0-1.3.2v4.7h.8c1.4 0 2.7-.8 2.7-2.7s-.8-2.4-2.2-2.4zm-49.8 22.8c0-3 1.2-5.2 2.3-6.4h1.1c-1.5 1.9-2.4 3.9-2.4 6.4s.8 4.5 2.4 6.4h-1.1c-1.1-1.2-2.3-3.4-2.3-6.5zm7.5-2.8c2.1 0 3.3 1.4 3.3 3.3s-2 3.8-4 3.8-.5 0-.7 0v2.8c-.3 0-1 0-1 .1v-9.3c.5-.2 1.4-.6 2.6-.6h-.2zm-.1 1c-.5 0-.9 0-1.3.2v4.7h.8c1.4 0 2.7-.8 2.7-2.7s-.8-2.4-2.2-2.4zm8.7 2.6h-3.1c0 1.3.8 2.4 2.3 2.4s1.2-.1 1.8-.4v.8c-.5.3-1.1.5-2 .5-2.4 0-3.3-1.8-3.3-3.5s1.1-3.6 3.1-3.6 2.7 1.6 2.7 2.8v.7h-1.4v.3zm-3-.8h3.5v-.2c0-.5-.3-1.7-1.7-1.7s-1.7.9-1.9 1.8h.1zm6-2.7h1v1c.5-.7 1.4-1.2 2.3-1.2v1c-1 0-1.8.5-2.2 1v4.6h-1v-6.6l-.2.2zm8.3 1.2c-.4-.2-1-.4-1.6-.4-.9 0-1.2.4-1.2.9s.3.7 1.3 1.1c1.4.5 2 1.1 2 2.1s-1 2-2.5 2-1.5-.2-1.9-.4v-1c.6.4 1.3.6 1.9.6.9 0 1.3-.4 1.3-.9s-.3-.8-1.3-1.2c-1.4-.5-2-1.1-2-2.1s.9-1.9 2.4-1.9 1.3.1 1.6.3v1zm4.6-1.3c2 0 3.2 1.5 3.2 3.5s-1.3 3.6-3.2 3.6-3.2-1.8-3.2-3.5 1.3-3.5 3.2-3.5zm0 1c-1.2 0-2 1-2 2.5s.7 2.6 2.1 2.6 2-.8 2-2.5-.6-2.5-2.1-2.5zm4.7 5.8v-6.6h1v.7c.6-.6 1.3-.9 2.1-.9s2.3.5 2.3 2.7v4.1h-1v-4.1c0-1.1-.5-1.8-1.4-1.8s-1.3.3-1.8.9v5zm13-9.2h1.1c0 .1-4.1 4.4-4.1 4.4l4.4 4.6c0 .1-1.2.1-1.2.1h-.2l-4.3-4.5v-.2l4.1-4.4zm-4.3.1v9.1h-1v-9.2h1zm10.2 5.9h-3.1c0 1.3.8 2.4 2.3 2.4s1.2-.1 1.8-.4v.8c-.5.3-1.1.5-2 .5-2.4 0-3.3-1.8-3.3-3.5s1.1-3.6 3.1-3.6 2.7 1.6 2.7 2.8v.7h-1.4v.3zm-3-.8h3.5v-.2c0-.5-.3-1.7-1.7-1.7s-1.7.9-1.9 1.8h.1zm5.4-2.7h1.1c1.2 3.1 1.7 4.7 1.9 5.3.4-1.3 1-2.9 1.9-5.3h1.1c-1 3-2.5 6.6-3.8 9.6h-1.2c.4-.9.9-2 1.4-3.1v-.2c-.3-.8-1.7-4.2-2.6-6.4h.2zm10.2 2.7c0 3-1.2 5.2-2.3 6.4h-1.1c1.5-1.9 2.4-3.9 2.4-6.4s-.9-4.5-2.4-6.4h1.1c1.1 1.2 2.3 3.4 2.3 6.5z" fill="#464646"/><path d="m687.3 342.5c0-.5.4-.9.9-.9s.9.4.9.9zm0 30v-30h1.7v30z" fill="#464646"/><path d="m591.1 513v20" stroke="#464646" stroke-linecap="round" stroke-width="1.7"/><path d="m591 533.9c.5 0 .9-.4.9-.9s-.4-.9-.9-.9v1.7zm-50.6-1.5c-.3.3-.3.9 0 1.2l5.5 5.5c.3.3.9.3 1.2 0s.3-.9 0-1.2l-4.9-4.9 4.9-4.9c.3-.3.3-.9 0-1.2s-.9-.3-1.2 0zm50.6-.3h-50v1.7h50z" fill="#464646"/><path d="m571.8 480.6v-8.5h1v8.4c0 .5.2.7.6.7h.3v.7c0 .1-.3.1-.6.1-.7 0-1.3-.2-1.3-1.6zm6.1-5.5c2 0 3.2 1.5 3.2 3.5s-1.3 3.6-3.2 3.6-3.2-1.8-3.2-3.5 1.3-3.5 3.2-3.5zm0 1c-1.2 0-2 1-2 2.5s.7 2.6 2.1 2.6 2-.8 2-2.5-.6-2.5-2.1-2.5zm7.5-1c2 0 3.2 1.5 3.2 3.5s-1.3 3.6-3.2 3.6-3.2-1.8-3.2-3.5 1.3-3.5 3.2-3.5zm0 1c-1.2 0-2 1-2 2.5s.7 2.6 2.1 2.6 2-.8 2-2.5-.6-2.5-2.1-2.5zm8.9-.9h1.1c-.4.5-2.5 2.6-3 3.1.9 1 2.4 2.5 3.5 3.6h-1.4c-.7-.7-2.5-2.6-3.2-3.3v3.3h-1v-9.9h1v6.3c.7-.7 2.6-2.7 3-3.1zm7.5.1v6.6h-1v-.6c-.6.6-1.3.8-2 .8-1.2 0-2.3-.6-2.3-2.6v-4.2h1v4.1c0 1.1.5 1.7 1.5 1.7s1.2-.3 1.6-.7v-5.1zm4.6-.2c2.1 0 3.3 1.4 3.3 3.3s-2 3.8-4 3.8-.5 0-.7 0v2.8c-.3 0-1 0-1 .1v-9.3c.5-.2 1.4-.6 2.6-.6h-.2zm-.2 1c-.5 0-.9 0-1.3.2v4.7h.8c1.4 0 2.7-.8 2.7-2.7s-.8-2.4-2.2-2.4zm-49.8 22.8c0-3 1.2-5.2 2.3-6.4h1.1c-1.5 1.9-2.4 3.9-2.4 6.4s.8 4.5 2.4 6.4h-1.1c-1.1-1.2-2.3-3.4-2.3-6.5zm7.5-2.8c2.1 0 3.3 1.4 3.3 3.3s-2 3.8-4 3.8-.5 0-.7 0v2.8c-.3 0-1 0-1 .1v-9.3c.5-.2 1.4-.6 2.6-.6h-.2zm-.1 1c-.5 0-.9 0-1.3.2v4.7h.8c1.4 0 2.7-.8 2.7-2.7s-.8-2.4-2.2-2.4zm8.7 2.6h-3.1c0 1.3.8 2.4 2.3 2.4s1.2-.1 1.8-.4v.8c-.5.3-1.1.5-2 .5-2.4 0-3.3-1.8-3.3-3.5s1.1-3.6 3.1-3.6 2.7 1.6 2.7 2.8v.7h-1.4v.3zm-3-.8h3.5v-.2c0-.5-.3-1.7-1.7-1.7s-1.7.9-1.9 1.8h.1zm6-2.7h1v1c.5-.7 1.4-1.2 2.3-1.2v1c-1 0-1.8.5-2.2 1v4.6h-1v-6.6l-.2.2zm8.3 1.2c-.4-.2-1-.4-1.6-.4-.9 0-1.2.4-1.2.9s.3.7 1.3 1.1c1.4.5 2 1.1 2 2.1s-1 2-2.5 2-1.5-.2-1.9-.4v-1c.6.4 1.3.6 1.9.6.9 0 1.3-.4 1.3-.9s-.3-.8-1.3-1.2c-1.4-.5-2-1.1-2-2.1s.9-1.9 2.4-1.9 1.3.1 1.6.3v1zm4.6-1.3c2 0 3.2 1.5 3.2 3.5s-1.3 3.6-3.2 3.6-3.2-1.8-3.2-3.5 1.3-3.5 3.2-3.5zm0 1c-1.2 0-2 1-2 2.5s.7 2.6 2.1 2.6 2-.8 2-2.5-.6-2.5-2.1-2.5zm4.7 5.8v-6.6h1v.7c.6-.6 1.3-.9 2.1-.9s2.3.5 2.3 2.7v4.1h-1v-4.1c0-1.1-.5-1.8-1.4-1.8s-1.3.3-1.8.9v5zm13-9.2h1.1c0 .1-4.1 4.4-4.1 4.4l4.4 4.6c0 .1-1.2.1-1.2.1h-.2l-4.3-4.5v-.2l4.1-4.4zm-4.3.1v9.1h-1v-9.2h1zm10.2 5.9h-3.1c0 1.3.8 2.4 2.3 2.4s1.2-.1 1.8-.4v.8c-.5.3-1.1.5-2 .5-2.4 0-3.3-1.8-3.3-3.5s1.1-3.6 3.1-3.6 2.7 1.6 2.7 2.8v.7h-1.4v.3zm-3-.8h3.5v-.2c0-.5-.3-1.7-1.7-1.7s-1.7.9-1.9 1.8h.1zm5.4-2.7h1.1c1.2 3.1 1.7 4.7 1.9 5.3.4-1.3 1-2.9 1.9-5.3h1.1c-1 3-2.5 6.6-3.8 9.6h-1.2c.4-.9.9-2 1.4-3.1v-.2c-.3-.8-1.7-4.2-2.6-6.4h.2zm10.2 2.7c0 3-1.2 5.2-2.3 6.4h-1.1c1.5-1.9 2.4-3.9 2.4-6.4s-.9-4.5-2.4-6.4h1.1c1.1 1.2 2.3 3.4 2.3 6.5z" fill="#464646"/><path d="m590.9 462v-30" stroke="#464646" stroke-linecap="round" stroke-width="1.7"/><path d="m199.1 551c0 .5.4.9.9.9s.9-.4.9-.9zm0-20v20h1.7v-20z" fill="#464646"/><path d="m200.9 595c0-.5-.4-.9-.9-.9s-.9.4-.9.9zm-1.5 25.6c.3.3.9.3 1.2 0l5.5-5.5c.3-.3.3-.9 0-1.2s-.9-.3-1.2 0l-4.9 4.9-4.9-4.9c-.3-.3-.9-.3-1.2 0s-.3.9 0 1.2zm-.3-25.6v25h1.7v-25z" fill="#464646"/><path d="m181.3 566.6v-8.5h1v8.4c0 .5.2.7.6.7h.3v.7h-.6c-.7 0-1.3-.2-1.3-1.6v.2zm6.1-5.5c2 0 3.2 1.5 3.2 3.5s-1.3 3.6-3.2 3.6-3.2-1.8-3.2-3.5 1.3-3.5 3.2-3.5zm0 1c-1.2 0-2 1-2 2.5s.7 2.6 2.1 2.6 2-.8 2-2.5-.6-2.5-2.1-2.5zm7.5-1c2 0 3.2 1.5 3.2 3.5s-1.3 3.6-3.2 3.6-3.2-1.8-3.2-3.5 1.3-3.5 3.2-3.5zm0 1c-1.2 0-2 1-2 2.5s.7 2.6 2.1 2.6 2-.8 2-2.5-.6-2.5-2.1-2.5zm8.9-.9h1.1c-.4.5-2.5 2.6-3 3.1.9 1 2.4 2.5 3.5 3.6h-1.4c-.7-.7-2.5-2.6-3.2-3.3v3.3h-1v-9.9h1v6.3c.7-.7 2.6-2.7 3-3.1zm7.5.1v6.6h-1v-.6c-.6.6-1.3.8-2 .8-1.2 0-2.3-.6-2.3-2.6v-4.2h1v4.1c0 1.1.5 1.7 1.5 1.7s1.2-.3 1.6-.7v-5.1zm4.6-.2c2.1 0 3.3 1.4 3.3 3.3s-2 3.8-4 3.8-.5 0-.7 0v2.8h-1v-9.3c.5-.2 1.4-.6 2.6-.6zm-.2 1c-.5 0-.9 0-1.3.2v4.7h.8c1.4 0 2.7-.8 2.7-2.7s-.8-2.4-2.2-2.4zm-68.8 22.8c0-3 1.2-5.2 2.3-6.4h1.1c-1.5 1.9-2.4 3.9-2.4 6.4s.8 4.5 2.4 6.4h-1.1c-1.1-1.2-2.3-3.4-2.3-6.5zm5.9 4.1h-1v-6.6h1v.7c.6-.6 1.3-.9 2.1-.9s1.5.3 1.9 1c.6-.6 1.3-1 2.3-1s2.3.5 2.3 2.7v4.2h-1v-4.1c0-1-.4-1.7-1.4-1.7s-1.3.3-1.7.8v5h-1v-4.1c0-1.1-.5-1.7-1.4-1.7s-1.2.3-1.7.8v5h-.4zm14.1-1v-2.2h-.9c-1.4 0-2 .5-2 1.2s.4 1.2 1.7 1.2.9 0 1.3-.2zm1.2-3.3v3.8c-1 .5-1.8.6-2.6.6-1.5 0-2.6-.7-2.6-2.2s1.4-2.1 3.1-2.1h1v-.3c0-.4-.2-1.4-1.6-1.4s-1.3.2-1.8.4v-.9c.5-.4 1.2-.5 2-.5 1.8 0 2.5 1.2 2.5 2.6zm1.9-2.5h1c0 .2 0 .7.1 1 .5-.7 1.4-1.2 2.3-1.2v1c-1 0-1.8.5-2.2 1v4.6h-1v-6.6zm8.9 0h1.1c-.4.5-2.5 2.6-3 3.1.9 1 2.4 2.5 3.5 3.6h-1.4c-.7-.7-2.5-2.6-3.2-3.3v3.3h-1v-9.9h1v6.3c.7-.7 2.6-2.7 3-3.1zm6 3.5h-3.1c0 1.3.8 2.4 2.3 2.4s1.2 0 1.8-.4v.8c-.5.3-1.1.5-2 .5-2.4 0-3.3-1.8-3.3-3.5s1.1-3.6 3.1-3.6 2.7 1.6 2.7 2.8v.7h-1.4v.3zm-3.1-.8h3.5v-.2c0-.5-.3-1.7-1.7-1.7s-1.7.9-1.9 1.8zm9.2 3.2v.7c-.3.2-.7.3-1.1.3-1 0-1.6-.5-1.6-1.8v-4.1h-1v-.9h1c0-.5 0-1.5.1-1.8l1-.2v2h1.5v.8h-1.5v3.9c0 .6.2 1 .9 1h.7v.2zm1.3.8v-6.6h1v6.6h-1.1zm.6-8c-.4 0-.7-.3-.7-.7s.3-.7.7-.7.7.3.7.7-.3.7-.7.7zm2.5 8v-6.6h1v.7c.6-.6 1.3-.9 2.1-.9s2.3.5 2.3 2.7v4.1h-1v-4.1c0-1.1-.5-1.8-1.4-1.8s-1.3.3-1.8.9v5zm10.2 0h-1.5c-.6.3-.9.9-.9 1.2 0 .6.8 1.3 2.1 1.3s2.2-.7 2.2-1.4-.9-1-1.9-1.1zm-.6-5.9c-.9 0-1.5.6-1.5 1.5s.5 1.5 1.4 1.5 1.4-.5 1.4-1.4-.4-1.5-1.4-1.5h.1zm-.6 4.8h1.4c1.7.2 2.7.8 2.7 2s-1.3 2.5-3.4 2.5-3.1-1.1-3.1-2.1.4-1.1 1.4-1.9c-.2-.3-.3-.7-.3-1s0-.6.2-.9c-.6-.4-1-1-1-1.9 0-1.3 1-2.4 2.6-2.4h1.1 2.3v.8h-1.3c.3.3.5.7.5 1.4 0 1.5-1.1 2.3-2.5 2.3s-.5 0-.8 0v.5c0 .2.1.4.3.6zm10.3 1.2h-5.3v-9h1v8.1h4.3l-.2.9h-.1zm1.6-.1v-6.6h1v6.6h-1.1zm.6-8c-.4 0-.7-.3-.7-.7s.3-.7.7-.7.7.3.7.7-.3.7-.7.7zm6.2 2.5c-.4-.2-1-.4-1.6-.4-.9 0-1.2.4-1.2.9s.3.7 1.3 1.1c1.4.5 2 1.1 2 2.1s-1 2-2.5 2-1.5-.2-1.9-.4v-1c.6.4 1.3.6 1.9.6.9 0 1.3-.4 1.3-.9s-.3-.8-1.3-1.2c-1.4-.5-2-1.1-2-2.1s.9-1.9 2.4-1.9 1.3 0 1.6.3v1zm4.9 4.7v.7c-.3.2-.7.3-1.1.3-1 0-1.6-.5-1.6-1.8v-4.1h-1v-.9h1c0-.5 0-1.5.1-1.8l1-.2v2h1.5v.8h-1.5v3.9c0 .6.2 1 .9 1h.7v.2zm6.7-8.4h1.1l-4.1 4.3 4.4 4.6h-1.4l-4.3-4.5v-.2l4.1-4.4h.2zm-4.4.1v9.1h-1v-9.2h1zm10.3 5.9h-3.1c0 1.3.8 2.4 2.3 2.4s1.2 0 1.8-.4v.8c-.5.3-1.1.5-2 .5-2.4 0-3.3-1.8-3.3-3.5s1.1-3.6 3.1-3.6 2.7 1.6 2.7 2.8v.7h-1.4v.3zm-3.1-.8h3.5v-.2c0-.5-.3-1.7-1.7-1.7s-1.7.9-1.9 1.8zm5.4-2.7h1.1c1.2 3.1 1.7 4.7 1.9 5.3.4-1.3 1-2.9 1.9-5.3h1.1c-1 3-2.5 6.6-3.8 9.6h-1.2c.4-.9.9-2 1.4-3.1v-.2c-.3-.8-1.7-4.2-2.6-6.4h.2zm10.3 2.7c0 3-1.2 5.2-2.3 6.4h-1.1c1.5-1.9 2.4-3.9 2.4-6.4s-.9-4.5-2.4-6.4h1.1c1.1 1.2 2.3 3.4 2.3 6.5z" fill="#464646"/><path d="m200 531.9h80" stroke="#464646" stroke-width="1.7"/><g fill="#464646"><path d="m1079.1 552c0 .5.4.9.9.9s.9-.4.9-.9zm0-20v20h1.7v-20z"/><path d="m1080.9 596c0-.5-.4-.9-.9-.9s-.9.4-.9.9zm-1.5 25.6c.3.3.9.3 1.2 0l5.5-5.5c.3-.3.3-.9 0-1.2s-.9-.3-1.2 0l-4.9 4.9-4.9-4.9c-.3-.3-.9-.3-1.2 0s-.3.9 0 1.2zm-.3-25.6v25h1.7v-25z"/><path d="m1061.3 567.6v-8.5h1v8.4c0 .5.2.7.6.7h.3v.7h-.6c-.7 0-1.3-.2-1.3-1.6v.2zm6.1-5.5c2 0 3.2 1.5 3.2 3.5s-1.3 3.6-3.2 3.6-3.2-1.8-3.2-3.5 1.3-3.5 3.2-3.5zm0 1c-1.2 0-2 1-2 2.5s.7 2.6 2.1 2.6 2-.8 2-2.5-.6-2.5-2.1-2.5zm7.5-1c2 0 3.2 1.5 3.2 3.5s-1.3 3.6-3.2 3.6-3.2-1.8-3.2-3.5 1.3-3.5 3.2-3.5zm0 1c-1.2 0-2 1-2 2.5s.7 2.6 2.1 2.6 2-.8 2-2.5-.6-2.5-2.1-2.5zm8.9-.9h1.1l-3 3c.9 1 2.4 2.5 3.5 3.6h-1.4c-.7-.7-2.5-2.6-3.2-3.3v3.3h-1.1v-9.9h1.1v6.3c.7-.7 2.6-2.7 2.9-3.1zm7.5.1v6.6h-1v-.6c-.6.6-1.3.8-2 .8-1.2 0-2.3-.6-2.3-2.6v-4.2h1v4.1c0 1.1.5 1.7 1.5 1.7s1.2-.3 1.6-.7v-5.1zm4.6-.2c2.1 0 3.3 1.4 3.3 3.3s-2 3.8-4 3.8-.5 0-.7 0v2.8h-1v-9.3c.5-.2 1.4-.6 2.6-.6zm-.2 1c-.5 0-.9 0-1.3.2v4.7h.8c1.4 0 2.7-.8 2.7-2.7s-.8-2.4-2.2-2.4zm-57.9 22.8c0-3 1.2-5.2 2.3-6.4h1.1c-1.5 1.9-2.4 3.9-2.4 6.4s.8 4.5 2.4 6.4h-1.1c-1.1-1.2-2.3-3.4-2.3-6.5zm9.1 3.1v.9c-.5.2-1 .2-1.5.2-2.3 0-3.5-1.6-3.5-3.5s1.5-3.6 3.7-3.6 1.1 0 1.3.2v1c-.3 0-.7-.2-1.3-.2-1.4 0-2.5 1-2.5 2.5s1.2 2.5 2.5 2.5 1 0 1.3-.2zm5.1 0v-2.2h-.9c-1.4 0-2 .5-2 1.2s.4 1.2 1.7 1.2.9 0 1.3-.2zm1.1-3.3v3.8c-1 .5-1.8.6-2.6.6-1.5 0-2.6-.7-2.6-2.2s1.4-2.1 3.1-2.1h1v-.3c0-.4-.2-1.4-1.6-1.4s-1.3.2-1.8.4v-.9c.5-.4 1.2-.5 2-.5 1.8 0 2.5 1.2 2.5 2.6zm3 4.3h-1v-6.6h1v.7c.6-.6 1.3-.9 2.1-.9s1.5.3 1.9 1c.6-.6 1.3-1 2.3-1s2.3.5 2.3 2.7v4.2h-1v-4.1c0-1-.4-1.7-1.4-1.7s-1.3.3-1.7.8v5h-1v-4.1c0-1.1-.5-1.7-1.4-1.7s-1.2.3-1.7.8v5h-.4zm13.2-6.9c2.1 0 3.3 1.4 3.3 3.3s-2 3.8-4 3.8-.5 0-.7 0v2.8h-1v-9.3c.5-.2 1.4-.6 2.6-.6zm-.1 1c-.5 0-.9 0-1.3.2v4.7h.8c1.4 0 2.7-.8 2.7-2.7s-.8-2.4-2.2-2.4zm8.5 4.9v-2.2h-.9c-1.4 0-2 .5-2 1.2s.4 1.2 1.7 1.2.9 0 1.3-.2zm1.1-3.3v3.8c-1 .5-1.8.6-2.6.6-1.5 0-2.6-.7-2.6-2.2s1.4-2.1 3.1-2.1h1v-.3c0-.4-.2-1.4-1.6-1.4s-1.3.2-1.8.4v-.9c.5-.4 1.2-.5 2-.5 1.8 0 2.5 1.2 2.5 2.6zm2 4.2v-6.6h1v6.6zm.6-8c-.4 0-.7-.3-.7-.7s.3-.7.7-.7.7.3.7.7-.3.7-.7.7zm5.3 8h-1.5c-.6.3-.9.9-.9 1.2 0 .6.8 1.3 2 1.3s2.2-.7 2.2-1.4-.9-1-1.9-1.1zm-.6-5.9c-.9 0-1.5.6-1.5 1.5s.5 1.5 1.4 1.5 1.4-.5 1.4-1.4-.4-1.5-1.4-1.5zm-.6 4.8h1.4c1.7.2 2.7.8 2.7 2s-1.3 2.5-3.4 2.5-3.1-1.1-3.1-2.1.4-1.1 1.4-1.9c-.2-.3-.3-.7-.3-1s0-.6.2-.9c-.6-.4-.9-1-.9-1.9 0-1.3 1-2.4 2.6-2.4h1.1 2.3v.8h-1.3c.2.3.5.7.5 1.4 0 1.5-1.2 2.3-2.5 2.3s-.5 0-.8 0v.5c0 .2 0 .4.2.6zm5.2 1.1v-6.6h1v.7c.6-.6 1.3-.9 2.1-.9s2.3.5 2.3 2.7v4.1h-1v-4.1c0-1.1-.5-1.8-1.4-1.8s-1.3.3-1.8.9v5zm13-9.2h1.1l-4.1 4.3 4.4 4.6h-1.4l-4.3-4.5v-.2l4.1-4.4h.2zm-4.3.1v9.1h-1v-9.2h1zm10.3 5.9h-3.1c0 1.3.8 2.4 2.3 2.4s1.2 0 1.8-.4v.8c-.5.3-1.1.5-2 .5-2.4 0-3.3-1.8-3.3-3.5s1.1-3.6 3.1-3.6 2.7 1.6 2.7 2.8v.7h-1.4v.3zm-3.1-.8h3.5v-.2c0-.5-.3-1.7-1.7-1.7s-1.7.9-1.9 1.8zm5.4-2.7h1.1c1.2 3.1 1.7 4.7 1.9 5.3.4-1.3 1-2.9 1.9-5.3h1.1c-1 3-2.5 6.6-3.8 9.6h-1.2c.4-.9.9-2 1.4-3.1v-.2c-.3-.8-1.7-4.2-2.6-6.4h.2zm10.2 2.7c0 3-1.2 5.2-2.3 6.4h-1.1c1.5-1.9 2.4-3.9 2.4-6.4s-.8-4.5-2.4-6.4h1.1c1.1 1.2 2.3 3.4 2.3 6.5z"/><path d="m1080 532c.5 0 .9.4.9.9s-.4.9-.9.9v-1.7zm-80 0h80v1.7h-80z"/><path d="m1080.9 260c0-.5-.4-.9-.9-.9s-.9.4-.9.9zm0 20v-20h-1.7v20z"/><path d="m1079.1 213c0 .5.4.9.9.9s.9-.4.9-.9zm1.5-25.6c-.3-.3-.9-.3-1.2 0l-5.5 5.5c-.3.3-.3.9 0 1.2s.9.3 1.2 0l4.9-4.9 4.9 4.9c.3.3.9.3 1.2 0s.3-.9 0-1.2zm.3 25.6v-25h-1.7v25z"/><path d="m1061.3 231.6v-8.5h1v8.4c0 .5.2.7.6.7h.3v.7c0 .1-.4.1-.6.1-.7 0-1.3-.2-1.3-1.6zm6.1-5.5c2 0 3.2 1.5 3.2 3.5s-1.3 3.6-3.2 3.6-3.2-1.8-3.2-3.5 1.3-3.5 3.2-3.5zm0 1c-1.2 0-2 1-2 2.5s.7 2.6 2.1 2.6 2-.8 2-2.5-.6-2.5-2.1-2.5zm7.5-1c2 0 3.2 1.5 3.2 3.5s-1.3 3.6-3.2 3.6-3.2-1.8-3.2-3.5 1.3-3.5 3.2-3.5zm0 1c-1.2 0-2 1-2 2.5s.7 2.6 2.1 2.6 2-.8 2-2.5-.6-2.5-2.1-2.5zm8.9-.9h1.1c-.4.5-2.5 2.6-3 3.1.9 1 2.4 2.5 3.5 3.6h-1.4c-.7-.7-2.5-2.6-3.2-3.3v3.3h-1.1v-9.9h1.1v6.3c.7-.7 2.6-2.7 2.9-3.1zm7.5.1v6.6h-1v-.6c-.6.6-1.3.8-2 .8-1.2 0-2.3-.6-2.3-2.6v-4.2h1v4.1c0 1.1.5 1.7 1.5 1.7s1.2-.3 1.6-.7v-5.1zm4.6-.2c2.1 0 3.3 1.4 3.3 3.3s-2 3.8-4 3.8-.5 0-.7 0v2.8c-.3 0-1 0-1 .1v-9.3c.5-.2 1.4-.6 2.6-.6h-.2zm-.2 1c-.5 0-.9 0-1.3.2v4.7h.8c1.4 0 2.7-.8 2.7-2.7s-.8-2.4-2.2-2.4zm-63.9 22.8c0-3 1.2-5.2 2.3-6.4h1.1c-1.5 1.9-2.4 3.9-2.4 6.4s.8 4.5 2.4 6.4h-1.1c-1.1-1.2-2.3-3.4-2.3-6.5zm7.2-2.8c2 0 3.2 1.5 3.2 3.5s-1.3 3.6-3.2 3.6-3.2-1.8-3.2-3.5 1.3-3.5 3.2-3.5zm0 1c-1.2 0-2 1-2 2.5s.7 2.6 2.1 2.6 2-.8 2-2.5-.6-2.5-2.1-2.5zm7.3-1c2.1 0 3.3 1.4 3.3 3.3s-2 3.8-4 3.8-.5 0-.7 0v2.8c-.3 0-1 0-1 .1v-9.3c.5-.2 1.4-.6 2.6-.6h-.2zm-.1 1c-.5 0-.9 0-1.3.2v4.7h.8c1.4 0 2.7-.8 2.7-2.7s-.8-2.4-2.2-2.4zm7.4-1c2.1 0 3.3 1.4 3.3 3.3s-2 3.8-4 3.8-.5 0-.7 0v2.8c-.3 0-1 0-1 .1v-9.3c.5-.2 1.4-.6 2.6-.6h-.2zm-.1 1c-.5 0-.9 0-1.3.2v4.7h.8c1.4 0 2.7-.8 2.7-2.7s-.8-2.4-2.2-2.4zm7.7-1c2 0 3.2 1.5 3.2 3.5s-1.3 3.6-3.2 3.6-3.2-1.8-3.2-3.5 1.3-3.5 3.2-3.5zm0 1c-1.2 0-2 1-2 2.5s.7 2.6 2.1 2.6 2-.8 2-2.5-.6-2.5-2.1-2.5zm4.7-.9h1v1c.5-.7 1.4-1.2 2.2-1.2v1c-1 0-1.8.5-2.2 1v4.6h-1v-6.6zm8 5.9v.7c-.3.2-.7.3-1 .3-1 0-1.6-.5-1.6-1.8v-4.1h-1v-.9h1v-1.8l.9-.2v2h1.5v.8h-1.5v3.9c0 .6.2 1 .9 1s.4 0 .7-.1v.2zm6.6-5.8v6.6h-1v-.6c-.6.6-1.3.8-2 .8-1.2 0-2.3-.6-2.3-2.6v-4.2h1v4.1c0 1.1.5 1.7 1.5 1.7s1.2-.3 1.6-.7v-5.1zm2 6.6v-6.6h1v.7c.6-.6 1.3-.9 2.2-.9s2.3.5 2.3 2.7v4.1h-1v-4.1c0-1.1-.5-1.8-1.4-1.8s-1.3.3-1.8.9v5zm7.5 0v-6.6h1v6.6h-1.1c0-.1.2-.1.2-.1zm.6-8c-.4 0-.7-.3-.7-.7s.3-.7.7-.7.7.3.7.7-.3.7-.7.7zm5.6 7.2v.7c-.3.2-.7.3-1 .3-1 0-1.6-.5-1.6-1.8v-4.1h-1v-.9h1v-1.8l.9-.2v2h1.5v.8h-1.5v3.9c0 .6.2 1 .9 1s.4 0 .7-.1v.2zm.6-5.9h1.2c1.2 3.1 1.7 4.7 1.9 5.3.5-1.3 1-2.9 1.9-5.3h1.1c-1 3-2.5 6.6-3.8 9.6h-1.2c.4-.9.9-2 1.4-3.1v-.2c-.3-.8-1.7-4.2-2.6-6.4zm12.9-2.5h1.1c0 .1-4.1 4.4-4.1 4.4l4.4 4.6c0 .1-1.2.1-1.2.1h-.2l-4.3-4.5v-.2l4.1-4.4zm-4.3.1v9.1h-1v-9.2h1zm10.3 5.9h-3.1c0 1.3.8 2.4 2.3 2.4s1.2-.1 1.8-.4v.8c-.5.3-1.1.5-2 .5-2.4 0-3.3-1.8-3.3-3.5s1.2-3.6 3.1-3.6 2.7 1.6 2.7 2.8v.7h-1.4v.3zm-3.1-.8h3.5v-.2c0-.5-.3-1.7-1.7-1.7s-1.7.9-1.9 1.8zm5.4-2.7h1.1c1.2 3.1 1.7 4.7 1.9 5.3.4-1.3 1-2.9 1.9-5.3h1.1c-1 3-2.5 6.6-3.8 9.6h-1.3c.4-.9.9-2 1.4-3.1v-.2c-.3-.8-1.7-4.2-2.6-6.4h.3zm10.2 2.7c0 3-1.2 5.2-2.3 6.4h-1.1c1.5-1.9 2.4-3.9 2.4-6.4s-.9-4.5-2.4-6.4h1.1c1.1 1.2 2.3 3.4 2.3 6.5z"/><path d="m855.4 391.1c2.1 0 3.3 1.4 3.3 3.3s-2 3.8-4 3.8-.5 0-.7 0v2.8c-.3 0-1 0-1 .1v-9.3c.5-.2 1.4-.6 2.6-.6h-.2zm-.1 1c-.5 0-.9 0-1.3.2v4.7h.8c1.4 0 2.7-.8 2.7-2.7s-.8-2.4-2.2-2.4zm4.9-.9h1v1c.5-.7 1.4-1.2 2.3-1.2v1c-1 0-1.8.5-2.2 1v4.6h-1v-6.6l-.2.2zm7.3-.1c2 0 3.2 1.5 3.2 3.5s-1.3 3.6-3.2 3.6-3.2-1.8-3.2-3.5 1.3-3.5 3.2-3.5zm-.1 1c-1.2 0-2 1-2 2.5s.7 2.6 2.1 2.6 2-.8 2-2.5-.6-2.5-2.1-2.5zm8.5 5.8v-6.6h1v6.6zm.5-8.1c-.4 0-.7-.3-.7-.7s.3-.7.7-.7.7.3.7.7-.3.7-.7.7zm-4.1 2.4h-.9v-.8h.9v-.6c0-.7 0-1.3.3-1.7.4-.7 1-1.1 1.8-1.1h.6v1h-.5c-.6 0-1.1.3-1.1 1.7v.7h1.3v.8h-1.3v5.7h-1v-5.7zm6.7 4.4v-8.5h1v8.4c0 .5.2.7.6.7h.3v.7c0 .1-.4.1-.6.1-.7 0-1.3-.2-1.3-1.6zm7.1-1.9h-3.1c0 1.3.8 2.4 2.3 2.4s1.2-.1 1.8-.4v.8c-.5.3-1.1.5-2 .5-2.4 0-3.3-1.8-3.3-3.5s1.1-3.6 3.1-3.6 2.7 1.6 2.7 2.8v.7h-1.4v.3zm-3-.8h3.5v-.2c0-.5-.3-1.7-1.7-1.7s-1.7.9-1.9 1.8h.1zm-47.2 21c0-3 1.2-5.2 2.3-6.4h1.1c-1.5 1.9-2.4 3.9-2.4 6.4s.8 4.5 2.4 6.4h-1.1c-1.1-1.2-2.3-3.4-2.3-6.5zm7.5-2.8c2.1 0 3.3 1.4 3.3 3.3s-2 3.8-4 3.8-.5 0-.7 0v2.8c-.3 0-1 0-1 .1v-9.3c.5-.2 1.4-.6 2.6-.6h-.2zm-.1 1c-.5 0-.9 0-1.3.2v4.7h.8c1.4 0 2.7-.8 2.7-2.7s-.8-2.4-2.2-2.4zm8.7 2.6h-3.1c0 1.3.8 2.4 2.3 2.4s1.2-.1 1.8-.4v.8c-.5.3-1.1.5-2 .5-2.4 0-3.3-1.8-3.3-3.5s1.1-3.6 3.1-3.6 2.7 1.6 2.7 2.8v.7h-1.4v.3zm-3-.8h3.5v-.2c0-.5-.3-1.7-1.7-1.7s-1.7.9-1.9 1.8h.1zm6-2.7h1v1c.5-.7 1.4-1.2 2.3-1.2v1c-1 0-1.8.5-2.2 1v4.6h-1v-6.6l-.2.2zm8.3 1.2c-.4-.2-1-.4-1.6-.4-.9 0-1.2.4-1.2.9s.3.7 1.3 1.1c1.4.5 2 1.1 2 2.1s-1 2-2.5 2-1.5-.2-1.9-.4v-1c.6.4 1.3.6 1.9.6.9 0 1.3-.4 1.3-.9s-.3-.8-1.3-1.2c-1.4-.5-2-1.1-2-2.1s.9-1.9 2.4-1.9 1.3.1 1.6.3v1zm4.6-1.3c2 0 3.2 1.5 3.2 3.5s-1.3 3.6-3.2 3.6-3.2-1.8-3.2-3.5 1.3-3.5 3.2-3.5zm0 1c-1.2 0-2 1-2 2.5s.7 2.6 2.1 2.6 2-.8 2-2.5-.6-2.5-2.1-2.5zm4.7 5.8v-6.6h1v.7c.6-.6 1.3-.9 2.1-.9s2.3.5 2.3 2.7v4.1h-1v-4.1c0-1.1-.5-1.8-1.4-1.8s-1.3.3-1.8.9v5zm13-9.2h1.1c0 .1-4.1 4.4-4.1 4.4l4.4 4.6c0 .1-1.2.1-1.2.1h-.2l-4.3-4.5v-.2l4.1-4.4zm-4.3.1v9.1h-1v-9.2h1zm10.2 5.9h-3.1c0 1.3.8 2.4 2.3 2.4s1.2-.1 1.8-.4v.8c-.5.3-1.1.5-2 .5-2.4 0-3.3-1.8-3.3-3.5s1.1-3.6 3.1-3.6 2.7 1.6 2.7 2.8v.7h-1.4v.3zm-3-.8h3.5v-.2c0-.5-.3-1.7-1.7-1.7s-1.7.9-1.9 1.8h.1zm5.4-2.7h1.1c1.2 3.1 1.7 4.7 1.9 5.3.4-1.3 1-2.9 1.9-5.3h1.1c-1 3-2.5 6.6-3.8 9.6h-1.2c.4-.9.9-2 1.4-3.1v-.2c-.3-.8-1.7-4.2-2.6-6.4h.2zm10.2 2.7c0 3-1.2 5.2-2.3 6.4h-1.1c1.5-1.9 2.4-3.9 2.4-6.4s-.9-4.5-2.4-6.4h1.1c1.1 1.2 2.3 3.4 2.3 6.5z"/><path d="m1080 279.1c.5 0 .9.4.9.9s-.4.9-.9.9v-1.7zm-80 0h80v1.7h-80z"/><path d="m200.9 260c0-.5-.4-.9-.9-.9s-.9.4-.9.9zm0 20v-20h-1.7v20z"/><path d="m199.1 213c0 .5.4.9.9.9s.9-.4.9-.9zm1.5-25.6c-.3-.3-.9-.3-1.2 0l-5.5 5.5c-.3.3-.3.9 0 1.2s.9.3 1.2 0l4.9-4.9 4.9 4.9c.3.3.9.3 1.2 0s.3-.9 0-1.2zm.3 25.6v-25h-1.7v25z"/><path d="m181.3 231.6v-8.5h1v8.4c0 .5.2.7.6.7h.3v.7c-.1.1-.4.1-.6.1-.7 0-1.3-.2-1.3-1.6zm6.1-5.5c2 0 3.2 1.5 3.2 3.5s-1.3 3.6-3.2 3.6-3.2-1.8-3.2-3.5 1.3-3.5 3.2-3.5zm0 1c-1.2 0-2 1-2 2.5s.7 2.6 2.1 2.6 2-.8 2-2.5-.6-2.5-2.1-2.5zm7.5-1c2 0 3.2 1.5 3.2 3.5s-1.3 3.6-3.2 3.6-3.2-1.8-3.2-3.5 1.3-3.5 3.2-3.5zm0 1c-1.2 0-2 1-2 2.5s.7 2.6 2.1 2.6 2-.8 2-2.5-.6-2.5-2.1-2.5zm8.9-.9h1.1c-.4.5-2.5 2.6-3 3.1.9 1 2.4 2.5 3.5 3.6h-1.4c-.7-.7-2.5-2.6-3.2-3.3v3.3h-1v-9.9h1v6.3c.7-.7 2.6-2.7 3-3.1zm7.5.1v6.6h-1v-.6c-.6.6-1.3.8-2 .8-1.2 0-2.3-.6-2.3-2.6v-4.2h1v4.1c0 1.1.5 1.7 1.5 1.7s1.2-.3 1.6-.7v-5.1zm4.6-.2c2.1 0 3.3 1.4 3.3 3.3s-2 3.8-4 3.8-.5 0-.7 0v2.8c-.3 0-1 0-1 .1v-9.3c.5-.2 1.4-.6 2.6-.6h-.2zm-.2 1c-.5 0-.9 0-1.3.2v4.7h.8c1.4 0 2.7-.8 2.7-2.7s-.8-2.4-2.2-2.4zm-52.4 22.8c0-3 1.2-5.2 2.3-6.4h1.1c-1.5 1.9-2.4 3.9-2.4 6.4s.8 4.5 2.4 6.4h-1.1c-1.1-1.2-2.3-3.4-2.3-6.5zm8.3 3v-2.2h-.9c-1.4 0-2 .5-2 1.2s.4 1.2 1.7 1.2.9 0 1.3-.2zm1.1-3.2v3.8c-1 .5-1.8.6-2.6.6-1.5 0-2.6-.7-2.6-2.2s1.4-2.1 3.1-2.1h1v-.3c0-.4-.2-1.4-1.6-1.4s-1.3.2-1.8.4v-.9c.5-.4 1.2-.5 2-.5 1.8 0 2.5 1.2 2.5 2.6zm6.4 3.2v.9c-.5.2-1 .2-1.5.2-2.3 0-3.5-1.6-3.5-3.5s1.5-3.6 3.7-3.6 1.1 0 1.3.2v1c-.3-.1-.7-.2-1.3-.2-1.4 0-2.5 1-2.5 2.5s1.2 2.5 2.5 2.5 1 0 1.3-.2zm5.9 0v.9c-.5.2-1 .2-1.5.2-2.3 0-3.5-1.6-3.5-3.5s1.5-3.6 3.7-3.6 1.1 0 1.3.2v1c-.3-.1-.7-.2-1.3-.2-1.4 0-2.5 1-2.5 2.5s1.2 2.5 2.5 2.5 1 0 1.3-.2zm4.1-5.8c2 0 3.2 1.5 3.2 3.5s-1.3 3.6-3.2 3.6-3.2-1.8-3.2-3.5 1.3-3.5 3.2-3.5zm-.1 1c-1.2 0-2 1-2 2.5s.7 2.6 2.1 2.6 2-.8 2-2.5-.6-2.5-2.1-2.5zm10.2-.8v6.6h-1v-.6c-.6.6-1.3.8-2 .8-1.2 0-2.3-.6-2.3-2.6v-4.2h1v4.1c0 1.1.5 1.7 1.5 1.7s1.2-.3 1.6-.7v-5.1zm1.9 6.6v-6.6h1v.7c.6-.6 1.3-.9 2.1-.9s2.3.5 2.3 2.7v4.1h-1v-4.1c0-1.1-.5-1.8-1.4-1.8s-1.3.3-1.8.9v5zm10.4-.8v.7c-.3.2-.7.3-1.1.3-1 0-1.6-.5-1.6-1.8v-4.1h-1v-.9h1c0-.5 0-1.5.1-1.8l1-.2v2h1.5v.8h-1.5v3.9c0 .6.2 1 .9 1s.4 0 .7-.1zm6.7-8.4h1.1s.1 0 0 .1l-4.1 4.3 4.4 4.6c0 .1-1.2.1-1.2.1h-.2l-4.3-4.5v-.2l4.1-4.4zm-4.3.1v9.1h-1v-9.2h1zm10.3 5.9h-3.1c0 1.3.8 2.4 2.3 2.4s1.2-.1 1.8-.4v.8c-.5.3-1.1.5-2 .5-2.4 0-3.3-1.8-3.3-3.5s1.1-3.6 3.1-3.6 2.7 1.6 2.7 2.8v.7h-1.4v.3zm-3.1-.8h3.5v-.2c0-.5-.3-1.7-1.7-1.7s-1.7.9-1.9 1.8zm5.4-2.7h1.1c1.2 3.1 1.7 4.7 1.9 5.3.4-1.3 1-2.9 1.9-5.3h1.1c-1 3-2.5 6.6-3.8 9.6h-1.3c.4-.9.9-2 1.4-3.1v-.2c-.3-.8-1.7-4.2-2.6-6.4h.3zm10.2 2.7c0 3-1.2 5.2-2.3 6.4h-1.1c1.5-1.9 2.4-3.9 2.4-6.4s-.9-4.5-2.4-6.4h1.1c1.1 1.2 2.3 3.4 2.3 6.5z"/><path d="m200 280.9c-.5 0-.9-.4-.9-.9s.4-.9.9-.9v1.7zm80 0h-80v-1.7h80z"/></g><path d="m688 513v20" stroke="#464646" stroke-linecap="round" stroke-width="1.7"/><path d="m688.1 533.9c-.5 0-.9-.4-.9-.9s.4-.9.9-.9v1.7zm50.4-1.5c.3.3.3.9 0 1.2l-5.5 5.5c-.3.3-.9.3-1.2 0s-.3-.9 0-1.2l4.9-4.9-4.9-4.9c-.3-.3-.3-.9 0-1.2s.9-.3 1.2 0zm-50.4-.3h49.8v1.7h-49.8z" fill="#464646"/><path d="m670.8 480.6v-8.5h1v8.4c0 .5.2.7.6.7h.3v.7c0 .1-.3.1-.6.1-.7 0-1.3-.2-1.3-1.6zm6.1-5.5c2 0 3.2 1.5 3.2 3.5s-1.3 3.6-3.2 3.6-3.2-1.8-3.2-3.5 1.3-3.5 3.2-3.5zm0 1c-1.2 0-2 1-2 2.5s.7 2.6 2.1 2.6 2-.8 2-2.5-.6-2.5-2.1-2.5zm7.5-1c2 0 3.2 1.5 3.2 3.5s-1.3 3.6-3.2 3.6-3.2-1.8-3.2-3.5 1.3-3.5 3.2-3.5zm0 1c-1.2 0-2 1-2 2.5s.7 2.6 2.1 2.6 2-.8 2-2.5-.6-2.5-2.1-2.5zm8.9-.9h1.1c-.4.5-2.5 2.6-3 3.1.9 1 2.4 2.5 3.5 3.6h-1.4c-.7-.7-2.5-2.6-3.2-3.3v3.3h-1v-9.9h1v6.3c.7-.7 2.6-2.7 3-3.1zm7.5.1v6.6h-1v-.6c-.6.6-1.3.8-2 .8-1.2 0-2.3-.6-2.3-2.6v-4.2h1v4.1c0 1.1.5 1.7 1.5 1.7s1.2-.3 1.6-.7v-5.1zm4.6-.2c2.1 0 3.3 1.4 3.3 3.3s-2 3.8-4 3.8-.5 0-.7 0v2.8c-.3 0-1 0-1 .1v-9.3c.5-.2 1.4-.6 2.6-.6h-.2zm-.2 1c-.5 0-.9 0-1.3.2v4.7h.8c1.4 0 2.7-.8 2.7-2.7s-.8-2.4-2.2-2.4zm-49.8 22.8c0-3 1.2-5.2 2.3-6.4h1.1c-1.5 1.9-2.4 3.9-2.4 6.4s.8 4.5 2.4 6.4h-1.1c-1.1-1.2-2.3-3.4-2.3-6.5zm7.5-2.8c2.1 0 3.3 1.4 3.3 3.3s-2 3.8-4 3.8-.5 0-.7 0v2.8c-.3 0-1 0-1 .1v-9.3c.5-.2 1.4-.6 2.6-.6h-.2zm-.1 1c-.5 0-.9 0-1.3.2v4.7h.8c1.4 0 2.7-.8 2.7-2.7s-.8-2.4-2.2-2.4zm8.7 2.6h-3.1c0 1.3.8 2.4 2.3 2.4s1.2-.1 1.8-.4v.8c-.5.3-1.1.5-2 .5-2.4 0-3.3-1.8-3.3-3.5s1.1-3.6 3.1-3.6 2.7 1.6 2.7 2.8v.7h-1.4v.3zm-3-.8h3.5v-.2c0-.5-.3-1.7-1.7-1.7s-1.7.9-1.9 1.8h.1zm6-2.7h1v1c.5-.7 1.4-1.2 2.3-1.2v1c-1 0-1.8.5-2.2 1v4.6h-1v-6.6l-.2.2zm8.3 1.2c-.4-.2-1-.4-1.6-.4-.9 0-1.2.4-1.2.9s.3.7 1.3 1.1c1.4.5 2 1.1 2 2.1s-1 2-2.5 2-1.5-.2-1.9-.4v-1c.6.4 1.3.6 1.9.6.9 0 1.3-.4 1.3-.9s-.3-.8-1.3-1.2c-1.4-.5-2-1.1-2-2.1s.9-1.9 2.4-1.9 1.3.1 1.6.3v1zm4.6-1.3c2 0 3.2 1.5 3.2 3.5s-1.3 3.6-3.2 3.6-3.2-1.8-3.2-3.5 1.3-3.5 3.2-3.5zm0 1c-1.2 0-2 1-2 2.5s.7 2.6 2.1 2.6 2-.8 2-2.5-.6-2.5-2.1-2.5zm4.7 5.8v-6.6h1v.7c.6-.6 1.3-.9 2.1-.9s2.3.5 2.3 2.7v4.1h-1v-4.1c0-1.1-.5-1.8-1.4-1.8s-1.3.3-1.8.9v5zm13-9.2h1.1c0 .1-4.1 4.4-4.1 4.4l4.4 4.6c0 .1-1.2.1-1.2.1h-.2l-4.3-4.5v-.2l4.1-4.4zm-4.3.1v9.1h-1v-9.2h1zm10.2 5.9h-3.1c0 1.3.8 2.4 2.3 2.4s1.2-.1 1.8-.4v.8c-.5.3-1.1.5-2 .5-2.4 0-3.3-1.8-3.3-3.5s1.1-3.6 3.1-3.6 2.7 1.6 2.7 2.8v.7h-1.4v.3zm-3-.8h3.5v-.2c0-.5-.3-1.7-1.7-1.7s-1.7.9-1.9 1.8h.1zm5.4-2.7h1.1c1.2 3.1 1.7 4.7 1.9 5.3.4-1.3 1-2.9 1.9-5.3h1.1c-1 3-2.5 6.6-3.8 9.6h-1.2c.4-.9.9-2 1.4-3.1v-.2c-.3-.8-1.7-4.2-2.6-6.4h.2zm10.2 2.7c0 3-1.2 5.2-2.3 6.4h-1.1c1.5-1.9 2.4-3.9 2.4-6.4s-.9-4.5-2.4-6.4h1.1c1.1 1.2 2.3 3.4 2.3 6.5z" fill="#464646"/><path d="m687.9 462v-30" stroke="#464646" stroke-linecap="round" stroke-width="1.7"/><path d="m735.7 372h-191.4c-2.375 0-4.3 1.925-4.3 4.3v51.4c0 2.375 1.925 4.3 4.3 4.3h191.4c2.375 0 4.3-1.925 4.3-4.3v-51.4c0-2.375-1.925-4.3-4.3-4.3z" fill="#2fb880"/><path d="m584.8 396.4-.2 1.5c0 .1-6.4.1-6.4.1v-10.4c0-.1 6.2-.1 6.2-.1 0 .1.2 1.6.2 1.6 0 .1-4.6.1-4.6.1v2.5h4.2v1.6h-4.3v2.8h4.8v.3zm3.2-2.3-2.4-3.8c0-.1 1.9-.1 1.9-.1s0 0 .2.1l1.5 2.8 1.6-2.8h1.8c-.6 1-1.8 3-2.4 3.8.7 1.1 2 3.1 2.6 3.9 0 .1-2 .1-2 .1s-.2 0-.2-.1l-1.6-2.8-1.6 2.8h-1.9c.7-1.1 1.8-2.9 2.5-3.9zm9.3-4.1c2.6 0 4 1.8 4 3.8 0 2.9-2.4 4.4-4.8 4.4s-.3 0-.5 0v2.9c-.6.1-1.6.3-1.7.3v-10.5c.7-.2 1.8-.6 3.2-.6v-.3zm-.2 1.6c-.4 0-.8 0-1.1.2v4.7h.6c1.2 0 2.6-.7 2.6-2.6s-.8-2.3-2.1-2.3zm10.4 2.9h-3.2c0 1.1.8 2 2.4 2s1.4-.1 2-.4v1.5c-.6.3-1.3.5-2.4.5-2.9 0-4-2-4-4s1.3-4.2 3.8-4.2 3.3 1.9 3.3 3.4v1c-.2.1-.9.1-1.6.1h-.3zm-3.2-1.4h3.3c0-.6-.3-1.6-1.5-1.6s-1.6.8-1.7 1.6zm6.6-3h1.7c0 .3 0 .7.2 1.1.5-.7 1.5-1.2 2.6-1.2s0 0 0 .1v1.7c-1.1.1-2.1.5-2.4.9v5.2c0 .1-1.7.1-1.7.1v-7.7l-.2-.2zm5.7 7.8v-7.6c0-.1 1.7-.1 1.7-.1v7.7c0 .1-1.6.1-1.6.1s-.2 0-.2-.1zm.9-8.9c-.7 0-1.1-.4-1.1-1.1s.5-1.1 1.1-1.1 1.1.5 1.1 1.1-.4 1.1-1.1 1.1zm7.7 5.5h-3.2c0 1.1.8 2 2.4 2s1.4-.1 2-.4v1.5c-.6.3-1.3.5-2.4.5-2.9 0-4-2-4-4s1.3-4.2 3.8-4.2 3.3 1.9 3.3 3.4v1c-.2.1-.9.1-1.6.1h-.3zm-3.2-1.4h3.3c0-.6-.3-1.6-1.5-1.6s-1.6.8-1.7 1.6zm6.6 4.8v-7.6c0-.1 1.5-.1 1.5-.1s.2 0 .2.1v.6c.7-.6 1.5-.9 2.3-.9s2.7.6 2.7 3.2v4.7c0 .1-1.7.1-1.7.1v-4.7c0-1.1-.4-1.7-1.4-1.7s-1.2.2-1.6.7v5.6c0 .1-1.7.1-1.7.1 0-.1 0-.1 0-.1h-.2zm14.3-1.5v1.4c-.5.3-1.2.4-1.8.4-2.6 0-4.1-1.8-4.1-4.1s1.8-4.1 4.4-4.1 1.2 0 1.5.2v1.6c-.3-.1-.8-.2-1.4-.2-1.5 0-2.5.9-2.5 2.4s1.3 2.4 2.5 2.4 1.1 0 1.4-.2zm6.1-1.9h-3.2c0 1.1.8 2 2.4 2s1.4-.1 2-.4v1.5c-.6.3-1.3.5-2.4.5-2.9 0-4-2-4-4s1.3-4.2 3.8-4.2 3.3 1.9 3.3 3.4v1c-.2.1-.9.1-1.6.1h-.3zm-3.3-1.4h3.3c0-.6-.3-1.6-1.5-1.6s-1.6.8-1.7 1.6zm17.3 3.3-.2 1.5c0 .1-6.4.1-6.4.1v-10.4c0-.1 6.2-.1 6.2-.1 0 .1.2 1.6.2 1.6 0 .1-4.6.1-4.6.1v2.5h4.2v1.6h-4.3v2.8h4.8v.3zm5 1.6h-2c-.5-1.5-2.1-6.1-2.6-7.7 0-.1 1.8-.1 1.8-.1 1.2 3.7 1.6 5.3 1.7 6 .2-.7.7-2.2 1.9-6h1.7c-.6 1.8-2.2 6.3-2.7 7.7 0 0 0 .1-.2.1zm8.7-3.5h-3.2c0 1.1.8 2 2.4 2s1.4-.1 2-.4v1.5c-.6.3-1.3.5-2.4.5-2.9 0-4-2-4-4s1.3-4.2 3.8-4.2 3.3 1.9 3.3 3.4v1c-.2.1-.9.1-1.6.1h-.3zm-3.3-1.4h3.3c0-.6-.3-1.6-1.5-1.6s-1.6.8-1.7 1.6zm6.6 4.8v-7.6c0-.1 1.5-.1 1.5-.1s.2 0 .2.1v.6c.7-.6 1.5-.9 2.3-.9s2.7.6 2.7 3.2v4.7c0 .1-1.7.1-1.7.1v-4.7c0-1.1-.4-1.7-1.4-1.7s-1.2.2-1.6.7v5.6c0 .1-1.7.1-1.7.1 0-.1 0-.1 0-.1h-.2zm12.5-1.3v1.4c-.4.2-.8.2-1.4.2-1.3 0-2.1-.6-2.1-2.2v-4.2h-1v-1.4c0-.1 1-.1 1-.1 0-.6 0-1.6.2-2 0-.1 1.6-.3 1.6-.3v2.3h1.6v1.5c0 .1-1.6.1-1.6.1v3.8c0 .7.2 1 .9 1h.6.2zm6.1-4.6c-.5-.3-1.3-.5-2-.5s-1.1.4-1.1.7.2.6 1.3 1c1.8.7 2.4 1.4 2.4 2.5s-1.2 2.4-3.2 2.4-1.8-.2-2.3-.4v-1.7c.7.4 1.6.6 2.3.6s1.2-.3 1.2-.7-.3-.7-1.3-1.1c-1.7-.6-2.4-1.4-2.4-2.5s1-2.4 3-2.4 1.6.1 2 .3v1.6l.2.2zm-104.1 21.3c0-3.4 1.4-6 2.5-7.3h1.8c-1.7 2.3-2.6 4.5-2.6 7.3s.9 5.1 2.6 7.2c0 .1-1.6.1-1.6.1h-.2c-1.2-1.3-2.5-3.8-2.5-7.3zm6 4.6v-10.2c.6-.1 2-.1 3.1-.1 3.3 0 3.9 1.8 3.9 2.8s-.6 1.8-1 2.1c.6.3 1.5 1 1.5 2.5s-1.7 3.2-4.4 3.2h-3.1zm1.9-4.6v3h1.2c1.5 0 2.5-.5 2.5-1.6s-.3-1.2-1.2-1.4c-.3 0-.7-.1-1.1-.1h-1.5zm0-4.2v2.6h2.7c.3-.3.6-.6.6-1.3s-.7-1.4-2-1.4h-1.3zm13.2 8.9h-6.5v-1.4c.7-.5 1.8-1.3 2.7-2.2 1.6-1.5 1.9-2.4 1.9-3.2s-.5-1.8-1.9-1.8-1.7.3-2.4.7v-1.7c.8-.4 1.7-.7 2.8-.7 2.4 0 3.4 1.5 3.4 3.2s-.4 2.4-1.8 3.7c-.8.8-1.4 1.3-2 1.7h4.2c0 .1-.3 1.5-.3 1.5s0 .1-.2.1h.2-.1zm2.1-.1v-10.2c.6-.1 2-.1 3.1-.1 3.3 0 3.9 1.8 3.9 2.8s-.6 1.8-1 2.1c.6.3 1.5 1 1.5 2.5s-1.7 3.2-4.4 3.2h-3.1zm1.9-4.6v3h1.2c1.5 0 2.5-.5 2.5-1.6s-.3-1.2-1.2-1.4c-.3 0-.7-.1-1.1-.1h-1.5zm0-4.2v2.6h2.7c.3-.3.6-.6.6-1.3s-.7-1.4-2-1.4h-1.3zm16.6 6.1h-3.8l-.9 2.6s0 .1-.2.1h-1.6v-.2l3.3-9.4v-.9c0-.1 2.2-.1 2.2-.1l3.7 10.3c0 .1-1.8.1-1.8.1h-.2l-.9-2.7v.2zm-3.3-1.7h2.8c-.3-1.1-1.1-3.3-1.4-4.4-.3 1.1-.9 2.9-1.4 4.4zm12.8 2.9v1.4c-.5.3-1.2.4-1.8.4-2.6 0-4.1-1.8-4.1-4.1s1.8-4.1 4.4-4.1 1.2 0 1.5.2v1.6c-.3-.1-.8-.2-1.4-.2-1.5 0-2.5.9-2.5 2.4s1.3 2.4 2.5 2.4 1.1 0 1.4-.2zm5.6.2v1.4c-.4.2-.8.2-1.4.2-1.3 0-2.1-.6-2.1-2.2v-4.2h-1v-1.4c0-.1 1-.1 1-.1 0-.6 0-1.6.2-2 0-.1 1.6-.3 1.6-.3v2.3h1.6v1.5c0 .1-1.6.1-1.6.1v3.8c0 .7.2 1 .9 1h.6.2zm1.4 1.3v-7.6c0-.1 1.7-.1 1.7-.1v7.7c0 .1-1.6.1-1.6.1s-.2 0-.2-.1zm1-8.9c-.7 0-1.1-.4-1.1-1.1s.5-1.1 1.1-1.1 1.1.5 1.1 1.1-.4 1.1-1.1 1.1zm6.7 9h-2c-.5-1.5-2.1-6.1-2.6-7.7 0-.1 1.8-.1 1.8-.1 1.2 3.7 1.6 5.3 1.7 6 .2-.7.7-2.2 1.9-6h1.7c-.6 1.8-2.2 6.3-2.7 7.7 0 0 0 .1-.2.1zm4.1-.1v-7.6c0-.1 1.7-.1 1.7-.1v7.7c0 .1-1.6.1-1.6.1s-.2 0-.2-.1zm.9-8.9c-.7 0-1.1-.4-1.1-1.1s.5-1.1 1.1-1.1 1.1.5 1.1 1.1-.4 1.1-1.1 1.1zm6.9 7.6v1.4c-.4.2-.8.2-1.4.2-1.3 0-2.1-.6-2.1-2.2v-4.2h-1v-1.4c0-.1 1-.1 1-.1 0-.6 0-1.6.2-2 0-.1 1.6-.3 1.6-.3v2.3h1.6v1.5c0 .1-1.6.1-1.6.1v3.8c0 .7.2 1 .9 1h.6.2zm.8-6.5h2c1 3 1.6 4.7 1.8 5.5.5-1.6 1.1-3.3 1.8-5.5h1.8c-1.2 3.6-2.9 8-4.2 10.9 0 0 0 .1-.2.1h-1.7c.5-1 1-2.1 1.5-3.3v-.3c-.4-1.1-2-4.9-2.9-7.4zm12.4 3.2c0 3.5-1.4 5.9-2.5 7.3h-1.8c1.7-2.3 2.6-4.5 2.6-7.3s-.9-5.1-2.6-7.2c0-.1 1.6-.1 1.6-.1h.2c1.2 1.4 2.5 3.8 2.5 7.3z" fill="#fdfdfd"/><path d="m980.6 404.6c.3-.3.3-.9 0-1.2l-5.5-5.5c-.3-.3-.9-.3-1.2 0s-.3.9 0 1.2l4.9 4.9-4.9 4.9c-.3.3-.3.9 0 1.2s.9.3 1.2 0zm-60.6-1.5c-.5 0-.9.4-.9.9s.4.9.9.9v-1.7zm60 0h-60v1.7h60z" fill="#464646"/><path d="m815 404.9c.5 0 .9-.4.9-.9s-.4-.9-.9-.9v1.7zm0-1.8h-75v1.7h75z" fill="#464646"/></g><g fill="#fdfdfd"><path d="m831.3 540.9v1.6c-.5.2-1.3.3-2.2.3-3 0-5.5-1.7-5.5-5.4s2.2-5.4 5.7-5.4 1.7 0 2.1.3v1.7c-.5-.2-1.2-.4-2.1-.4-2.3 0-3.7 1.4-3.7 3.7s2.1 3.7 3.7 3.7 1.4 0 2-.3z"/><path d="m838.9 537.8v4.2c-1.3.6-2.2.7-3.3.7-1.8 0-3.1-.8-3.1-2.6s1.5-2.5 3.6-2.5h1v-.2c0-.4-.2-1.2-1.6-1.2s-1.5.2-2.1.4v-1.6c.7-.3 1.6-.5 2.4-.5 2.2 0 3.2 1.4 3.2 3.2h-.1z"/><path d="m842.7 542.7h-1.7v-7.6h1.7v.6c.8-.6 1.5-.9 2.3-.9s1.6.4 2.1 1.1c.7-.6 1.5-1.1 2.6-1.1s2.7.7 2.7 3.1v4.8h-1.7v-4.6c0-.9-.4-1.6-1.3-1.6s-1.2.3-1.6.7v5.6h-1.9v-4.7c0-1.1-.5-1.6-1.3-1.6s-1 .2-1.5.6v5.6z"/><path d="m857.7 534.7c2.6 0 3.9 1.8 3.9 3.8 0 2.9-2.4 4.4-4.8 4.4s-.3 0-.5 0v2.9c-.6 0-1.6.2-1.7.2v-10.5c.7-.2 1.8-.6 3.2-.6v-.3h-.1z"/><path d="m867.3 541.1v-2h-.9c-1.3 0-1.8.4-1.8 1.1s.4 1.1 1.6 1.1.8 0 1.1-.2z"/><path d="m869.1 537.8v4.2c-1.3.6-2.2.7-3.3.7-1.7 0-3.1-.8-3.1-2.6s1.5-2.5 3.6-2.5h1v-.2c0-.4-.2-1.2-1.6-1.2s-1.5.2-2.1.4v-1.6c.7-.3 1.6-.5 2.4-.5 2.2 0 3.2 1.4 3.2 3.2h-.1z"/><path d="m871.2 542.6v-7.6h1.7v7.6h-1.9z"/><path d="m872.1 533.7c-.7 0-1.1-.4-1.1-1.1s.5-1.1 1.1-1.1 1.1.5 1.1 1.1-.4 1.1-1.1 1.1z"/><path d="m877.3 541h1.6c2.2.2 3.1 1 3.1 2.4s-1.6 2.9-4.1 2.9-3.8-1.3-3.8-2.5.4-1.2 1.5-2.1c-.2-.4-.3-.8-.3-1.2s0-.7.3-1c-.7-.4-1.1-1.1-1.1-2.1 0-1.5 1.2-2.7 3.2-2.7h1.4 2.7v1.3h-1.3c.2.3.4.6.4 1.2 0 1.7-1.4 2.6-3.1 2.6s-.4 0-.6 0v.5c0 .2 0 .3.2.5v.2z"/><path d="m883.1 542.6v-7.6h1.7v.6c.7-.6 1.5-.9 2.3-.9s2.7.6 2.7 3.2v4.7h-1.7v-4.6c0-1.1-.5-1.7-1.4-1.7s-1.2.2-1.6.7v5.6z"/></g><path d="m836.7 541.2v-2h-.9c-1.3 0-1.8.4-1.8 1.1s.4 1.1 1.6 1.1.8 0 1.1-.2z" fill="#f68511"/><path d="m857.2 536.3c-.4 0-.8 0-1.1.2v4.7h.6c1.2 0 2.6-.7 2.6-2.6s-.8-2.3-2.2-2.3z" fill="#f68511"/><path d="m867 541.2v-2h-.9c-1.3 0-1.8.4-1.8 1.1s.4 1.1 1.6 1.1.8 0 1.1-.2z" fill="#f68511"/><path d="m878.3 542.8h-1.7c-.5.2-.8.8-.8 1 0 .6.8 1.2 2.1 1.2s2.2-.6 2.2-1.2-.8-.9-1.8-.9z" fill="#f68511"/><path d="m877.5 536c-.8 0-1.3.5-1.3 1.3s.4 1.3 1.3 1.3 1.3-.5 1.3-1.2-.4-1.3-1.3-1.3z" fill="#f68511"/><path d="m894.2 532.6h2.9c.5 1.6 1.9 6.4 2.2 7.9.3-1.4 1.9-6.2 2.4-7.9h2.7l.4 10.3h-2c0-3.4-.1-8 0-9-.4 1.5-2 6.9-2.7 9 0 0 0 0-.1 0h-1.8c-.7-2.4-2-7.1-2.4-9 0 1.6-.1 5.7-.3 9h-1.8l.6-10.3z" fill="#fdfdfd"/><path d="m911.5 539.5h-3.2c0 1.1.8 2 2.4 2s1.4 0 2-.4v1.5c-.6.3-1.3.5-2.4.5-2.9 0-4-2-4-4s1.3-4.2 3.8-4.2 3.3 1.9 3.3 3.4v1h-1.9z" fill="#fdfdfd"/><path d="m908.2 538.1h3.3c0-.6-.3-1.6-1.5-1.6s-1.6.8-1.7 1.6z" fill="#f68511"/><path d="m916.6 543h-1.8v-7.6h1.8v.6c.8-.6 1.5-.9 2.3-.9s1.6.4 2.1 1.1c.7-.6 1.5-1.1 2.6-1.1s2.7.7 2.7 3.1v4.8h-1.8v-4.6c0-.9-.4-1.6-1.3-1.6s-1.2.3-1.6.7v5.6h-1.9v-4.7c0-1.1-.5-1.6-1.3-1.6s-1 .2-1.5.6v5.6z" fill="#fdfdfd"/><path d="m928.4 531.6h1.8v3.4c.4 0 .9-.2 1.5-.2 2.3 0 3.8 1.6 3.8 3.8s-2.3 4.4-4.7 4.4-1.6 0-2.4-.4h-.1v-10.9h.1z" fill="#fdfdfd"/><path d="m933.6 538.9c0-1.5-.9-2.3-2.1-2.3s-.9 0-1.1.2v4.7h.7c1.3 0 2.5-.8 2.5-2.6z" fill="#f68511"/><path d="m941.9 539.5h-3.2c0 1.1.8 2 2.4 2s1.4 0 2-.4v1.5c-.6.3-1.3.5-2.4.5-2.9 0-4-2-4-4s1.3-4.2 3.8-4.2 3.3 1.9 3.3 3.4v1h-1.9z" fill="#fdfdfd"/><path d="m938.6 538.1h3.3c0-.6-.3-1.6-1.5-1.6s-1.6.8-1.7 1.6z" fill="#f68511"/><path d="m945.2 535.1h1.7c0 .2.1.6.2 1 .5-.7 1.5-1.2 2.6-1.2h.1v1.7h-.1c-1.1 0-2.1.4-2.4.8v5.2h-1.9v-7.6l-.2-.2z" fill="#fdfdfd"/><path d="m954.5 538.3c0 3.5-1.4 5.9-2.5 7.3h-1.8c1.7-2.2 2.6-4.4 2.6-7.2s-.9-5.1-2.6-7.2h1.8c1.2 1.4 2.5 3.8 2.5 7.3z" fill="#fdfdfd"/></g></svg>