<?xml version="1.0" encoding="UTF-8"?>
<svg xmlns="http://www.w3.org/2000/svg" version="1.1" viewBox="0 0 20 22.8" width="25" height="25">
  <!-- Generator: Adobe Illustrator 29.5.1, SVG Export Plug-In . SVG Version: 2.1.0 Build 141)  -->
  <defs>
    <style>
      .st0 {
        fill: #ec1009;
        stroke: #ec1009;
        stroke-miterlimit: 10;
        stroke-width: .2px;
      }

      .st1 {
        fill: #fff;
        font-family: AdobeClean-Bold, 'Adobe Clean';
        font-size: 8px;
        font-weight: 700;
      }
    </style>
  </defs>
  <g id="Layer_1" focusable="false">
    <path d="M17.8,16.1c-.2-.3-.3-.6-.5-.9-.8-1.4-1.5-2.7-1.5-4.6,0-3.1-2.5-5.7-5.7-5.7s-5.7,2.5-5.7,5.7-.8,3.1-1.6,4.4c-.2.4-.4.7-.6,1.1-.4.7-.4,1.5,0,2.2.4.7,1.1,1.1,1.9,1.1h3.1c0,1.5,1.2,2.8,2.8,2.8s2.8-1.2,2.8-2.8h3.1c.8,0,1.5-.4,1.9-1.1.4-.7.4-1.5,0-2.2M10,20.7c-.7,0-1.2-.6-1.2-1.2h2.5c0,.7-.6,1.2-1.2,1.2M16.5,17.5c0,.1-.3.4-.6.4H4.2c-.3,0-.5-.1-.7-.4,0-.1-.2-.4,0-.7.2-.4.4-.7.6-1.1.9-1.5,1.8-3,1.8-5.2s1.9-4.2,4.2-4.2,4.2,1.9,4.2,4.2.9,3.9,1.7,5.4c.2.3.3.6.5.9.2.3,0,.6,0,.7"/>
    <ellipse class="st0" cx="15.6" cy="6.1" rx="4.1" ry="4.5"/>
    <text class="st1" transform="translate(14.1 8.6)"><tspan x="0" y="0">1</tspan></text>
  </g>
</svg>