<svg width="1833" height="1611" viewBox="0 0 1833 1611" fill="none" xmlns="http://www.w3.org/2000/svg">
<g clip-path="url(#clip0_13_2)">
<mask id="mask0_13_2" style="mask-type:luminance" maskUnits="userSpaceOnUse" x="0" y="0" width="1833" height="1611">
<path d="M1833 0H0V1611H1833V0Z" fill="white"/>
</mask>
<g mask="url(#mask0_13_2)">
<path d="M1833 0H0V1611H1833V0Z" fill="white"/>
<path d="M1097 424H819C807.954 424 799 432.954 799 444V588C799 599.046 807.954 608 819 608H1097C1108.05 608 1117 599.046 1117 588V444C1117 432.954 1108.05 424 1097 424Z" fill="#4146C9"/>
<path d="M905.1 525.76H895.86L893.94 531.68C893.86 531.88 893.74 532 893.5 532H888.86C888.58 532 888.5 531.84 888.54 531.6L896.54 508.52C896.7 508.08 896.86 507.6 896.94 506.08C896.94 505.92 897.06 505.8 897.18 505.8H903.58C903.78 505.8 903.86 505.84 903.9 506.04L912.98 531.64C913.06 531.84 913.02 532 912.78 532H907.58C907.34 532 907.22 531.92 907.14 531.72L905.1 525.76ZM897.3 520.76H903.62C902.82 518.12 901.22 513.28 900.46 510.44H900.42C899.78 513.12 898.34 517.52 897.3 520.76ZM929.431 527.28V531.44C929.431 531.64 929.391 531.72 929.231 531.76C927.951 532.28 926.311 532.4 924.751 532.4C918.271 532.4 914.191 528.04 914.191 522.16C914.191 516.16 918.711 511.72 925.511 511.72C927.471 511.72 928.551 511.92 929.191 512.16C929.391 512.24 929.431 512.36 929.431 512.6L929.391 516.72C929.391 517 929.231 517.04 929.071 517C928.311 516.72 927.191 516.52 925.711 516.52C922.351 516.52 919.911 518.36 919.911 521.96C919.911 526.12 922.991 527.48 925.791 527.48C927.191 527.48 928.431 527.32 929.111 527.12C929.351 527.04 929.431 527.12 929.431 527.28ZM946.853 527.28V531.44C946.853 531.64 946.813 531.72 946.653 531.76C945.373 532.28 943.733 532.4 942.173 532.4C935.693 532.4 931.613 528.04 931.613 522.16C931.613 516.16 936.133 511.72 942.933 511.72C944.893 511.72 945.973 511.92 946.613 512.16C946.813 512.24 946.853 512.36 946.853 512.6L946.813 516.72C946.813 517 946.653 517.04 946.493 517C945.733 516.72 944.613 516.52 943.133 516.52C939.773 516.52 937.333 518.36 937.333 521.96C937.333 526.12 940.413 527.48 943.213 527.48C944.613 527.48 945.853 527.32 946.533 527.12C946.773 527.04 946.853 527.12 946.853 527.28ZM958.995 511.72C965.435 511.72 968.755 516.56 968.755 521.96C968.755 528.24 964.675 532.4 958.915 532.4C952.075 532.4 949.035 527.24 949.035 522.08C949.035 516.4 952.835 511.72 958.995 511.72ZM958.755 516.36C956.435 516.36 954.675 518.44 954.675 522C954.675 525.52 956.315 527.76 958.995 527.76C961.315 527.76 963.075 525.76 963.075 522.08C963.075 518.96 961.795 516.36 958.755 516.36ZM989.664 512.44V527.56C989.664 529.6 989.824 530.84 989.904 531.68C989.944 531.92 989.824 532 989.544 532H985.304C984.984 532 984.904 531.92 984.824 531.72C984.744 531.36 984.624 530.84 984.584 530.48C982.824 532 980.824 532.4 979.104 532.4C975.104 532.4 972.344 530.2 972.344 524.68V512.44C972.344 512.16 972.424 512.12 972.704 512.12H977.584C977.824 512.12 977.864 512.2 977.864 512.44V524.04C977.864 526.2 978.784 527.6 980.984 527.6C982.304 527.6 983.224 527.2 984.104 526.44V512.44C984.104 512.2 984.224 512.12 984.504 512.12H989.344C989.624 512.12 989.664 512.2 989.664 512.44ZM994.493 531.64V516.76C994.493 515.4 994.413 513.32 994.333 512.44C994.293 512.24 994.373 512.12 994.613 512.12H998.813C999.133 512.12 999.253 512.24 999.333 512.44C999.493 512.8 999.573 513.2 999.653 513.76C1001.33 512.4 1003.21 511.72 1005.33 511.72C1008.41 511.72 1012.05 513.32 1012.05 519.76V531.64C1012.05 531.88 1011.97 532 1011.69 532H1006.89C1006.61 532 1006.49 531.88 1006.49 531.64V520.24C1006.49 517.84 1005.45 516.56 1003.37 516.56C1002.01 516.56 1000.89 517.04 1000.05 517.8V531.68C1000.05 531.88 999.933 532 999.693 532H994.853C994.573 532 994.493 531.88 994.493 531.64ZM1026.64 528V531.32C1026.64 531.56 1026.6 531.76 1026.36 531.84C1025.24 532.24 1024.2 532.4 1022.8 532.4C1019.32 532.4 1017.28 530.68 1017.28 526.68V516.76H1014.88C1014.64 516.72 1014.56 516.64 1014.56 516.4V512.48C1014.56 512.2 1014.64 512.12 1014.92 512.12H1017.32C1017.36 510.76 1017.52 508.4 1017.72 507.28C1017.76 507.08 1017.88 506.96 1018.08 506.92L1022.76 506.32C1022.96 506.28 1023.08 506.28 1023.08 506.56C1022.96 507.8 1022.88 510.16 1022.88 512.12H1026.56C1026.8 512.12 1026.88 512.2 1026.88 512.44V516.48C1026.88 516.68 1026.8 516.72 1026.6 516.76H1022.84V525.32C1022.84 527.08 1023.36 527.88 1025 527.88C1025.48 527.88 1025.88 527.8 1026.36 527.72C1026.52 527.72 1026.64 527.76 1026.64 528Z" fill="white"/>
<path d="M1097 127H819C807.954 127 799 135.954 799 147V291C799 302.046 807.954 311 819 311H1097C1108.05 311 1117 302.046 1117 291V147C1117 135.954 1108.05 127 1097 127Z" fill="#4146C9"/>
<path d="M845.78 225L841.82 224.8C841.54 224.8 841.46 224.68 841.46 224.44V220.32C841.46 220.12 841.58 220.08 841.78 220.08H850.98C851.3 220.08 851.34 220.16 851.34 220.4V233.64C851.38 233.88 851.3 233.96 851.06 234.04C848.14 235.08 845.34 235.4 842.98 235.4C833.5 235.4 828.9 229.4 828.9 222.08C828.9 213.8 834.82 208.4 843.82 208.4C846.46 208.4 848.86 208.68 850.3 209.36C850.5 209.4 850.58 209.56 850.58 209.88V214.24C850.58 214.52 850.42 214.6 850.22 214.48C848.46 213.6 846.38 213.36 843.98 213.32C837.74 213.24 834.62 216.52 834.62 221.92C834.62 226.8 837.58 230.56 843.26 230.56C844.42 230.56 845.1 230.48 845.78 230.28V225ZM856.072 229.88V206.96C856.072 206.76 856.152 206.64 856.472 206.64H861.232C861.512 206.64 861.632 206.76 861.632 206.96V229.36C861.632 230.48 861.992 230.88 862.952 230.88C863.272 230.88 863.312 230.88 863.672 230.84C863.832 230.84 863.872 230.92 863.872 231.12V234.56C863.872 234.88 863.832 234.96 863.592 235.04C863.112 235.24 862.352 235.4 861.112 235.4C858.232 235.4 856.072 234.32 856.072 229.88ZM875.887 214.72C882.327 214.72 885.647 219.56 885.647 224.96C885.647 231.24 881.567 235.4 875.807 235.4C868.967 235.4 865.927 230.24 865.927 225.08C865.927 219.4 869.727 214.72 875.887 214.72ZM875.647 219.36C873.327 219.36 871.567 221.44 871.567 225C871.567 228.52 873.207 230.76 875.887 230.76C878.207 230.76 879.967 228.76 879.967 225.08C879.967 221.96 878.687 219.36 875.647 219.36ZM889.516 206.64H894.396C894.716 206.64 894.796 206.68 894.796 206.96V215.16C895.836 214.88 896.956 214.72 898.156 214.72C904.036 214.72 907.756 218.88 907.756 224.24C907.756 231.72 901.836 235.4 895.756 235.4C893.636 235.4 891.516 235.12 889.476 234.48C889.356 234.44 889.236 234.24 889.236 234.08V206.92C889.236 206.72 889.316 206.64 889.516 206.64ZM902.076 224.76C902.076 221.12 899.956 219.44 897.156 219.44C895.876 219.44 895.316 219.64 894.796 219.76V230.6C895.276 230.72 895.796 230.76 896.276 230.76C899.316 230.76 902.076 228.92 902.076 224.76ZM921.543 230.72V226.44C920.903 226.36 920.343 226.32 919.543 226.32C916.703 226.32 915.543 227.24 915.543 228.68C915.543 230 916.543 231.08 919.063 231.08C919.983 231.08 920.783 230.96 921.543 230.72ZM926.943 222.84V230.56C926.943 231.6 926.943 232.44 927.023 233.4C927.023 233.48 927.023 233.56 926.943 233.6C923.423 234.96 921.103 235.4 918.223 235.4C913.783 235.4 910.143 233.36 910.143 228.72C910.143 224.48 913.863 222.24 919.183 222.24C920.263 222.24 921.183 222.24 921.543 222.32V222.04C921.543 221.28 921.063 219.52 917.703 219.52C915.703 219.52 913.943 219.92 912.423 220.6C912.263 220.68 912.063 220.6 912.063 220.4V216.36C912.063 216.16 912.103 216.04 912.343 215.96C914.103 215.12 916.383 214.72 918.623 214.72C924.383 214.72 926.943 218.28 926.943 222.84ZM931.697 229.88V206.96C931.697 206.76 931.777 206.64 932.097 206.64H936.857C937.137 206.64 937.257 206.76 937.257 206.96V229.36C937.257 230.48 937.617 230.88 938.577 230.88C938.897 230.88 938.937 230.88 939.297 230.84C939.457 230.84 939.497 230.92 939.497 231.12V234.56C939.497 234.88 939.457 234.96 939.217 235.04C938.737 235.24 937.977 235.4 936.737 235.4C933.857 235.4 931.697 234.32 931.697 229.88ZM966.054 228.76H956.814L954.894 234.68C954.814 234.88 954.694 235 954.454 235H949.814C949.534 235 949.454 234.84 949.494 234.6L957.494 211.52C957.654 211.08 957.814 210.6 957.894 209.08C957.894 208.92 958.014 208.8 958.134 208.8H964.534C964.734 208.8 964.814 208.84 964.854 209.04L973.934 234.64C974.014 234.84 973.974 235 973.734 235H968.534C968.294 235 968.174 234.92 968.094 234.72L966.054 228.76ZM958.254 223.76H964.574C963.774 221.12 962.174 216.28 961.414 213.44H961.374C960.734 216.12 959.294 220.52 958.254 223.76ZM990.385 230.28V234.44C990.385 234.64 990.345 234.72 990.185 234.76C988.905 235.28 987.265 235.4 985.705 235.4C979.225 235.4 975.145 231.04 975.145 225.16C975.145 219.16 979.665 214.72 986.465 214.72C988.425 214.72 989.505 214.92 990.145 215.16C990.345 215.24 990.385 215.36 990.385 215.6L990.345 219.72C990.345 220 990.185 220.04 990.025 220C989.265 219.72 988.145 219.52 986.665 219.52C983.305 219.52 980.865 221.36 980.865 224.96C980.865 229.12 983.945 230.48 986.745 230.48C988.145 230.48 989.385 230.32 990.065 230.12C990.305 230.04 990.385 230.12 990.385 230.28ZM1007.81 230.28V234.44C1007.81 234.64 1007.77 234.72 1007.61 234.76C1006.33 235.28 1004.69 235.4 1003.13 235.4C996.647 235.4 992.567 231.04 992.567 225.16C992.567 219.16 997.087 214.72 1003.89 214.72C1005.85 214.72 1006.93 214.92 1007.57 215.16C1007.77 215.24 1007.81 215.36 1007.81 215.6L1007.77 219.72C1007.77 220 1007.61 220.04 1007.45 220C1006.69 219.72 1005.57 219.52 1004.09 219.52C1000.73 219.52 998.287 221.36 998.287 224.96C998.287 229.12 1001.37 230.48 1004.17 230.48C1005.57 230.48 1006.81 230.32 1007.49 230.12C1007.73 230.04 1007.81 230.12 1007.81 230.28ZM1019.95 214.72C1026.39 214.72 1029.71 219.56 1029.71 224.96C1029.71 231.24 1025.63 235.4 1019.87 235.4C1013.03 235.4 1009.99 230.24 1009.99 225.08C1009.99 219.4 1013.79 214.72 1019.95 214.72ZM1019.71 219.36C1017.39 219.36 1015.63 221.44 1015.63 225C1015.63 228.52 1017.27 230.76 1019.95 230.76C1022.27 230.76 1024.03 228.76 1024.03 225.08C1024.03 221.96 1022.75 219.36 1019.71 219.36ZM1050.62 215.44V230.56C1050.62 232.6 1050.78 233.84 1050.86 234.68C1050.9 234.92 1050.78 235 1050.5 235H1046.26C1045.94 235 1045.86 234.92 1045.78 234.72C1045.7 234.36 1045.58 233.84 1045.54 233.48C1043.78 235 1041.78 235.4 1040.06 235.4C1036.06 235.4 1033.3 233.2 1033.3 227.68V215.44C1033.3 215.16 1033.38 215.12 1033.66 215.12H1038.54C1038.78 215.12 1038.82 215.2 1038.82 215.44V227.04C1038.82 229.2 1039.74 230.6 1041.94 230.6C1043.26 230.6 1044.18 230.2 1045.06 229.44V215.44C1045.06 215.2 1045.18 215.12 1045.46 215.12H1050.3C1050.58 215.12 1050.62 215.2 1050.62 215.44ZM1055.45 234.64V219.76C1055.45 218.4 1055.37 216.32 1055.29 215.44C1055.25 215.24 1055.33 215.12 1055.57 215.12H1059.77C1060.09 215.12 1060.21 215.24 1060.29 215.44C1060.45 215.8 1060.53 216.2 1060.61 216.76C1062.29 215.4 1064.17 214.72 1066.29 214.72C1069.37 214.72 1073.01 216.32 1073.01 222.76V234.64C1073.01 234.88 1072.93 235 1072.65 235H1067.85C1067.57 235 1067.45 234.88 1067.45 234.64V223.24C1067.45 220.84 1066.41 219.56 1064.33 219.56C1062.97 219.56 1061.85 220.04 1061.01 220.8V234.68C1061.01 234.88 1060.89 235 1060.65 235H1055.81C1055.53 235 1055.45 234.88 1055.45 234.64ZM1087.59 231V234.32C1087.59 234.56 1087.55 234.76 1087.31 234.84C1086.19 235.24 1085.15 235.4 1083.75 235.4C1080.27 235.4 1078.23 233.68 1078.23 229.68V219.76H1075.83C1075.59 219.72 1075.51 219.64 1075.51 219.4V215.48C1075.51 215.2 1075.59 215.12 1075.87 215.12H1078.27C1078.31 213.76 1078.47 211.4 1078.67 210.28C1078.71 210.08 1078.83 209.96 1079.03 209.92L1083.71 209.32C1083.91 209.28 1084.03 209.28 1084.03 209.56C1083.91 210.8 1083.83 213.16 1083.83 215.12H1087.51C1087.75 215.12 1087.83 215.2 1087.83 215.44V219.48C1087.83 219.68 1087.75 219.72 1087.55 219.76H1083.79V228.32C1083.79 230.08 1084.31 230.88 1085.95 230.88C1086.43 230.88 1086.83 230.8 1087.31 230.72C1087.47 230.72 1087.59 230.76 1087.59 231Z" fill="white"/>
<path d="M375 721H97C85.9543 721 77 729.954 77 741V885C77 896.046 85.9543 905 97 905H375C386.046 905 395 896.046 395 885V741C395 729.954 386.046 721 375 721Z" fill="#4146C9"/>
<path d="M122.24 828.64V803.24C122.24 803 122.28 802.88 122.48 802.84C123.88 802.8 127.8 802.72 130.64 802.72C139.16 802.72 140.56 807.08 140.56 809.72C140.56 812.44 139.12 814.08 138.12 814.8C139.6 815.56 141.84 817.28 141.84 820.96C141.84 825.84 137.6 829.08 130.72 829.08C126.84 829.08 124 829.04 122.52 829C122.32 828.96 122.24 828.84 122.24 828.64ZM127.68 817.8V824.36C128.52 824.4 129.4 824.44 130.6 824.44C134.04 824.48 136.08 823.36 136.08 821.04C136.08 819.68 135.52 818.52 133.64 818.04C133 817.88 132.12 817.8 131.12 817.8H127.68ZM127.68 807.48V813.04H130.4C131.76 813.04 133.36 813.16 133.96 813.24C134.68 812.6 135.16 811.84 135.16 810.52C135.16 808.48 133.64 807.4 130.6 807.4C129.36 807.4 128.56 807.44 127.68 807.48ZM162.556 809.44V824.56C162.556 826.6 162.716 827.84 162.796 828.68C162.836 828.92 162.716 829 162.436 829H158.196C157.876 829 157.796 828.92 157.716 828.72C157.636 828.36 157.516 827.84 157.476 827.48C155.716 829 153.716 829.4 151.996 829.4C147.996 829.4 145.236 827.2 145.236 821.68V809.44C145.236 809.16 145.316 809.12 145.596 809.12H150.476C150.716 809.12 150.756 809.2 150.756 809.44V821.04C150.756 823.2 151.676 824.6 153.876 824.6C155.196 824.6 156.116 824.2 156.996 823.44V809.44C156.996 809.2 157.116 809.12 157.396 809.12H162.236C162.516 809.12 162.556 809.2 162.556 809.44ZM165.341 809.12H170.741C170.901 809.12 171.061 809.2 171.141 809.4C173.421 816.24 174.621 820.4 175.181 822.48C176.461 818.24 177.701 814.4 179.261 809.4C179.301 809.24 179.461 809.12 179.701 809.12H184.461C184.741 809.12 184.781 809.28 184.741 809.48C181.861 818.44 177.421 829.48 174.461 836.32C174.381 836.48 174.261 836.6 173.901 836.6L168.861 837C168.621 837 168.541 836.88 168.661 836.64C169.821 834.24 171.021 831.6 172.301 828.6C172.421 828.32 172.461 828.2 172.341 827.92C171.221 825.16 167.461 815.72 165.101 809.44C164.981 809.24 165.141 809.12 165.341 809.12ZM187.502 828.64V809.44C187.502 809.24 187.582 809.12 187.822 809.12H192.742C192.982 809.12 193.062 809.2 193.062 809.44V828.64C193.062 828.88 193.022 829 192.702 829H187.902C187.622 829 187.502 828.88 187.502 828.64ZM190.302 807C188.422 807 187.222 805.76 187.222 803.88C187.222 802.08 188.542 800.8 190.342 800.8C192.262 800.8 193.422 802.08 193.422 803.88C193.422 805.76 192.182 807 190.302 807ZM197.697 828.64V813.76C197.697 812.4 197.617 810.32 197.537 809.44C197.497 809.24 197.577 809.12 197.817 809.12H202.017C202.337 809.12 202.457 809.24 202.537 809.44C202.697 809.8 202.777 810.2 202.857 810.76C204.537 809.4 206.417 808.72 208.537 808.72C211.617 808.72 215.257 810.32 215.257 816.76V828.64C215.257 828.88 215.177 829 214.897 829H210.097C209.817 829 209.697 828.88 209.697 828.64V817.24C209.697 814.84 208.657 813.56 206.577 813.56C205.217 813.56 204.097 814.04 203.257 814.8V828.68C203.257 828.88 203.137 829 202.897 829H198.057C197.777 829 197.697 828.88 197.697 828.64ZM228.935 829L224.495 828.84C223.615 829.48 222.975 830.56 222.975 830.96C222.975 832.2 224.735 833.56 227.855 833.56C231.415 833.56 232.935 832.32 232.935 831C232.935 829.52 231.175 829.12 228.935 829ZM226.895 812.72C225.175 812.72 224.095 813.72 224.095 815.48C224.095 817.04 225.095 818.2 226.935 818.2C228.695 818.2 229.695 817.24 229.695 815.6C229.695 813.92 228.895 812.72 226.895 812.72ZM226.055 824.2L230.175 824.36C235.895 824.64 238.015 826.96 238.015 830.12C238.015 834.28 233.935 837.64 227.495 837.64C220.815 837.64 217.895 834.32 217.895 831.44C217.895 830.16 218.935 828.56 221.575 826.36C220.975 825.48 220.695 824.4 220.735 823.36C220.735 822.44 221.015 821.52 221.455 820.72C219.815 819.68 218.695 818.04 218.695 815.56C218.695 811.72 221.695 808.72 226.895 808.72C228.375 808.72 229.775 808.88 230.695 809.04C231.055 809.12 231.375 809.12 231.655 809.12H237.135C237.335 809.12 237.415 809.2 237.415 809.4V813.12C237.415 813.32 237.335 813.4 237.135 813.4C236.535 813.4 235.215 813.28 234.375 813.2C234.695 813.76 234.975 814.6 234.975 815.8C234.975 820.04 231.495 822.16 227.055 822.16C226.615 822.16 226.135 822.12 225.695 822.08C225.575 822.4 225.535 822.8 225.615 823.16C225.655 823.52 225.815 823.88 226.055 824.2ZM265.452 819L261.492 818.8C261.212 818.8 261.132 818.68 261.132 818.44V814.32C261.132 814.12 261.252 814.08 261.452 814.08H270.652C270.972 814.08 271.012 814.16 271.012 814.4V827.64C271.052 827.88 270.972 827.96 270.732 828.04C267.812 829.08 265.012 829.4 262.652 829.4C253.172 829.4 248.572 823.4 248.572 816.08C248.572 807.8 254.492 802.4 263.492 802.4C266.132 802.4 268.532 802.68 269.972 803.36C270.172 803.4 270.252 803.56 270.252 803.88V808.24C270.252 808.52 270.092 808.6 269.892 808.48C268.132 807.6 266.052 807.36 263.652 807.32C257.412 807.24 254.292 810.52 254.292 815.92C254.292 820.8 257.252 824.56 262.932 824.56C264.092 824.56 264.772 824.48 265.452 824.28V819ZM275.667 809.12H280.027C280.307 809.12 280.427 809.24 280.507 809.48C280.707 810 280.907 810.84 280.947 811.72C282.267 810.16 284.467 808.72 287.307 808.72C287.547 808.72 287.627 808.8 287.627 809.04V813.96C287.627 814.16 287.547 814.24 287.267 814.24C284.387 814.12 282.067 815 281.227 815.96L281.187 828.68C281.187 828.92 281.107 829 280.827 829H276.027C275.707 829 275.627 828.88 275.627 828.64V814.84C275.627 813.12 275.587 810.8 275.427 809.4C275.427 809.2 275.467 809.12 275.667 809.12ZM299.348 808.72C305.788 808.72 309.108 813.56 309.108 818.96C309.108 825.24 305.028 829.4 299.268 829.4C292.428 829.4 289.388 824.24 289.388 819.08C289.388 813.4 293.188 808.72 299.348 808.72ZM299.108 813.36C296.788 813.36 295.028 815.44 295.028 819C295.028 822.52 296.668 824.76 299.348 824.76C301.668 824.76 303.428 822.76 303.428 819.08C303.428 815.96 302.148 813.36 299.108 813.36ZM330.017 809.44V824.56C330.017 826.6 330.177 827.84 330.257 828.68C330.297 828.92 330.177 829 329.897 829H325.657C325.337 829 325.257 828.92 325.177 828.72C325.097 828.36 324.977 827.84 324.937 827.48C323.177 829 321.177 829.4 319.457 829.4C315.457 829.4 312.697 827.2 312.697 821.68V809.44C312.697 809.16 312.777 809.12 313.057 809.12H317.937C318.177 809.12 318.217 809.2 318.217 809.44V821.04C318.217 823.2 319.137 824.6 321.337 824.6C322.657 824.6 323.577 824.2 324.457 823.44V809.44C324.457 809.2 324.577 809.12 324.857 809.12H329.697C329.977 809.12 330.017 809.2 330.017 809.44ZM343.286 808.72C350.246 808.72 353.406 813.44 353.406 818.44C353.406 825.76 347.406 829.4 341.166 829.4C340.966 829.4 340.686 829.4 340.406 829.36V836.16C340.406 836.36 340.366 836.48 340.086 836.52C338.446 836.68 335.366 836.96 335.126 837C334.886 837 334.846 836.92 334.846 836.72V813.2C334.846 812.64 334.766 811.16 334.726 810.56C334.726 810.52 334.726 810.4 334.886 810.36C336.926 809.68 339.806 808.72 343.286 808.72ZM342.806 813.44C341.886 813.44 341.206 813.52 340.406 813.76V824.68C340.726 824.76 341.326 824.76 341.686 824.76C344.446 824.76 347.686 823.16 347.686 818.8C347.686 815.36 345.926 813.44 342.806 813.44Z" fill="white"/>
<path d="M767 721H489C477.954 721 469 729.954 469 741V885C469 896.046 477.954 905 489 905H767C778.046 905 787 896.046 787 885V741C787 729.954 778.046 721 767 721Z" fill="#4146C9"/>
<path d="M535.66 802.4C543.62 802.4 548.1 808.44 548.14 815.76C548.18 823.92 543.06 829.4 535.58 829.4C527.74 829.4 523.1 823.64 523.1 815.88C523.1 808.4 528.1 802.4 535.66 802.4ZM528.82 815.92C528.82 820.76 531.3 824.48 535.78 824.48C539.94 824.48 542.42 821.08 542.42 815.92C542.38 810.6 539.9 807.32 535.58 807.32C531.58 807.32 528.82 810.44 528.82 815.92ZM560.431 808.72C567.391 808.72 570.551 813.44 570.551 818.44C570.551 825.76 564.551 829.4 558.311 829.4C558.111 829.4 557.831 829.4 557.551 829.36V836.16C557.551 836.36 557.511 836.48 557.231 836.52C555.591 836.68 552.511 836.96 552.271 837C552.031 837 551.991 836.92 551.991 836.72V813.2C551.991 812.64 551.911 811.16 551.871 810.56C551.871 810.52 551.871 810.4 552.031 810.36C554.071 809.68 556.951 808.72 560.431 808.72ZM559.951 813.44C559.031 813.44 558.351 813.52 557.551 813.76V824.68C557.871 824.76 558.471 824.76 558.831 824.76C561.591 824.76 564.831 823.16 564.831 818.8C564.831 815.36 563.071 813.44 559.951 813.44ZM582.579 808.72C589.539 808.72 592.699 813.44 592.699 818.44C592.699 825.76 586.699 829.4 580.459 829.4C580.259 829.4 579.979 829.4 579.699 829.36V836.16C579.699 836.36 579.659 836.48 579.379 836.52C577.739 836.68 574.659 836.96 574.419 837C574.179 837 574.139 836.92 574.139 836.72V813.2C574.139 812.64 574.059 811.16 574.019 810.56C574.019 810.52 574.019 810.4 574.179 810.36C576.219 809.68 579.099 808.72 582.579 808.72ZM582.099 813.44C581.179 813.44 580.499 813.52 579.699 813.76V824.68C580.019 824.76 580.619 824.76 580.979 824.76C583.739 824.76 586.979 823.16 586.979 818.8C586.979 815.36 585.219 813.44 582.099 813.44ZM605.243 808.72C611.683 808.72 615.003 813.56 615.003 818.96C615.003 825.24 610.923 829.4 605.163 829.4C598.323 829.4 595.283 824.24 595.283 819.08C595.283 813.4 599.083 808.72 605.243 808.72ZM605.003 813.36C602.683 813.36 600.923 815.44 600.923 819C600.923 822.52 602.563 824.76 605.243 824.76C607.563 824.76 609.323 822.76 609.323 819.08C609.323 815.96 608.043 813.36 605.003 813.36ZM618.632 809.12H622.992C623.272 809.12 623.392 809.24 623.472 809.48C623.672 810 623.872 810.84 623.912 811.72C625.232 810.16 627.432 808.72 630.272 808.72C630.512 808.72 630.592 808.8 630.592 809.04V813.96C630.592 814.16 630.512 814.24 630.232 814.24C627.352 814.12 625.032 815 624.192 815.96L624.152 828.68C624.152 828.92 624.072 829 623.792 829H618.992C618.672 829 618.592 828.88 618.592 828.64V814.84C618.592 813.12 618.552 810.8 618.392 809.4C618.392 809.2 618.432 809.12 618.632 809.12ZM644.838 825V828.32C644.838 828.56 644.798 828.76 644.558 828.84C643.438 829.24 642.398 829.4 640.998 829.4C637.518 829.4 635.478 827.68 635.478 823.68V813.76H633.078C632.838 813.72 632.758 813.64 632.758 813.4V809.48C632.758 809.2 632.838 809.12 633.118 809.12H635.518C635.558 807.76 635.718 805.4 635.918 804.28C635.958 804.08 636.078 803.96 636.278 803.92L640.958 803.32C641.158 803.28 641.278 803.28 641.278 803.56C641.158 804.8 641.078 807.16 641.078 809.12H644.758C644.998 809.12 645.078 809.2 645.078 809.44V813.48C645.078 813.68 644.998 813.72 644.798 813.76H641.038V822.32C641.038 824.08 641.558 824.88 643.198 824.88C643.678 824.88 644.078 824.8 644.558 824.72C644.718 824.72 644.838 824.76 644.838 825ZM665.248 809.44V824.56C665.248 826.6 665.408 827.84 665.488 828.68C665.528 828.92 665.408 829 665.128 829H660.888C660.568 829 660.488 828.92 660.408 828.72C660.328 828.36 660.208 827.84 660.168 827.48C658.408 829 656.408 829.4 654.688 829.4C650.688 829.4 647.928 827.2 647.928 821.68V809.44C647.928 809.16 648.008 809.12 648.288 809.12H653.168C653.408 809.12 653.448 809.2 653.448 809.44V821.04C653.448 823.2 654.368 824.6 656.568 824.6C657.888 824.6 658.808 824.2 659.688 823.44V809.44C659.688 809.2 659.808 809.12 660.088 809.12H664.928C665.208 809.12 665.248 809.2 665.248 809.44ZM670.077 828.64V813.76C670.077 812.4 669.997 810.32 669.917 809.44C669.877 809.24 669.957 809.12 670.197 809.12H674.397C674.717 809.12 674.837 809.24 674.917 809.44C675.077 809.8 675.157 810.2 675.237 810.76C676.917 809.4 678.797 808.72 680.917 808.72C683.997 808.72 687.637 810.32 687.637 816.76V828.64C687.637 828.88 687.557 829 687.277 829H682.477C682.197 829 682.077 828.88 682.077 828.64V817.24C682.077 814.84 681.037 813.56 678.957 813.56C677.597 813.56 676.477 814.04 675.637 814.8V828.68C675.637 828.88 675.517 829 675.277 829H670.437C670.157 829 670.077 828.88 670.077 828.64ZM692.421 828.64V809.44C692.421 809.24 692.501 809.12 692.741 809.12H697.661C697.901 809.12 697.981 809.2 697.981 809.44V828.64C697.981 828.88 697.941 829 697.621 829H692.821C692.541 829 692.421 828.88 692.421 828.64ZM695.221 807C693.341 807 692.141 805.76 692.141 803.88C692.141 802.08 693.461 800.8 695.261 800.8C697.181 800.8 698.341 802.08 698.341 803.88C698.341 805.76 697.101 807 695.221 807ZM713.002 825V828.32C713.002 828.56 712.962 828.76 712.722 828.84C711.602 829.24 710.562 829.4 709.162 829.4C705.682 829.4 703.642 827.68 703.642 823.68V813.76H701.242C701.002 813.72 700.922 813.64 700.922 813.4V809.48C700.922 809.2 701.002 809.12 701.282 809.12H703.682C703.722 807.76 703.882 805.4 704.082 804.28C704.122 804.08 704.242 803.96 704.442 803.92L709.122 803.32C709.322 803.28 709.442 803.28 709.442 803.56C709.322 804.8 709.242 807.16 709.242 809.12H712.922C713.162 809.12 713.242 809.2 713.242 809.44V813.48C713.242 813.68 713.162 813.72 712.962 813.76H709.202V822.32C709.202 824.08 709.722 824.88 711.362 824.88C711.842 824.88 712.242 824.8 712.722 824.72C712.882 824.72 713.002 824.76 713.002 825ZM714.986 809.12H720.386C720.546 809.12 720.706 809.2 720.786 809.4C723.066 816.24 724.266 820.4 724.826 822.48C726.106 818.24 727.346 814.4 728.906 809.4C728.946 809.24 729.106 809.12 729.346 809.12H734.106C734.386 809.12 734.426 809.28 734.386 809.48C731.506 818.44 727.066 829.48 724.106 836.32C724.026 836.48 723.906 836.6 723.546 836.6L718.506 837C718.266 837 718.186 836.88 718.306 836.64C719.466 834.24 720.666 831.6 721.946 828.6C722.066 828.32 722.106 828.2 721.986 827.92C720.866 825.16 717.106 815.72 714.746 809.44C714.626 809.24 714.786 809.12 714.986 809.12Z" fill="white"/>
<path d="M1489 721H1211C1199.95 721 1191 729.954 1191 741V885C1191 896.046 1199.95 905 1211 905H1489C1500.05 905 1509 896.046 1509 885V741C1509 729.954 1500.05 721 1489 721Z" fill="#4146CA"/>
<path d="M1489 722H1211C1200.51 722 1192 730.507 1192 741V885C1192 895.493 1200.51 904 1211 904H1489C1499.49 904 1508 895.493 1508 885V741C1508 730.507 1499.49 722 1489 722Z" stroke="#707070" stroke-width="2"/>
<path d="M1292.88 828.68V803.16C1292.88 802.92 1292.92 802.84 1293.12 802.84C1294.76 802.8 1297.92 802.72 1300.96 802.72C1309.04 802.72 1311.84 807.2 1311.84 811.56C1311.84 818.04 1306.84 820.8 1300.68 820.8C1299.6 820.8 1299.36 820.8 1298.4 820.8V828.68C1298.4 828.88 1298.32 829 1298.08 829H1293.16C1292.96 829 1292.88 828.88 1292.88 828.68ZM1298.4 807.64V815.88C1299.08 815.92 1299.52 815.92 1300.64 815.92C1303.8 815.92 1306.32 814.96 1306.32 811.68C1306.32 809.16 1304.6 807.56 1301.12 807.56C1299.84 807.56 1298.76 807.6 1298.4 807.64ZM1327.61 820.52H1319.81C1320.01 822.8 1321.61 824.68 1325.53 824.68C1327.33 824.68 1328.93 824.4 1330.45 823.76C1330.57 823.68 1330.69 823.72 1330.69 823.96V827.76C1330.69 828.04 1330.61 828.16 1330.41 828.24C1328.81 829 1327.05 829.4 1324.29 829.4C1316.77 829.4 1314.13 824.24 1314.13 819.28C1314.13 813.76 1317.53 808.72 1323.81 808.72C1329.85 808.72 1332.25 813.4 1332.25 817.36C1332.25 818.6 1332.17 819.6 1332.05 820.04C1332.01 820.24 1331.93 820.32 1331.73 820.36C1331.21 820.44 1329.69 820.52 1327.61 820.52ZM1319.77 816.64H1325.01C1326.29 816.64 1326.85 816.6 1327.01 816.56C1327.01 816.48 1327.01 816.32 1327.01 816.28C1327.01 815.32 1326.25 813.12 1323.61 813.12C1321.09 813.12 1320.01 815 1319.77 816.64ZM1335.84 809.12H1340.2C1340.48 809.12 1340.6 809.24 1340.68 809.48C1340.88 810 1341.08 810.84 1341.12 811.72C1342.44 810.16 1344.64 808.72 1347.48 808.72C1347.72 808.72 1347.8 808.8 1347.8 809.04V813.96C1347.8 814.16 1347.72 814.24 1347.44 814.24C1344.56 814.12 1342.24 815 1341.4 815.96L1341.36 828.68C1341.36 828.92 1341.28 829 1341 829H1336.2C1335.88 829 1335.8 828.88 1335.8 828.64V814.84C1335.8 813.12 1335.76 810.8 1335.6 809.4C1335.6 809.2 1335.64 809.12 1335.84 809.12ZM1362.79 814.32C1361.47 813.64 1359.43 813.16 1357.63 813.16C1355.75 813.16 1355.15 813.84 1355.15 814.52C1355.15 815.2 1355.67 815.72 1357.99 816.6C1362.83 818.36 1364.35 820.24 1364.35 823.08C1364.35 826.88 1361.39 829.4 1356.11 829.4C1353.67 829.4 1351.55 828.96 1350.31 828.28C1350.11 828.16 1350.03 828.04 1350.03 827.84V823.52C1350.03 823.28 1350.19 823.16 1350.35 823.28C1352.19 824.44 1354.43 824.88 1356.23 824.88C1358.11 824.88 1358.95 824.36 1358.95 823.52C1358.95 822.76 1358.27 822.2 1355.91 821.32C1351.39 819.64 1349.91 817.72 1349.91 814.84C1349.91 811.72 1352.43 808.72 1357.71 808.72C1360.07 808.72 1361.91 809.04 1362.91 809.52C1363.15 809.64 1363.19 809.84 1363.19 810.04V814.04C1363.19 814.28 1363.03 814.44 1362.79 814.32ZM1376.71 808.72C1383.15 808.72 1386.47 813.56 1386.47 818.96C1386.47 825.24 1382.39 829.4 1376.63 829.4C1369.79 829.4 1366.75 824.24 1366.75 819.08C1366.75 813.4 1370.55 808.72 1376.71 808.72ZM1376.47 813.36C1374.15 813.36 1372.39 815.44 1372.39 819C1372.39 822.52 1374.03 824.76 1376.71 824.76C1379.03 824.76 1380.79 822.76 1380.79 819.08C1380.79 815.96 1379.51 813.36 1376.47 813.36ZM1390.06 828.64V813.76C1390.06 812.4 1389.98 810.32 1389.9 809.44C1389.86 809.24 1389.94 809.12 1390.18 809.12H1394.38C1394.7 809.12 1394.82 809.24 1394.9 809.44C1395.06 809.8 1395.14 810.2 1395.22 810.76C1396.9 809.4 1398.78 808.72 1400.9 808.72C1403.98 808.72 1407.62 810.32 1407.62 816.76V828.64C1407.62 828.88 1407.54 829 1407.26 829H1402.46C1402.18 829 1402.06 828.88 1402.06 828.64V817.24C1402.06 814.84 1401.02 813.56 1398.94 813.56C1397.58 813.56 1396.46 814.04 1395.62 814.8V828.68C1395.62 828.88 1395.5 829 1395.26 829H1390.42C1390.14 829 1390.06 828.88 1390.06 828.64Z" fill="white"/>
<path d="M1715 1020H1437C1425.95 1020 1417 1028.95 1417 1040V1184C1417 1195.05 1425.95 1204 1437 1204H1715C1726.05 1204 1735 1195.05 1735 1184V1040C1735 1028.95 1726.05 1020 1715 1020Z" fill="#6F7071"/>
<path d="M1520.04 1128.4C1517.08 1128.4 1514.64 1127.88 1512.96 1127C1512.76 1126.88 1512.68 1126.68 1512.68 1126.36V1121.6C1512.68 1121.4 1512.84 1121.28 1513 1121.4C1515.2 1122.8 1517.84 1123.48 1520.24 1123.48C1523.28 1123.48 1524.48 1122.44 1524.48 1121.04C1524.48 1119.76 1523.56 1118.84 1520.84 1117.68L1518.84 1116.84C1513.92 1114.76 1512.56 1112.28 1512.56 1109.16C1512.56 1104.84 1515.84 1101.4 1522.2 1101.4C1524.72 1101.4 1527 1101.72 1528.44 1102.44C1528.64 1102.56 1528.68 1102.72 1528.68 1102.96V1107.44C1528.68 1107.6 1528.56 1107.8 1528.32 1107.64C1526.72 1106.72 1524.52 1106.32 1522.16 1106.32C1519.08 1106.32 1518 1107.36 1518 1108.68C1518 1109.92 1518.84 1110.76 1521.84 1111.96L1523.32 1112.56C1528.64 1114.76 1530.12 1117.28 1530.12 1120.52C1530.12 1125.36 1526.2 1128.4 1520.04 1128.4ZM1546.27 1119.52H1538.47C1538.67 1121.8 1540.27 1123.68 1544.19 1123.68C1545.99 1123.68 1547.59 1123.4 1549.11 1122.76C1549.23 1122.68 1549.35 1122.72 1549.35 1122.96V1126.76C1549.35 1127.04 1549.27 1127.16 1549.07 1127.24C1547.47 1128 1545.71 1128.4 1542.95 1128.4C1535.43 1128.4 1532.79 1123.24 1532.79 1118.28C1532.79 1112.76 1536.19 1107.72 1542.47 1107.72C1548.51 1107.72 1550.91 1112.4 1550.91 1116.36C1550.91 1117.6 1550.83 1118.6 1550.71 1119.04C1550.67 1119.24 1550.59 1119.32 1550.39 1119.36C1549.87 1119.44 1548.35 1119.52 1546.27 1119.52ZM1538.43 1115.64H1543.67C1544.95 1115.64 1545.51 1115.6 1545.67 1115.56C1545.67 1115.48 1545.67 1115.32 1545.67 1115.28C1545.67 1114.32 1544.91 1112.12 1542.27 1112.12C1539.75 1112.12 1538.67 1114 1538.43 1115.64ZM1566.41 1113.32C1565.09 1112.64 1563.05 1112.16 1561.25 1112.16C1559.37 1112.16 1558.77 1112.84 1558.77 1113.52C1558.77 1114.2 1559.29 1114.72 1561.61 1115.6C1566.45 1117.36 1567.97 1119.24 1567.97 1122.08C1567.97 1125.88 1565.01 1128.4 1559.73 1128.4C1557.29 1128.4 1555.17 1127.96 1553.93 1127.28C1553.73 1127.16 1553.65 1127.04 1553.65 1126.84V1122.52C1553.65 1122.28 1553.81 1122.16 1553.97 1122.28C1555.81 1123.44 1558.05 1123.88 1559.85 1123.88C1561.73 1123.88 1562.57 1123.36 1562.57 1122.52C1562.57 1121.76 1561.89 1121.2 1559.53 1120.32C1555.01 1118.64 1553.53 1116.72 1553.53 1113.84C1553.53 1110.72 1556.05 1107.72 1561.33 1107.72C1563.69 1107.72 1565.53 1108.04 1566.53 1108.52C1566.77 1108.64 1566.81 1108.84 1566.81 1109.04V1113.04C1566.81 1113.28 1566.65 1113.44 1566.41 1113.32ZM1583.36 1113.32C1582.04 1112.64 1580 1112.16 1578.2 1112.16C1576.32 1112.16 1575.72 1112.84 1575.72 1113.52C1575.72 1114.2 1576.24 1114.72 1578.56 1115.6C1583.4 1117.36 1584.92 1119.24 1584.92 1122.08C1584.92 1125.88 1581.96 1128.4 1576.68 1128.4C1574.24 1128.4 1572.12 1127.96 1570.88 1127.28C1570.68 1127.16 1570.6 1127.04 1570.6 1126.84V1122.52C1570.6 1122.28 1570.76 1122.16 1570.92 1122.28C1572.76 1123.44 1575 1123.88 1576.8 1123.88C1578.68 1123.88 1579.52 1123.36 1579.52 1122.52C1579.52 1121.76 1578.84 1121.2 1576.48 1120.32C1571.96 1118.64 1570.48 1116.72 1570.48 1113.84C1570.48 1110.72 1573 1107.72 1578.28 1107.72C1580.64 1107.72 1582.48 1108.04 1583.48 1108.52C1583.72 1108.64 1583.76 1108.84 1583.76 1109.04V1113.04C1583.76 1113.28 1583.6 1113.44 1583.36 1113.32ZM1588.29 1127.64V1108.44C1588.29 1108.24 1588.37 1108.12 1588.61 1108.12H1593.53C1593.77 1108.12 1593.85 1108.2 1593.85 1108.44V1127.64C1593.85 1127.88 1593.81 1128 1593.49 1128H1588.69C1588.41 1128 1588.29 1127.88 1588.29 1127.64ZM1591.09 1106C1589.21 1106 1588.01 1104.76 1588.01 1102.88C1588.01 1101.08 1589.33 1099.8 1591.13 1099.8C1593.05 1099.8 1594.21 1101.08 1594.21 1102.88C1594.21 1104.76 1592.97 1106 1591.09 1106ZM1607.4 1107.72C1613.84 1107.72 1617.16 1112.56 1617.16 1117.96C1617.16 1124.24 1613.08 1128.4 1607.32 1128.4C1600.48 1128.4 1597.44 1123.24 1597.44 1118.08C1597.44 1112.4 1601.24 1107.72 1607.4 1107.72ZM1607.16 1112.36C1604.84 1112.36 1603.08 1114.44 1603.08 1118C1603.08 1121.52 1604.72 1123.76 1607.4 1123.76C1609.72 1123.76 1611.48 1121.76 1611.48 1118.08C1611.48 1114.96 1610.2 1112.36 1607.16 1112.36ZM1620.75 1127.64V1112.76C1620.75 1111.4 1620.67 1109.32 1620.59 1108.44C1620.55 1108.24 1620.63 1108.12 1620.87 1108.12H1625.07C1625.39 1108.12 1625.51 1108.24 1625.59 1108.44C1625.75 1108.8 1625.83 1109.2 1625.91 1109.76C1627.59 1108.4 1629.47 1107.72 1631.59 1107.72C1634.67 1107.72 1638.31 1109.32 1638.31 1115.76V1127.64C1638.31 1127.88 1638.23 1128 1637.95 1128H1633.15C1632.87 1128 1632.75 1127.88 1632.75 1127.64V1116.24C1632.75 1113.84 1631.71 1112.56 1629.63 1112.56C1628.27 1112.56 1627.15 1113.04 1626.31 1113.8V1127.68C1626.31 1127.88 1626.19 1128 1625.95 1128H1621.11C1620.83 1128 1620.75 1127.88 1620.75 1127.64Z" fill="white"/>
<path d="M1097 1315H819C807.954 1315 799 1323.95 799 1335V1479C799 1490.05 807.954 1499 819 1499H1097C1108.05 1499 1117 1490.05 1117 1479V1335C1117 1323.95 1108.05 1315 1097 1315Z" fill="#31B880"/>
<path d="M930.3 1418.36L929.62 1422.64C929.58 1422.96 929.5 1423 929.22 1423H912.94C912.7 1423 912.62 1422.88 912.62 1422.64V1397.16C912.62 1396.92 912.7 1396.8 912.94 1396.8H928.74C929.06 1396.8 929.14 1396.84 929.18 1397.12L929.62 1401.44C929.66 1401.64 929.62 1401.8 929.34 1401.8H918.18V1407.16H928.38C928.58 1407.16 928.7 1407.24 928.7 1407.48V1411.88C928.7 1412.12 928.54 1412.16 928.38 1412.16H918.18V1418H929.98C930.3 1418 930.34 1418.12 930.3 1418.36ZM943.116 1423H937.876C937.596 1423 937.476 1422.88 937.396 1422.72C935.876 1418.2 932.516 1408.04 930.876 1403.44C930.836 1403.28 930.916 1403.12 931.156 1403.12H936.396C936.676 1403.12 936.756 1403.2 936.836 1403.4C939.436 1412.4 940.316 1415.96 940.716 1417.76H940.796C941.196 1415.96 942.236 1412.36 945.036 1403.4C945.116 1403.2 945.196 1403.12 945.396 1403.12H950.036C950.196 1403.12 950.356 1403.24 950.276 1403.48C948.556 1408.2 945.196 1418.32 943.596 1422.68C943.476 1422.88 943.396 1423 943.116 1423ZM965.084 1414.52H957.284C957.484 1416.8 959.084 1418.68 963.004 1418.68C964.804 1418.68 966.404 1418.4 967.924 1417.76C968.044 1417.68 968.164 1417.72 968.164 1417.96V1421.76C968.164 1422.04 968.084 1422.16 967.884 1422.24C966.284 1423 964.524 1423.4 961.764 1423.4C954.244 1423.4 951.604 1418.24 951.604 1413.28C951.604 1407.76 955.004 1402.72 961.284 1402.72C967.324 1402.72 969.724 1407.4 969.724 1411.36C969.724 1412.6 969.644 1413.6 969.524 1414.04C969.484 1414.24 969.404 1414.32 969.204 1414.36C968.684 1414.44 967.164 1414.52 965.084 1414.52ZM957.244 1410.64H962.484C963.764 1410.64 964.324 1410.6 964.484 1410.56C964.484 1410.48 964.484 1410.32 964.484 1410.28C964.484 1409.32 963.724 1407.12 961.084 1407.12C958.564 1407.12 957.484 1409 957.244 1410.64ZM973.273 1422.64V1407.76C973.273 1406.4 973.193 1404.32 973.113 1403.44C973.073 1403.24 973.153 1403.12 973.393 1403.12H977.593C977.913 1403.12 978.033 1403.24 978.113 1403.44C978.273 1403.8 978.353 1404.2 978.433 1404.76C980.113 1403.4 981.993 1402.72 984.113 1402.72C987.193 1402.72 990.833 1404.32 990.833 1410.76V1422.64C990.833 1422.88 990.753 1423 990.473 1423H985.673C985.393 1423 985.273 1422.88 985.273 1422.64V1411.24C985.273 1408.84 984.233 1407.56 982.153 1407.56C980.793 1407.56 979.673 1408.04 978.833 1408.8V1422.68C978.833 1422.88 978.713 1423 978.473 1423H973.633C973.353 1423 973.273 1422.88 973.273 1422.64ZM1005.42 1419V1422.32C1005.42 1422.56 1005.38 1422.76 1005.14 1422.84C1004.02 1423.24 1002.98 1423.4 1001.58 1423.4C998.097 1423.4 996.057 1421.68 996.057 1417.68V1407.76H993.657C993.417 1407.72 993.337 1407.64 993.337 1407.4V1403.48C993.337 1403.2 993.417 1403.12 993.697 1403.12H996.097C996.137 1401.76 996.297 1399.4 996.497 1398.28C996.537 1398.08 996.657 1397.96 996.857 1397.92L1001.54 1397.32C1001.74 1397.28 1001.86 1397.28 1001.86 1397.56C1001.74 1398.8 1001.66 1401.16 1001.66 1403.12H1005.34C1005.58 1403.12 1005.66 1403.2 1005.66 1403.44V1407.48C1005.66 1407.68 1005.58 1407.72 1005.38 1407.76H1001.62V1416.32C1001.62 1418.08 1002.14 1418.88 1003.78 1418.88C1004.26 1418.88 1004.66 1418.8 1005.14 1418.72C1005.3 1418.72 1005.42 1418.76 1005.42 1419Z" fill="white"/>
<path d="M958.5 311.5V424.5" stroke="#707070"/>
<path d="M957 608.5V1315.5" stroke="#707070"/>
<path d="M627 905L628 965" stroke="#707070"/>
<path d="M236.5 903.5L236 966.5" stroke="#707070"/>
<path d="M1350 904.5L1350.5 966.5" stroke="#707070"/>
<path d="M1350.5 966.5H236.5" stroke="#707070"/>
<path d="M1350.5 661.5H236.5" stroke="#707070"/>
<path d="M1578 813H1509" stroke="#707070" stroke-dasharray="3 3"/>
<path d="M1576 1407H1117" stroke="#707070" stroke-dasharray="3 3"/>
<path d="M1578.5 813.5V1020.5" stroke="#707070" stroke-dasharray="3 3"/>
<path d="M1579 1204V1407" stroke="#707070" stroke-dasharray="3 3"/>
<path d="M627.5 663L628.5 723" stroke="#707070"/>
<path d="M237 661.5L236.5 724.5" stroke="#707070"/>
<path d="M1350.5 662.5L1351 720.5" stroke="#707070"/>
</g>
</g>
<defs>
<clipPath id="clip0_13_2">
<rect width="1833" height="1611" fill="white"/>
</clipPath>
</defs>
</svg>
