<svg xmlns="http://www.w3.org/2000/svg" xmlns:xlink="http://www.w3.org/1999/xlink" width="3800" height="1904" viewBox="0 0 3800 1904">
  <defs>
    <clipPath id="clip-B2B">
      <rect width="3800" height="1904"/>
    </clipPath>
  </defs>
  <g id="B2B" clip-path="url(#clip-B2B)">
    <rect width="3800" height="1904" fill="#fff"/>
    <g id="Component_1_5" data-name="Component 1 – 5" transform="translate(2741 526)">
      <rect id="Rectangle_1" data-name="Rectangle 1" width="318" height="184" rx="20" fill="#4146c9"/>
      <text id="Account" transform="translate(159 108)" fill="#fff" font-size="40" font-family="AdobeClean-ExtraBold, Adobe Clean" font-weight="800"><tspan x="-69.54" y="0">Account</tspan></text>
    </g>
    <g id="Component_1_10" data-name="Component 1 – 10" transform="translate(2741 229)">
      <rect id="Rectangle_1-2" data-name="Rectangle 1" width="318" height="184" rx="20" fill="#4146c9"/>
      <text id="Global_Account" data-name="Global Account" transform="translate(159 108)" fill="#fff" font-size="40" font-family="AdobeClean-ExtraBold, Adobe Clean" font-weight="800"><tspan x="-130.5" y="0">Global Account</tspan></text>
    </g>
    <g id="Component_1_4" data-name="Component 1 – 4" transform="translate(2019 823)">
      <rect id="Rectangle_1-3" data-name="Rectangle 1" width="318" height="184" rx="20" fill="#4146c9"/>
      <text id="Buying_Group" data-name="Buying Group" transform="translate(160 108)" fill="#fff" font-size="40" font-family="AdobeClean-ExtraBold, Adobe Clean" font-weight="800"><tspan x="-117.64" y="0">Buying Group</tspan></text>
    </g>
    <g id="Component_1_6" data-name="Component 1 – 6" transform="translate(2411 823)">
      <rect id="Rectangle_1-4" data-name="Rectangle 1" width="318" height="184" rx="20" fill="#4146c9"/>
      <text id="Opportunity" transform="translate(159 108)" fill="#fff" font-size="40" font-family="AdobeClean-ExtraBold, Adobe Clean" font-weight="800"><tspan x="-106.3" y="0">Opportunity</tspan></text>
    </g>
    <g id="Component_1_7" data-name="Component 1 – 7" transform="translate(3133 823)">
      <g id="Rectangle_1-5" data-name="Rectangle 1" fill="#4146ca" stroke="#707070" stroke-width="2">
        <rect width="318" height="184" rx="20" stroke="none"/>
        <rect x="1" y="1" width="316" height="182" rx="19" fill="none"/>
      </g>
      <text id="Person" transform="translate(159 108)" fill="#fff" font-size="40" font-family="AdobeClean-ExtraBold, Adobe Clean" font-weight="800"><tspan x="-60" y="0">Person</tspan></text>
    </g>
    <g id="Component_1_2" data-name="Component 1 – 2" transform="translate(3359 1122)">
      <rect id="Rectangle_1-6" data-name="Rectangle 1" width="318" height="184" rx="20" fill="#6f7071"/>
      <text id="Session" transform="translate(159 108)" fill="#fff" font-size="40" font-family="AdobeClean-ExtraBold, Adobe Clean" font-weight="800"><tspan x="-64.76" y="0">Session</tspan></text>
    </g>
    <g id="Component_1_9" data-name="Component 1 – 9" transform="translate(2741 1417)">
      <rect id="Rectangle_1-7" data-name="Rectangle 1" width="318" height="184" rx="20" fill="#31b880"/>
      <text id="Event" transform="translate(159 108)" fill="#fff" font-size="40" font-family="AdobeClean-ExtraBold, Adobe Clean" font-weight="800"><tspan x="-48.26" y="0">Event</tspan></text>
    </g>
    <line id="Line_1" data-name="Line 1" y2="113" transform="translate(2900.5 413.5)" fill="none" stroke="#707070" stroke-width="1"/>
    <line id="Line_2" data-name="Line 2" y2="707" transform="translate(2899 710.5)" fill="none" stroke="#707070" stroke-width="1"/>
    <line id="Line_3" data-name="Line 3" x2="1" y2="60" transform="translate(2569 1007)" fill="none" stroke="#707070" stroke-width="1"/>
    <line id="Line_4" data-name="Line 4" x1="0.5" y2="63" transform="translate(2178 1005.5)" fill="none" stroke="#707070" stroke-width="1"/>
    <line id="Line_7" data-name="Line 7" x2="0.5" y2="62" transform="translate(3292 1006.5)" fill="none" stroke="#707070" stroke-width="1"/>
    <line id="Line_5" data-name="Line 5" x1="1114" transform="translate(2178.5 1068.5)" fill="none" stroke="#707070" stroke-width="1"/>
    <line id="Line_35" data-name="Line 35" x1="1114" transform="translate(2178.5 763.5)" fill="none" stroke="#707070" stroke-width="1"/>
    <line id="Line_15" data-name="Line 15" x1="69" transform="translate(3451 915)" fill="none" stroke="#707070" stroke-width="1" stroke-dasharray="3 3"/>
    <line id="Line_17" data-name="Line 17" x1="459" transform="translate(3059 1509)" fill="none" stroke="#707070" stroke-width="1" stroke-dasharray="3 3"/>
    <line id="Line_16" data-name="Line 16" y2="207" transform="translate(3520.5 915.5)" fill="none" stroke="#707070" stroke-width="1" stroke-dasharray="3 3"/>
    <line id="Line_18" data-name="Line 18" y2="203" transform="translate(3521 1306)" fill="none" stroke="#707070" stroke-width="1" stroke-dasharray="3 3"/>
    <line id="Line_36" data-name="Line 36" x2="1" y2="60" transform="translate(2569.5 765)" fill="none" stroke="#707070" stroke-width="1"/>
    <line id="Line_37" data-name="Line 37" x1="0.5" y2="63" transform="translate(2178.5 763.5)" fill="none" stroke="#707070" stroke-width="1"/>
    <line id="Line_38" data-name="Line 38" x2="0.5" y2="58" transform="translate(3292.5 764.5)" fill="none" stroke="#707070" stroke-width="1"/>
    <g id="Component_1_67" data-name="Component 1 – 67" transform="translate(876 514)">
      <rect id="Rectangle_1-8" data-name="Rectangle 1" width="318" height="184" rx="20" fill="#4146c9"/>
      <text id="Account-2" data-name="Account" transform="translate(159 108)" fill="#fff" font-size="40" font-family="AdobeClean-ExtraBold, Adobe Clean" font-weight="800"><tspan x="-69.54" y="0">Account</tspan></text>
    </g>
    <g id="Component_1_69" data-name="Component 1 – 69" transform="translate(154 811)">
      <rect id="Rectangle_1-9" data-name="Rectangle 1" width="318" height="184" rx="20" fill="#4146c9"/>
      <text id="Buying_Group-2" data-name="Buying Group" transform="translate(160 108)" fill="#fff" font-size="40" font-family="AdobeClean-ExtraBold, Adobe Clean" font-weight="800"><tspan x="-117.64" y="0">Buying Group</tspan></text>
    </g>
    <g id="Component_1_70" data-name="Component 1 – 70" transform="translate(546 811)">
      <rect id="Rectangle_1-10" data-name="Rectangle 1" width="318" height="184" rx="20" fill="#4146c9"/>
      <text id="Opportunity-2" data-name="Opportunity" transform="translate(159 108)" fill="#fff" font-size="40" font-family="AdobeClean-ExtraBold, Adobe Clean" font-weight="800"><tspan x="-106.3" y="0">Opportunity</tspan></text>
    </g>
    <g id="Component_1_71" data-name="Component 1 – 71" transform="translate(1268 811)">
      <g id="Rectangle_1-11" data-name="Rectangle 1" fill="#4146ca" stroke="#707070" stroke-width="2">
        <rect width="318" height="184" rx="20" stroke="none"/>
        <rect x="1" y="1" width="316" height="182" rx="19" fill="none"/>
      </g>
      <text id="Profile" transform="translate(159 108)" fill="#fff" font-size="40" font-family="AdobeClean-ExtraBold, Adobe Clean" font-weight="800"><tspan x="-57.02" y="0">Profile</tspan></text>
    </g>
    <g id="Component_1_73" data-name="Component 1 – 73" transform="translate(875 1378)">
      <rect id="Rectangle_1-12" data-name="Rectangle 1" width="318" height="184" rx="20" fill="#31b880"/>
      <text id="Activity" transform="translate(159 108)" fill="#fff" font-size="40" font-family="AdobeClean-ExtraBold, Adobe Clean" font-weight="800"><tspan x="-65.32" y="0">Activity</tspan></text>
    </g>
    <line id="Line_1-2" data-name="Line 1" y2="113" transform="translate(1035.5 401.5)" fill="none" stroke="#707070" stroke-width="1"/>
    <line id="Line_2-2" data-name="Line 2" y2="680" transform="translate(1034 698.5)" fill="none" stroke="#707070" stroke-width="1"/>
    <line id="Line_49" data-name="Line 49" y2="237" transform="translate(1655 903)" fill="none" stroke="#707070" stroke-width="1"/>
    <line id="Line_3-2" data-name="Line 3" x2="1" y2="60" transform="translate(704 995)" fill="none" stroke="#707070" stroke-width="1"/>
    <line id="Line_50" data-name="Line 50" x2="1" y2="60" transform="translate(1655 1324)" fill="none" stroke="#707070" stroke-width="1"/>
    <line id="Line_51" data-name="Line 51" x2="1" y2="60" transform="translate(1034 1562)" fill="none" stroke="#707070" stroke-width="1"/>
    <line id="Line_4-2" data-name="Line 4" x1="0.5" y2="63" transform="translate(313 993.5)" fill="none" stroke="#707070" stroke-width="1"/>
    <line id="Line_7-2" data-name="Line 7" x2="0.5" y2="62" transform="translate(1427 994.5)" fill="none" stroke="#707070" stroke-width="1"/>
    <line id="Line_5-2" data-name="Line 5" x1="1114" transform="translate(313.5 1056.5)" fill="none" stroke="#707070" stroke-width="1"/>
    <line id="Line_35-2" data-name="Line 35" x1="1114" transform="translate(313.5 751.5)" fill="none" stroke="#707070" stroke-width="1"/>
    <line id="Line_15-2" data-name="Line 15" x1="69" transform="translate(1586 903)" fill="none" stroke="#707070" stroke-width="1"/>
    <line id="Line_52" data-name="Line 52" x1="314" transform="translate(1182 606)" fill="none" stroke="#707070" stroke-width="1"/>
    <line id="Line_36-2" data-name="Line 36" x2="1" y2="60" transform="translate(704.5 753)" fill="none" stroke="#707070" stroke-width="1"/>
    <line id="Line_37-2" data-name="Line 37" x1="0.5" y2="63" transform="translate(313.5 751.5)" fill="none" stroke="#707070" stroke-width="1"/>
    <line id="Line_38-2" data-name="Line 38" x2="0.5" y2="58" transform="translate(1427.5 752.5)" fill="none" stroke="#707070" stroke-width="1"/>
    <g id="Component_7_1" data-name="Component 7 – 1" transform="translate(877 229)">
      <g id="Component_1_68" data-name="Component 1 – 68">
        <rect id="Rectangle_1-13" data-name="Rectangle 1" width="318" height="184" rx="20" fill="#4146c9"/>
        <text id="Global_Account-2" data-name="Global Account" transform="translate(159 108)" fill="#fff" font-size="40" font-family="AdobeClean-ExtraBold, Adobe Clean" font-weight="800"><tspan x="-130.5" y="0">Global Account</tspan></text>
      </g>
      <path id="datset" d="M34,8.988C34,4.071,25.952,1.5,18,1.5S2,4.071,2,8.988a4.255,4.255,0,0,0,.046.452A1.942,1.942,0,0,0,2,9.7V32.6c0,4.751,8.294,6.912,16,6.912S34,37.354,34,32.6V9.7a1.942,1.942,0,0,0-.046-.263A4.256,4.256,0,0,0,34,8.988M31,21.072c-.184.956-4.456,3.467-13,3.467S5.18,22.028,5,21.084V13.536c3.06,1.942,8.048,2.94,13,2.94s9.94-1,13-2.94ZM18,4.956c8.578,0,13,2.827,13,4.032S26.578,13.02,18,13.02,5,10.193,5,8.988,9.422,4.956,18,4.956m0,31.1c-8.546,0-12.82-2.511-13-3.456V25.337C8.1,27.143,13.166,28,18,28s9.9-.852,13-2.659V32.59c-.18.956-4.454,3.47-13,3.47" transform="translate(11 12.484)" fill="#fff"/>
    </g>
    <path id="datset-2" data-name="datset" d="M34,8.988C34,4.071,25.952,1.5,18,1.5S2,4.071,2,8.988a4.255,4.255,0,0,0,.046.452A1.942,1.942,0,0,0,2,9.7V32.6c0,4.751,8.294,6.912,16,6.912S34,37.354,34,32.6V9.7a1.942,1.942,0,0,0-.046-.263A4.256,4.256,0,0,0,34,8.988M31,21.072c-.184.956-4.456,3.467-13,3.467S5.18,22.028,5,21.084V13.536c3.06,1.942,8.048,2.94,13,2.94s9.94-1,13-2.94ZM18,4.956c8.578,0,13,2.827,13,4.032S26.578,13.02,18,13.02,5,10.193,5,8.988,9.422,4.956,18,4.956m0,31.1c-8.546,0-12.82-2.511-13-3.456V25.337C8.1,27.143,13.166,28,18,28s9.9-.852,13-2.659V32.59c-.18.956-4.454,3.47-13,3.47" transform="translate(887 527.484)" fill="#fff"/>
    <path id="datset-3" data-name="datset" d="M34,8.988C34,4.071,25.952,1.5,18,1.5S2,4.071,2,8.988a4.255,4.255,0,0,0,.046.452A1.942,1.942,0,0,0,2,9.7V32.6c0,4.751,8.294,6.912,16,6.912S34,37.354,34,32.6V9.7a1.942,1.942,0,0,0-.046-.263A4.256,4.256,0,0,0,34,8.988M31,21.072c-.184.956-4.456,3.467-13,3.467S5.18,22.028,5,21.084V13.536c3.06,1.942,8.048,2.94,13,2.94s9.94-1,13-2.94ZM18,4.956c8.578,0,13,2.827,13,4.032S26.578,13.02,18,13.02,5,10.193,5,8.988,9.422,4.956,18,4.956m0,31.1c-8.546,0-12.82-2.511-13-3.456V25.337C8.1,27.143,13.166,28,18,28s9.9-.852,13-2.659V32.59c-.18.956-4.454,3.47-13,3.47" transform="translate(166 823.484)" fill="#fff"/>
    <path id="datset-4" data-name="datset" d="M34,8.988C34,4.071,25.952,1.5,18,1.5S2,4.071,2,8.988a4.255,4.255,0,0,0,.046.452A1.942,1.942,0,0,0,2,9.7V32.6c0,4.751,8.294,6.912,16,6.912S34,37.354,34,32.6V9.7a1.942,1.942,0,0,0-.046-.263A4.256,4.256,0,0,0,34,8.988M31,21.072c-.184.956-4.456,3.467-13,3.467S5.18,22.028,5,21.084V13.536c3.06,1.942,8.048,2.94,13,2.94s9.94-1,13-2.94ZM18,4.956c8.578,0,13,2.827,13,4.032S26.578,13.02,18,13.02,5,10.193,5,8.988,9.422,4.956,18,4.956m0,31.1c-8.546,0-12.82-2.511-13-3.456V25.337C8.1,27.143,13.166,28,18,28s9.9-.852,13-2.659V32.59c-.18.956-4.454,3.47-13,3.47" transform="translate(556 823.484)" fill="#fff"/>
    <path id="datset-5" data-name="datset" d="M34,8.988C34,4.071,25.952,1.5,18,1.5S2,4.071,2,8.988a4.255,4.255,0,0,0,.046.452A1.942,1.942,0,0,0,2,9.7V32.6c0,4.751,8.294,6.912,16,6.912S34,37.354,34,32.6V9.7a1.942,1.942,0,0,0-.046-.263A4.256,4.256,0,0,0,34,8.988M31,21.072c-.184.956-4.456,3.467-13,3.467S5.18,22.028,5,21.084V13.536c3.06,1.942,8.048,2.94,13,2.94s9.94-1,13-2.94ZM18,4.956c8.578,0,13,2.827,13,4.032S26.578,13.02,18,13.02,5,10.193,5,8.988,9.422,4.956,18,4.956m0,31.1c-8.546,0-12.82-2.511-13-3.456V25.337C8.1,27.143,13.166,28,18,28s9.9-.852,13-2.659V32.59c-.18.956-4.454,3.47-13,3.47" transform="translate(1279 823.484)" fill="#fff"/>
    <path id="datset-6" data-name="datset" d="M34,8.988C34,4.071,25.952,1.5,18,1.5S2,4.071,2,8.988a4.255,4.255,0,0,0,.046.452A1.942,1.942,0,0,0,2,9.7V32.6c0,4.751,8.294,6.912,16,6.912S34,37.354,34,32.6V9.7a1.942,1.942,0,0,0-.046-.263A4.256,4.256,0,0,0,34,8.988M31,21.072c-.184.956-4.456,3.467-13,3.467S5.18,22.028,5,21.084V13.536c3.06,1.942,8.048,2.94,13,2.94s9.94-1,13-2.94ZM18,4.956c8.578,0,13,2.827,13,4.032S26.578,13.02,18,13.02,5,10.193,5,8.988,9.422,4.956,18,4.956m0,31.1c-8.546,0-12.82-2.511-13-3.456V25.337C8.1,27.143,13.166,28,18,28s9.9-.852,13-2.659V32.59c-.18.956-4.454,3.47-13,3.47" transform="translate(887 1396.992)" fill="#fff"/>
    <g id="Component_1_74" data-name="Component 1 – 74" transform="translate(1496 1140)">
      <rect id="Rectangle_1-14" data-name="Rectangle 1" width="318" height="184" rx="20" fill="#4146ca"/>
      <rect id="Rectangle_2" data-name="Rectangle 2" width="318" height="184" rx="20" fill="#de3c82"/>
      <text id="Marketing_List_Member" data-name="Marketing List
Member" transform="translate(160 108)" fill="#fff" font-size="40" font-family="AdobeClean-ExtraBold, Adobe Clean" font-weight="800"><tspan x="-123.3" y="0">Marketing List</tspan><tspan x="-72.46" y="51">Member</tspan></text>
    </g>
    <path id="datset-7" data-name="datset" d="M34,8.988C34,4.071,25.952,1.5,18,1.5S2,4.071,2,8.988a4.255,4.255,0,0,0,.046.452A1.942,1.942,0,0,0,2,9.7V32.6c0,4.751,8.294,6.912,16,6.912S34,37.354,34,32.6V9.7a1.942,1.942,0,0,0-.046-.263A4.256,4.256,0,0,0,34,8.988M31,21.072c-.184.956-4.456,3.467-13,3.467S5.18,22.028,5,21.084V13.536c3.06,1.942,8.048,2.94,13,2.94s9.94-1,13-2.94ZM18,4.956c8.578,0,13,2.827,13,4.032S26.578,13.02,18,13.02,5,10.193,5,8.988,9.422,4.956,18,4.956m0,31.1c-8.546,0-12.82-2.511-13-3.456V25.337C8.1,27.143,13.166,28,18,28s9.9-.852,13-2.659V32.59c-.18.956-4.454,3.47-13,3.47" transform="translate(1508 1154.484)" fill="#fff"/>
    <g id="Component_5_1" data-name="Component 5 – 1" transform="translate(1496 1378)">
      <g id="Component_1_75" data-name="Component 1 – 75">
        <rect id="Rectangle_1-15" data-name="Rectangle 1" width="318" height="184" rx="20" fill="#4146ca"/>
        <rect id="Rectangle_2-2" data-name="Rectangle 2" width="318" height="184" rx="20" fill="#de3c82"/>
        <text id="Marketing_List" data-name="Marketing List" transform="translate(159 108)" fill="#fff" font-size="40" font-family="AdobeClean-ExtraBold, Adobe Clean" font-weight="800"><tspan x="-123.3" y="0">Marketing List</tspan></text>
      </g>
      <path id="datset-8" data-name="datset" d="M34,8.988C34,4.071,25.952,1.5,18,1.5S2,4.071,2,8.988a4.255,4.255,0,0,0,.046.452A1.942,1.942,0,0,0,2,9.7V32.6c0,4.751,8.294,6.912,16,6.912S34,37.354,34,32.6V9.7a1.942,1.942,0,0,0-.046-.263A4.256,4.256,0,0,0,34,8.988M31,21.072c-.184.956-4.456,3.467-13,3.467S5.18,22.028,5,21.084V13.536c3.06,1.942,8.048,2.94,13,2.94s9.94-1,13-2.94ZM18,4.956c8.578,0,13,2.827,13,4.032S26.578,13.02,18,13.02,5,10.193,5,8.988,9.422,4.956,18,4.956m0,31.1c-8.546,0-12.82-2.511-13-3.456V25.337C8.1,27.143,13.166,28,18,28s9.9-.852,13-2.659V32.59c-.18.956-4.454,3.47-13,3.47" transform="translate(11 14.484)" fill="#fff"/>
    </g>
    <g id="Component_4_8" data-name="Component 4 – 8" transform="translate(876 1622)">
      <g id="Component_1_23" data-name="Component 1 – 23">
        <rect id="Rectangle_1-16" data-name="Rectangle 1" width="318" height="184" rx="20" fill="#de3c82"/>
        <text id="Product" transform="translate(159 108)" fill="#fff" font-size="40" font-family="AdobeClean-ExtraBold, Adobe Clean" font-weight="800"><tspan x="-67.74" y="0">Product</tspan></text>
      </g>
      <path id="datset-9" data-name="datset" d="M34,8.988C34,4.071,25.952,1.5,18,1.5S2,4.071,2,8.988a4.255,4.255,0,0,0,.046.452A1.942,1.942,0,0,0,2,9.7V32.6c0,4.751,8.294,6.912,16,6.912S34,37.354,34,32.6V9.7a1.942,1.942,0,0,0-.046-.263A4.256,4.256,0,0,0,34,8.988M31,21.072c-.184.956-4.456,3.467-13,3.467S5.18,22.028,5,21.084V13.536c3.06,1.942,8.048,2.94,13,2.94s9.94-1,13-2.94ZM18,4.956c8.578,0,13,2.827,13,4.032S26.578,13.02,18,13.02,5,10.193,5,8.988,9.422,4.956,18,4.956m0,31.1c-8.546,0-12.82-2.511-13-3.456V25.337C8.1,27.143,13.166,28,18,28s9.9-.852,13-2.659V32.59c-.18.956-4.454,3.47-13,3.47" transform="translate(12 14.484)" fill="#fff"/>
    </g>
    <g id="Component_6_1" data-name="Component 6 – 1" transform="translate(1497 514)">
      <g id="Component_1_76" data-name="Component 1 – 76">
        <rect id="Rectangle_1-17" data-name="Rectangle 1" width="318" height="184" rx="20" fill="#4146ca"/>
        <rect id="Rectangle_2-3" data-name="Rectangle 2" width="318" height="184" rx="20" fill="#de3c82"/>
        <text id="Account_Details" data-name="Account Details" transform="translate(159 108)" fill="#fff" font-size="40" font-family="AdobeClean-ExtraBold, Adobe Clean" font-weight="800"><tspan x="-133.78" y="0">Account Details</tspan></text>
      </g>
      <path id="datset-10" data-name="datset" d="M34,8.988C34,4.071,25.952,1.5,18,1.5S2,4.071,2,8.988a4.255,4.255,0,0,0,.046.452A1.942,1.942,0,0,0,2,9.7V32.6c0,4.751,8.294,6.912,16,6.912S34,37.354,34,32.6V9.7a1.942,1.942,0,0,0-.046-.263A4.256,4.256,0,0,0,34,8.988M31,21.072c-.184.956-4.456,3.467-13,3.467S5.18,22.028,5,21.084V13.536c3.06,1.942,8.048,2.94,13,2.94s9.94-1,13-2.94ZM18,4.956c8.578,0,13,2.827,13,4.032S26.578,13.02,18,13.02,5,10.193,5,8.988,9.422,4.956,18,4.956m0,31.1c-8.546,0-12.82-2.511-13-3.456V25.337C8.1,27.143,13.166,28,18,28s9.9-.852,13-2.659V32.59c-.18.956-4.454,3.47-13,3.47" transform="translate(12 12.484)" fill="#fff"/>
    </g>
    <text id="_Container_Hierarchy" data-name=" Container Hierarchy" transform="translate(2871 134)" fill="#717070" font-size="80" font-family="AdobeClean-ExtraBold, Adobe Clean" font-weight="800"><tspan x="-351.84" y="0" xml:space="preserve"> Container Hierarchy</tspan></text>
    <text id="Example_Connection" data-name="Example Connection" transform="translate(1034 134)" fill="#717070" font-size="80" font-family="AdobeClean-ExtraBold, Adobe Clean" font-weight="800"><tspan x="-354.92" y="0">Example Connection</tspan></text>
    <path id="datset-11" data-name="datset" d="M34,8.988C34,4.071,25.952,1.5,18,1.5S2,4.071,2,8.988a4.255,4.255,0,0,0,.046.452A1.942,1.942,0,0,0,2,9.7V32.6c0,4.751,8.294,6.912,16,6.912S34,37.354,34,32.6V9.7a1.942,1.942,0,0,0-.046-.263A4.256,4.256,0,0,0,34,8.988M31,21.072c-.184.956-4.456,3.467-13,3.467S5.18,22.028,5,21.084V13.536c3.06,1.942,8.048,2.94,13,2.94s9.94-1,13-2.94ZM18,4.956c8.578,0,13,2.827,13,4.032S26.578,13.02,18,13.02,5,10.193,5,8.988,9.422,4.956,18,4.956m0,31.1c-8.546,0-12.82-2.511-13-3.456V25.337C8.1,27.143,13.166,28,18,28s9.9-.852,13-2.659V32.59c-.18.956-4.454,3.47-13,3.47" transform="translate(663 1762.484)" fill="#fff"/>
    <g id="Component_9_17" data-name="Component 9 – 17" transform="translate(2958 1843)">
      <rect id="Rectangle_5" data-name="Rectangle 5" width="45" height="42" rx="10" fill="#de3c82"/>
      <text id="Lookup_dataset_field_records_" data-name="Lookup dataset (field records)" transform="translate(56 27)" fill="#707070" font-size="20" font-family="AdobeClean-ExtraBold, Adobe Clean" font-weight="800"><tspan x="0" y="0">Lookup dataset (field records)</tspan></text>
    </g>
    <g id="Component_9_18" data-name="Component 9 – 18" transform="translate(3326 1843)">
      <rect id="Rectangle_5-2" data-name="Rectangle 5" width="45" height="42" rx="10" fill="#f68512"/>
      <text id="Transformed_lookup_dataset_field_records_" data-name="Transformed lookup dataset (field records)" transform="translate(56 27)" fill="#707070" font-size="20" font-family="AdobeClean-ExtraBold, Adobe Clean" font-weight="800"><tspan x="0" y="0">Transformed lookup dataset (field records)</tspan></text>
    </g>
    <g id="Component_9_19" data-name="Component 9 – 19" transform="translate(2180 1843)">
      <rect id="Rectangle_5-3" data-name="Rectangle 5" width="45" height="42" rx="10" fill="#31b880"/>
      <text id="Event_dataset_time_series_data_" data-name="Event dataset (time series data)" transform="translate(56 27)" fill="#707070" font-size="20" font-family="AdobeClean-ExtraBold, Adobe Clean" font-weight="800"><tspan x="0" y="0">Event dataset (time series data)</tspan></text>
    </g>
    <g id="Component_9_20" data-name="Component 9 – 20" transform="translate(2555 1844)">
      <rect id="Rectangle_5-4" data-name="Rectangle 5" width="45" height="42" rx="10" fill="#4146c9"/>
      <text id="Lookup_dataset_container_records_" data-name="Lookup dataset (container records)" transform="translate(56 27)" fill="#707070" font-size="20" font-family="AdobeClean-ExtraBold, Adobe Clean" font-weight="800"><tspan x="0" y="0">Lookup dataset (container records)</tspan></text>
    </g>
    <path id="datset-12" data-name="datset" d="M24.105,7.2c0-3.744-5.56-5.7-11.053-5.7S2,3.458,2,7.2c0,.118.021.228.032.344a1.617,1.617,0,0,0-.032.2V25.183c0,3.617,5.729,5.263,11.053,5.263S24.105,28.8,24.105,25.183V7.745a1.616,1.616,0,0,0-.032-.2c.011-.116.032-.226.032-.344m-2.072,9.2c-.127.728-3.078,2.64-8.98,2.64S4.2,17.13,4.072,16.411V10.664c2.114,1.479,5.56,2.238,8.98,2.238s6.867-.76,8.98-2.238ZM13.053,4.131c5.926,0,8.98,2.152,8.98,3.07s-3.055,3.07-8.98,3.07S4.072,8.119,4.072,7.2s3.055-3.07,8.98-3.07m0,23.683c-5.9,0-8.856-1.912-8.98-2.631V19.65c2.144,1.375,5.641,2.024,8.98,2.024s6.836-.649,8.98-2.024v5.522c-.124.728-3.077,2.642-8.98,2.642" transform="translate(2188.895 1848.027)" fill="#fff"/>
    <path id="datset-13" data-name="datset" d="M24.105,7.2c0-3.744-5.56-5.7-11.053-5.7S2,3.458,2,7.2c0,.118.021.228.032.344a1.617,1.617,0,0,0-.032.2V25.183c0,3.617,5.729,5.263,11.053,5.263S24.105,28.8,24.105,25.183V7.745a1.616,1.616,0,0,0-.032-.2c.011-.116.032-.226.032-.344m-2.072,9.2c-.127.728-3.078,2.64-8.98,2.64S4.2,17.13,4.072,16.411V10.664c2.114,1.479,5.56,2.238,8.98,2.238s6.867-.76,8.98-2.238ZM13.053,4.131c5.926,0,8.98,2.152,8.98,3.07s-3.055,3.07-8.98,3.07S4.072,8.119,4.072,7.2s3.055-3.07,8.98-3.07m0,23.683c-5.9,0-8.856-1.912-8.98-2.631V19.65c2.144,1.375,5.641,2.024,8.98,2.024s6.836-.649,8.98-2.024v5.522c-.124.728-3.077,2.642-8.98,2.642" transform="translate(2563.895 1849.027)" fill="#fff"/>
    <path id="datset-14" data-name="datset" d="M24.105,7.2c0-3.744-5.56-5.7-11.053-5.7S2,3.458,2,7.2c0,.118.021.228.032.344a1.617,1.617,0,0,0-.032.2V25.183c0,3.617,5.729,5.263,11.053,5.263S24.105,28.8,24.105,25.183V7.745a1.616,1.616,0,0,0-.032-.2c.011-.116.032-.226.032-.344m-2.072,9.2c-.127.728-3.078,2.64-8.98,2.64S4.2,17.13,4.072,16.411V10.664c2.114,1.479,5.56,2.238,8.98,2.238s6.867-.76,8.98-2.238ZM13.053,4.131c5.926,0,8.98,2.152,8.98,3.07s-3.055,3.07-8.98,3.07S4.072,8.119,4.072,7.2s3.055-3.07,8.98-3.07m0,23.683c-5.9,0-8.856-1.912-8.98-2.631V19.65c2.144,1.375,5.641,2.024,8.98,2.024s6.836-.649,8.98-2.024v5.522c-.124.728-3.077,2.642-8.98,2.642" transform="translate(2966.895 1848.027)" fill="#fff"/>
    <path id="datset-15" data-name="datset" d="M24.105,7.2c0-3.744-5.56-5.7-11.053-5.7S2,3.458,2,7.2c0,.118.021.228.032.344a1.617,1.617,0,0,0-.032.2V25.183c0,3.617,5.729,5.263,11.053,5.263S24.105,28.8,24.105,25.183V7.745a1.616,1.616,0,0,0-.032-.2c.011-.116.032-.226.032-.344m-2.072,9.2c-.127.728-3.078,2.64-8.98,2.64S4.2,17.13,4.072,16.411V10.664c2.114,1.479,5.56,2.238,8.98,2.238s6.867-.76,8.98-2.238ZM13.053,4.131c5.926,0,8.98,2.152,8.98,3.07s-3.055,3.07-8.98,3.07S4.072,8.119,4.072,7.2s3.055-3.07,8.98-3.07m0,23.683c-5.9,0-8.856-1.912-8.98-2.631V19.65c2.144,1.375,5.641,2.024,8.98,2.024s6.836-.649,8.98-2.024v5.522c-.124.728-3.077,2.642-8.98,2.642" transform="translate(3334.895 1848.027)" fill="#fff"/>
  </g>
</svg>
