<svg width="1833" height="1038" viewBox="0 0 1833 1038" fill="none" xmlns="http://www.w3.org/2000/svg">
<g clip-path="url(#clip0_13_69)">
<mask id="mask0_13_69" style="mask-type:luminance" maskUnits="userSpaceOnUse" x="0" y="0" width="1833" height="1038">
<path d="M1833 0H0V1038H1833V0Z" fill="white"/>
</mask>
<g mask="url(#mask0_13_69)">
<path d="M1833 0H0V1038H1833V0Z" fill="white"/>
<path d="M1052 121H774C762.954 121 754 129.954 754 141V285C754 296.046 762.954 305 774 305H1052C1063.05 305 1072 296.046 1072 285V141C1072 129.954 1063.05 121 1052 121Z" fill="#4146CA"/>
<path d="M1052 122H774C763.507 122 755 130.507 755 141V285C755 295.493 763.507 304 774 304H1052C1062.49 304 1071 295.493 1071 285V141C1071 130.507 1062.49 122 1052 122Z" stroke="#707070" stroke-width="2"/>
<path d="M855.88 228.68V203.16C855.88 202.92 855.92 202.84 856.12 202.84C857.76 202.8 860.92 202.72 863.96 202.72C872.04 202.72 874.84 207.2 874.84 211.56C874.84 218.04 869.84 220.8 863.68 220.8C862.6 220.8 862.36 220.8 861.4 220.8V228.68C861.4 228.88 861.32 229 861.08 229H856.16C855.96 229 855.88 228.88 855.88 228.68ZM861.4 207.64V215.88C862.08 215.92 862.52 215.92 863.64 215.92C866.8 215.92 869.32 214.96 869.32 211.68C869.32 209.16 867.6 207.56 864.12 207.56C862.84 207.56 861.76 207.6 861.4 207.64ZM890.61 220.52H882.81C883.01 222.8 884.61 224.68 888.53 224.68C890.33 224.68 891.93 224.4 893.45 223.76C893.57 223.68 893.69 223.72 893.69 223.96V227.76C893.69 228.04 893.61 228.16 893.41 228.24C891.81 229 890.05 229.4 887.29 229.4C879.77 229.4 877.13 224.24 877.13 219.28C877.13 213.76 880.53 208.72 886.81 208.72C892.85 208.72 895.25 213.4 895.25 217.36C895.25 218.6 895.17 219.6 895.05 220.04C895.01 220.24 894.93 220.32 894.73 220.36C894.21 220.44 892.69 220.52 890.61 220.52ZM882.77 216.64H888.01C889.29 216.64 889.85 216.6 890.01 216.56C890.01 216.48 890.01 216.32 890.01 216.28C890.01 215.32 889.25 213.12 886.61 213.12C884.09 213.12 883.01 215 882.77 216.64ZM898.838 209.12H903.198C903.478 209.12 903.598 209.24 903.678 209.48C903.878 210 904.078 210.84 904.118 211.72C905.438 210.16 907.638 208.72 910.478 208.72C910.718 208.72 910.798 208.8 910.798 209.04V213.96C910.798 214.16 910.718 214.24 910.438 214.24C907.558 214.12 905.238 215 904.398 215.96L904.358 228.68C904.358 228.92 904.278 229 903.998 229H899.198C898.878 229 898.798 228.88 898.798 228.64V214.84C898.798 213.12 898.758 210.8 898.598 209.4C898.598 209.2 898.638 209.12 898.838 209.12ZM925.787 214.32C924.467 213.64 922.427 213.16 920.627 213.16C918.747 213.16 918.147 213.84 918.147 214.52C918.147 215.2 918.667 215.72 920.987 216.6C925.827 218.36 927.347 220.24 927.347 223.08C927.347 226.88 924.387 229.4 919.107 229.4C916.667 229.4 914.547 228.96 913.307 228.28C913.107 228.16 913.027 228.04 913.027 227.84V223.52C913.027 223.28 913.187 223.16 913.347 223.28C915.187 224.44 917.427 224.88 919.227 224.88C921.107 224.88 921.947 224.36 921.947 223.52C921.947 222.76 921.267 222.2 918.907 221.32C914.387 219.64 912.907 217.72 912.907 214.84C912.907 211.72 915.427 208.72 920.707 208.72C923.067 208.72 924.907 209.04 925.907 209.52C926.147 209.64 926.187 209.84 926.187 210.04V214.04C926.187 214.28 926.027 214.44 925.787 214.32ZM939.707 208.72C946.147 208.72 949.467 213.56 949.467 218.96C949.467 225.24 945.387 229.4 939.627 229.4C932.787 229.4 929.747 224.24 929.747 219.08C929.747 213.4 933.547 208.72 939.707 208.72ZM939.467 213.36C937.147 213.36 935.387 215.44 935.387 219C935.387 222.52 937.027 224.76 939.707 224.76C942.027 224.76 943.787 222.76 943.787 219.08C943.787 215.96 942.507 213.36 939.467 213.36ZM953.056 228.64V213.76C953.056 212.4 952.976 210.32 952.896 209.44C952.856 209.24 952.936 209.12 953.176 209.12H957.376C957.696 209.12 957.816 209.24 957.896 209.44C958.056 209.8 958.136 210.2 958.216 210.76C959.896 209.4 961.776 208.72 963.896 208.72C966.976 208.72 970.616 210.32 970.616 216.76V228.64C970.616 228.88 970.536 229 970.256 229H965.456C965.176 229 965.056 228.88 965.056 228.64V217.24C965.056 214.84 964.016 213.56 961.936 213.56C960.576 213.56 959.456 214.04 958.616 214.8V228.68C958.616 228.88 958.496 229 958.256 229H953.416C953.136 229 953.056 228.88 953.056 228.64Z" fill="white"/>
<path d="M1280 419H1002C990.954 419 982 427.954 982 439V583C982 594.046 990.954 603 1002 603H1280C1291.05 603 1300 594.046 1300 583V439C1300 427.954 1291.05 419 1280 419Z" fill="#6F7071"/>
<path d="M1280 420H1002C991.507 420 983 428.507 983 439V583C983 593.493 991.507 602 1002 602H1280C1290.49 602 1299 593.493 1299 583V439C1299 428.507 1290.49 420 1280 420Z" stroke="#707070" stroke-width="2" stroke-dasharray="3 3"/>
<path d="M1085.04 527.4C1082.08 527.4 1079.64 526.88 1077.96 526C1077.76 525.88 1077.68 525.68 1077.68 525.36V520.6C1077.68 520.4 1077.84 520.28 1078 520.4C1080.2 521.8 1082.84 522.48 1085.24 522.48C1088.28 522.48 1089.48 521.44 1089.48 520.04C1089.48 518.76 1088.56 517.84 1085.84 516.68L1083.84 515.84C1078.92 513.76 1077.56 511.28 1077.56 508.16C1077.56 503.84 1080.84 500.4 1087.2 500.4C1089.72 500.4 1092 500.72 1093.44 501.44C1093.64 501.56 1093.68 501.72 1093.68 501.96V506.44C1093.68 506.6 1093.56 506.8 1093.32 506.64C1091.72 505.72 1089.52 505.32 1087.16 505.32C1084.08 505.32 1083 506.36 1083 507.68C1083 508.92 1083.84 509.76 1086.84 510.96L1088.32 511.56C1093.64 513.76 1095.12 516.28 1095.12 519.52C1095.12 524.36 1091.2 527.4 1085.04 527.4ZM1111.27 518.52H1103.47C1103.67 520.8 1105.27 522.68 1109.19 522.68C1110.99 522.68 1112.59 522.4 1114.11 521.76C1114.23 521.68 1114.35 521.72 1114.35 521.96V525.76C1114.35 526.04 1114.27 526.16 1114.07 526.24C1112.47 527 1110.71 527.4 1107.95 527.4C1100.43 527.4 1097.79 522.24 1097.79 517.28C1097.79 511.76 1101.19 506.72 1107.47 506.72C1113.51 506.72 1115.91 511.4 1115.91 515.36C1115.91 516.6 1115.83 517.6 1115.71 518.04C1115.67 518.24 1115.59 518.32 1115.39 518.36C1114.87 518.44 1113.35 518.52 1111.27 518.52ZM1103.43 514.64H1108.67C1109.95 514.64 1110.51 514.6 1110.67 514.56C1110.67 514.48 1110.67 514.32 1110.67 514.28C1110.67 513.32 1109.91 511.12 1107.27 511.12C1104.75 511.12 1103.67 513 1103.43 514.64ZM1131.41 512.32C1130.09 511.64 1128.05 511.16 1126.25 511.16C1124.37 511.16 1123.77 511.84 1123.77 512.52C1123.77 513.2 1124.29 513.72 1126.61 514.6C1131.45 516.36 1132.97 518.24 1132.97 521.08C1132.97 524.88 1130.01 527.4 1124.73 527.4C1122.29 527.4 1120.17 526.96 1118.93 526.28C1118.73 526.16 1118.65 526.04 1118.65 525.84V521.52C1118.65 521.28 1118.81 521.16 1118.97 521.28C1120.81 522.44 1123.05 522.88 1124.85 522.88C1126.73 522.88 1127.57 522.36 1127.57 521.52C1127.57 520.76 1126.89 520.2 1124.53 519.32C1120.01 517.64 1118.53 515.72 1118.53 512.84C1118.53 509.72 1121.05 506.72 1126.33 506.72C1128.69 506.72 1130.53 507.04 1131.53 507.52C1131.77 507.64 1131.81 507.84 1131.81 508.04V512.04C1131.81 512.28 1131.65 512.44 1131.41 512.32ZM1148.36 512.32C1147.04 511.64 1145 511.16 1143.2 511.16C1141.32 511.16 1140.72 511.84 1140.72 512.52C1140.72 513.2 1141.24 513.72 1143.56 514.6C1148.4 516.36 1149.92 518.24 1149.92 521.08C1149.92 524.88 1146.96 527.4 1141.68 527.4C1139.24 527.4 1137.12 526.96 1135.88 526.28C1135.68 526.16 1135.6 526.04 1135.6 525.84V521.52C1135.6 521.28 1135.76 521.16 1135.92 521.28C1137.76 522.44 1140 522.88 1141.8 522.88C1143.68 522.88 1144.52 522.36 1144.52 521.52C1144.52 520.76 1143.84 520.2 1141.48 519.32C1136.96 517.64 1135.48 515.72 1135.48 512.84C1135.48 509.72 1138 506.72 1143.28 506.72C1145.64 506.72 1147.48 507.04 1148.48 507.52C1148.72 507.64 1148.76 507.84 1148.76 508.04V512.04C1148.76 512.28 1148.6 512.44 1148.36 512.32ZM1153.29 526.64V507.44C1153.29 507.24 1153.37 507.12 1153.61 507.12H1158.53C1158.77 507.12 1158.85 507.2 1158.85 507.44V526.64C1158.85 526.88 1158.81 527 1158.49 527H1153.69C1153.41 527 1153.29 526.88 1153.29 526.64ZM1156.09 505C1154.21 505 1153.01 503.76 1153.01 501.88C1153.01 500.08 1154.33 498.8 1156.13 498.8C1158.05 498.8 1159.21 500.08 1159.21 501.88C1159.21 503.76 1157.97 505 1156.09 505ZM1172.4 506.72C1178.84 506.72 1182.16 511.56 1182.16 516.96C1182.16 523.24 1178.08 527.4 1172.32 527.4C1165.48 527.4 1162.44 522.24 1162.44 517.08C1162.44 511.4 1166.24 506.72 1172.4 506.72ZM1172.16 511.36C1169.84 511.36 1168.08 513.44 1168.08 517C1168.08 520.52 1169.72 522.76 1172.4 522.76C1174.72 522.76 1176.48 520.76 1176.48 517.08C1176.48 513.96 1175.2 511.36 1172.16 511.36ZM1185.75 526.64V511.76C1185.75 510.4 1185.67 508.32 1185.59 507.44C1185.55 507.24 1185.63 507.12 1185.87 507.12H1190.07C1190.39 507.12 1190.51 507.24 1190.59 507.44C1190.75 507.8 1190.83 508.2 1190.91 508.76C1192.59 507.4 1194.47 506.72 1196.59 506.72C1199.67 506.72 1203.31 508.32 1203.31 514.76V526.64C1203.31 526.88 1203.23 527 1202.95 527H1198.15C1197.87 527 1197.75 526.88 1197.75 526.64V515.24C1197.75 512.84 1196.71 511.56 1194.63 511.56C1193.27 511.56 1192.15 512.04 1191.31 512.8V526.68C1191.31 526.88 1191.19 527 1190.95 527H1186.11C1185.83 527 1185.75 526.88 1185.75 526.64Z" fill="white"/>
<path d="M1052 717H774C762.954 717 754 725.954 754 737V881C754 892.046 762.954 901 774 901H1052C1063.05 901 1072 892.046 1072 881V737C1072 725.954 1063.05 717 1052 717Z" fill="#31B880"/>
<path d="M885.3 820.36L884.62 824.64C884.58 824.96 884.5 825 884.22 825H867.94C867.7 825 867.62 824.88 867.62 824.64V799.16C867.62 798.92 867.7 798.8 867.94 798.8H883.74C884.06 798.8 884.14 798.84 884.18 799.12L884.62 803.44C884.66 803.64 884.62 803.8 884.34 803.8H873.18V809.16H883.38C883.58 809.16 883.7 809.24 883.7 809.48V813.88C883.7 814.12 883.54 814.16 883.38 814.16H873.18V820H884.98C885.3 820 885.34 820.12 885.3 820.36ZM898.116 825H892.876C892.596 825 892.476 824.88 892.396 824.72C890.876 820.2 887.516 810.04 885.876 805.44C885.836 805.28 885.916 805.12 886.156 805.12H891.396C891.676 805.12 891.756 805.2 891.836 805.4C894.436 814.4 895.316 817.96 895.716 819.76H895.796C896.196 817.96 897.236 814.36 900.036 805.4C900.116 805.2 900.196 805.12 900.396 805.12H905.036C905.196 805.12 905.356 805.24 905.276 805.48C903.556 810.2 900.196 820.32 898.596 824.68C898.476 824.88 898.396 825 898.116 825ZM920.084 816.52H912.284C912.484 818.8 914.084 820.68 918.004 820.68C919.804 820.68 921.404 820.4 922.924 819.76C923.044 819.68 923.164 819.72 923.164 819.96V823.76C923.164 824.04 923.084 824.16 922.884 824.24C921.284 825 919.524 825.4 916.764 825.4C909.244 825.4 906.604 820.24 906.604 815.28C906.604 809.76 910.004 804.72 916.284 804.72C922.324 804.72 924.724 809.4 924.724 813.36C924.724 814.6 924.644 815.6 924.524 816.04C924.484 816.24 924.404 816.32 924.204 816.36C923.684 816.44 922.164 816.52 920.084 816.52ZM912.244 812.64H917.484C918.764 812.64 919.324 812.6 919.484 812.56C919.484 812.48 919.484 812.32 919.484 812.28C919.484 811.32 918.724 809.12 916.084 809.12C913.564 809.12 912.484 811 912.244 812.64ZM928.273 824.64V809.76C928.273 808.4 928.193 806.32 928.113 805.44C928.073 805.24 928.153 805.12 928.393 805.12H932.593C932.913 805.12 933.033 805.24 933.113 805.44C933.273 805.8 933.353 806.2 933.433 806.76C935.113 805.4 936.993 804.72 939.113 804.72C942.193 804.72 945.833 806.32 945.833 812.76V824.64C945.833 824.88 945.753 825 945.473 825H940.673C940.393 825 940.273 824.88 940.273 824.64V813.24C940.273 810.84 939.233 809.56 937.153 809.56C935.793 809.56 934.673 810.04 933.833 810.8V824.68C933.833 824.88 933.713 825 933.473 825H928.633C928.353 825 928.273 824.88 928.273 824.64ZM960.417 821V824.32C960.417 824.56 960.377 824.76 960.137 824.84C959.017 825.24 957.977 825.4 956.577 825.4C953.097 825.4 951.057 823.68 951.057 819.68V809.76H948.657C948.417 809.72 948.337 809.64 948.337 809.4V805.48C948.337 805.2 948.417 805.12 948.697 805.12H951.097C951.137 803.76 951.297 801.4 951.497 800.28C951.537 800.08 951.657 799.96 951.857 799.92L956.537 799.32C956.737 799.28 956.857 799.28 956.857 799.56C956.737 800.8 956.657 803.16 956.657 805.12H960.337C960.577 805.12 960.657 805.2 960.657 805.44V809.48C960.657 809.68 960.577 809.72 960.377 809.76H956.617V818.32C956.617 820.08 957.137 820.88 958.777 820.88C959.257 820.88 959.657 820.8 960.137 820.72C960.297 820.72 960.417 820.76 960.417 821Z" fill="white"/>
<path d="M1138.5 807.5H1072.5" stroke="#707070" stroke-dasharray="2 2"/>
<path d="M1141 213H1072" stroke="#707070" stroke-dasharray="2 2"/>
<path d="M904.5 305.5V715.5" stroke="#707070"/>
<path d="M1141.5 213.5L1138.5 419" stroke="#707070" stroke-dasharray="2 2"/>
<path d="M1138.5 603V807.5" stroke="#707070" stroke-dasharray="2 2"/>
</g>
</g>
<defs>
<clipPath id="clip0_13_69">
<rect width="1833" height="1038" fill="white"/>
</clipPath>
</defs>
</svg>
