<svg xmlns="http://www.w3.org/2000/svg" xmlns:xlink="http://www.w3.org/1999/xlink" width="3800" height="1964" viewBox="0 0 3800 1964">
  <defs>
    <clipPath id="clip-B2C_Transformed_datasets_for_B2B_lookups">
      <rect width="3800" height="1964"/>
    </clipPath>
  </defs>
  <g id="B2C_Transformed_datasets_for_B2B_lookups" data-name="B2C Transformed datasets for B2B lookups" clip-path="url(#clip-B2C_Transformed_datasets_for_B2B_lookups)">
    <rect width="3800" height="1964" fill="#fff"/>
    <g id="Component_1_13" data-name="Component 1 – 13" transform="translate(1083 511)">
      <g id="Rectangle_1" data-name="Rectangle 1" fill="#4146ca" stroke="#707070" stroke-width="2">
        <rect width="318" height="184" rx="20" stroke="none"/>
        <rect x="1" y="1" width="316" height="182" rx="19" fill="none"/>
      </g>
      <text id="Profile" transform="translate(159 108)" fill="#fff" font-size="40" font-family="AdobeClean-ExtraBold, Adobe Clean" font-weight="800"><tspan x="-57.02" y="0">Profile</tspan></text>
    </g>
    <g id="Component_1_22" data-name="Component 1 – 22" transform="translate(1083 1105)">
      <rect id="Rectangle_1-2" data-name="Rectangle 1" width="318" height="184" rx="20" fill="#31b880"/>
      <text id="Activity" transform="translate(159 108)" fill="#fff" font-size="40" font-family="AdobeClean-ExtraBold, Adobe Clean" font-weight="800"><tspan x="-65.32" y="0">Activity</tspan></text>
    </g>
    <g id="Component_1_27" data-name="Component 1 – 27" transform="translate(181 1456)">
      <rect id="Rectangle_1-3" data-name="Rectangle 1" width="318" height="184" rx="20" fill="#f68512"/>
      <text id="Person_to_Account" data-name="Person 
to 
Account" transform="translate(159 57)" fill="#fff" font-size="40" font-family="AdobeClean-ExtraBold, Adobe Clean" font-weight="800"><tspan x="-64.54" y="0">Person </tspan><tspan x="-22.12" y="51">to </tspan><tspan x="-69.54" y="102">Account</tspan></text>
    </g>
    <g id="Component_1_28" data-name="Component 1 – 28" transform="translate(628 1455)">
      <rect id="Rectangle_1-4" data-name="Rectangle 1" width="318" height="184" rx="20" fill="#f68512"/>
      <text id="Person_to_Opportunity" data-name="Person 
to 
Opportunity" transform="translate(159 57)" fill="#fff" font-size="40" font-family="AdobeClean-ExtraBold, Adobe Clean" font-weight="800"><tspan x="-64.54" y="0">Person </tspan><tspan x="-22.12" y="51">to </tspan><tspan x="-106.3" y="102">Opportunity</tspan></text>
    </g>
    <g id="Component_1_29" data-name="Component 1 – 29" transform="translate(1075 1455)">
      <rect id="Rectangle_1-5" data-name="Rectangle 1" width="318" height="184" rx="20" fill="#f68512"/>
      <text id="Person_to_Campaign" data-name="Person 
to 
Campaign" transform="translate(159 57)" fill="#fff" font-size="40" font-family="AdobeClean-ExtraBold, Adobe Clean" font-weight="800"><tspan x="-64.54" y="0">Person </tspan><tspan x="-22.12" y="51">to </tspan><tspan x="-86.38" y="102">Campaign</tspan></text>
    </g>
    <g id="Component_1_30" data-name="Component 1 – 30" transform="translate(1522 1455)">
      <rect id="Rectangle_1-6" data-name="Rectangle 1" width="318" height="184" rx="20" fill="#f68512"/>
      <text id="Person_to_Marketing_List" data-name="Person 
to 
Marketing List" transform="translate(159 57)" fill="#fff" font-size="40" font-family="AdobeClean-ExtraBold, Adobe Clean" font-weight="800"><tspan x="-64.54" y="0">Person </tspan><tspan x="-22.12" y="51">to </tspan><tspan x="-123.3" y="102">Marketing List</tspan></text>
    </g>
    <g id="Component_1_24" data-name="Component 1 – 24" transform="translate(630 1708)">
      <rect id="Rectangle_1-7" data-name="Rectangle 1" width="318" height="184" rx="20" fill="#4146ca"/>
      <rect id="Rectangle_2" data-name="Rectangle 2" width="318" height="184" rx="20" fill="#de3c82"/>
      <text id="Opportunity" transform="translate(159 108)" fill="#fff" font-size="40" font-family="AdobeClean-ExtraBold, Adobe Clean" font-weight="800"><tspan x="-106.3" y="0">Opportunity</tspan></text>
    </g>
    <g id="Component_1_25" data-name="Component 1 – 25" transform="translate(1077 1708)">
      <rect id="Rectangle_1-8" data-name="Rectangle 1" width="318" height="184" rx="20" fill="#4146ca"/>
      <rect id="Rectangle_2-2" data-name="Rectangle 2" width="318" height="184" rx="20" fill="#de3c82"/>
      <text id="Campaign" transform="translate(159 108)" fill="#fff" font-size="40" font-family="AdobeClean-ExtraBold, Adobe Clean" font-weight="800"><tspan x="-86.38" y="0">Campaign</tspan></text>
    </g>
    <g id="Component_1_26" data-name="Component 1 – 26" transform="translate(1524 1707)">
      <rect id="Rectangle_1-9" data-name="Rectangle 1" width="318" height="184" rx="20" fill="#4146ca"/>
      <rect id="Rectangle_2-3" data-name="Rectangle 2" width="318" height="184" rx="20" fill="#de3c82"/>
      <text id="Marketing_List" data-name="Marketing List" transform="translate(159 108)" fill="#fff" font-size="40" font-family="AdobeClean-ExtraBold, Adobe Clean" font-weight="800"><tspan x="-123.3" y="0">Marketing List</tspan></text>
    </g>
    <line id="Line_9" data-name="Line 9" y2="410" transform="translate(1233.5 695)" fill="none" stroke="#707070" stroke-width="1"/>
    <line id="Line_23" data-name="Line 23" y1="68" transform="translate(340.5 1639.5)" fill="none" stroke="#707070" stroke-width="1"/>
    <line id="Line_24" data-name="Line 24" y1="68" transform="translate(787.5 1639.5)" fill="none" stroke="#707070" stroke-width="1"/>
    <line id="Line_25" data-name="Line 25" y1="68" transform="translate(1234.5 1639.5)" fill="none" stroke="#707070" stroke-width="1"/>
    <line id="Line_26" data-name="Line 26" y1="68" transform="translate(1681.5 1639.5)" fill="none" stroke="#707070" stroke-width="1"/>
    <line id="Line_28" data-name="Line 28" y2="94" transform="translate(1233.5 1289.5)" fill="none" stroke="#707070" stroke-width="1"/>
    <line id="Line_30" data-name="Line 30" y2="72" transform="translate(340.5 1383.5)" fill="none" stroke="#707070" stroke-width="1"/>
    <line id="Line_31" data-name="Line 31" y2="72" transform="translate(787 1383.5)" fill="none" stroke="#707070" stroke-width="1"/>
    <line id="Line_32" data-name="Line 32" y2="72" transform="translate(1234 1383)" fill="none" stroke="#707070" stroke-width="1"/>
    <line id="Line_33" data-name="Line 33" y2="72" transform="translate(1682 1383)" fill="none" stroke="#707070" stroke-width="1"/>
    <line id="Line_46" data-name="Line 46" y2="72" transform="translate(2128 1384)" fill="none" stroke="#707070" stroke-width="1"/>
    <line id="Line_29" data-name="Line 29" x1="1788" transform="translate(340.5 1383.5)" fill="none" stroke="#707070" stroke-width="1"/>
    <line id="Line_34" data-name="Line 34" x2="129" transform="translate(499.5 1799.5)" fill="none" stroke="#707070" stroke-width="1"/>
    <g id="Component_1_66" data-name="Component 1 – 66" transform="translate(2721 1106)">
      <rect id="Rectangle_1-10" data-name="Rectangle 1" width="318" height="184" rx="20" fill="#31b880"/>
      <text id="Event" transform="translate(159 108)" fill="#fff" font-size="40" font-family="AdobeClean-ExtraBold, Adobe Clean" font-weight="800"><tspan x="-48.26" y="0">Event</tspan></text>
    </g>
    <line id="Line_41" data-name="Line 41" x1="66" transform="translate(3039.5 1198.5)" fill="none" stroke="#707070" stroke-width="1" stroke-dasharray="2 2"/>
    <g id="Component_1_64" data-name="Component 1 – 64" transform="translate(2721 512)">
      <g id="Rectangle_1-11" data-name="Rectangle 1" fill="#4146ca" stroke="#707070" stroke-width="2">
        <rect width="318" height="184" rx="20" stroke="none"/>
        <rect x="1" y="1" width="316" height="182" rx="19" fill="none"/>
      </g>
      <text id="Person" transform="translate(159 108)" fill="#fff" font-size="40" font-family="AdobeClean-ExtraBold, Adobe Clean" font-weight="800"><tspan x="-60" y="0">Person</tspan></text>
    </g>
    <g id="Component_1_65" data-name="Component 1 – 65" transform="translate(2949 810)">
      <g id="Rectangle_1-12" data-name="Rectangle 1" fill="#6f7071" stroke="#707070" stroke-width="2" stroke-dasharray="3 3">
        <rect width="318" height="184" rx="20" stroke="none"/>
        <rect x="1" y="1" width="316" height="182" rx="19" fill="none"/>
      </g>
      <text id="Session" transform="translate(159 108)" fill="#fff" font-size="40" font-family="AdobeClean-ExtraBold, Adobe Clean" font-weight="800"><tspan x="-64.76" y="0">Session</tspan></text>
    </g>
    <line id="Line_42" data-name="Line 42" x1="69" transform="translate(3039 604)" fill="none" stroke="#707070" stroke-width="1" stroke-dasharray="2 2"/>
    <line id="Line_43" data-name="Line 43" y2="410" transform="translate(2871.5 696.5)" fill="none" stroke="#707070" stroke-width="1"/>
    <line id="Line_44" data-name="Line 44" x1="3" y2="205.5" transform="translate(3105.5 604.5)" fill="none" stroke="#707070" stroke-width="1" stroke-dasharray="2 2"/>
    <line id="Line_45" data-name="Line 45" y2="204.5" transform="translate(3105.5 994)" fill="none" stroke="#707070" stroke-width="1" stroke-dasharray="2 2"/>
    <path id="datset" d="M34,8.988C34,4.071,25.952,1.5,18,1.5S2,4.071,2,8.988a4.255,4.255,0,0,0,.046.452A1.942,1.942,0,0,0,2,9.7V32.6c0,4.751,8.294,6.912,16,6.912S34,37.354,34,32.6V9.7a1.942,1.942,0,0,0-.046-.263A4.256,4.256,0,0,0,34,8.988M31,21.072c-.184.956-4.456,3.467-13,3.467S5.18,22.028,5,21.084V13.536c3.06,1.942,8.048,2.94,13,2.94s9.94-1,13-2.94ZM18,4.956c8.578,0,13,2.827,13,4.032S26.578,13.02,18,13.02,5,10.193,5,8.988,9.422,4.956,18,4.956m0,31.1c-8.546,0-12.82-2.511-13-3.456V25.337C8.1,27.143,13.166,28,18,28s9.9-.852,13-2.659V32.59c-.18.956-4.454,3.47-13,3.47" transform="translate(1095 523.5)" fill="#fff"/>
    <path id="datset-2" data-name="datset" d="M34,8.988C34,4.071,25.952,1.5,18,1.5S2,4.071,2,8.988a4.255,4.255,0,0,0,.046.452A1.942,1.942,0,0,0,2,9.7V32.6c0,4.751,8.294,6.912,16,6.912S34,37.354,34,32.6V9.7a1.942,1.942,0,0,0-.046-.263A4.256,4.256,0,0,0,34,8.988M31,21.072c-.184.956-4.456,3.467-13,3.467S5.18,22.028,5,21.084V13.536c3.06,1.942,8.048,2.94,13,2.94s9.94-1,13-2.94ZM18,4.956c8.578,0,13,2.827,13,4.032S26.578,13.02,18,13.02,5,10.193,5,8.988,9.422,4.956,18,4.956m0,31.1c-8.546,0-12.82-2.511-13-3.456V25.337C8.1,27.143,13.166,28,18,28s9.9-.852,13-2.659V32.59c-.18.956-4.454,3.47-13,3.47" transform="translate(1095 1120.5)" fill="#fff"/>
    <path id="datset-3" data-name="datset" d="M34,8.988C34,4.071,25.952,1.5,18,1.5S2,4.071,2,8.988a4.255,4.255,0,0,0,.046.452A1.942,1.942,0,0,0,2,9.7V32.6c0,4.751,8.294,6.912,16,6.912S34,37.354,34,32.6V9.7a1.942,1.942,0,0,0-.046-.263A4.256,4.256,0,0,0,34,8.988M31,21.072c-.184.956-4.456,3.467-13,3.467S5.18,22.028,5,21.084V13.536c3.06,1.942,8.048,2.94,13,2.94s9.94-1,13-2.94ZM18,4.956c8.578,0,13,2.827,13,4.032S26.578,13.02,18,13.02,5,10.193,5,8.988,9.422,4.956,18,4.956m0,31.1c-8.546,0-12.82-2.511-13-3.456V25.337C8.1,27.143,13.166,28,18,28s9.9-.852,13-2.659V32.59c-.18.956-4.454,3.47-13,3.47" transform="translate(193 1472.484)" fill="#fff"/>
    <path id="datset-4" data-name="datset" d="M34,8.988C34,4.071,25.952,1.5,18,1.5S2,4.071,2,8.988a4.255,4.255,0,0,0,.046.452A1.942,1.942,0,0,0,2,9.7V32.6c0,4.751,8.294,6.912,16,6.912S34,37.354,34,32.6V9.7a1.942,1.942,0,0,0-.046-.263A4.256,4.256,0,0,0,34,8.988M31,21.072c-.184.956-4.456,3.467-13,3.467S5.18,22.028,5,21.084V13.536c3.06,1.942,8.048,2.94,13,2.94s9.94-1,13-2.94ZM18,4.956c8.578,0,13,2.827,13,4.032S26.578,13.02,18,13.02,5,10.193,5,8.988,9.422,4.956,18,4.956m0,31.1c-8.546,0-12.82-2.511-13-3.456V25.337C8.1,27.143,13.166,28,18,28s9.9-.852,13-2.659V32.59c-.18.956-4.454,3.47-13,3.47" transform="translate(1535 1472.484)" fill="#fff"/>
    <path id="datset-5" data-name="datset" d="M34,8.988C34,4.071,25.952,1.5,18,1.5S2,4.071,2,8.988a4.255,4.255,0,0,0,.046.452A1.942,1.942,0,0,0,2,9.7V32.6c0,4.751,8.294,6.912,16,6.912S34,37.354,34,32.6V9.7a1.942,1.942,0,0,0-.046-.263A4.256,4.256,0,0,0,34,8.988M31,21.072c-.184.956-4.456,3.467-13,3.467S5.18,22.028,5,21.084V13.536c3.06,1.942,8.048,2.94,13,2.94s9.94-1,13-2.94ZM18,4.956c8.578,0,13,2.827,13,4.032S26.578,13.02,18,13.02,5,10.193,5,8.988,9.422,4.956,18,4.956m0,31.1c-8.546,0-12.82-2.511-13-3.456V25.337C8.1,27.143,13.166,28,18,28s9.9-.852,13-2.659V32.59c-.18.956-4.454,3.47-13,3.47" transform="translate(1305 1322.5)" fill="#fff"/>
    <path id="datset-6" data-name="datset" d="M34,8.988C34,4.071,25.952,1.5,18,1.5S2,4.071,2,8.988a4.255,4.255,0,0,0,.046.452A1.942,1.942,0,0,0,2,9.7V32.6c0,4.751,8.294,6.912,16,6.912S34,37.354,34,32.6V9.7a1.942,1.942,0,0,0-.046-.263A4.256,4.256,0,0,0,34,8.988M31,21.072c-.184.956-4.456,3.467-13,3.467S5.18,22.028,5,21.084V13.536c3.06,1.942,8.048,2.94,13,2.94s9.94-1,13-2.94ZM18,4.956c8.578,0,13,2.827,13,4.032S26.578,13.02,18,13.02,5,10.193,5,8.988,9.422,4.956,18,4.956m0,31.1c-8.546,0-12.82-2.511-13-3.456V25.337C8.1,27.143,13.166,28,18,28s9.9-.852,13-2.659V32.59c-.18.956-4.454,3.47-13,3.47" transform="translate(1305 1322.5)" fill="#fff"/>
    <path id="datset-7" data-name="datset" d="M34,8.988C34,4.071,25.952,1.5,18,1.5S2,4.071,2,8.988a4.255,4.255,0,0,0,.046.452A1.942,1.942,0,0,0,2,9.7V32.6c0,4.751,8.294,6.912,16,6.912S34,37.354,34,32.6V9.7a1.942,1.942,0,0,0-.046-.263A4.256,4.256,0,0,0,34,8.988M31,21.072c-.184.956-4.456,3.467-13,3.467S5.18,22.028,5,21.084V13.536c3.06,1.942,8.048,2.94,13,2.94s9.94-1,13-2.94ZM18,4.956c8.578,0,13,2.827,13,4.032S26.578,13.02,18,13.02,5,10.193,5,8.988,9.422,4.956,18,4.956m0,31.1c-8.546,0-12.82-2.511-13-3.456V25.337C8.1,27.143,13.166,28,18,28s9.9-.852,13-2.659V32.59c-.18.956-4.454,3.47-13,3.47" transform="translate(1305 1322.5)" fill="#fff"/>
    <path id="datset-8" data-name="datset" d="M34,8.988C34,4.071,25.952,1.5,18,1.5S2,4.071,2,8.988a4.255,4.255,0,0,0,.046.452A1.942,1.942,0,0,0,2,9.7V32.6c0,4.751,8.294,6.912,16,6.912S34,37.354,34,32.6V9.7a1.942,1.942,0,0,0-.046-.263A4.256,4.256,0,0,0,34,8.988M31,21.072c-.184.956-4.456,3.467-13,3.467S5.18,22.028,5,21.084V13.536c3.06,1.942,8.048,2.94,13,2.94s9.94-1,13-2.94ZM18,4.956c8.578,0,13,2.827,13,4.032S26.578,13.02,18,13.02,5,10.193,5,8.988,9.422,4.956,18,4.956m0,31.1c-8.546,0-12.82-2.511-13-3.456V25.337C8.1,27.143,13.166,28,18,28s9.9-.852,13-2.659V32.59c-.18.956-4.454,3.47-13,3.47" transform="translate(640 1472.484)" fill="#fff"/>
    <path id="datset-9" data-name="datset" d="M34,8.988C34,4.071,25.952,1.5,18,1.5S2,4.071,2,8.988a4.255,4.255,0,0,0,.046.452A1.942,1.942,0,0,0,2,9.7V32.6c0,4.751,8.294,6.912,16,6.912S34,37.354,34,32.6V9.7a1.942,1.942,0,0,0-.046-.263A4.256,4.256,0,0,0,34,8.988M31,21.072c-.184.956-4.456,3.467-13,3.467S5.18,22.028,5,21.084V13.536c3.06,1.942,8.048,2.94,13,2.94s9.94-1,13-2.94ZM18,4.956c8.578,0,13,2.827,13,4.032S26.578,13.02,18,13.02,5,10.193,5,8.988,9.422,4.956,18,4.956m0,31.1c-8.546,0-12.82-2.511-13-3.456V25.337C8.1,27.143,13.166,28,18,28s9.9-.852,13-2.659V32.59c-.18.956-4.454,3.47-13,3.47" transform="translate(1087 1472.484)" fill="#fff"/>
    <path id="datset-10" data-name="datset" d="M34,8.988C34,4.071,25.952,1.5,18,1.5S2,4.071,2,8.988a4.255,4.255,0,0,0,.046.452A1.942,1.942,0,0,0,2,9.7V32.6c0,4.751,8.294,6.912,16,6.912S34,37.354,34,32.6V9.7a1.942,1.942,0,0,0-.046-.263A4.256,4.256,0,0,0,34,8.988M31,21.072c-.184.956-4.456,3.467-13,3.467S5.18,22.028,5,21.084V13.536c3.06,1.942,8.048,2.94,13,2.94s9.94-1,13-2.94ZM18,4.956c8.578,0,13,2.827,13,4.032S26.578,13.02,18,13.02,5,10.193,5,8.988,9.422,4.956,18,4.956m0,31.1c-8.546,0-12.82-2.511-13-3.456V25.337C8.1,27.143,13.166,28,18,28s9.9-.852,13-2.659V32.59c-.18.956-4.454,3.47-13,3.47" transform="translate(1535 1721.484)" fill="#fff"/>
    <path id="datset-11" data-name="datset" d="M34,8.988C34,4.071,25.952,1.5,18,1.5S2,4.071,2,8.988a4.255,4.255,0,0,0,.046.452A1.942,1.942,0,0,0,2,9.7V32.6c0,4.751,8.294,6.912,16,6.912S34,37.354,34,32.6V9.7a1.942,1.942,0,0,0-.046-.263A4.256,4.256,0,0,0,34,8.988M31,21.072c-.184.956-4.456,3.467-13,3.467S5.18,22.028,5,21.084V13.536c3.06,1.942,8.048,2.94,13,2.94s9.94-1,13-2.94ZM18,4.956c8.578,0,13,2.827,13,4.032S26.578,13.02,18,13.02,5,10.193,5,8.988,9.422,4.956,18,4.956m0,31.1c-8.546,0-12.82-2.511-13-3.456V25.337C8.1,27.143,13.166,28,18,28s9.9-.852,13-2.659V32.59c-.18.956-4.454,3.47-13,3.47" transform="translate(1087 1721.484)" fill="#fff"/>
    <path id="datset-12" data-name="datset" d="M34,8.988C34,4.071,25.952,1.5,18,1.5S2,4.071,2,8.988a4.255,4.255,0,0,0,.046.452A1.942,1.942,0,0,0,2,9.7V32.6c0,4.751,8.294,6.912,16,6.912S34,37.354,34,32.6V9.7a1.942,1.942,0,0,0-.046-.263A4.256,4.256,0,0,0,34,8.988M31,21.072c-.184.956-4.456,3.467-13,3.467S5.18,22.028,5,21.084V13.536c3.06,1.942,8.048,2.94,13,2.94s9.94-1,13-2.94ZM18,4.956c8.578,0,13,2.827,13,4.032S26.578,13.02,18,13.02,5,10.193,5,8.988,9.422,4.956,18,4.956m0,31.1c-8.546,0-12.82-2.511-13-3.456V25.337C8.1,27.143,13.166,28,18,28s9.9-.852,13-2.659V32.59c-.18.956-4.454,3.47-13,3.47" transform="translate(640 1721.484)" fill="#fff"/>
    <g id="Component_4_1" data-name="Component 4 – 1" transform="translate(182 1707)">
      <g id="Component_1_23" data-name="Component 1 – 23">
        <rect id="Rectangle_1-13" data-name="Rectangle 1" width="318" height="184" rx="20" fill="#de3c82"/>
        <text id="Account" transform="translate(159 108)" fill="#fff" font-size="40" font-family="AdobeClean-ExtraBold, Adobe Clean" font-weight="800"><tspan x="-69.54" y="0">Account</tspan></text>
      </g>
      <path id="datset-13" data-name="datset" d="M34,8.988C34,4.071,25.952,1.5,18,1.5S2,4.071,2,8.988a4.255,4.255,0,0,0,.046.452A1.942,1.942,0,0,0,2,9.7V32.6c0,4.751,8.294,6.912,16,6.912S34,37.354,34,32.6V9.7a1.942,1.942,0,0,0-.046-.263A4.256,4.256,0,0,0,34,8.988M31,21.072c-.184.956-4.456,3.467-13,3.467S5.18,22.028,5,21.084V13.536c3.06,1.942,8.048,2.94,13,2.94s9.94-1,13-2.94ZM18,4.956c8.578,0,13,2.827,13,4.032S26.578,13.02,18,13.02,5,10.193,5,8.988,9.422,4.956,18,4.956m0,31.1c-8.546,0-12.82-2.511-13-3.456V25.337C8.1,27.143,13.166,28,18,28s9.9-.852,13-2.659V32.59c-.18.956-4.454,3.47-13,3.47" transform="translate(12 14.484)" fill="#fff"/>
    </g>
    <g id="Component_4_5" data-name="Component 4 – 5" transform="translate(1969 1456)">
      <g id="Component_1_23-2" data-name="Component 1 – 23">
        <rect id="Rectangle_1-14" data-name="Rectangle 1" width="318" height="184" rx="20" fill="#de3c82"/>
        <text id="Product" transform="translate(159 108)" fill="#fff" font-size="40" font-family="AdobeClean-ExtraBold, Adobe Clean" font-weight="800"><tspan x="-67.74" y="0">Product</tspan></text>
      </g>
      <path id="datset-14" data-name="datset" d="M34,8.988C34,4.071,25.952,1.5,18,1.5S2,4.071,2,8.988a4.255,4.255,0,0,0,.046.452A1.942,1.942,0,0,0,2,9.7V32.6c0,4.751,8.294,6.912,16,6.912S34,37.354,34,32.6V9.7a1.942,1.942,0,0,0-.046-.263A4.256,4.256,0,0,0,34,8.988M31,21.072c-.184.956-4.456,3.467-13,3.467S5.18,22.028,5,21.084V13.536c3.06,1.942,8.048,2.94,13,2.94s9.94-1,13-2.94ZM18,4.956c8.578,0,13,2.827,13,4.032S26.578,13.02,18,13.02,5,10.193,5,8.988,9.422,4.956,18,4.956m0,31.1c-8.546,0-12.82-2.511-13-3.456V25.337C8.1,27.143,13.166,28,18,28s9.9-.852,13-2.659V32.59c-.18.956-4.454,3.47-13,3.47" transform="translate(12 14.484)" fill="#fff"/>
    </g>
    <g id="Component_4_7" data-name="Component 4 – 7" transform="translate(1075 226)">
      <g id="Component_1_23-3" data-name="Component 1 – 23">
        <rect id="Rectangle_1-15" data-name="Rectangle 1" width="318" height="184" rx="20" fill="#de3c82"/>
        <text id="CRM" transform="translate(159 108)" fill="#fff" font-size="40" font-family="AdobeClean-ExtraBold, Adobe Clean" font-weight="800"><tspan x="-39.66" y="0">CRM</tspan></text>
      </g>
      <path id="datset-15" data-name="datset" d="M34,8.988C34,4.071,25.952,1.5,18,1.5S2,4.071,2,8.988a4.255,4.255,0,0,0,.046.452A1.942,1.942,0,0,0,2,9.7V32.6c0,4.751,8.294,6.912,16,6.912S34,37.354,34,32.6V9.7a1.942,1.942,0,0,0-.046-.263A4.256,4.256,0,0,0,34,8.988M31,21.072c-.184.956-4.456,3.467-13,3.467S5.18,22.028,5,21.084V13.536c3.06,1.942,8.048,2.94,13,2.94s9.94-1,13-2.94ZM18,4.956c8.578,0,13,2.827,13,4.032S26.578,13.02,18,13.02,5,10.193,5,8.988,9.422,4.956,18,4.956m0,31.1c-8.546,0-12.82-2.511-13-3.456V25.337C8.1,27.143,13.166,28,18,28s9.9-.852,13-2.659V32.59c-.18.956-4.454,3.47-13,3.47" transform="translate(12 14.484)" fill="#fff"/>
    </g>
    <line id="Line_47" data-name="Line 47" y2="101" transform="translate(1234 410)" fill="none" stroke="#707070" stroke-width="1"/>
    <text id="_Container_Hierarchy" data-name=" Container Hierarchy" transform="translate(2871 134)" fill="#717070" font-size="80" font-family="AdobeClean-ExtraBold, Adobe Clean" font-weight="800"><tspan x="-351.84" y="0" xml:space="preserve"> Container Hierarchy</tspan></text>
    <text id="Example_Connection" data-name="Example Connection" transform="translate(1234 136)" fill="#717070" font-size="80" font-family="AdobeClean-ExtraBold, Adobe Clean" font-weight="800"><tspan x="-354.92" y="0">Example Connection</tspan></text>
    <g id="Component_9_13" data-name="Component 9 – 13" transform="translate(2958 1903)">
      <rect id="Rectangle_5" data-name="Rectangle 5" width="45" height="42" rx="10" fill="#de3c82"/>
      <text id="Lookup_dataset_field_records_" data-name="Lookup dataset (field records)" transform="translate(56 27)" fill="#707070" font-size="20" font-family="AdobeClean-ExtraBold, Adobe Clean" font-weight="800"><tspan x="0" y="0">Lookup dataset (field records)</tspan></text>
    </g>
    <g id="Component_9_14" data-name="Component 9 – 14" transform="translate(3326 1903)">
      <rect id="Rectangle_5-2" data-name="Rectangle 5" width="45" height="42" rx="10" fill="#f68512"/>
      <text id="Transformed_lookup_dataset_field_records_" data-name="Transformed lookup dataset (field records)" transform="translate(56 27)" fill="#707070" font-size="20" font-family="AdobeClean-ExtraBold, Adobe Clean" font-weight="800"><tspan x="0" y="0">Transformed lookup dataset (field records)</tspan></text>
    </g>
    <g id="Component_9_15" data-name="Component 9 – 15" transform="translate(2180 1903)">
      <rect id="Rectangle_5-3" data-name="Rectangle 5" width="45" height="42" rx="10" fill="#31b880"/>
      <text id="Event_dataset_time_series_data_" data-name="Event dataset (time series data)" transform="translate(56 27)" fill="#707070" font-size="20" font-family="AdobeClean-ExtraBold, Adobe Clean" font-weight="800"><tspan x="0" y="0">Event dataset (time series data)</tspan></text>
    </g>
    <g id="Component_9_16" data-name="Component 9 – 16" transform="translate(2555 1904)">
      <rect id="Rectangle_5-4" data-name="Rectangle 5" width="45" height="42" rx="10" fill="#4146c9"/>
      <text id="Lookup_dataset_container_records_" data-name="Lookup dataset (container records)" transform="translate(56 27)" fill="#707070" font-size="20" font-family="AdobeClean-ExtraBold, Adobe Clean" font-weight="800"><tspan x="0" y="0">Lookup dataset (container records)</tspan></text>
    </g>
    <path id="datset-16" data-name="datset" d="M24.105,7.2c0-3.744-5.56-5.7-11.053-5.7S2,3.458,2,7.2c0,.118.021.228.032.344a1.617,1.617,0,0,0-.032.2V25.183c0,3.617,5.729,5.263,11.053,5.263S24.105,28.8,24.105,25.183V7.745a1.616,1.616,0,0,0-.032-.2c.011-.116.032-.226.032-.344m-2.072,9.2c-.127.728-3.078,2.64-8.98,2.64S4.2,17.13,4.072,16.411V10.664c2.114,1.479,5.56,2.238,8.98,2.238s6.867-.76,8.98-2.238ZM13.053,4.131c5.926,0,8.98,2.152,8.98,3.07s-3.055,3.07-8.98,3.07S4.072,8.119,4.072,7.2s3.055-3.07,8.98-3.07m0,23.683c-5.9,0-8.856-1.912-8.98-2.631V19.65c2.144,1.375,5.641,2.024,8.98,2.024s6.836-.649,8.98-2.024v5.522c-.124.728-3.077,2.642-8.98,2.642" transform="translate(2188.895 1908.027)" fill="#fff"/>
    <path id="datset-17" data-name="datset" d="M24.105,7.2c0-3.744-5.56-5.7-11.053-5.7S2,3.458,2,7.2c0,.118.021.228.032.344a1.617,1.617,0,0,0-.032.2V25.183c0,3.617,5.729,5.263,11.053,5.263S24.105,28.8,24.105,25.183V7.745a1.616,1.616,0,0,0-.032-.2c.011-.116.032-.226.032-.344m-2.072,9.2c-.127.728-3.078,2.64-8.98,2.64S4.2,17.13,4.072,16.411V10.664c2.114,1.479,5.56,2.238,8.98,2.238s6.867-.76,8.98-2.238ZM13.053,4.131c5.926,0,8.98,2.152,8.98,3.07s-3.055,3.07-8.98,3.07S4.072,8.119,4.072,7.2s3.055-3.07,8.98-3.07m0,23.683c-5.9,0-8.856-1.912-8.98-2.631V19.65c2.144,1.375,5.641,2.024,8.98,2.024s6.836-.649,8.98-2.024v5.522c-.124.728-3.077,2.642-8.98,2.642" transform="translate(2563.895 1909.027)" fill="#fff"/>
    <path id="datset-18" data-name="datset" d="M24.105,7.2c0-3.744-5.56-5.7-11.053-5.7S2,3.458,2,7.2c0,.118.021.228.032.344a1.617,1.617,0,0,0-.032.2V25.183c0,3.617,5.729,5.263,11.053,5.263S24.105,28.8,24.105,25.183V7.745a1.616,1.616,0,0,0-.032-.2c.011-.116.032-.226.032-.344m-2.072,9.2c-.127.728-3.078,2.64-8.98,2.64S4.2,17.13,4.072,16.411V10.664c2.114,1.479,5.56,2.238,8.98,2.238s6.867-.76,8.98-2.238ZM13.053,4.131c5.926,0,8.98,2.152,8.98,3.07s-3.055,3.07-8.98,3.07S4.072,8.119,4.072,7.2s3.055-3.07,8.98-3.07m0,23.683c-5.9,0-8.856-1.912-8.98-2.631V19.65c2.144,1.375,5.641,2.024,8.98,2.024s6.836-.649,8.98-2.024v5.522c-.124.728-3.077,2.642-8.98,2.642" transform="translate(2966.895 1908.027)" fill="#fff"/>
    <path id="datset-19" data-name="datset" d="M24.105,7.2c0-3.744-5.56-5.7-11.053-5.7S2,3.458,2,7.2c0,.118.021.228.032.344a1.617,1.617,0,0,0-.032.2V25.183c0,3.617,5.729,5.263,11.053,5.263S24.105,28.8,24.105,25.183V7.745a1.616,1.616,0,0,0-.032-.2c.011-.116.032-.226.032-.344m-2.072,9.2c-.127.728-3.078,2.64-8.98,2.64S4.2,17.13,4.072,16.411V10.664c2.114,1.479,5.56,2.238,8.98,2.238s6.867-.76,8.98-2.238ZM13.053,4.131c5.926,0,8.98,2.152,8.98,3.07s-3.055,3.07-8.98,3.07S4.072,8.119,4.072,7.2s3.055-3.07,8.98-3.07m0,23.683c-5.9,0-8.856-1.912-8.98-2.631V19.65c2.144,1.375,5.641,2.024,8.98,2.024s6.836-.649,8.98-2.024v5.522c-.124.728-3.077,2.642-8.98,2.642" transform="translate(3334.895 1908.027)" fill="#fff"/>
  </g>
</svg>
