<svg width="1024" height="378" viewBox="0 0 1024 378" fill="none" xmlns="http://www.w3.org/2000/svg">
<g clip-path="url(#clip0_96_2)">
<mask id="mask0_96_2" style="mask-type:luminance" maskUnits="userSpaceOnUse" x="0" y="0" width="1024" height="378">
<path d="M1024 0H0V378H1024V0Z" fill="white"/>
</mask>
<g mask="url(#mask0_96_2)">
<path d="M1024 0H0V378H1024V0Z" fill="white"/>
<mask id="mask1_96_2" style="mask-type:luminance" maskUnits="userSpaceOnUse" x="40" y="54" width="153" height="176">
<path d="M193 54H40V230H193V54Z" fill="white"/>
</mask>
<g mask="url(#mask1_96_2)">
<path d="M116.5 116.5C154.055 116.5 184.5 106.986 184.5 95.25C184.5 83.5139 154.055 74 116.5 74C78.9446 74 48.5 83.5139 48.5 95.25C48.5 106.986 78.9446 116.5 116.5 116.5Z" fill="#464646"/>
<path d="M116.5 168.669C95.522 168.669 56.1 163.701 48.5 151.669V188.75C48.5 200.484 78.943 210 116.5 210C154.057 210 184.5 200.484 184.5 188.75V151.65C174.1 164.8 137.478 168.669 116.5 168.669Z" fill="#464646"/>
<path d="M116.5 126.169C95.522 126.169 56.1 121.201 48.5 109.148V137.748C48.5 149.482 78.943 158.998 116.5 158.998C154.057 158.998 184.5 149.482 184.5 137.748V109.148C174.1 122.3 137.478 126.169 116.5 126.169Z" fill="#464646"/>
</g>
<mask id="mask2_96_2" style="mask-type:luminance" maskUnits="userSpaceOnUse" x="780" y="54" width="146" height="169">
<path d="M926 54H780V223H926V54Z" fill="white"/>
</mask>
<g mask="url(#mask2_96_2)">
<path d="M853 114.015C888.838 114.015 917.889 104.879 917.889 93.6101C917.889 82.3407 888.838 73.2051 853 73.2051C817.163 73.2051 788.111 82.3407 788.111 93.6101C788.111 104.879 817.163 114.015 853 114.015Z" fill="#464646"/>
<path d="M853 164.109C832.982 164.109 795.362 159.338 788.111 147.785V183.391C788.111 194.659 817.161 203.791 853 203.791C888.839 203.791 917.889 194.654 917.889 183.391V147.764C907.965 160.395 873.018 164.109 853 164.109Z" fill="#464646"/>
<path d="M853 123.299C832.982 123.299 795.362 118.528 788.111 106.955V134.419C788.111 145.687 817.161 154.819 853 154.819C888.839 154.819 917.889 145.682 917.889 134.419V106.955C907.965 119.585 873.018 123.299 853 123.299Z" fill="#464646"/>
</g>
<path d="M57.36 287.2C55.9 287.2 54.68 286.92 53.86 286.48C53.76 286.42 53.72 286.34 53.72 286.18V284.1C53.72 284.02 53.8 283.98 53.88 284.02C54.96 284.72 56.28 285.06 57.44 285.06C59.08 285.06 59.78 284.42 59.78 283.56C59.78 282.82 59.3 282.26 57.78 281.62L56.82 281.22C54.36 280.18 53.72 278.94 53.72 277.44C53.72 275.3 55.34 273.66 58.36 273.66C59.62 273.66 60.76 273.84 61.42 274.18C61.52 274.24 61.54 274.3 61.54 274.44V276.38C61.54 276.46 61.48 276.54 61.36 276.46C60.6 276.02 59.5 275.8 58.34 275.8C56.62 275.8 56.08 276.52 56.08 277.22C56.08 277.94 56.54 278.44 58.12 279.1L58.88 279.42C61.48 280.5 62.22 281.76 62.22 283.34C62.22 285.68 60.38 287.2 57.36 287.2ZM68.5391 276.94C71.6191 276.94 73.2991 279.28 73.2991 282.02C73.2991 285.12 71.3191 287.2 68.4991 287.2C65.1591 287.2 63.6791 284.62 63.6791 282.08C63.6791 279.24 65.5391 276.94 68.5391 276.94ZM68.4191 278.96C67.0791 278.96 66.1191 280.14 66.1191 282.04C66.1191 283.88 67.0191 285.16 68.5391 285.16C69.7791 285.16 70.8391 284.14 70.8391 282.08C70.8391 280.42 70.1191 278.96 68.4191 278.96ZM83.538 277.28V284.8C83.538 285.84 83.618 286.44 83.658 286.86C83.678 286.96 83.618 287 83.498 287H81.658C81.518 287 81.478 286.96 81.458 286.88C81.398 286.68 81.338 286.38 81.318 286.18C80.458 286.98 79.438 287.2 78.538 287.2C76.638 287.2 75.178 286.18 75.178 283.38V277.28C75.178 277.16 75.218 277.14 75.338 277.14H77.438C77.558 277.14 77.578 277.18 77.578 277.28V283.1C77.578 284.34 78.118 285.1 79.318 285.1C80.078 285.1 80.638 284.84 81.138 284.38V277.28C81.138 277.18 81.178 277.14 81.298 277.14H83.398C83.518 277.14 83.538 277.18 83.538 277.28ZM86.0964 277.14H87.9764C88.0964 277.14 88.1564 277.18 88.1964 277.3C88.2964 277.56 88.3764 278.06 88.3964 278.5C89.0764 277.66 90.2164 276.94 91.5964 276.94C91.7164 276.94 91.7564 276.96 91.7564 277.08V279.2C91.7564 279.3 91.7164 279.34 91.5764 279.34C90.1564 279.3 88.9764 279.8 88.5164 280.4V286.84C88.5164 286.96 88.4564 287 88.3364 287H86.2564C86.1164 287 86.0764 286.94 86.0764 286.84V279.94C86.0764 279.08 86.0564 277.92 85.9764 277.26C85.9764 277.16 85.9964 277.14 86.0964 277.14ZM100.085 284.94V286.72C100.085 286.82 100.065 286.86 99.9848 286.88C99.3448 287.14 98.5448 287.2 97.7648 287.2C94.5248 287.2 92.6048 284.98 92.6048 282.1C92.6048 279.14 94.8048 276.94 98.1048 276.94C99.1048 276.94 99.6448 277.04 99.9848 277.16C100.065 277.2 100.085 277.26 100.085 277.38L100.065 279.16C100.065 279.3 99.9848 279.3 99.9048 279.28C99.4848 279.12 98.9648 279.02 98.1848 279.02C96.3648 279.02 95.0848 280.1 95.0848 282.02C95.0848 284.2 96.6648 285.04 98.2048 285.04C98.9248 285.04 99.5448 284.98 99.9448 284.84C100.045 284.8 100.085 284.86 100.085 284.94ZM107.718 282.62H103.658C103.718 284.02 104.638 285.14 106.678 285.14C107.578 285.14 108.398 284.98 109.158 284.66C109.218 284.62 109.278 284.64 109.278 284.74V286.4C109.278 286.52 109.238 286.58 109.158 286.62C108.398 286.98 107.518 287.2 106.158 287.2C102.518 287.2 101.218 284.64 101.218 282.18C101.218 279.4 102.898 276.94 105.918 276.94C108.878 276.94 110.018 279.26 110.018 281.16C110.018 281.72 109.998 282.18 109.938 282.4C109.918 282.48 109.878 282.52 109.778 282.54C109.498 282.6 108.698 282.62 107.718 282.62ZM103.658 280.9H106.638C107.398 280.9 107.658 280.9 107.738 280.88C107.738 280.82 107.738 280.74 107.738 280.72C107.738 280.14 107.338 278.86 105.818 278.86C104.438 278.86 103.818 279.92 103.658 280.9ZM116.668 286.82V274.04C116.668 273.94 116.688 273.9 116.808 273.88C117.388 273.86 118.748 273.82 120.588 273.82C125.287 273.82 127.648 276.48 127.648 280.2C127.648 285.08 123.928 287.04 120.548 287.04C119.288 287.04 117.448 287.04 116.808 287C116.728 287 116.668 286.94 116.668 286.82ZM119.088 275.96V284.92C119.488 284.94 119.928 284.94 120.448 284.94C123.268 284.94 125.168 283.3 125.168 280.26C125.168 277.36 123.268 275.92 120.568 275.92C120.008 275.92 119.568 275.94 119.088 275.96ZM134.711 285.06V282.6C134.411 282.56 134.071 282.54 133.611 282.54C132.031 282.54 131.331 283.06 131.331 283.92C131.331 284.66 131.851 285.3 133.291 285.3C133.811 285.3 134.271 285.24 134.711 285.06ZM137.051 280.9V284.96C137.051 285.4 137.051 285.8 137.091 286.22C137.091 286.26 137.091 286.28 137.051 286.3C135.411 287 134.251 287.2 132.891 287.2C130.711 287.2 128.971 286.18 128.971 283.92C128.971 281.8 130.871 280.74 133.471 280.74C134.071 280.74 134.531 280.76 134.711 280.78V280.54C134.711 280.08 134.451 279.04 132.691 279.04C131.691 279.04 130.811 279.24 130.071 279.6C130.011 279.62 129.911 279.6 129.911 279.48V277.74C129.911 277.64 129.931 277.6 130.031 277.54C130.891 277.14 131.991 276.94 133.071 276.94C135.851 276.94 137.051 278.68 137.051 280.9ZM144.135 285.24V286.68C144.135 286.8 144.115 286.88 144.015 286.92C143.475 287.12 142.975 287.2 142.315 287.2C140.675 287.2 139.695 286.4 139.695 284.42V279.16H138.435C138.335 279.14 138.295 279.1 138.295 278.98V277.3C138.295 277.18 138.335 277.14 138.455 277.14H139.715C139.735 276.44 139.815 275.18 139.915 274.68C139.935 274.58 139.975 274.52 140.075 274.5L142.095 274.22C142.195 274.2 142.235 274.22 142.235 274.32C142.175 274.98 142.135 276.16 142.135 277.14H144.075C144.175 277.14 144.215 277.18 144.215 277.28V279.02C144.215 279.12 144.175 279.16 144.075 279.16H142.115V283.9C142.115 284.78 142.395 285.2 143.255 285.2C143.515 285.2 143.735 285.18 144.015 285.12C144.075 285.1 144.135 285.12 144.135 285.24ZM150.98 285.06V282.6C150.68 282.56 150.34 282.54 149.88 282.54C148.3 282.54 147.6 283.06 147.6 283.92C147.6 284.66 148.12 285.3 149.56 285.3C150.08 285.3 150.54 285.24 150.98 285.06ZM153.32 280.9V284.96C153.32 285.4 153.32 285.8 153.36 286.22C153.36 286.26 153.36 286.28 153.32 286.3C151.68 287 150.52 287.2 149.16 287.2C146.98 287.2 145.24 286.18 145.24 283.92C145.24 281.8 147.14 280.74 149.74 280.74C150.34 280.74 150.8 280.76 150.98 280.78V280.54C150.98 280.08 150.72 279.04 148.96 279.04C147.96 279.04 147.08 279.24 146.34 279.6C146.28 279.62 146.18 279.6 146.18 279.48V277.74C146.18 277.64 146.2 277.6 146.3 277.54C147.16 277.14 148.26 276.94 149.34 276.94C152.12 276.94 153.32 278.68 153.32 280.9ZM161.42 279.46C160.8 279.12 159.8 278.88 158.92 278.88C157.86 278.88 157.5 279.32 157.5 279.74C157.5 280.18 157.8 280.48 159.08 280.98C161.36 281.82 162.14 282.72 162.14 284.14C162.14 286.02 160.66 287.2 158.2 287.2C157.02 287.2 155.98 286.98 155.38 286.64C155.28 286.58 155.24 286.54 155.24 286.42V284.52C155.24 284.42 155.32 284.38 155.4 284.42C156.26 284.98 157.36 285.22 158.26 285.22C159.3 285.22 159.8 284.86 159.8 284.34C159.8 283.84 159.42 283.52 158.18 283.02C156 282.22 155.22 281.32 155.22 279.88C155.22 278.36 156.46 276.94 158.96 276.94C160.12 276.94 161 277.1 161.48 277.34C161.58 277.4 161.6 277.48 161.6 277.58V279.34C161.6 279.44 161.54 279.5 161.42 279.46ZM169.925 282.62H165.865C165.925 284.02 166.845 285.14 168.885 285.14C169.785 285.14 170.605 284.98 171.365 284.66C171.425 284.62 171.485 284.64 171.485 284.74V286.4C171.485 286.52 171.445 286.58 171.365 286.62C170.605 286.98 169.725 287.2 168.365 287.2C164.725 287.2 163.425 284.64 163.425 282.18C163.425 279.4 165.105 276.94 168.125 276.94C171.085 276.94 172.225 279.26 172.225 281.16C172.225 281.72 172.205 282.18 172.145 282.4C172.125 282.48 172.085 282.52 171.985 282.54C171.705 282.6 170.905 282.62 169.925 282.62ZM165.865 280.9H168.845C169.605 280.9 169.865 280.9 169.945 280.88C169.945 280.82 169.945 280.74 169.945 280.72C169.945 280.14 169.545 278.86 168.025 278.86C166.645 278.86 166.025 279.92 165.865 280.9ZM178.998 285.24V286.68C178.998 286.8 178.978 286.88 178.878 286.92C178.338 287.12 177.838 287.2 177.178 287.2C175.538 287.2 174.558 286.4 174.558 284.42V279.16H173.298C173.198 279.14 173.158 279.1 173.158 278.98V277.3C173.158 277.18 173.198 277.14 173.318 277.14H174.578C174.598 276.44 174.678 275.18 174.778 274.68C174.798 274.58 174.838 274.52 174.938 274.5L176.958 274.22C177.058 274.2 177.098 274.22 177.098 274.32C177.038 274.98 176.998 276.16 176.998 277.14H178.938C179.038 277.14 179.078 277.18 179.078 277.28V279.02C179.078 279.12 179.038 279.16 178.938 279.16H176.978V283.9C176.978 284.78 177.258 285.2 178.118 285.2C178.378 285.2 178.598 285.18 178.878 285.12C178.938 285.1 178.998 285.12 178.998 285.24Z" fill="#464646"/>
<path d="M416.9 281.7V286.84C416.9 286.96 416.86 287 416.74 287H414.62C414.52 287 414.48 286.94 414.48 286.84V274C414.48 273.9 414.52 273.86 414.64 273.86H422.36C422.48 273.86 422.52 273.9 422.54 274.02L422.74 275.88C422.76 276 422.7 276.04 422.58 276.04H416.9V279.54H422C422.1 279.54 422.16 279.56 422.16 279.68V281.56C422.16 281.66 422.1 281.7 422 281.7H416.9ZM424.26 286.82V277.28C424.26 277.18 424.32 277.14 424.42 277.14H426.54C426.66 277.14 426.7 277.16 426.7 277.28V286.84C426.7 286.96 426.66 287 426.52 287H424.46C424.32 287 424.26 286.94 424.26 286.82ZM425.48 275.8C424.66 275.8 424.12 275.24 424.12 274.42C424.12 273.6 424.7 273.04 425.5 273.04C426.36 273.04 426.86 273.62 426.86 274.42C426.86 275.24 426.32 275.8 425.48 275.8ZM435.101 282.62H431.041C431.101 284.02 432.021 285.14 434.061 285.14C434.961 285.14 435.781 284.98 436.541 284.66C436.601 284.62 436.661 284.64 436.661 284.74V286.4C436.661 286.52 436.621 286.58 436.541 286.62C435.781 286.98 434.901 287.2 433.541 287.2C429.901 287.2 428.601 284.64 428.601 282.18C428.601 279.4 430.281 276.94 433.301 276.94C436.261 276.94 437.401 279.26 437.401 281.16C437.401 281.72 437.381 282.18 437.321 282.4C437.301 282.48 437.261 282.52 437.161 282.54C436.881 282.6 436.081 282.62 435.101 282.62ZM431.041 280.9H434.021C434.781 280.9 435.041 280.9 435.121 280.88C435.121 280.82 435.121 280.74 435.121 280.72C435.121 280.14 434.721 278.86 433.201 278.86C431.821 278.86 431.201 279.92 431.041 280.9ZM439.201 284.62V272.92C439.201 272.82 439.261 272.76 439.381 272.76H441.441C441.561 272.76 441.621 272.82 441.621 272.92V284.4C441.621 285.02 441.841 285.22 442.321 285.22C442.481 285.22 442.521 285.22 442.701 285.2C442.761 285.18 442.781 285.22 442.781 285.32V286.82C442.781 286.96 442.761 286.98 442.661 287.04C442.441 287.14 442.081 287.2 441.521 287.2C440.241 287.2 439.201 286.72 439.201 284.62ZM448.994 287.2C446.094 287.2 443.874 285.52 443.874 282.16C443.874 279.26 446.034 276.94 449.554 276.94C449.834 276.94 450.074 276.96 450.414 277V272.9C450.414 272.8 450.454 272.76 450.534 272.76H452.714C452.814 272.76 452.814 272.8 452.814 272.88V284.96C452.814 285.36 452.854 285.88 452.894 286.24C452.894 286.34 452.874 286.38 452.774 286.42C451.474 286.98 450.194 287.2 448.994 287.2ZM450.414 284.96V279.1C450.154 279 449.834 278.96 449.474 278.96C447.694 278.96 446.354 280.1 446.354 282.04C446.354 284.22 447.654 285.12 449.254 285.12C449.654 285.12 450.054 285.08 450.414 284.96ZM459.734 282.92H455.014C454.914 282.92 454.874 282.88 454.874 282.78V280.96C454.874 280.88 454.914 280.84 455.014 280.84H459.714C459.794 280.84 459.834 280.84 459.834 280.96V282.8C459.834 282.9 459.794 282.92 459.734 282.92ZM462.037 272.76H464.137C464.277 272.76 464.317 272.78 464.317 272.92L464.337 277.22C464.877 277.04 465.497 276.94 466.157 276.94C469.037 276.94 470.877 278.98 470.877 281.66C470.877 285.36 467.997 287.2 465.037 287.2C463.997 287.2 462.997 287.06 462.037 286.76C461.957 286.74 461.897 286.64 461.897 286.58V272.9C461.897 272.8 461.957 272.76 462.037 272.76ZM468.417 281.9C468.417 280 467.317 279 465.737 279C465.037 279 464.657 279.1 464.337 279.22V285.06C464.617 285.14 464.917 285.16 465.257 285.16C466.897 285.16 468.417 284.12 468.417 281.9ZM477.953 285.06V282.6C477.653 282.56 477.313 282.54 476.853 282.54C475.273 282.54 474.573 283.06 474.573 283.92C474.573 284.66 475.093 285.3 476.533 285.3C477.053 285.3 477.513 285.24 477.953 285.06ZM480.293 280.9V284.96C480.293 285.4 480.293 285.8 480.333 286.22C480.333 286.26 480.333 286.28 480.293 286.3C478.653 287 477.493 287.2 476.133 287.2C473.953 287.2 472.213 286.18 472.213 283.92C472.213 281.8 474.113 280.74 476.713 280.74C477.313 280.74 477.773 280.76 477.953 280.78V280.54C477.953 280.08 477.693 279.04 475.933 279.04C474.933 279.04 474.053 279.24 473.313 279.6C473.253 279.62 473.153 279.6 473.153 279.48V277.74C473.153 277.64 473.173 277.6 473.273 277.54C474.133 277.14 475.233 276.94 476.313 276.94C479.093 276.94 480.293 278.68 480.293 280.9ZM488.393 279.46C487.773 279.12 486.773 278.88 485.893 278.88C484.833 278.88 484.473 279.32 484.473 279.74C484.473 280.18 484.773 280.48 486.053 280.98C488.333 281.82 489.113 282.72 489.113 284.14C489.113 286.02 487.633 287.2 485.173 287.2C483.993 287.2 482.953 286.98 482.353 286.64C482.253 286.58 482.213 286.54 482.213 286.42V284.52C482.213 284.42 482.293 284.38 482.373 284.42C483.233 284.98 484.333 285.22 485.233 285.22C486.273 285.22 486.773 284.86 486.773 284.34C486.773 283.84 486.393 283.52 485.153 283.02C482.973 282.22 482.193 281.32 482.193 279.88C482.193 278.36 483.433 276.94 485.933 276.94C487.093 276.94 487.973 277.1 488.453 277.34C488.553 277.4 488.573 277.48 488.573 277.58V279.34C488.573 279.44 488.513 279.5 488.393 279.46ZM496.898 282.62H492.838C492.898 284.02 493.818 285.14 495.858 285.14C496.758 285.14 497.578 284.98 498.338 284.66C498.398 284.62 498.458 284.64 498.458 284.74V286.4C498.458 286.52 498.418 286.58 498.338 286.62C497.578 286.98 496.698 287.2 495.338 287.2C491.698 287.2 490.398 284.64 490.398 282.18C490.398 279.4 492.078 276.94 495.098 276.94C498.058 276.94 499.198 279.26 499.198 281.16C499.198 281.72 499.178 282.18 499.118 282.4C499.098 282.48 499.058 282.52 498.958 282.54C498.678 282.6 497.878 282.62 496.898 282.62ZM492.838 280.9H495.818C496.578 280.9 496.838 280.9 496.918 280.88C496.918 280.82 496.918 280.74 496.918 280.72C496.918 280.14 496.518 278.86 494.998 278.86C493.618 278.86 492.998 279.92 492.838 280.9ZM505.694 287.2C502.794 287.2 500.574 285.52 500.574 282.16C500.574 279.26 502.734 276.94 506.254 276.94C506.534 276.94 506.774 276.96 507.114 277V272.9C507.114 272.8 507.154 272.76 507.234 272.76H509.414C509.514 272.76 509.514 272.8 509.514 272.88V284.96C509.514 285.36 509.554 285.88 509.594 286.24C509.594 286.34 509.574 286.38 509.474 286.42C508.174 286.98 506.894 287.2 505.694 287.2ZM507.114 284.96V279.1C506.854 279 506.534 278.96 506.174 278.96C504.394 278.96 503.054 280.1 503.054 282.04C503.054 284.22 504.354 285.12 505.954 285.12C506.354 285.12 506.754 285.08 507.114 284.96ZM519.723 287.2C518.263 287.2 517.043 286.92 516.223 286.48C516.123 286.42 516.083 286.34 516.083 286.18V284.1C516.083 284.02 516.163 283.98 516.243 284.02C517.323 284.72 518.643 285.06 519.803 285.06C521.443 285.06 522.143 284.42 522.143 283.56C522.143 282.82 521.663 282.26 520.143 281.62L519.183 281.22C516.723 280.18 516.083 278.94 516.083 277.44C516.083 275.3 517.703 273.66 520.723 273.66C521.983 273.66 523.123 273.84 523.783 274.18C523.883 274.24 523.903 274.3 523.903 274.44V276.38C523.903 276.46 523.843 276.54 523.723 276.46C522.963 276.02 521.863 275.8 520.703 275.8C518.983 275.8 518.443 276.52 518.443 277.22C518.443 277.94 518.903 278.44 520.483 279.1L521.243 279.42C523.843 280.5 524.583 281.76 524.583 283.34C524.583 285.68 522.743 287.2 519.723 287.2ZM531.205 285.24V286.68C531.205 286.8 531.185 286.88 531.085 286.92C530.545 287.12 530.045 287.2 529.385 287.2C527.745 287.2 526.765 286.4 526.765 284.42V279.16H525.505C525.405 279.14 525.365 279.1 525.365 278.98V277.3C525.365 277.18 525.405 277.14 525.525 277.14H526.785C526.805 276.44 526.885 275.18 526.985 274.68C527.005 274.58 527.045 274.52 527.145 274.5L529.165 274.22C529.265 274.2 529.305 274.22 529.305 274.32C529.245 274.98 529.205 276.16 529.205 277.14H531.145C531.245 277.14 531.285 277.18 531.285 277.28V279.02C531.285 279.12 531.245 279.16 531.145 279.16H529.185V283.9C529.185 284.78 529.465 285.2 530.325 285.2C530.585 285.2 530.805 285.18 531.085 285.12C531.145 285.1 531.205 285.12 531.205 285.24ZM532.971 286.82V277.28C532.971 277.18 533.031 277.14 533.131 277.14H535.251C535.371 277.14 535.411 277.16 535.411 277.28V286.84C535.411 286.96 535.371 287 535.231 287H533.171C533.031 287 532.971 286.94 532.971 286.82ZM534.191 275.8C533.371 275.8 532.831 275.24 532.831 274.42C532.831 273.6 533.411 273.04 534.211 273.04C535.071 273.04 535.571 273.62 535.571 274.42C535.571 275.24 535.031 275.8 534.191 275.8ZM542.787 285.24V286.68C542.787 286.8 542.767 286.88 542.667 286.92C542.127 287.12 541.627 287.2 540.967 287.2C539.327 287.2 538.347 286.4 538.347 284.42V279.16H537.087C536.987 279.14 536.947 279.1 536.947 278.98V277.3C536.947 277.18 536.987 277.14 537.107 277.14H538.367C538.387 276.44 538.467 275.18 538.567 274.68C538.587 274.58 538.627 274.52 538.727 274.5L540.747 274.22C540.847 274.2 540.887 274.22 540.887 274.32C540.827 274.98 540.787 276.16 540.787 277.14H542.727C542.827 277.14 542.867 277.18 542.867 277.28V279.02C542.867 279.12 542.827 279.16 542.727 279.16H540.767V283.9C540.767 284.78 541.047 285.2 541.907 285.2C542.167 285.2 542.387 285.18 542.667 285.12C542.727 285.1 542.787 285.12 542.787 285.24ZM551.296 284.94V286.72C551.296 286.82 551.276 286.86 551.196 286.88C550.556 287.14 549.756 287.2 548.976 287.2C545.736 287.2 543.816 284.98 543.816 282.1C543.816 279.14 546.016 276.94 549.316 276.94C550.316 276.94 550.856 277.04 551.196 277.16C551.276 277.2 551.296 277.26 551.296 277.38L551.276 279.16C551.276 279.3 551.196 279.3 551.116 279.28C550.696 279.12 550.176 279.02 549.396 279.02C547.576 279.02 546.296 280.1 546.296 282.02C546.296 284.2 547.876 285.04 549.416 285.04C550.136 285.04 550.756 284.98 551.156 284.84C551.256 284.8 551.296 284.86 551.296 284.94ZM555.567 279.74V286.86C555.567 286.96 555.547 287 555.427 287H553.307C553.187 287 553.147 286.94 553.147 286.84V272.9C553.147 272.82 553.187 272.76 553.307 272.76H555.427C555.547 272.76 555.567 272.8 555.567 272.9V277.86C556.327 277.3 557.167 276.94 558.307 276.94C559.827 276.94 561.647 277.7 561.647 280.9V286.82C561.647 286.96 561.587 287 561.487 287H559.407C559.287 287 559.227 286.94 559.227 286.82V281.14C559.227 279.8 558.647 279.04 557.487 279.04C556.747 279.04 556.087 279.28 555.567 279.74ZM564.182 286.82V277.28C564.182 277.18 564.242 277.14 564.342 277.14H566.462C566.582 277.14 566.622 277.16 566.622 277.28V286.84C566.622 286.96 566.582 287 566.442 287H564.382C564.242 287 564.182 286.94 564.182 286.82ZM565.402 275.8C564.582 275.8 564.042 275.24 564.042 274.42C564.042 273.6 564.622 273.04 565.422 273.04C566.282 273.04 566.782 273.62 566.782 274.42C566.782 275.24 566.242 275.8 565.402 275.8ZM569.084 286.84V279.44C569.084 278.76 569.044 277.68 569.004 277.28C569.004 277.18 569.024 277.14 569.144 277.14H570.964C571.104 277.14 571.164 277.18 571.204 277.28C571.264 277.46 571.304 277.72 571.344 278.04C572.204 277.32 573.164 276.94 574.244 276.94C575.744 276.94 577.584 277.7 577.584 280.9V286.82C577.584 286.96 577.524 287 577.424 287H575.344C575.224 287 575.164 286.94 575.164 286.82V281.12C575.164 279.8 574.604 279.04 573.444 279.04C572.644 279.04 571.984 279.34 571.504 279.86V286.84C571.504 286.94 571.444 287 571.344 287H569.244C569.124 287 569.084 286.94 569.084 286.84ZM584.328 286.94L582.148 286.84C581.568 287.24 581.188 287.88 581.188 288.18C581.188 288.88 582.148 289.66 583.808 289.66C585.708 289.66 586.548 288.88 586.548 288.12C586.548 287.24 585.548 287 584.328 286.94ZM583.368 278.68C582.368 278.68 581.748 279.3 581.748 280.32C581.748 281.24 582.308 281.92 583.368 281.92C584.368 281.92 584.968 281.34 584.968 280.36C584.968 279.42 584.488 278.68 583.368 278.68ZM582.808 284.82L584.848 284.9C587.588 285.04 588.768 286.12 588.768 287.76C588.768 289.8 586.768 291.44 583.648 291.44C580.428 291.44 578.968 289.82 578.968 288.36C578.968 287.72 579.508 286.9 580.828 285.76C580.528 285.32 580.388 284.8 580.408 284.26C580.408 283.8 580.528 283.36 580.768 282.96C579.948 282.44 579.388 281.58 579.388 280.36C579.388 278.44 580.848 276.94 583.368 276.94C584.068 276.94 584.708 277 585.128 277.08C585.308 277.12 585.468 277.14 585.588 277.14H588.368C588.468 277.14 588.488 277.18 588.488 277.26V278.9C588.488 278.98 588.468 279.02 588.368 279.02C587.988 279.02 587.268 278.98 586.828 278.92C587.048 279.24 587.268 279.72 587.268 280.44C587.268 282.58 585.568 283.66 583.408 283.66C583.148 283.66 582.868 283.64 582.608 283.6C582.548 283.8 582.508 284 582.548 284.2C582.568 284.42 582.648 284.62 582.808 284.82Z" fill="#464646"/>
<path d="M792.72 274.02V281.9C792.72 283.8 793.64 285.06 795.56 285.06C797.14 285.06 798.32 284.3 798.32 281.86V274.04C798.32 273.92 798.36 273.86 798.48 273.86H800.58C800.7 273.86 800.74 273.92 800.74 274.02V281.98C800.74 285.72 798.44 287.2 795.48 287.2C792.32 287.2 790.3 285.52 790.3 282.08V274.04C790.3 273.92 790.32 273.86 790.46 273.86H792.56C792.68 273.86 792.72 273.9 792.72 274.02ZM807.133 276.94C810.433 276.94 812.073 279.18 812.073 281.74C812.073 285.4 809.113 287.2 806.093 287.2C805.873 287.2 805.673 287.18 805.493 287.16V290.76C805.493 290.84 805.473 290.9 805.353 290.92C804.653 291 803.313 291.12 803.213 291.12C803.093 291.12 803.073 291.1 803.073 291V279.02C803.073 278.78 803.053 278.12 803.013 277.84C803.013 277.82 803.013 277.76 803.093 277.74C803.993 277.44 805.393 276.94 807.133 276.94ZM806.913 279C806.373 279 805.933 279.06 805.493 279.2V285.1C805.713 285.16 806.033 285.16 806.293 285.16C807.853 285.16 809.593 284.24 809.593 281.9C809.593 280.08 808.613 279 806.913 279ZM818.588 287.2C815.688 287.2 813.468 285.52 813.468 282.16C813.468 279.26 815.628 276.94 819.148 276.94C819.428 276.94 819.668 276.96 820.008 277V272.9C820.008 272.8 820.048 272.76 820.128 272.76H822.308C822.408 272.76 822.408 272.8 822.408 272.88V284.96C822.408 285.36 822.448 285.88 822.488 286.24C822.488 286.34 822.468 286.38 822.368 286.42C821.068 286.98 819.788 287.2 818.588 287.2ZM820.008 284.96V279.1C819.748 279 819.428 278.96 819.068 278.96C817.288 278.96 815.948 280.1 815.948 282.04C815.948 284.22 817.248 285.12 818.848 285.12C819.248 285.12 819.648 285.08 820.008 284.96ZM830.086 285.06V282.6C829.786 282.56 829.446 282.54 828.986 282.54C827.406 282.54 826.706 283.06 826.706 283.92C826.706 284.66 827.226 285.3 828.666 285.3C829.186 285.3 829.646 285.24 830.086 285.06ZM832.426 280.9V284.96C832.426 285.4 832.426 285.8 832.466 286.22C832.466 286.26 832.466 286.28 832.426 286.3C830.786 287 829.626 287.2 828.266 287.2C826.086 287.2 824.346 286.18 824.346 283.92C824.346 281.8 826.246 280.74 828.846 280.74C829.446 280.74 829.906 280.76 830.086 280.78V280.54C830.086 280.08 829.826 279.04 828.066 279.04C827.066 279.04 826.186 279.24 825.446 279.6C825.386 279.62 825.286 279.6 825.286 279.48V277.74C825.286 277.64 825.306 277.6 825.406 277.54C826.266 277.14 827.366 276.94 828.446 276.94C831.226 276.94 832.426 278.68 832.426 280.9ZM839.51 285.24V286.68C839.51 286.8 839.49 286.88 839.39 286.92C838.85 287.12 838.35 287.2 837.69 287.2C836.05 287.2 835.07 286.4 835.07 284.42V279.16H833.81C833.71 279.14 833.67 279.1 833.67 278.98V277.3C833.67 277.18 833.71 277.14 833.83 277.14H835.09C835.11 276.44 835.19 275.18 835.29 274.68C835.31 274.58 835.35 274.52 835.45 274.5L837.47 274.22C837.57 274.2 837.61 274.22 837.61 274.32C837.55 274.98 837.51 276.16 837.51 277.14H839.45C839.55 277.14 839.59 277.18 839.59 277.28V279.02C839.59 279.12 839.55 279.16 839.45 279.16H837.49V283.9C837.49 284.78 837.77 285.2 838.63 285.2C838.89 285.2 839.11 285.18 839.39 285.12C839.45 285.1 839.51 285.12 839.51 285.24ZM847.038 282.62H842.978C843.038 284.02 843.958 285.14 845.998 285.14C846.898 285.14 847.718 284.98 848.478 284.66C848.538 284.62 848.598 284.64 848.598 284.74V286.4C848.598 286.52 848.558 286.58 848.478 286.62C847.718 286.98 846.838 287.2 845.478 287.2C841.838 287.2 840.538 284.64 840.538 282.18C840.538 279.4 842.218 276.94 845.238 276.94C848.198 276.94 849.338 279.26 849.338 281.16C849.338 281.72 849.318 282.18 849.258 282.4C849.238 282.48 849.198 282.52 849.098 282.54C848.818 282.6 848.018 282.62 847.038 282.62ZM842.978 280.9H845.958C846.718 280.9 846.978 280.9 847.058 280.88C847.058 280.82 847.058 280.74 847.058 280.72C847.058 280.14 846.658 278.86 845.138 278.86C843.758 278.86 843.138 279.92 842.978 280.9ZM855.834 287.2C852.934 287.2 850.714 285.52 850.714 282.16C850.714 279.26 852.874 276.94 856.394 276.94C856.674 276.94 856.914 276.96 857.254 277V272.9C857.254 272.8 857.294 272.76 857.374 272.76H859.554C859.654 272.76 859.654 272.8 859.654 272.88V284.96C859.654 285.36 859.694 285.88 859.734 286.24C859.734 286.34 859.714 286.38 859.614 286.42C858.314 286.98 857.034 287.2 855.834 287.2ZM857.254 284.96V279.1C856.994 279 856.674 278.96 856.314 278.96C854.534 278.96 853.194 280.1 853.194 282.04C853.194 284.22 854.494 285.12 856.094 285.12C856.494 285.12 856.894 285.08 857.254 284.96ZM866.984 286.82V274.04C866.984 273.94 867.004 273.9 867.124 273.88C867.704 273.86 869.064 273.82 870.904 273.82C875.604 273.82 877.964 276.48 877.964 280.2C877.964 285.08 874.244 287.04 870.864 287.04C869.604 287.04 867.764 287.04 867.124 287C867.044 287 866.984 286.94 866.984 286.82ZM869.404 275.96V284.92C869.804 284.94 870.244 284.94 870.764 284.94C873.584 284.94 875.484 283.3 875.484 280.26C875.484 277.36 873.584 275.92 870.884 275.92C870.324 275.92 869.884 275.94 869.404 275.96ZM885.027 285.06V282.6C884.727 282.56 884.387 282.54 883.927 282.54C882.347 282.54 881.647 283.06 881.647 283.92C881.647 284.66 882.167 285.3 883.607 285.3C884.127 285.3 884.587 285.24 885.027 285.06ZM887.367 280.9V284.96C887.367 285.4 887.367 285.8 887.407 286.22C887.407 286.26 887.407 286.28 887.367 286.3C885.727 287 884.567 287.2 883.207 287.2C881.027 287.2 879.287 286.18 879.287 283.92C879.287 281.8 881.187 280.74 883.787 280.74C884.387 280.74 884.847 280.76 885.027 280.78V280.54C885.027 280.08 884.767 279.04 883.007 279.04C882.007 279.04 881.127 279.24 880.387 279.6C880.327 279.62 880.227 279.6 880.227 279.48V277.74C880.227 277.64 880.247 277.6 880.347 277.54C881.207 277.14 882.307 276.94 883.387 276.94C886.167 276.94 887.367 278.68 887.367 280.9ZM894.451 285.24V286.68C894.451 286.8 894.431 286.88 894.331 286.92C893.791 287.12 893.291 287.2 892.631 287.2C890.991 287.2 890.011 286.4 890.011 284.42V279.16H888.751C888.651 279.14 888.611 279.1 888.611 278.98V277.3C888.611 277.18 888.651 277.14 888.771 277.14H890.031C890.051 276.44 890.131 275.18 890.231 274.68C890.251 274.58 890.291 274.52 890.391 274.5L892.411 274.22C892.511 274.2 892.551 274.22 892.551 274.32C892.491 274.98 892.451 276.16 892.451 277.14H894.391C894.491 277.14 894.531 277.18 894.531 277.28V279.02C894.531 279.12 894.491 279.16 894.391 279.16H892.431V283.9C892.431 284.78 892.711 285.2 893.571 285.2C893.831 285.2 894.051 285.18 894.331 285.12C894.391 285.1 894.451 285.12 894.451 285.24ZM901.297 285.06V282.6C900.997 282.56 900.657 282.54 900.197 282.54C898.617 282.54 897.917 283.06 897.917 283.92C897.917 284.66 898.437 285.3 899.877 285.3C900.397 285.3 900.857 285.24 901.297 285.06ZM903.637 280.9V284.96C903.637 285.4 903.637 285.8 903.677 286.22C903.677 286.26 903.677 286.28 903.637 286.3C901.997 287 900.837 287.2 899.477 287.2C897.297 287.2 895.557 286.18 895.557 283.92C895.557 281.8 897.457 280.74 900.057 280.74C900.657 280.74 901.117 280.76 901.297 280.78V280.54C901.297 280.08 901.037 279.04 899.277 279.04C898.277 279.04 897.397 279.24 896.657 279.6C896.597 279.62 896.497 279.6 896.497 279.48V277.74C896.497 277.64 896.517 277.6 896.617 277.54C897.477 277.14 898.577 276.94 899.657 276.94C902.437 276.94 903.637 278.68 903.637 280.9ZM911.737 279.46C911.117 279.12 910.117 278.88 909.237 278.88C908.177 278.88 907.817 279.32 907.817 279.74C907.817 280.18 908.117 280.48 909.397 280.98C911.677 281.82 912.457 282.72 912.457 284.14C912.457 286.02 910.977 287.2 908.517 287.2C907.337 287.2 906.297 286.98 905.697 286.64C905.597 286.58 905.557 286.54 905.557 286.42V284.52C905.557 284.42 905.637 284.38 905.717 284.42C906.577 284.98 907.677 285.22 908.577 285.22C909.617 285.22 910.117 284.86 910.117 284.34C910.117 283.84 909.737 283.52 908.497 283.02C906.317 282.22 905.537 281.32 905.537 279.88C905.537 278.36 906.777 276.94 909.277 276.94C910.437 276.94 911.317 277.1 911.797 277.34C911.897 277.4 911.917 277.48 911.917 277.58V279.34C911.917 279.44 911.857 279.5 911.737 279.46ZM920.242 282.62H916.182C916.242 284.02 917.162 285.14 919.202 285.14C920.102 285.14 920.922 284.98 921.682 284.66C921.742 284.62 921.802 284.64 921.802 284.74V286.4C921.802 286.52 921.762 286.58 921.682 286.62C920.922 286.98 920.042 287.2 918.682 287.2C915.042 287.2 913.742 284.64 913.742 282.18C913.742 279.4 915.422 276.94 918.442 276.94C921.402 276.94 922.542 279.26 922.542 281.16C922.542 281.72 922.522 282.18 922.462 282.4C922.442 282.48 922.402 282.52 922.302 282.54C922.022 282.6 921.222 282.62 920.242 282.62ZM916.182 280.9H919.162C919.922 280.9 920.182 280.9 920.262 280.88C920.262 280.82 920.262 280.74 920.262 280.72C920.262 280.14 919.862 278.86 918.342 278.86C916.962 278.86 916.342 279.92 916.182 280.9ZM929.315 285.24V286.68C929.315 286.8 929.295 286.88 929.195 286.92C928.655 287.12 928.155 287.2 927.495 287.2C925.855 287.2 924.875 286.4 924.875 284.42V279.16H923.615C923.515 279.14 923.475 279.1 923.475 278.98V277.3C923.475 277.18 923.515 277.14 923.635 277.14H924.895C924.915 276.44 924.995 275.18 925.095 274.68C925.115 274.58 925.155 274.52 925.255 274.5L927.275 274.22C927.375 274.2 927.415 274.22 927.415 274.32C927.355 274.98 927.315 276.16 927.315 277.14H929.255C929.355 277.14 929.395 277.18 929.395 277.28V279.02C929.395 279.12 929.355 279.16 929.255 279.16H927.295V283.9C927.295 284.78 927.575 285.2 928.435 285.2C928.695 285.2 928.915 285.18 929.195 285.12C929.255 285.1 929.315 285.12 929.315 285.24Z" fill="#464646"/>
<path d="M375.776 146.5L367.776 151V142L375.776 146.5Z" fill="#FF0000"/>
<path d="M375.776 146.5L367.776 151V142L375.776 146.5Z" fill="#FF0000"/>
<path d="M375.776 146.5L367.776 151V142L375.776 146.5Z" fill="#FF0000"/>
<path d="M375.776 146.5L367.776 151V142L375.776 146.5Z" fill="#FF0000"/>
<path d="M367.776 146.5H228.499" stroke="#B1B8C9" stroke-dasharray="2 2"/>
<path d="M375.776 146.5L367.776 151V142L375.776 146.5Z" fill="#FF0000"/>
<path d="M375.776 146.5L367.776 151V142L375.776 146.5Z" fill="#FF0000"/>
<path d="M375.776 146.5L367.776 151V142L375.776 146.5Z" fill="#FF0000"/>
<path d="M375.776 146.5L367.776 151V142L375.776 146.5Z" fill="#FF0000"/>
<path d="M367.776 146.5H228.499" stroke="#B1B8C9" stroke-dasharray="2 2"/>
<path d="M742.776 146.5L734.776 151V142L742.776 146.5Z" fill="#FF0000"/>
<path d="M742.776 146.5L734.776 151V142L742.776 146.5Z" fill="#FF0000"/>
<path d="M742.776 146.5L734.776 151V142L742.776 146.5Z" fill="#FF0000"/>
<path d="M742.776 146.5L734.776 151V142L742.776 146.5Z" fill="#FF0000"/>
<path d="M734.776 146.5H595.499" stroke="#B1B8C9" stroke-dasharray="2 2"/>
<g filter="url(#filter0_d_96_2)">
<path d="M91 46C91 34.402 81.598 25 70 25C58.402 25 49 34.402 49 46C49 57.598 58.402 67 70 67C81.598 67 91 57.598 91 46Z" fill="white"/>
<path d="M90 46C90 34.9543 81.0457 26 70 26C58.9543 26 50 34.9543 50 46C50 57.0457 58.9543 66 70 66C81.0457 66 90 57.0457 90 46Z" stroke="#464646" stroke-width="2"/>
</g>
<path d="M70 64C79.9411 64 88 55.9411 88 46C88 36.0589 79.9411 28 70 28C60.0589 28 52 36.0589 52 46C52 55.9411 60.0589 64 70 64Z" fill="#FA0F00"/>
<path d="M64.2004 47.6741L64.0504 48.6041C64.0404 48.6741 64.0204 48.6841 63.9604 48.6841H59.9804C59.9104 48.6841 59.8904 48.6541 59.8904 48.6041V42.1941C59.8904 42.1441 59.9104 42.1141 59.9704 42.1141H63.8304C63.8904 42.1141 63.9104 42.1241 63.9204 42.1841L64.0304 43.1141C64.0404 43.1641 64.0204 43.2041 63.9604 43.2041H61.1004V44.7941H63.7004C63.7504 44.7941 63.7704 44.8041 63.7704 44.8641V45.8141C63.7704 45.8641 63.7404 45.8741 63.7004 45.8741H61.1004V47.5941H64.1304C64.1904 47.5941 64.2104 47.6241 64.2004 47.6741ZM69.6931 47.5841V48.4741C69.6931 48.5341 69.6731 48.5841 69.6231 48.6041C69.2931 48.7241 68.8031 48.7841 68.2431 48.7841C66.3931 48.7841 64.8131 47.6941 64.8131 45.4141C64.8131 43.4041 66.2131 42.0141 68.3931 42.0141C69.0431 42.0141 69.4431 42.0741 69.6931 42.1841C69.7331 42.2041 69.7531 42.2341 69.7531 42.2941V43.2441C69.7531 43.3241 69.7131 43.3241 69.6731 43.3041C69.3531 43.1541 68.8931 43.0841 68.3731 43.0841C66.9631 43.0841 66.0631 43.9841 66.0631 45.3841C66.0631 47.1141 67.3431 47.7041 68.3931 47.7041C68.8831 47.7041 69.2531 47.6641 69.6231 47.5341C69.6631 47.5141 69.6931 47.5241 69.6931 47.5841ZM71.9695 42.1941V48.5941C71.9695 48.6641 71.9495 48.6841 71.8895 48.6841H70.8395C70.7795 48.6841 70.7595 48.6541 70.7595 48.5941V42.1941C70.7595 42.1241 70.7895 42.1141 70.8395 42.1141H71.8895C71.9495 42.1141 71.9695 42.1341 71.9695 42.1941ZM73.4548 48.5941V42.2041C73.4548 42.1541 73.4648 42.1341 73.5248 42.1241C73.8148 42.1141 74.4948 42.0941 75.4148 42.0941C77.7648 42.0941 78.9448 43.4241 78.9448 45.2841C78.9448 47.7241 77.0848 48.7041 75.3948 48.7041C74.7648 48.7041 73.8448 48.7041 73.5248 48.6841C73.4848 48.6841 73.4548 48.6541 73.4548 48.5941ZM74.6648 43.1641V47.6441C74.8648 47.6541 75.0848 47.6541 75.3448 47.6541C76.7548 47.6541 77.7048 46.8341 77.7048 45.3141C77.7048 43.8641 76.7548 43.1441 75.4048 43.1441C75.1248 43.1441 74.9048 43.1541 74.6648 43.1641Z" fill="white"/>
<g filter="url(#filter1_d_96_2)">
<path d="M134 46C134 34.402 124.598 25 113 25C101.402 25 92 34.402 92 46C92 57.598 101.402 67 113 67C124.598 67 134 57.598 134 46Z" fill="white"/>
<path d="M133 46C133 34.9543 124.046 26 113 26C101.954 26 93 34.9543 93 46C93 57.0457 101.954 66 113 66C124.046 66 133 57.0457 133 46Z" stroke="#464646" stroke-width="2" stroke-dasharray="10 3"/>
</g>
<path d="M113 28C116.56 28 120.04 29.0557 123 31.0335C125.96 33.0114 128.267 35.8226 129.63 39.1117C130.992 42.4008 131.349 46.02 130.654 49.5116C129.96 53.0033 128.245 56.2106 125.728 58.7279C123.211 61.2453 120.003 62.9596 116.512 63.6541C113.02 64.3487 109.401 63.9922 106.112 62.6298C102.823 61.2675 100.011 58.9603 98.0335 56.0003C96.0557 53.0402 95 49.5601 95 46C95 41.2261 96.8964 36.6477 100.272 33.2721C103.648 29.8964 108.226 28 113 28Z" fill="#007CDA"/>
<path d="M103.34 47.6741L103.19 48.6041C103.18 48.6741 103.16 48.6841 103.1 48.6841H99.12C99.05 48.6841 99.03 48.6541 99.03 48.6041V42.1941C99.03 42.1441 99.05 42.1141 99.11 42.1141H102.97C103.03 42.1141 103.05 42.1241 103.06 42.1841L103.17 43.1141C103.18 43.1641 103.16 43.2041 103.1 43.2041H100.24V44.7941H102.84C102.89 44.7941 102.91 44.8041 102.91 44.8641V45.8141C102.91 45.8641 102.88 45.8741 102.84 45.8741H100.24V47.5941H103.27C103.33 47.5941 103.35 47.6241 103.34 47.6741ZM104.603 42.1741C104.613 42.1141 104.633 42.1141 104.683 42.1141H106.283C106.343 42.1141 106.363 42.1341 106.383 42.1841C106.683 43.1941 107.553 46.1641 107.753 47.0941H107.763C107.973 46.2441 108.963 43.2141 109.273 42.1841C109.293 42.1441 109.303 42.1141 109.363 42.1141H110.923C110.973 42.1141 110.993 42.1241 111.003 42.1741L111.273 48.6041C111.283 48.6641 111.253 48.6841 111.203 48.6841H110.093C110.043 48.6841 110.013 48.6741 110.013 48.6141C109.963 46.4841 109.943 43.6041 109.953 42.9741H109.943C109.713 43.9341 108.683 47.2741 108.283 48.6041C108.273 48.6741 108.233 48.6841 108.193 48.6841H107.193C107.123 48.6841 107.103 48.6741 107.093 48.6141C106.663 47.0941 105.863 44.1841 105.583 42.9641H105.563C105.553 43.9741 105.473 46.5141 105.373 48.6141C105.373 48.6741 105.353 48.6841 105.293 48.6841H104.293C104.233 48.6841 104.213 48.6741 104.223 48.6041L104.603 42.1741ZM115.975 46.9541H113.585L113.035 48.6041C113.015 48.6641 112.985 48.6841 112.925 48.6841H111.925C111.865 48.6841 111.845 48.6541 111.855 48.5841L113.915 42.7241C113.955 42.6241 113.985 42.5241 114.005 42.1841C114.005 42.1441 114.025 42.1141 114.065 42.1141H115.455C115.505 42.1141 115.515 42.1241 115.525 42.1741L117.835 48.5941C117.845 48.6541 117.835 48.6841 117.775 48.6841H116.655C116.605 48.6841 116.575 48.6641 116.555 48.6241L115.975 46.9541ZM113.905 45.8641H115.655C115.445 45.2041 114.975 43.8141 114.775 43.1141H114.765C114.605 43.7841 114.205 44.9541 113.905 45.8641ZM119.83 42.1941V48.5941C119.83 48.6641 119.81 48.6841 119.75 48.6841H118.7C118.64 48.6841 118.62 48.6541 118.62 48.5941V42.1941C118.62 42.1241 118.65 42.1141 118.7 42.1141H119.75C119.81 42.1141 119.83 42.1341 119.83 42.1941ZM125.275 48.6841H121.415C121.335 48.6841 121.315 48.6541 121.315 48.5841V42.2041C121.315 42.1541 121.335 42.1141 121.395 42.1141H122.465C122.505 42.1141 122.525 42.1441 122.525 42.1841V47.5941H125.465C125.525 47.5941 125.545 47.6241 125.535 47.6641L125.365 48.6041C125.355 48.6741 125.325 48.6841 125.275 48.6841Z" fill="white"/>
<g filter="url(#filter2_d_96_2)">
<path d="M870 46C870 34.402 860.598 25 849 25C837.402 25 828 34.402 828 46C828 57.598 837.402 67 849 67C860.598 67 870 57.598 870 46Z" fill="white"/>
<path d="M869 46C869 34.9543 860.046 26 849 26C837.954 26 829 34.9543 829 46C829 57.0457 837.954 66 849 66C860.046 66 869 57.0457 869 46Z" stroke="#464646" stroke-width="2" stroke-dasharray="10 3"/>
</g>
<path d="M849 28C852.56 28 856.04 29.0557 859 31.0335C861.96 33.0114 864.267 35.8226 865.63 39.1117C866.992 42.4008 867.349 46.02 866.654 49.5116C865.96 53.0033 864.245 56.2106 861.728 58.7279C859.211 61.2453 856.003 62.9596 852.512 63.6541C849.02 64.3487 845.401 63.9922 842.112 62.6298C838.823 61.2675 836.011 58.9603 834.034 56.0003C832.056 53.0402 831 49.5601 831 46C831 41.2261 832.896 36.6477 836.272 33.2721C839.648 29.8964 844.226 28 849 28Z" fill="#007CDA"/>
<path d="M839.34 47.6741L839.19 48.6041C839.18 48.6741 839.16 48.6841 839.1 48.6841H835.12C835.05 48.6841 835.03 48.6541 835.03 48.6041V42.1941C835.03 42.1441 835.05 42.1141 835.11 42.1141H838.97C839.03 42.1141 839.05 42.1241 839.06 42.1841L839.17 43.1141C839.18 43.1641 839.16 43.2041 839.1 43.2041H836.24V44.7941H838.84C838.89 44.7941 838.91 44.8041 838.91 44.8641V45.8141C838.91 45.8641 838.88 45.8741 838.84 45.8741H836.24V47.5941H839.27C839.33 47.5941 839.35 47.6241 839.34 47.6741ZM840.603 42.1741C840.613 42.1141 840.633 42.1141 840.683 42.1141H842.283C842.343 42.1141 842.363 42.1341 842.383 42.1841C842.683 43.1941 843.553 46.1641 843.753 47.0941H843.763C843.973 46.2441 844.963 43.2141 845.273 42.1841C845.293 42.1441 845.303 42.1141 845.363 42.1141H846.923C846.973 42.1141 846.993 42.1241 847.003 42.1741L847.273 48.6041C847.283 48.6641 847.253 48.6841 847.203 48.6841H846.093C846.043 48.6841 846.013 48.6741 846.013 48.6141C845.963 46.4841 845.943 43.6041 845.953 42.9741H845.943C845.713 43.9341 844.683 47.2741 844.283 48.6041C844.273 48.6741 844.233 48.6841 844.193 48.6841H843.193C843.123 48.6841 843.103 48.6741 843.093 48.6141C842.663 47.0941 841.863 44.1841 841.583 42.9641H841.563C841.553 43.9741 841.473 46.5141 841.373 48.6141C841.373 48.6741 841.353 48.6841 841.293 48.6841H840.293C840.233 48.6841 840.213 48.6741 840.223 48.6041L840.603 42.1741ZM851.975 46.9541H849.585L849.035 48.6041C849.015 48.6641 848.985 48.6841 848.925 48.6841H847.925C847.865 48.6841 847.845 48.6541 847.855 48.5841L849.915 42.7241C849.955 42.6241 849.985 42.5241 850.005 42.1841C850.005 42.1441 850.025 42.1141 850.065 42.1141H851.455C851.505 42.1141 851.515 42.1241 851.525 42.1741L853.835 48.5941C853.845 48.6541 853.835 48.6841 853.775 48.6841H852.655C852.605 48.6841 852.575 48.6641 852.555 48.6241L851.975 46.9541ZM849.905 45.8641H851.655C851.445 45.2041 850.975 43.8141 850.775 43.1141H850.765C850.605 43.7841 850.205 44.9541 849.905 45.8641ZM855.83 42.1941V48.5941C855.83 48.6641 855.81 48.6841 855.75 48.6841H854.7C854.64 48.6841 854.62 48.6541 854.62 48.5941V42.1941C854.62 42.1241 854.65 42.1141 854.7 42.1141H855.75C855.81 42.1141 855.83 42.1341 855.83 42.1941ZM861.275 48.6841H857.415C857.335 48.6841 857.315 48.6541 857.315 48.5841V42.2041C857.315 42.1541 857.335 42.1141 857.395 42.1141H858.465C858.505 42.1141 858.525 42.1441 858.525 42.1841V47.5941H861.465C861.525 47.5941 861.545 47.6241 861.535 47.6641L861.365 48.6041C861.355 48.6741 861.325 48.6841 861.275 48.6841Z" fill="white"/>
<g filter="url(#filter3_d_96_2)">
<path d="M828 47C828 35.402 818.598 26 807 26C795.402 26 786 35.402 786 47C786 58.598 795.402 68 807 68C818.598 68 828 58.598 828 47Z" fill="white"/>
<path d="M827 47C827 35.9543 818.046 27 807 27C795.954 27 787 35.9543 787 47C787 58.0457 795.954 67 807 67C818.046 67 827 58.0457 827 47Z" stroke="#464646" stroke-width="2"/>
</g>
<path d="M807 65C816.941 65 825 56.9411 825 47C825 37.0589 816.941 29 807 29C797.059 29 789 37.0589 789 47C789 56.9411 797.059 65 807 65Z" fill="#FA0F00"/>
<path d="M801.2 48.6741L801.05 49.6041C801.04 49.6741 801.02 49.6841 800.96 49.6841H796.98C796.91 49.6841 796.89 49.6541 796.89 49.6041V43.1941C796.89 43.1441 796.91 43.1141 796.97 43.1141H800.83C800.89 43.1141 800.91 43.1241 800.92 43.1841L801.03 44.1141C801.04 44.1641 801.02 44.2041 800.96 44.2041H798.1V45.7941H800.7C800.75 45.7941 800.77 45.8041 800.77 45.8641V46.8141C800.77 46.8641 800.74 46.8741 800.7 46.8741H798.1V48.5941H801.13C801.19 48.5941 801.21 48.6241 801.2 48.6741ZM806.693 48.5841V49.4741C806.693 49.5341 806.673 49.5841 806.623 49.6041C806.293 49.7241 805.803 49.7841 805.243 49.7841C803.393 49.7841 801.813 48.6941 801.813 46.4141C801.813 44.4041 803.213 43.0141 805.393 43.0141C806.043 43.0141 806.443 43.0741 806.693 43.1841C806.733 43.2041 806.753 43.2341 806.753 43.2941V44.2441C806.753 44.3241 806.713 44.3241 806.673 44.3041C806.353 44.1541 805.893 44.0841 805.373 44.0841C803.963 44.0841 803.063 44.9841 803.063 46.3841C803.063 48.1141 804.343 48.7041 805.393 48.7041C805.883 48.7041 806.253 48.6641 806.623 48.5341C806.663 48.5141 806.693 48.5241 806.693 48.5841ZM808.97 43.1941V49.5941C808.97 49.6641 808.95 49.6841 808.89 49.6841H807.84C807.78 49.6841 807.76 49.6541 807.76 49.5941V43.1941C807.76 43.1241 807.79 43.1141 807.84 43.1141H808.89C808.95 43.1141 808.97 43.1341 808.97 43.1941ZM810.455 49.5941V43.2041C810.455 43.1541 810.465 43.1341 810.525 43.1241C810.815 43.1141 811.495 43.0941 812.415 43.0941C814.765 43.0941 815.945 44.4241 815.945 46.2841C815.945 48.7241 814.085 49.7041 812.395 49.7041C811.765 49.7041 810.845 49.7041 810.525 49.6841C810.485 49.6841 810.455 49.6541 810.455 49.5941ZM811.665 44.1641V48.6441C811.865 48.6541 812.085 48.6541 812.345 48.6541C813.755 48.6541 814.705 47.8341 814.705 46.3141C814.705 44.8641 813.755 44.1441 812.405 44.1441C812.125 44.1441 811.905 44.1541 811.665 44.1641Z" fill="white"/>
<g filter="url(#filter4_d_96_2)">
<path d="M913 46C913 34.402 903.598 25 892 25C880.402 25 871 34.402 871 46C871 57.598 880.402 67 892 67C903.598 67 913 57.598 913 46Z" fill="white"/>
<path d="M910.5 46C910.5 35.7827 902.217 27.5 892 27.5C881.783 27.5 873.5 35.7827 873.5 46C873.5 56.2173 881.783 64.5 892 64.5C902.217 64.5 910.5 56.2173 910.5 46Z" stroke="#464646" stroke-width="5"/>
</g>
<path d="M892 28C895.56 28 899.04 29.0557 902 31.0335C904.96 33.0114 907.267 35.8226 908.63 39.1117C909.992 42.4008 910.349 46.02 909.654 49.5116C908.96 53.0033 907.245 56.2106 904.728 58.7279C902.211 61.2453 899.003 62.9596 895.512 63.6541C892.02 64.3487 888.401 63.9922 885.112 62.6298C881.823 61.2675 879.011 58.9603 877.034 56.0003C875.056 53.0402 874 49.5601 874 46C874 41.2261 875.896 36.6477 879.272 33.2721C882.648 29.8964 887.226 28 892 28Z" fill="#007CDA"/>
<path d="M882.34 47.6741L882.19 48.6041C882.18 48.6741 882.16 48.6841 882.1 48.6841H878.12C878.05 48.6841 878.03 48.6541 878.03 48.6041V42.1941C878.03 42.1441 878.05 42.1141 878.11 42.1141H881.97C882.03 42.1141 882.05 42.1241 882.06 42.1841L882.17 43.1141C882.18 43.1641 882.16 43.2041 882.1 43.2041H879.24V44.7941H881.84C881.89 44.7941 881.91 44.8041 881.91 44.8641V45.8141C881.91 45.8641 881.88 45.8741 881.84 45.8741H879.24V47.5941H882.27C882.33 47.5941 882.35 47.6241 882.34 47.6741ZM883.603 42.1741C883.613 42.1141 883.633 42.1141 883.683 42.1141H885.283C885.343 42.1141 885.363 42.1341 885.383 42.1841C885.683 43.1941 886.553 46.1641 886.753 47.0941H886.763C886.973 46.2441 887.963 43.2141 888.273 42.1841C888.293 42.1441 888.303 42.1141 888.363 42.1141H889.923C889.973 42.1141 889.993 42.1241 890.003 42.1741L890.273 48.6041C890.283 48.6641 890.253 48.6841 890.203 48.6841H889.093C889.043 48.6841 889.013 48.6741 889.013 48.6141C888.963 46.4841 888.943 43.6041 888.953 42.9741H888.943C888.713 43.9341 887.683 47.2741 887.283 48.6041C887.273 48.6741 887.233 48.6841 887.193 48.6841H886.193C886.123 48.6841 886.103 48.6741 886.093 48.6141C885.663 47.0941 884.863 44.1841 884.583 42.9641H884.563C884.553 43.9741 884.473 46.5141 884.373 48.6141C884.373 48.6741 884.353 48.6841 884.293 48.6841H883.293C883.233 48.6841 883.213 48.6741 883.223 48.6041L883.603 42.1741ZM894.975 46.9541H892.585L892.035 48.6041C892.015 48.6641 891.985 48.6841 891.925 48.6841H890.925C890.865 48.6841 890.845 48.6541 890.855 48.5841L892.915 42.7241C892.955 42.6241 892.985 42.5241 893.005 42.1841C893.005 42.1441 893.025 42.1141 893.065 42.1141H894.455C894.505 42.1141 894.515 42.1241 894.525 42.1741L896.835 48.5941C896.845 48.6541 896.835 48.6841 896.775 48.6841H895.655C895.605 48.6841 895.575 48.6641 895.555 48.6241L894.975 46.9541ZM892.905 45.8641H894.655C894.445 45.2041 893.975 43.8141 893.775 43.1141H893.765C893.605 43.7841 893.205 44.9541 892.905 45.8641ZM898.83 42.1941V48.5941C898.83 48.6641 898.81 48.6841 898.75 48.6841H897.7C897.64 48.6841 897.62 48.6541 897.62 48.5941V42.1941C897.62 42.1241 897.65 42.1141 897.7 42.1141H898.75C898.81 42.1141 898.83 42.1341 898.83 42.1941ZM904.275 48.6841H900.415C900.335 48.6841 900.315 48.6541 900.315 48.5841V42.2041C900.315 42.1541 900.335 42.1141 900.395 42.1141H901.465C901.505 42.1141 901.525 42.1441 901.525 42.1841V47.5941H904.465C904.525 47.5941 904.545 47.6241 904.535 47.6641L904.365 48.6041C904.355 48.6741 904.325 48.6841 904.275 48.6841Z" fill="white"/>
<mask id="mask3_96_2" style="mask-type:luminance" maskUnits="userSpaceOnUse" x="411" y="68" width="177" height="172">
<path d="M588 68H411V240H588V68Z" fill="white"/>
</mask>
<g mask="url(#mask3_96_2)">
<path d="M495.644 191.2H485.492C484.744 187.485 483.284 183.949 481.192 180.789L488.421 173.56C488.965 173.016 489.27 172.279 489.27 171.51C489.27 170.741 488.965 170.004 488.421 169.46L484.021 165.06C483.477 164.517 482.74 164.211 481.971 164.211C481.202 164.211 480.465 164.517 479.921 165.06L472.706 172.3C469.547 170.209 466.014 168.749 462.3 168V157.856C462.3 157.087 461.995 156.349 461.451 155.805C460.907 155.262 460.169 154.956 459.4 154.956H453.6C452.831 154.956 452.093 155.262 451.549 155.805C451.006 156.349 450.7 157.087 450.7 157.856V168.009C446.986 168.758 443.453 170.218 440.294 172.309L433.065 165.066C432.521 164.523 431.784 164.217 431.015 164.217C430.246 164.217 429.509 164.523 428.965 165.066L424.565 169.466C424.022 170.01 423.716 170.747 423.716 171.516C423.716 172.285 424.022 173.022 424.565 173.566L431.794 180.8C429.705 183.957 428.247 187.489 427.5 191.2H417.356C416.587 191.2 415.849 191.506 415.305 192.049C414.762 192.593 414.456 193.331 414.456 194.1V199.9C414.456 200.281 414.531 200.658 414.677 201.01C414.823 201.362 415.036 201.681 415.305 201.951C415.575 202.22 415.894 202.434 416.246 202.579C416.598 202.725 416.975 202.8 417.356 202.8H427.508C428.256 206.516 429.716 210.051 431.808 213.211L424.565 220.435C424.022 220.979 423.716 221.716 423.716 222.485C423.716 223.254 424.022 223.991 424.565 224.535L428.965 228.935C429.509 229.479 430.246 229.784 431.015 229.784C431.784 229.784 432.521 229.479 433.065 228.935L440.299 221.701C443.456 223.791 446.988 225.251 450.7 226V236.153C450.7 236.922 451.006 237.66 451.549 238.204C452.093 238.748 452.831 239.053 453.6 239.053H459.4C460.169 239.053 460.907 238.748 461.451 238.204C461.995 237.66 462.3 236.922 462.3 236.153V225.992C466.014 225.243 469.547 223.783 472.706 221.692L479.935 228.921C480.479 229.465 481.216 229.77 481.985 229.77C482.754 229.77 483.491 229.465 484.035 228.921L488.435 224.521C488.979 223.977 489.284 223.24 489.284 222.471C489.284 221.702 488.979 220.965 488.435 220.421L481.2 213.206C483.292 210.047 484.752 206.514 485.5 202.8H495.654C496.035 202.8 496.412 202.725 496.764 202.579C497.116 202.434 497.435 202.22 497.705 201.951C497.974 201.681 498.188 201.362 498.333 201.01C498.479 200.658 498.554 200.281 498.554 199.9V194.1C498.554 193.331 498.249 192.593 497.705 192.049C497.161 191.506 496.423 191.2 495.654 191.2H495.644ZM456.5 212.117C453.51 212.117 450.587 211.23 448.101 209.569C445.616 207.908 443.678 205.547 442.534 202.785C441.39 200.023 441.09 196.983 441.674 194.051C442.257 191.118 443.697 188.425 445.811 186.311C447.925 184.197 450.618 182.757 453.551 182.174C456.483 181.59 459.523 181.89 462.285 183.034C465.047 184.178 467.408 186.116 469.069 188.602C470.73 191.087 471.617 194.01 471.617 197C471.617 201.009 470.024 204.854 467.189 207.689C464.354 210.524 460.509 212.117 456.5 212.117Z" fill="#B1B1B1"/>
<path d="M582.452 139.218L569.074 133.757C570.089 128.457 570.07 123.01 569.017 117.718L582.443 112.071C583.452 111.646 584.251 110.837 584.665 109.823C585.079 108.809 585.073 107.673 584.65 106.663L581.2 98.4998C580.776 97.4913 579.969 96.6921 578.957 96.2779C577.944 95.8637 576.809 95.8684 575.8 96.2908L562.37 101.924C559.323 97.4706 555.444 93.6485 550.946 90.6678L556.4 77.2878C556.605 76.7853 556.709 76.2472 556.706 75.7045C556.703 75.1617 556.593 74.6248 556.383 74.1245C556.172 73.6242 555.865 73.1702 555.479 72.7885C555.094 72.4068 554.636 72.1048 554.134 71.8998L546.489 68.7838C545.986 68.5786 545.448 68.4744 544.905 68.4771C544.363 68.4798 543.826 68.5894 543.325 68.7997C542.825 69.0099 542.371 69.3166 541.989 69.7024C541.607 70.0881 541.305 70.5453 541.1 71.0478L535.639 84.4258C530.339 83.4108 524.892 83.4302 519.6 84.4828L513.948 71.0768C513.524 70.0683 512.717 69.2691 511.705 68.8549C510.692 68.4407 509.557 68.4454 508.548 68.8678L500.374 72.2998C499.364 72.7249 498.565 73.5332 498.151 74.5472C497.737 75.5612 497.743 76.6979 498.167 77.7078L503.8 91.1388C499.345 94.1862 495.523 98.0669 492.544 102.567L479.166 97.1058C478.151 96.6927 477.014 96.6992 476.004 97.1239C474.995 97.5486 474.195 98.3568 473.781 99.3708L470.661 107.015C470.248 108.029 470.254 109.166 470.679 110.176C471.103 111.186 471.912 111.986 472.926 112.4L486.3 117.861C485.285 123.161 485.306 128.607 486.361 133.9L472.936 139.547C471.926 139.972 471.127 140.78 470.713 141.794C470.299 142.808 470.305 143.945 470.729 144.955L474.164 153.115C474.587 154.123 475.394 154.923 476.407 155.337C477.419 155.751 478.555 155.746 479.564 155.324L493 149.676C496.047 154.13 499.927 157.952 504.426 160.933L498.965 174.31C498.552 175.324 498.558 176.461 498.983 177.471C499.407 178.481 500.216 179.281 501.23 179.695L508.874 182.815C509.888 183.228 511.025 183.222 512.035 182.797C513.045 182.372 513.845 181.564 514.259 180.55L519.72 167.172C525.02 168.188 530.466 168.168 535.759 167.115L541.406 180.541C541.829 181.549 542.636 182.349 543.649 182.763C544.661 183.177 545.797 183.172 546.806 182.75L554.971 179.315C555.98 178.89 556.779 178.081 557.193 177.067C557.607 176.054 557.601 174.917 557.178 173.907L551.569 160.486C556.026 157.44 559.851 153.56 562.834 149.06L576.212 154.521C576.714 154.726 577.251 154.83 577.793 154.828C578.335 154.825 578.871 154.716 579.371 154.506C579.871 154.296 580.325 153.99 580.706 153.604C581.088 153.219 581.39 152.763 581.595 152.261L584.715 144.617C585.13 143.603 585.126 142.465 584.703 141.454C584.279 140.443 583.472 139.642 582.458 139.226L582.452 139.218ZM527.689 145.818C523.731 145.817 519.863 144.644 516.573 142.445C513.282 140.246 510.718 137.12 509.204 133.464C507.69 129.808 507.294 125.785 508.067 121.903C508.839 118.022 510.745 114.457 513.544 111.659C516.342 108.861 519.908 106.956 523.789 106.184C527.671 105.412 531.694 105.809 535.35 107.324C539.006 108.838 542.13 111.403 544.329 114.694C546.527 117.985 547.7 121.853 547.7 125.811C547.7 128.439 547.182 131.041 546.176 133.468C545.171 135.896 543.697 138.102 541.839 139.96C539.98 141.818 537.774 143.292 535.346 144.297C532.919 145.303 530.317 145.82 527.689 145.82V145.818Z" fill="#B1B1B1"/>
</g>
<g filter="url(#filter5_d_96_2)">
<path d="M505 142C505 130.402 495.598 121 484 121C472.402 121 463 130.402 463 142C463 153.598 472.402 163 484 163C495.598 163 505 153.598 505 142Z" fill="white"/>
<path d="M504 142C504 130.954 495.046 122 484 122C472.954 122 464 130.954 464 142C464 153.046 472.954 162 484 162C495.046 162 504 153.046 504 142Z" stroke="#464646" stroke-width="2"/>
</g>
<path d="M484 160C493.941 160 502 151.941 502 142C502 132.059 493.941 124 484 124C474.059 124 466 132.059 466 142C466 151.941 474.059 160 484 160Z" fill="#FA0F00"/>
<g filter="url(#filter6_d_96_2)">
<path d="M548 142C548 130.402 538.598 121 527 121C515.402 121 506 130.402 506 142C506 153.598 515.402 163 527 163C538.598 163 548 153.598 548 142Z" fill="white"/>
<path d="M547 142C547 130.954 538.046 122 527 122C515.954 122 507 130.954 507 142C507 153.046 515.954 162 527 162C538.046 162 547 153.046 547 142Z" stroke="#464646" stroke-width="2" stroke-dasharray="3 3"/>
</g>
<path d="M527 124C530.56 124 534.04 125.056 537 127.034C539.96 129.011 542.267 131.823 543.63 135.112C544.992 138.401 545.349 142.02 544.654 145.512C543.96 149.003 542.245 152.211 539.728 154.728C537.211 157.245 534.003 158.96 530.512 159.654C527.02 160.349 523.401 159.992 520.112 158.63C516.823 157.267 514.011 154.96 512.034 152C510.056 149.04 509 145.56 509 142C509 137.226 510.896 132.648 514.272 129.272C517.648 125.896 522.226 124 527 124Z" fill="#007CDA"/>
<g filter="url(#filter7_d_96_2)">
<path d="M720 355C720 348.373 714.627 343 708 343C701.373 343 696 348.373 696 355C696 361.627 701.373 367 708 367C714.627 367 720 361.627 720 355Z" fill="white"/>
<path d="M719 355C719 348.925 714.075 344 708 344C701.925 344 697 348.925 697 355C697 361.075 701.925 366 708 366C714.075 366 719 361.075 719 355Z" stroke="#464646" stroke-width="2"/>
</g>
<path d="M726.888 361.916V354.224C726.888 354.164 726.912 354.128 726.972 354.128C727.428 354.116 728.316 354.092 729.192 354.092C731.52 354.092 732.384 355.388 732.384 356.708C732.384 358.616 730.908 359.444 729.096 359.444C728.712 359.444 728.616 359.444 728.34 359.444V361.904C728.34 361.964 728.316 362 728.244 362H726.984C726.924 362 726.888 361.976 726.888 361.916ZM728.34 355.376V358.16C728.544 358.172 728.7 358.172 729.096 358.172C730.104 358.172 730.956 357.836 730.956 356.744C730.956 355.868 730.332 355.352 729.228 355.352C728.808 355.352 728.472 355.364 728.34 355.376ZM737.011 359.372H734.575C734.611 360.212 735.163 360.884 736.387 360.884C736.927 360.884 737.419 360.788 737.875 360.596C737.911 360.572 737.947 360.584 737.947 360.644V361.64C737.947 361.712 737.923 361.748 737.875 361.772C737.419 361.988 736.891 362.12 736.075 362.12C733.891 362.12 733.111 360.584 733.111 359.108C733.111 357.44 734.119 355.964 735.931 355.964C737.707 355.964 738.391 357.356 738.391 358.496C738.391 358.832 738.379 359.108 738.343 359.24C738.331 359.288 738.307 359.312 738.247 359.324C738.079 359.36 737.599 359.372 737.011 359.372ZM734.575 358.34H736.363C736.819 358.34 736.975 358.34 737.023 358.328C737.023 358.292 737.023 358.244 737.023 358.232C737.023 357.884 736.783 357.116 735.871 357.116C735.043 357.116 734.671 357.752 734.575 358.34ZM739.518 356.084H740.646C740.718 356.084 740.754 356.108 740.778 356.18C740.838 356.336 740.886 356.636 740.898 356.9C741.306 356.396 741.99 355.964 742.818 355.964C742.89 355.964 742.914 355.976 742.914 356.048V357.32C742.914 357.38 742.89 357.404 742.806 357.404C741.954 357.38 741.246 357.68 740.97 358.04V361.904C740.97 361.976 740.934 362 740.862 362H739.614C739.53 362 739.506 361.964 739.506 361.904V357.764C739.506 357.248 739.494 356.552 739.446 356.156C739.446 356.096 739.458 356.084 739.518 356.084ZM747.259 357.476C746.887 357.272 746.287 357.128 745.759 357.128C745.123 357.128 744.907 357.392 744.907 357.644C744.907 357.908 745.087 358.088 745.855 358.388C747.223 358.892 747.691 359.432 747.691 360.284C747.691 361.412 746.803 362.12 745.327 362.12C744.619 362.12 743.995 361.988 743.635 361.784C743.575 361.748 743.551 361.724 743.551 361.652V360.512C743.551 360.452 743.599 360.428 743.647 360.452C744.163 360.788 744.823 360.932 745.363 360.932C745.987 360.932 746.287 360.716 746.287 360.404C746.287 360.104 746.059 359.912 745.315 359.612C744.007 359.132 743.539 358.592 743.539 357.728C743.539 356.816 744.283 355.964 745.783 355.964C746.479 355.964 747.007 356.06 747.295 356.204C747.355 356.24 747.367 356.288 747.367 356.348V357.404C747.367 357.464 747.331 357.5 747.259 357.476ZM748.764 361.892V356.168C748.764 356.108 748.8 356.084 748.86 356.084H750.132C750.204 356.084 750.228 356.096 750.228 356.168V361.904C750.228 361.976 750.204 362 750.12 362H748.884C748.8 362 748.764 361.964 748.764 361.892ZM749.496 355.28C749.004 355.28 748.68 354.944 748.68 354.452C748.68 353.96 749.028 353.624 749.508 353.624C750.024 353.624 750.324 353.972 750.324 354.452C750.324 354.944 750 355.28 749.496 355.28ZM755.169 357.476C754.797 357.272 754.197 357.128 753.669 357.128C753.033 357.128 752.817 357.392 752.817 357.644C752.817 357.908 752.997 358.088 753.765 358.388C755.133 358.892 755.601 359.432 755.601 360.284C755.601 361.412 754.713 362.12 753.237 362.12C752.529 362.12 751.905 361.988 751.545 361.784C751.485 361.748 751.461 361.724 751.461 361.652V360.512C751.461 360.452 751.509 360.428 751.557 360.452C752.073 360.788 752.733 360.932 753.273 360.932C753.897 360.932 754.197 360.716 754.197 360.404C754.197 360.104 753.969 359.912 753.225 359.612C751.917 359.132 751.449 358.592 751.449 357.728C751.449 356.816 752.193 355.964 753.693 355.964C754.389 355.964 754.917 356.06 755.205 356.204C755.265 356.24 755.277 356.288 755.277 356.348V357.404C755.277 357.464 755.241 357.5 755.169 357.476ZM759.575 360.944V361.808C759.575 361.88 759.563 361.928 759.503 361.952C759.179 362.072 758.879 362.12 758.483 362.12C757.499 362.12 756.911 361.64 756.911 360.452V357.296H756.155C756.095 357.284 756.071 357.26 756.071 357.188V356.18C756.071 356.108 756.095 356.084 756.167 356.084H756.923C756.935 355.664 756.983 354.908 757.043 354.608C757.055 354.548 757.079 354.512 757.139 354.5L758.351 354.332C758.411 354.32 758.435 354.332 758.435 354.392C758.399 354.788 758.375 355.496 758.375 356.084H759.539C759.599 356.084 759.623 356.108 759.623 356.168V357.212C759.623 357.272 759.599 357.296 759.539 357.296H758.363V360.14C758.363 360.668 758.531 360.92 759.047 360.92C759.203 360.92 759.335 360.908 759.503 360.872C759.539 360.86 759.575 360.872 759.575 360.944ZM764.093 359.372H761.657C761.693 360.212 762.245 360.884 763.469 360.884C764.009 360.884 764.501 360.788 764.957 360.596C764.993 360.572 765.029 360.584 765.029 360.644V361.64C765.029 361.712 765.005 361.748 764.957 361.772C764.501 361.988 763.973 362.12 763.157 362.12C760.973 362.12 760.193 360.584 760.193 359.108C760.193 357.44 761.201 355.964 763.013 355.964C764.789 355.964 765.473 357.356 765.473 358.496C765.473 358.832 765.461 359.108 765.425 359.24C765.413 359.288 765.389 359.312 765.329 359.324C765.161 359.36 764.681 359.372 764.093 359.372ZM761.657 358.34H763.445C763.901 358.34 764.057 358.34 764.105 358.328C764.105 358.292 764.105 358.244 764.105 358.232C764.105 357.884 763.865 357.116 762.953 357.116C762.125 357.116 761.753 357.752 761.657 358.34ZM766.588 361.904V357.464C766.588 357.056 766.564 356.408 766.54 356.168C766.54 356.108 766.552 356.084 766.624 356.084H767.716C767.8 356.084 767.836 356.108 767.86 356.168C767.896 356.276 767.92 356.432 767.944 356.624C768.46 356.192 769.036 355.964 769.684 355.964C770.584 355.964 771.688 356.42 771.688 358.34V361.892C771.688 361.976 771.652 362 771.592 362H770.344C770.272 362 770.236 361.964 770.236 361.892V358.472C770.236 357.68 769.9 357.224 769.204 357.224C768.724 357.224 768.328 357.404 768.04 357.716V361.904C768.04 361.964 768.004 362 767.944 362H766.684C766.612 362 766.588 361.964 766.588 361.904ZM775.993 360.944V361.808C775.993 361.88 775.981 361.928 775.921 361.952C775.597 362.072 775.297 362.12 774.901 362.12C773.917 362.12 773.329 361.64 773.329 360.452V357.296H772.573C772.513 357.284 772.489 357.26 772.489 357.188V356.18C772.489 356.108 772.513 356.084 772.585 356.084H773.341C773.353 355.664 773.401 354.908 773.461 354.608C773.473 354.548 773.497 354.512 773.557 354.5L774.769 354.332C774.829 354.32 774.853 354.332 774.853 354.392C774.817 354.788 774.793 355.496 774.793 356.084H775.957C776.017 356.084 776.041 356.108 776.041 356.168V357.212C776.041 357.272 776.017 357.296 775.957 357.296H774.781V360.14C774.781 360.668 774.949 360.92 775.465 360.92C775.621 360.92 775.753 360.908 775.921 360.872C775.957 360.86 775.993 360.872 775.993 360.944ZM781.309 354.212V361.892C781.309 361.976 781.285 362 781.213 362H779.953C779.881 362 779.857 361.964 779.857 361.892V354.212C779.857 354.128 779.893 354.116 779.953 354.116H781.213C781.285 354.116 781.309 354.14 781.309 354.212ZM783.091 361.892V354.224C783.091 354.164 783.103 354.14 783.175 354.128C783.523 354.116 784.339 354.092 785.443 354.092C788.263 354.092 789.679 355.688 789.679 357.92C789.679 360.848 787.447 362.024 785.419 362.024C784.663 362.024 783.559 362.024 783.175 362C783.127 362 783.091 361.964 783.091 361.892ZM784.543 355.376V360.752C784.783 360.764 785.047 360.764 785.359 360.764C787.051 360.764 788.191 359.78 788.191 357.956C788.191 356.216 787.051 355.352 785.431 355.352C785.095 355.352 784.831 355.364 784.543 355.376Z" fill="#464646"/>
<g filter="url(#filter8_d_96_2)">
<path d="M840 355C840 348.373 834.627 343 828 343C821.373 343 816 348.373 816 355C816 361.627 821.373 367 828 367C834.627 367 840 361.627 840 355Z" fill="white"/>
<path d="M839 355C839 348.925 834.075 344 828 344C821.925 344 817 348.925 817 355C817 361.075 821.925 366 828 366C834.075 366 839 361.075 839 355Z" stroke="#464646" stroke-width="2" stroke-dasharray="10 3"/>
</g>
<path d="M846.888 361.916V354.224C846.888 354.164 846.912 354.128 846.972 354.128C847.428 354.116 848.316 354.092 849.192 354.092C851.52 354.092 852.384 355.388 852.384 356.708C852.384 358.616 850.908 359.444 849.096 359.444C848.712 359.444 848.616 359.444 848.34 359.444V361.904C848.34 361.964 848.316 362 848.244 362H846.984C846.924 362 846.888 361.976 846.888 361.916ZM848.34 355.376V358.16C848.544 358.172 848.7 358.172 849.096 358.172C850.104 358.172 850.956 357.836 850.956 356.744C850.956 355.868 850.332 355.352 849.228 355.352C848.808 355.352 848.472 355.364 848.34 355.376ZM857.011 359.372H854.575C854.611 360.212 855.163 360.884 856.387 360.884C856.927 360.884 857.419 360.788 857.875 360.596C857.911 360.572 857.947 360.584 857.947 360.644V361.64C857.947 361.712 857.923 361.748 857.875 361.772C857.419 361.988 856.891 362.12 856.075 362.12C853.891 362.12 853.111 360.584 853.111 359.108C853.111 357.44 854.119 355.964 855.931 355.964C857.707 355.964 858.391 357.356 858.391 358.496C858.391 358.832 858.379 359.108 858.343 359.24C858.331 359.288 858.307 359.312 858.247 359.324C858.079 359.36 857.599 359.372 857.011 359.372ZM854.575 358.34H856.363C856.819 358.34 856.975 358.34 857.023 358.328C857.023 358.292 857.023 358.244 857.023 358.232C857.023 357.884 856.783 357.116 855.871 357.116C855.043 357.116 854.671 357.752 854.575 358.34ZM859.518 356.084H860.646C860.718 356.084 860.754 356.108 860.778 356.18C860.838 356.336 860.886 356.636 860.898 356.9C861.306 356.396 861.99 355.964 862.818 355.964C862.89 355.964 862.914 355.976 862.914 356.048V357.32C862.914 357.38 862.89 357.404 862.806 357.404C861.954 357.38 861.246 357.68 860.97 358.04V361.904C860.97 361.976 860.934 362 860.862 362H859.614C859.53 362 859.506 361.964 859.506 361.904V357.764C859.506 357.248 859.494 356.552 859.446 356.156C859.446 356.096 859.458 356.084 859.518 356.084ZM867.259 357.476C866.887 357.272 866.287 357.128 865.759 357.128C865.123 357.128 864.907 357.392 864.907 357.644C864.907 357.908 865.087 358.088 865.855 358.388C867.223 358.892 867.691 359.432 867.691 360.284C867.691 361.412 866.803 362.12 865.327 362.12C864.619 362.12 863.995 361.988 863.635 361.784C863.575 361.748 863.551 361.724 863.551 361.652V360.512C863.551 360.452 863.599 360.428 863.647 360.452C864.163 360.788 864.823 360.932 865.363 360.932C865.987 360.932 866.287 360.716 866.287 360.404C866.287 360.104 866.059 359.912 865.315 359.612C864.007 359.132 863.539 358.592 863.539 357.728C863.539 356.816 864.283 355.964 865.783 355.964C866.479 355.964 867.007 356.06 867.295 356.204C867.355 356.24 867.367 356.288 867.367 356.348V357.404C867.367 357.464 867.331 357.5 867.259 357.476ZM871.378 355.964C873.226 355.964 874.234 357.368 874.234 359.012C874.234 360.872 873.046 362.12 871.354 362.12C869.35 362.12 868.462 360.572 868.462 359.048C868.462 357.344 869.578 355.964 871.378 355.964ZM871.306 357.176C870.502 357.176 869.926 357.884 869.926 359.024C869.926 360.128 870.466 360.896 871.378 360.896C872.122 360.896 872.758 360.284 872.758 359.048C872.758 358.052 872.326 357.176 871.306 357.176ZM875.361 361.904V357.464C875.361 357.056 875.337 356.408 875.313 356.168C875.313 356.108 875.325 356.084 875.397 356.084H876.489C876.573 356.084 876.609 356.108 876.633 356.168C876.669 356.276 876.693 356.432 876.717 356.624C877.233 356.192 877.809 355.964 878.457 355.964C879.357 355.964 880.461 356.42 880.461 358.34V361.892C880.461 361.976 880.425 362 880.365 362H879.117C879.045 362 879.009 361.964 879.009 361.892V358.472C879.009 357.68 878.673 357.224 877.977 357.224C877.497 357.224 877.101 357.404 876.813 357.716V361.904C876.813 361.964 876.777 362 876.717 362H875.457C875.385 362 875.361 361.964 875.361 361.904ZM886.297 354.212V361.892C886.297 361.976 886.273 362 886.201 362H884.941C884.869 362 884.845 361.964 884.845 361.892V354.212C884.845 354.128 884.881 354.116 884.941 354.116H886.201C886.273 354.116 886.297 354.14 886.297 354.212ZM888.079 361.892V354.224C888.079 354.164 888.091 354.14 888.163 354.128C888.511 354.116 889.327 354.092 890.431 354.092C893.251 354.092 894.667 355.688 894.667 357.92C894.667 360.848 892.435 362.024 890.407 362.024C889.651 362.024 888.547 362.024 888.163 362C888.115 362 888.079 361.964 888.079 361.892ZM889.531 355.376V360.752C889.771 360.764 890.035 360.764 890.347 360.764C892.039 360.764 893.179 359.78 893.179 357.956C893.179 356.216 892.039 355.352 890.419 355.352C890.083 355.352 889.819 355.364 889.531 355.376Z" fill="#464646"/>
<g filter="url(#filter9_d_96_2)">
<path d="M940 355C940 348.373 934.627 343 928 343C921.373 343 916 348.373 916 355C916 361.627 921.373 367 928 367C934.627 367 940 361.627 940 355Z" fill="white"/>
<path d="M937.5 355C937.5 349.753 933.247 345.5 928 345.5C922.753 345.5 918.5 349.753 918.5 355C918.5 360.247 922.753 364.5 928 364.5C933.247 364.5 937.5 360.247 937.5 355Z" stroke="#464646" stroke-width="5"/>
</g>
<path d="M948.22 362H946.984C946.912 362 946.888 361.976 946.888 361.904V354.236C946.888 354.176 946.9 354.128 946.972 354.128C947.92 354.104 948.424 354.092 949.348 354.092C951.268 354.092 952.396 354.92 952.396 356.456C952.396 357.5 951.724 358.244 950.848 358.568C951.244 359.12 952.684 361.268 953.032 361.868C953.068 361.94 953.08 362 953.008 362H951.508C951.412 362 951.376 361.976 951.34 361.94C950.992 361.4 950.152 360.02 949.624 359.18C949.54 359.036 949.48 358.976 949.348 358.976H948.316V361.904C948.316 361.976 948.28 362 948.22 362ZM948.316 357.74H949.36C950.332 357.74 950.956 357.308 950.956 356.54C950.956 355.748 950.32 355.352 949.3 355.352C948.892 355.352 948.508 355.364 948.316 355.376V357.74ZM957.186 359.372H954.75C954.786 360.212 955.338 360.884 956.562 360.884C957.102 360.884 957.594 360.788 958.05 360.596C958.086 360.572 958.122 360.584 958.122 360.644V361.64C958.122 361.712 958.098 361.748 958.05 361.772C957.594 361.988 957.066 362.12 956.25 362.12C954.066 362.12 953.286 360.584 953.286 359.108C953.286 357.44 954.294 355.964 956.106 355.964C957.882 355.964 958.566 357.356 958.566 358.496C958.566 358.832 958.554 359.108 958.518 359.24C958.506 359.288 958.482 359.312 958.422 359.324C958.254 359.36 957.774 359.372 957.186 359.372ZM954.75 358.34H956.538C956.994 358.34 957.15 358.34 957.198 358.328C957.198 358.292 957.198 358.244 957.198 358.232C957.198 357.884 956.958 357.116 956.046 357.116C955.218 357.116 954.846 357.752 954.75 358.34ZM963.134 357.476C962.762 357.272 962.162 357.128 961.634 357.128C960.998 357.128 960.782 357.392 960.782 357.644C960.782 357.908 960.962 358.088 961.73 358.388C963.098 358.892 963.566 359.432 963.566 360.284C963.566 361.412 962.678 362.12 961.202 362.12C960.494 362.12 959.87 361.988 959.51 361.784C959.45 361.748 959.426 361.724 959.426 361.652V360.512C959.426 360.452 959.474 360.428 959.522 360.452C960.038 360.788 960.698 360.932 961.238 360.932C961.862 360.932 962.162 360.716 962.162 360.404C962.162 360.104 961.934 359.912 961.19 359.612C959.882 359.132 959.414 358.592 959.414 357.728C959.414 356.816 960.158 355.964 961.658 355.964C962.354 355.964 962.882 356.06 963.17 356.204C963.23 356.24 963.242 356.288 963.242 356.348V357.404C963.242 357.464 963.206 357.5 963.134 357.476ZM969.62 356.168V360.68C969.62 361.304 969.668 361.664 969.692 361.916C969.704 361.976 969.668 362 969.596 362H968.492C968.408 362 968.384 361.976 968.372 361.928C968.336 361.808 968.3 361.628 968.288 361.508C967.772 361.988 967.16 362.12 966.62 362.12C965.48 362.12 964.604 361.508 964.604 359.828V356.168C964.604 356.096 964.628 356.084 964.7 356.084H965.96C966.032 356.084 966.044 356.108 966.044 356.168V359.66C966.044 360.404 966.368 360.86 967.088 360.86C967.544 360.86 967.88 360.704 968.18 360.428V356.168C968.18 356.108 968.204 356.084 968.276 356.084H969.536C969.608 356.084 969.62 356.108 969.62 356.168ZM971.143 360.572V353.552C971.143 353.492 971.179 353.456 971.251 353.456H972.487C972.559 353.456 972.595 353.492 972.595 353.552V360.44C972.595 360.812 972.727 360.932 973.015 360.932C973.111 360.932 973.135 360.932 973.243 360.92C973.279 360.908 973.291 360.932 973.291 360.992V361.892C973.291 361.976 973.279 361.988 973.219 362.024C973.087 362.084 972.871 362.12 972.535 362.12C971.767 362.12 971.143 361.832 971.143 360.572ZM977.232 360.944V361.808C977.232 361.88 977.22 361.928 977.16 361.952C976.836 362.072 976.536 362.12 976.14 362.12C975.156 362.12 974.568 361.64 974.568 360.452V357.296H973.812C973.752 357.284 973.728 357.26 973.728 357.188V356.18C973.728 356.108 973.752 356.084 973.824 356.084H974.58C974.592 355.664 974.64 354.908 974.7 354.608C974.712 354.548 974.736 354.512 974.796 354.5L976.008 354.332C976.068 354.32 976.092 354.332 976.092 354.392C976.056 354.788 976.032 355.496 976.032 356.084H977.196C977.256 356.084 977.28 356.108 977.28 356.168V357.212C977.28 357.272 977.256 357.296 977.196 357.296H976.02V360.14C976.02 360.668 976.188 360.92 976.704 360.92C976.86 360.92 976.992 360.908 977.16 360.872C977.196 360.86 977.232 360.872 977.232 360.944ZM978.291 361.892V356.168C978.291 356.108 978.327 356.084 978.387 356.084H979.659C979.731 356.084 979.755 356.096 979.755 356.168V361.904C979.755 361.976 979.731 362 979.647 362H978.411C978.327 362 978.291 361.964 978.291 361.892ZM979.023 355.28C978.531 355.28 978.207 354.944 978.207 354.452C978.207 353.96 978.555 353.624 979.035 353.624C979.551 353.624 979.851 353.972 979.851 354.452C979.851 354.944 979.527 355.28 979.023 355.28ZM981.233 361.904V357.464C981.233 357.056 981.209 356.408 981.185 356.168C981.185 356.108 981.197 356.084 981.269 356.084H982.361C982.445 356.084 982.481 356.108 982.505 356.168C982.541 356.276 982.565 356.432 982.589 356.624C983.105 356.192 983.681 355.964 984.329 355.964C985.229 355.964 986.333 356.42 986.333 358.34V361.892C986.333 361.976 986.297 362 986.237 362H984.989C984.917 362 984.881 361.964 984.881 361.892V358.472C984.881 357.68 984.545 357.224 983.849 357.224C983.369 357.224 982.973 357.404 982.685 357.716V361.904C982.685 361.964 982.649 362 982.589 362H981.329C981.257 362 981.233 361.964 981.233 361.904ZM990.379 361.964L989.071 361.904C988.723 362.144 988.495 362.528 988.495 362.708C988.495 363.128 989.071 363.596 990.067 363.596C991.207 363.596 991.711 363.128 991.711 362.672C991.711 362.144 991.111 362 990.379 361.964ZM989.803 357.008C989.203 357.008 988.831 357.38 988.831 357.992C988.831 358.544 989.167 358.952 989.803 358.952C990.403 358.952 990.763 358.604 990.763 358.016C990.763 357.452 990.475 357.008 989.803 357.008ZM989.467 360.692L990.691 360.74C992.335 360.824 993.043 361.472 993.043 362.456C993.043 363.68 991.843 364.664 989.971 364.664C988.039 364.664 987.163 363.692 987.163 362.816C987.163 362.432 987.487 361.94 988.279 361.256C988.099 360.992 988.015 360.68 988.027 360.356C988.027 360.08 988.099 359.816 988.243 359.576C987.751 359.264 987.415 358.748 987.415 358.016C987.415 356.864 988.291 355.964 989.803 355.964C990.223 355.964 990.607 356 990.859 356.048C990.967 356.072 991.063 356.084 991.135 356.084H992.803C992.863 356.084 992.875 356.108 992.875 356.156V357.14C992.875 357.188 992.863 357.212 992.803 357.212C992.575 357.212 992.143 357.188 991.879 357.152C992.011 357.344 992.143 357.632 992.143 358.064C992.143 359.348 991.123 359.996 989.827 359.996C989.671 359.996 989.503 359.984 989.347 359.96C989.311 360.08 989.287 360.2 989.311 360.32C989.323 360.452 989.371 360.572 989.467 360.692ZM998.133 354.212V361.892C998.133 361.976 998.109 362 998.037 362H996.777C996.705 362 996.681 361.964 996.681 361.892V354.212C996.681 354.128 996.717 354.116 996.777 354.116H998.037C998.109 354.116 998.133 354.14 998.133 354.212ZM999.915 361.892V354.224C999.915 354.164 999.927 354.14 999.999 354.128C1000.35 354.116 1001.16 354.092 1002.27 354.092C1005.09 354.092 1006.5 355.688 1006.5 357.92C1006.5 360.848 1004.27 362.024 1002.24 362.024C1001.49 362.024 1000.38 362.024 999.999 362C999.951 362 999.915 361.964 999.915 361.892ZM1001.37 355.376V360.752C1001.61 360.764 1001.87 360.764 1002.18 360.764C1003.88 360.764 1005.02 359.78 1005.02 357.956C1005.02 356.216 1003.88 355.352 1002.26 355.352C1001.92 355.352 1001.66 355.364 1001.37 355.376Z" fill="#464646"/>
</g>
</g>
<defs>
<filter id="filter0_d_96_2" x="41" y="20" width="58" height="58" filterUnits="userSpaceOnUse" color-interpolation-filters="sRGB">
<feFlood flood-opacity="0" result="BackgroundImageFix"/>
<feColorMatrix in="SourceAlpha" type="matrix" values="0 0 0 0 0 0 0 0 0 0 0 0 0 0 0 0 0 0 127 0" result="hardAlpha"/>
<feOffset dy="3"/>
<feGaussianBlur stdDeviation="4"/>
<feColorMatrix type="matrix" values="0 0 0 0 0 0 0 0 0 0 0 0 0 0 0 0 0 0 0.18 0"/>
<feBlend mode="normal" in2="BackgroundImageFix" result="effect1_dropShadow_96_2"/>
<feBlend mode="normal" in="SourceGraphic" in2="effect1_dropShadow_96_2" result="shape"/>
</filter>
<filter id="filter1_d_96_2" x="84" y="20" width="58" height="58" filterUnits="userSpaceOnUse" color-interpolation-filters="sRGB">
<feFlood flood-opacity="0" result="BackgroundImageFix"/>
<feColorMatrix in="SourceAlpha" type="matrix" values="0 0 0 0 0 0 0 0 0 0 0 0 0 0 0 0 0 0 127 0" result="hardAlpha"/>
<feOffset dy="3"/>
<feGaussianBlur stdDeviation="4"/>
<feColorMatrix type="matrix" values="0 0 0 0 0 0 0 0 0 0 0 0 0 0 0 0 0 0 0.18 0"/>
<feBlend mode="normal" in2="BackgroundImageFix" result="effect1_dropShadow_96_2"/>
<feBlend mode="normal" in="SourceGraphic" in2="effect1_dropShadow_96_2" result="shape"/>
</filter>
<filter id="filter2_d_96_2" x="820" y="20" width="58" height="58" filterUnits="userSpaceOnUse" color-interpolation-filters="sRGB">
<feFlood flood-opacity="0" result="BackgroundImageFix"/>
<feColorMatrix in="SourceAlpha" type="matrix" values="0 0 0 0 0 0 0 0 0 0 0 0 0 0 0 0 0 0 127 0" result="hardAlpha"/>
<feOffset dy="3"/>
<feGaussianBlur stdDeviation="4"/>
<feColorMatrix type="matrix" values="0 0 0 0 0 0 0 0 0 0 0 0 0 0 0 0 0 0 0.18 0"/>
<feBlend mode="normal" in2="BackgroundImageFix" result="effect1_dropShadow_96_2"/>
<feBlend mode="normal" in="SourceGraphic" in2="effect1_dropShadow_96_2" result="shape"/>
</filter>
<filter id="filter3_d_96_2" x="778" y="21" width="58" height="58" filterUnits="userSpaceOnUse" color-interpolation-filters="sRGB">
<feFlood flood-opacity="0" result="BackgroundImageFix"/>
<feColorMatrix in="SourceAlpha" type="matrix" values="0 0 0 0 0 0 0 0 0 0 0 0 0 0 0 0 0 0 127 0" result="hardAlpha"/>
<feOffset dy="3"/>
<feGaussianBlur stdDeviation="4"/>
<feColorMatrix type="matrix" values="0 0 0 0 0 0 0 0 0 0 0 0 0 0 0 0 0 0 0.18 0"/>
<feBlend mode="normal" in2="BackgroundImageFix" result="effect1_dropShadow_96_2"/>
<feBlend mode="normal" in="SourceGraphic" in2="effect1_dropShadow_96_2" result="shape"/>
</filter>
<filter id="filter4_d_96_2" x="863" y="20" width="58" height="58" filterUnits="userSpaceOnUse" color-interpolation-filters="sRGB">
<feFlood flood-opacity="0" result="BackgroundImageFix"/>
<feColorMatrix in="SourceAlpha" type="matrix" values="0 0 0 0 0 0 0 0 0 0 0 0 0 0 0 0 0 0 127 0" result="hardAlpha"/>
<feOffset dy="3"/>
<feGaussianBlur stdDeviation="4"/>
<feColorMatrix type="matrix" values="0 0 0 0 0 0 0 0 0 0 0 0 0 0 0 0 0 0 0.18 0"/>
<feBlend mode="normal" in2="BackgroundImageFix" result="effect1_dropShadow_96_2"/>
<feBlend mode="normal" in="SourceGraphic" in2="effect1_dropShadow_96_2" result="shape"/>
</filter>
<filter id="filter5_d_96_2" x="455" y="116" width="58" height="58" filterUnits="userSpaceOnUse" color-interpolation-filters="sRGB">
<feFlood flood-opacity="0" result="BackgroundImageFix"/>
<feColorMatrix in="SourceAlpha" type="matrix" values="0 0 0 0 0 0 0 0 0 0 0 0 0 0 0 0 0 0 127 0" result="hardAlpha"/>
<feOffset dy="3"/>
<feGaussianBlur stdDeviation="4"/>
<feColorMatrix type="matrix" values="0 0 0 0 0 0 0 0 0 0 0 0 0 0 0 0 0 0 0.18 0"/>
<feBlend mode="normal" in2="BackgroundImageFix" result="effect1_dropShadow_96_2"/>
<feBlend mode="normal" in="SourceGraphic" in2="effect1_dropShadow_96_2" result="shape"/>
</filter>
<filter id="filter6_d_96_2" x="498" y="116" width="58" height="58" filterUnits="userSpaceOnUse" color-interpolation-filters="sRGB">
<feFlood flood-opacity="0" result="BackgroundImageFix"/>
<feColorMatrix in="SourceAlpha" type="matrix" values="0 0 0 0 0 0 0 0 0 0 0 0 0 0 0 0 0 0 127 0" result="hardAlpha"/>
<feOffset dy="3"/>
<feGaussianBlur stdDeviation="4"/>
<feColorMatrix type="matrix" values="0 0 0 0 0 0 0 0 0 0 0 0 0 0 0 0 0 0 0.18 0"/>
<feBlend mode="normal" in2="BackgroundImageFix" result="effect1_dropShadow_96_2"/>
<feBlend mode="normal" in="SourceGraphic" in2="effect1_dropShadow_96_2" result="shape"/>
</filter>
<filter id="filter7_d_96_2" x="688" y="338" width="40" height="40" filterUnits="userSpaceOnUse" color-interpolation-filters="sRGB">
<feFlood flood-opacity="0" result="BackgroundImageFix"/>
<feColorMatrix in="SourceAlpha" type="matrix" values="0 0 0 0 0 0 0 0 0 0 0 0 0 0 0 0 0 0 127 0" result="hardAlpha"/>
<feOffset dy="3"/>
<feGaussianBlur stdDeviation="4"/>
<feColorMatrix type="matrix" values="0 0 0 0 0 0 0 0 0 0 0 0 0 0 0 0 0 0 0.18 0"/>
<feBlend mode="normal" in2="BackgroundImageFix" result="effect1_dropShadow_96_2"/>
<feBlend mode="normal" in="SourceGraphic" in2="effect1_dropShadow_96_2" result="shape"/>
</filter>
<filter id="filter8_d_96_2" x="808" y="338" width="40" height="40" filterUnits="userSpaceOnUse" color-interpolation-filters="sRGB">
<feFlood flood-opacity="0" result="BackgroundImageFix"/>
<feColorMatrix in="SourceAlpha" type="matrix" values="0 0 0 0 0 0 0 0 0 0 0 0 0 0 0 0 0 0 127 0" result="hardAlpha"/>
<feOffset dy="3"/>
<feGaussianBlur stdDeviation="4"/>
<feColorMatrix type="matrix" values="0 0 0 0 0 0 0 0 0 0 0 0 0 0 0 0 0 0 0.18 0"/>
<feBlend mode="normal" in2="BackgroundImageFix" result="effect1_dropShadow_96_2"/>
<feBlend mode="normal" in="SourceGraphic" in2="effect1_dropShadow_96_2" result="shape"/>
</filter>
<filter id="filter9_d_96_2" x="908" y="338" width="40" height="40" filterUnits="userSpaceOnUse" color-interpolation-filters="sRGB">
<feFlood flood-opacity="0" result="BackgroundImageFix"/>
<feColorMatrix in="SourceAlpha" type="matrix" values="0 0 0 0 0 0 0 0 0 0 0 0 0 0 0 0 0 0 127 0" result="hardAlpha"/>
<feOffset dy="3"/>
<feGaussianBlur stdDeviation="4"/>
<feColorMatrix type="matrix" values="0 0 0 0 0 0 0 0 0 0 0 0 0 0 0 0 0 0 0.18 0"/>
<feBlend mode="normal" in2="BackgroundImageFix" result="effect1_dropShadow_96_2"/>
<feBlend mode="normal" in="SourceGraphic" in2="effect1_dropShadow_96_2" result="shape"/>
</filter>
<clipPath id="clip0_96_2">
<rect width="1024" height="378" fill="white"/>
</clipPath>
</defs>
</svg>
