<svg width="1024" height="378" viewBox="0 0 1024 378" fill="none" xmlns="http://www.w3.org/2000/svg">
<g clip-path="url(#clip0_96_120)">
<mask id="mask0_96_120" style="mask-type:luminance" maskUnits="userSpaceOnUse" x="0" y="0" width="1024" height="378">
<path d="M1024 0H0V378H1024V0Z" fill="white"/>
</mask>
<g mask="url(#mask0_96_120)">
<path d="M1024 0H0V378H1024V0Z" fill="white"/>
<mask id="mask1_96_120" style="mask-type:luminance" maskUnits="userSpaceOnUse" x="40" y="54" width="153" height="176">
<path d="M193 54H40V230H193V54Z" fill="white"/>
</mask>
<g mask="url(#mask1_96_120)">
<path d="M116.5 116.5C154.055 116.5 184.5 106.986 184.5 95.25C184.5 83.5139 154.055 74 116.5 74C78.9446 74 48.5 83.5139 48.5 95.25C48.5 106.986 78.9446 116.5 116.5 116.5Z" fill="#464646"/>
<path d="M116.5 168.669C95.522 168.669 56.1 163.701 48.5 151.669V188.75C48.5 200.484 78.943 210 116.5 210C154.057 210 184.5 200.484 184.5 188.75V151.65C174.1 164.8 137.478 168.669 116.5 168.669Z" fill="#464646"/>
<path d="M116.5 126.169C95.522 126.169 56.1 121.201 48.5 109.148V137.748C48.5 149.482 78.943 158.998 116.5 158.998C154.057 158.998 184.5 149.482 184.5 137.748V109.148C174.1 122.3 137.478 126.169 116.5 126.169Z" fill="#464646"/>
</g>
<mask id="mask2_96_120" style="mask-type:luminance" maskUnits="userSpaceOnUse" x="780" y="54" width="146" height="169">
<path d="M926 54H780V223H926V54Z" fill="white"/>
</mask>
<g mask="url(#mask2_96_120)">
<path d="M853 114.015C888.838 114.015 917.889 104.879 917.889 93.6101C917.889 82.3407 888.838 73.2051 853 73.2051C817.163 73.2051 788.111 82.3407 788.111 93.6101C788.111 104.879 817.163 114.015 853 114.015Z" fill="#464646"/>
<path d="M853 164.109C832.982 164.109 795.362 159.338 788.111 147.785V183.391C788.111 194.659 817.161 203.791 853 203.791C888.839 203.791 917.889 194.654 917.889 183.391V147.764C907.965 160.395 873.018 164.109 853 164.109Z" fill="#464646"/>
<path d="M853 123.299C832.982 123.299 795.362 118.528 788.111 106.955V134.419C788.111 145.687 817.161 154.819 853 154.819C888.839 154.819 917.889 145.682 917.889 134.419V106.955C907.965 119.585 873.018 123.299 853 123.299Z" fill="#464646"/>
</g>
<path d="M57.36 287.2C55.9 287.2 54.68 286.92 53.86 286.48C53.76 286.42 53.72 286.34 53.72 286.18V284.1C53.72 284.02 53.8 283.98 53.88 284.02C54.96 284.72 56.28 285.06 57.44 285.06C59.08 285.06 59.78 284.42 59.78 283.56C59.78 282.82 59.3 282.26 57.78 281.62L56.82 281.22C54.36 280.18 53.72 278.94 53.72 277.44C53.72 275.3 55.34 273.66 58.36 273.66C59.62 273.66 60.76 273.84 61.42 274.18C61.52 274.24 61.54 274.3 61.54 274.44V276.38C61.54 276.46 61.48 276.54 61.36 276.46C60.6 276.02 59.5 275.8 58.34 275.8C56.62 275.8 56.08 276.52 56.08 277.22C56.08 277.94 56.54 278.44 58.12 279.1L58.88 279.42C61.48 280.5 62.22 281.76 62.22 283.34C62.22 285.68 60.38 287.2 57.36 287.2ZM68.5391 276.94C71.6191 276.94 73.2991 279.28 73.2991 282.02C73.2991 285.12 71.3191 287.2 68.4991 287.2C65.1591 287.2 63.6791 284.62 63.6791 282.08C63.6791 279.24 65.5391 276.94 68.5391 276.94ZM68.4191 278.96C67.0791 278.96 66.1191 280.14 66.1191 282.04C66.1191 283.88 67.0191 285.16 68.5391 285.16C69.7791 285.16 70.8391 284.14 70.8391 282.08C70.8391 280.42 70.1191 278.96 68.4191 278.96ZM83.538 277.28V284.8C83.538 285.84 83.618 286.44 83.658 286.86C83.678 286.96 83.618 287 83.498 287H81.658C81.518 287 81.478 286.96 81.458 286.88C81.398 286.68 81.338 286.38 81.318 286.18C80.458 286.98 79.438 287.2 78.538 287.2C76.638 287.2 75.178 286.18 75.178 283.38V277.28C75.178 277.16 75.218 277.14 75.338 277.14H77.438C77.558 277.14 77.578 277.18 77.578 277.28V283.1C77.578 284.34 78.118 285.1 79.318 285.1C80.078 285.1 80.638 284.84 81.138 284.38V277.28C81.138 277.18 81.178 277.14 81.298 277.14H83.398C83.518 277.14 83.538 277.18 83.538 277.28ZM86.0964 277.14H87.9764C88.0964 277.14 88.1564 277.18 88.1964 277.3C88.2964 277.56 88.3764 278.06 88.3964 278.5C89.0764 277.66 90.2164 276.94 91.5964 276.94C91.7164 276.94 91.7564 276.96 91.7564 277.08V279.2C91.7564 279.3 91.7164 279.34 91.5764 279.34C90.1564 279.3 88.9764 279.8 88.5164 280.4V286.84C88.5164 286.96 88.4564 287 88.3364 287H86.2564C86.1164 287 86.0764 286.94 86.0764 286.84V279.94C86.0764 279.08 86.0564 277.92 85.9764 277.26C85.9764 277.16 85.9964 277.14 86.0964 277.14ZM100.085 284.94V286.72C100.085 286.82 100.065 286.86 99.9848 286.88C99.3448 287.14 98.5448 287.2 97.7648 287.2C94.5248 287.2 92.6048 284.98 92.6048 282.1C92.6048 279.14 94.8048 276.94 98.1048 276.94C99.1048 276.94 99.6448 277.04 99.9848 277.16C100.065 277.2 100.085 277.26 100.085 277.38L100.065 279.16C100.065 279.3 99.9848 279.3 99.9048 279.28C99.4848 279.12 98.9648 279.02 98.1848 279.02C96.3648 279.02 95.0848 280.1 95.0848 282.02C95.0848 284.2 96.6648 285.04 98.2048 285.04C98.9248 285.04 99.5448 284.98 99.9448 284.84C100.045 284.8 100.085 284.86 100.085 284.94ZM107.718 282.62H103.658C103.718 284.02 104.638 285.14 106.678 285.14C107.578 285.14 108.398 284.98 109.158 284.66C109.218 284.62 109.278 284.64 109.278 284.74V286.4C109.278 286.52 109.238 286.58 109.158 286.62C108.398 286.98 107.518 287.2 106.158 287.2C102.518 287.2 101.218 284.64 101.218 282.18C101.218 279.4 102.898 276.94 105.918 276.94C108.878 276.94 110.018 279.26 110.018 281.16C110.018 281.72 109.998 282.18 109.938 282.4C109.918 282.48 109.878 282.52 109.778 282.54C109.498 282.6 108.698 282.62 107.718 282.62ZM103.658 280.9H106.638C107.398 280.9 107.658 280.9 107.738 280.88C107.738 280.82 107.738 280.74 107.738 280.72C107.738 280.14 107.338 278.86 105.818 278.86C104.438 278.86 103.818 279.92 103.658 280.9ZM116.668 286.82V274.04C116.668 273.94 116.688 273.9 116.808 273.88C117.388 273.86 118.748 273.82 120.588 273.82C125.287 273.82 127.648 276.48 127.648 280.2C127.648 285.08 123.928 287.04 120.548 287.04C119.288 287.04 117.448 287.04 116.808 287C116.728 287 116.668 286.94 116.668 286.82ZM119.088 275.96V284.92C119.488 284.94 119.928 284.94 120.448 284.94C123.268 284.94 125.168 283.3 125.168 280.26C125.168 277.36 123.268 275.92 120.568 275.92C120.008 275.92 119.568 275.94 119.088 275.96ZM134.711 285.06V282.6C134.411 282.56 134.071 282.54 133.611 282.54C132.031 282.54 131.331 283.06 131.331 283.92C131.331 284.66 131.851 285.3 133.291 285.3C133.811 285.3 134.271 285.24 134.711 285.06ZM137.051 280.9V284.96C137.051 285.4 137.051 285.8 137.091 286.22C137.091 286.26 137.091 286.28 137.051 286.3C135.411 287 134.251 287.2 132.891 287.2C130.711 287.2 128.971 286.18 128.971 283.92C128.971 281.8 130.871 280.74 133.471 280.74C134.071 280.74 134.531 280.76 134.711 280.78V280.54C134.711 280.08 134.451 279.04 132.691 279.04C131.691 279.04 130.811 279.24 130.071 279.6C130.011 279.62 129.911 279.6 129.911 279.48V277.74C129.911 277.64 129.931 277.6 130.031 277.54C130.891 277.14 131.991 276.94 133.071 276.94C135.851 276.94 137.051 278.68 137.051 280.9ZM144.135 285.24V286.68C144.135 286.8 144.115 286.88 144.015 286.92C143.475 287.12 142.975 287.2 142.315 287.2C140.675 287.2 139.695 286.4 139.695 284.42V279.16H138.435C138.335 279.14 138.295 279.1 138.295 278.98V277.3C138.295 277.18 138.335 277.14 138.455 277.14H139.715C139.735 276.44 139.815 275.18 139.915 274.68C139.935 274.58 139.975 274.52 140.075 274.5L142.095 274.22C142.195 274.2 142.235 274.22 142.235 274.32C142.175 274.98 142.135 276.16 142.135 277.14H144.075C144.175 277.14 144.215 277.18 144.215 277.28V279.02C144.215 279.12 144.175 279.16 144.075 279.16H142.115V283.9C142.115 284.78 142.395 285.2 143.255 285.2C143.515 285.2 143.735 285.18 144.015 285.12C144.075 285.1 144.135 285.12 144.135 285.24ZM150.98 285.06V282.6C150.68 282.56 150.34 282.54 149.88 282.54C148.3 282.54 147.6 283.06 147.6 283.92C147.6 284.66 148.12 285.3 149.56 285.3C150.08 285.3 150.54 285.24 150.98 285.06ZM153.32 280.9V284.96C153.32 285.4 153.32 285.8 153.36 286.22C153.36 286.26 153.36 286.28 153.32 286.3C151.68 287 150.52 287.2 149.16 287.2C146.98 287.2 145.24 286.18 145.24 283.92C145.24 281.8 147.14 280.74 149.74 280.74C150.34 280.74 150.8 280.76 150.98 280.78V280.54C150.98 280.08 150.72 279.04 148.96 279.04C147.96 279.04 147.08 279.24 146.34 279.6C146.28 279.62 146.18 279.6 146.18 279.48V277.74C146.18 277.64 146.2 277.6 146.3 277.54C147.16 277.14 148.26 276.94 149.34 276.94C152.12 276.94 153.32 278.68 153.32 280.9ZM161.42 279.46C160.8 279.12 159.8 278.88 158.92 278.88C157.86 278.88 157.5 279.32 157.5 279.74C157.5 280.18 157.8 280.48 159.08 280.98C161.36 281.82 162.14 282.72 162.14 284.14C162.14 286.02 160.66 287.2 158.2 287.2C157.02 287.2 155.98 286.98 155.38 286.64C155.28 286.58 155.24 286.54 155.24 286.42V284.52C155.24 284.42 155.32 284.38 155.4 284.42C156.26 284.98 157.36 285.22 158.26 285.22C159.3 285.22 159.8 284.86 159.8 284.34C159.8 283.84 159.42 283.52 158.18 283.02C156 282.22 155.22 281.32 155.22 279.88C155.22 278.36 156.46 276.94 158.96 276.94C160.12 276.94 161 277.1 161.48 277.34C161.58 277.4 161.6 277.48 161.6 277.58V279.34C161.6 279.44 161.54 279.5 161.42 279.46ZM169.925 282.62H165.865C165.925 284.02 166.845 285.14 168.885 285.14C169.785 285.14 170.605 284.98 171.365 284.66C171.425 284.62 171.485 284.64 171.485 284.74V286.4C171.485 286.52 171.445 286.58 171.365 286.62C170.605 286.98 169.725 287.2 168.365 287.2C164.725 287.2 163.425 284.64 163.425 282.18C163.425 279.4 165.105 276.94 168.125 276.94C171.085 276.94 172.225 279.26 172.225 281.16C172.225 281.72 172.205 282.18 172.145 282.4C172.125 282.48 172.085 282.52 171.985 282.54C171.705 282.6 170.905 282.62 169.925 282.62ZM165.865 280.9H168.845C169.605 280.9 169.865 280.9 169.945 280.88C169.945 280.82 169.945 280.74 169.945 280.72C169.945 280.14 169.545 278.86 168.025 278.86C166.645 278.86 166.025 279.92 165.865 280.9ZM178.998 285.24V286.68C178.998 286.8 178.978 286.88 178.878 286.92C178.338 287.12 177.838 287.2 177.178 287.2C175.538 287.2 174.558 286.4 174.558 284.42V279.16H173.298C173.198 279.14 173.158 279.1 173.158 278.98V277.3C173.158 277.18 173.198 277.14 173.318 277.14H174.578C174.598 276.44 174.678 275.18 174.778 274.68C174.798 274.58 174.838 274.52 174.938 274.5L176.958 274.22C177.058 274.2 177.098 274.22 177.098 274.32C177.038 274.98 176.998 276.16 176.998 277.14H178.938C179.038 277.14 179.078 277.18 179.078 277.28V279.02C179.078 279.12 179.038 279.16 178.938 279.16H176.978V283.9C176.978 284.78 177.258 285.2 178.118 285.2C178.378 285.2 178.598 285.18 178.878 285.12C178.938 285.1 178.998 285.12 178.998 285.24Z" fill="#464646"/>
<path d="M792.72 274.02V281.9C792.72 283.8 793.64 285.06 795.56 285.06C797.14 285.06 798.32 284.3 798.32 281.86V274.04C798.32 273.92 798.36 273.86 798.48 273.86H800.58C800.7 273.86 800.74 273.92 800.74 274.02V281.98C800.74 285.72 798.44 287.2 795.48 287.2C792.32 287.2 790.3 285.52 790.3 282.08V274.04C790.3 273.92 790.32 273.86 790.46 273.86H792.56C792.68 273.86 792.72 273.9 792.72 274.02ZM807.133 276.94C810.433 276.94 812.073 279.18 812.073 281.74C812.073 285.4 809.113 287.2 806.093 287.2C805.873 287.2 805.673 287.18 805.493 287.16V290.76C805.493 290.84 805.473 290.9 805.353 290.92C804.653 291 803.313 291.12 803.213 291.12C803.093 291.12 803.073 291.1 803.073 291V279.02C803.073 278.78 803.053 278.12 803.013 277.84C803.013 277.82 803.013 277.76 803.093 277.74C803.993 277.44 805.393 276.94 807.133 276.94ZM806.913 279C806.373 279 805.933 279.06 805.493 279.2V285.1C805.713 285.16 806.033 285.16 806.293 285.16C807.853 285.16 809.593 284.24 809.593 281.9C809.593 280.08 808.613 279 806.913 279ZM818.588 287.2C815.688 287.2 813.468 285.52 813.468 282.16C813.468 279.26 815.628 276.94 819.148 276.94C819.428 276.94 819.668 276.96 820.008 277V272.9C820.008 272.8 820.048 272.76 820.128 272.76H822.308C822.408 272.76 822.408 272.8 822.408 272.88V284.96C822.408 285.36 822.448 285.88 822.488 286.24C822.488 286.34 822.468 286.38 822.368 286.42C821.068 286.98 819.788 287.2 818.588 287.2ZM820.008 284.96V279.1C819.748 279 819.428 278.96 819.068 278.96C817.288 278.96 815.948 280.1 815.948 282.04C815.948 284.22 817.248 285.12 818.848 285.12C819.248 285.12 819.648 285.08 820.008 284.96ZM830.086 285.06V282.6C829.786 282.56 829.446 282.54 828.986 282.54C827.406 282.54 826.706 283.06 826.706 283.92C826.706 284.66 827.226 285.3 828.666 285.3C829.186 285.3 829.646 285.24 830.086 285.06ZM832.426 280.9V284.96C832.426 285.4 832.426 285.8 832.466 286.22C832.466 286.26 832.466 286.28 832.426 286.3C830.786 287 829.626 287.2 828.266 287.2C826.086 287.2 824.346 286.18 824.346 283.92C824.346 281.8 826.246 280.74 828.846 280.74C829.446 280.74 829.906 280.76 830.086 280.78V280.54C830.086 280.08 829.826 279.04 828.066 279.04C827.066 279.04 826.186 279.24 825.446 279.6C825.386 279.62 825.286 279.6 825.286 279.48V277.74C825.286 277.64 825.306 277.6 825.406 277.54C826.266 277.14 827.366 276.94 828.446 276.94C831.226 276.94 832.426 278.68 832.426 280.9ZM839.51 285.24V286.68C839.51 286.8 839.49 286.88 839.39 286.92C838.85 287.12 838.35 287.2 837.69 287.2C836.05 287.2 835.07 286.4 835.07 284.42V279.16H833.81C833.71 279.14 833.67 279.1 833.67 278.98V277.3C833.67 277.18 833.71 277.14 833.83 277.14H835.09C835.11 276.44 835.19 275.18 835.29 274.68C835.31 274.58 835.35 274.52 835.45 274.5L837.47 274.22C837.57 274.2 837.61 274.22 837.61 274.32C837.55 274.98 837.51 276.16 837.51 277.14H839.45C839.55 277.14 839.59 277.18 839.59 277.28V279.02C839.59 279.12 839.55 279.16 839.45 279.16H837.49V283.9C837.49 284.78 837.77 285.2 838.63 285.2C838.89 285.2 839.11 285.18 839.39 285.12C839.45 285.1 839.51 285.12 839.51 285.24ZM847.038 282.62H842.978C843.038 284.02 843.958 285.14 845.998 285.14C846.898 285.14 847.718 284.98 848.478 284.66C848.538 284.62 848.598 284.64 848.598 284.74V286.4C848.598 286.52 848.558 286.58 848.478 286.62C847.718 286.98 846.838 287.2 845.478 287.2C841.838 287.2 840.538 284.64 840.538 282.18C840.538 279.4 842.218 276.94 845.238 276.94C848.198 276.94 849.338 279.26 849.338 281.16C849.338 281.72 849.318 282.18 849.258 282.4C849.238 282.48 849.198 282.52 849.098 282.54C848.818 282.6 848.018 282.62 847.038 282.62ZM842.978 280.9H845.958C846.718 280.9 846.978 280.9 847.058 280.88C847.058 280.82 847.058 280.74 847.058 280.72C847.058 280.14 846.658 278.86 845.138 278.86C843.758 278.86 843.138 279.92 842.978 280.9ZM855.834 287.2C852.934 287.2 850.714 285.52 850.714 282.16C850.714 279.26 852.874 276.94 856.394 276.94C856.674 276.94 856.914 276.96 857.254 277V272.9C857.254 272.8 857.294 272.76 857.374 272.76H859.554C859.654 272.76 859.654 272.8 859.654 272.88V284.96C859.654 285.36 859.694 285.88 859.734 286.24C859.734 286.34 859.714 286.38 859.614 286.42C858.314 286.98 857.034 287.2 855.834 287.2ZM857.254 284.96V279.1C856.994 279 856.674 278.96 856.314 278.96C854.534 278.96 853.194 280.1 853.194 282.04C853.194 284.22 854.494 285.12 856.094 285.12C856.494 285.12 856.894 285.08 857.254 284.96ZM866.984 286.82V274.04C866.984 273.94 867.004 273.9 867.124 273.88C867.704 273.86 869.064 273.82 870.904 273.82C875.604 273.82 877.964 276.48 877.964 280.2C877.964 285.08 874.244 287.04 870.864 287.04C869.604 287.04 867.764 287.04 867.124 287C867.044 287 866.984 286.94 866.984 286.82ZM869.404 275.96V284.92C869.804 284.94 870.244 284.94 870.764 284.94C873.584 284.94 875.484 283.3 875.484 280.26C875.484 277.36 873.584 275.92 870.884 275.92C870.324 275.92 869.884 275.94 869.404 275.96ZM885.027 285.06V282.6C884.727 282.56 884.387 282.54 883.927 282.54C882.347 282.54 881.647 283.06 881.647 283.92C881.647 284.66 882.167 285.3 883.607 285.3C884.127 285.3 884.587 285.24 885.027 285.06ZM887.367 280.9V284.96C887.367 285.4 887.367 285.8 887.407 286.22C887.407 286.26 887.407 286.28 887.367 286.3C885.727 287 884.567 287.2 883.207 287.2C881.027 287.2 879.287 286.18 879.287 283.92C879.287 281.8 881.187 280.74 883.787 280.74C884.387 280.74 884.847 280.76 885.027 280.78V280.54C885.027 280.08 884.767 279.04 883.007 279.04C882.007 279.04 881.127 279.24 880.387 279.6C880.327 279.62 880.227 279.6 880.227 279.48V277.74C880.227 277.64 880.247 277.6 880.347 277.54C881.207 277.14 882.307 276.94 883.387 276.94C886.167 276.94 887.367 278.68 887.367 280.9ZM894.451 285.24V286.68C894.451 286.8 894.431 286.88 894.331 286.92C893.791 287.12 893.291 287.2 892.631 287.2C890.991 287.2 890.011 286.4 890.011 284.42V279.16H888.751C888.651 279.14 888.611 279.1 888.611 278.98V277.3C888.611 277.18 888.651 277.14 888.771 277.14H890.031C890.051 276.44 890.131 275.18 890.231 274.68C890.251 274.58 890.291 274.52 890.391 274.5L892.411 274.22C892.511 274.2 892.551 274.22 892.551 274.32C892.491 274.98 892.451 276.16 892.451 277.14H894.391C894.491 277.14 894.531 277.18 894.531 277.28V279.02C894.531 279.12 894.491 279.16 894.391 279.16H892.431V283.9C892.431 284.78 892.711 285.2 893.571 285.2C893.831 285.2 894.051 285.18 894.331 285.12C894.391 285.1 894.451 285.12 894.451 285.24ZM901.297 285.06V282.6C900.997 282.56 900.657 282.54 900.197 282.54C898.617 282.54 897.917 283.06 897.917 283.92C897.917 284.66 898.437 285.3 899.877 285.3C900.397 285.3 900.857 285.24 901.297 285.06ZM903.637 280.9V284.96C903.637 285.4 903.637 285.8 903.677 286.22C903.677 286.26 903.677 286.28 903.637 286.3C901.997 287 900.837 287.2 899.477 287.2C897.297 287.2 895.557 286.18 895.557 283.92C895.557 281.8 897.457 280.74 900.057 280.74C900.657 280.74 901.117 280.76 901.297 280.78V280.54C901.297 280.08 901.037 279.04 899.277 279.04C898.277 279.04 897.397 279.24 896.657 279.6C896.597 279.62 896.497 279.6 896.497 279.48V277.74C896.497 277.64 896.517 277.6 896.617 277.54C897.477 277.14 898.577 276.94 899.657 276.94C902.437 276.94 903.637 278.68 903.637 280.9ZM911.737 279.46C911.117 279.12 910.117 278.88 909.237 278.88C908.177 278.88 907.817 279.32 907.817 279.74C907.817 280.18 908.117 280.48 909.397 280.98C911.677 281.82 912.457 282.72 912.457 284.14C912.457 286.02 910.977 287.2 908.517 287.2C907.337 287.2 906.297 286.98 905.697 286.64C905.597 286.58 905.557 286.54 905.557 286.42V284.52C905.557 284.42 905.637 284.38 905.717 284.42C906.577 284.98 907.677 285.22 908.577 285.22C909.617 285.22 910.117 284.86 910.117 284.34C910.117 283.84 909.737 283.52 908.497 283.02C906.317 282.22 905.537 281.32 905.537 279.88C905.537 278.36 906.777 276.94 909.277 276.94C910.437 276.94 911.317 277.1 911.797 277.34C911.897 277.4 911.917 277.48 911.917 277.58V279.34C911.917 279.44 911.857 279.5 911.737 279.46ZM920.242 282.62H916.182C916.242 284.02 917.162 285.14 919.202 285.14C920.102 285.14 920.922 284.98 921.682 284.66C921.742 284.62 921.802 284.64 921.802 284.74V286.4C921.802 286.52 921.762 286.58 921.682 286.62C920.922 286.98 920.042 287.2 918.682 287.2C915.042 287.2 913.742 284.64 913.742 282.18C913.742 279.4 915.422 276.94 918.442 276.94C921.402 276.94 922.542 279.26 922.542 281.16C922.542 281.72 922.522 282.18 922.462 282.4C922.442 282.48 922.402 282.52 922.302 282.54C922.022 282.6 921.222 282.62 920.242 282.62ZM916.182 280.9H919.162C919.922 280.9 920.182 280.9 920.262 280.88C920.262 280.82 920.262 280.74 920.262 280.72C920.262 280.14 919.862 278.86 918.342 278.86C916.962 278.86 916.342 279.92 916.182 280.9ZM929.315 285.24V286.68C929.315 286.8 929.295 286.88 929.195 286.92C928.655 287.12 928.155 287.2 927.495 287.2C925.855 287.2 924.875 286.4 924.875 284.42V279.16H923.615C923.515 279.14 923.475 279.1 923.475 278.98V277.3C923.475 277.18 923.515 277.14 923.635 277.14H924.895C924.915 276.44 924.995 275.18 925.095 274.68C925.115 274.58 925.155 274.52 925.255 274.5L927.275 274.22C927.375 274.2 927.415 274.22 927.415 274.32C927.355 274.98 927.315 276.16 927.315 277.14H929.255C929.355 277.14 929.395 277.18 929.395 277.28V279.02C929.395 279.12 929.355 279.16 929.255 279.16H927.295V283.9C927.295 284.78 927.575 285.2 928.435 285.2C928.695 285.2 928.915 285.18 929.195 285.12C929.255 285.1 929.315 285.12 929.315 285.24Z" fill="#464646"/>
<path d="M375.776 146.5L367.776 151V142L375.776 146.5Z" fill="#FF0000"/>
<path d="M375.776 146.5L367.776 151V142L375.776 146.5Z" fill="#FF0000"/>
<path d="M375.776 146.5L367.776 151V142L375.776 146.5Z" fill="#FF0000"/>
<path d="M375.776 146.5L367.776 151V142L375.776 146.5Z" fill="#FF0000"/>
<path d="M367.776 146.5H228.499" stroke="#B1B8C9" stroke-dasharray="2 2"/>
<path d="M375.776 146.5L367.776 151V142L375.776 146.5Z" fill="#FF0000"/>
<path d="M375.776 146.5L367.776 151V142L375.776 146.5Z" fill="#FF0000"/>
<path d="M375.776 146.5L367.776 151V142L375.776 146.5Z" fill="#FF0000"/>
<path d="M375.776 146.5L367.776 151V142L375.776 146.5Z" fill="#FF0000"/>
<path d="M367.776 146.5H228.499" stroke="#B1B8C9" stroke-dasharray="2 2"/>
<path d="M742.776 146.5L734.776 151V142L742.776 146.5Z" fill="#FF0000"/>
<path d="M742.776 146.5L734.776 151V142L742.776 146.5Z" fill="#FF0000"/>
<path d="M742.776 146.5L734.776 151V142L742.776 146.5Z" fill="#FF0000"/>
<path d="M742.776 146.5L734.776 151V142L742.776 146.5Z" fill="#FF0000"/>
<path d="M734.776 146.5H595.499" stroke="#B1B8C9" stroke-dasharray="2 2"/>
<g filter="url(#filter0_d_96_120)">
<path d="M91 46C91 34.402 81.598 25 70 25C58.402 25 49 34.402 49 46C49 57.598 58.402 67 70 67C81.598 67 91 57.598 91 46Z" fill="white"/>
<path d="M90 46C90 34.9543 81.0457 26 70 26C58.9543 26 50 34.9543 50 46C50 57.0457 58.9543 66 70 66C81.0457 66 90 57.0457 90 46Z" stroke="#464646" stroke-width="2"/>
</g>
<path d="M70 64C79.9411 64 88 55.9411 88 46C88 36.0589 79.9411 28 70 28C60.0589 28 52 36.0589 52 46C52 55.9411 60.0589 64 70 64Z" fill="#FA0F00"/>
<path d="M64.2004 47.6741L64.0504 48.6041C64.0404 48.6741 64.0204 48.6841 63.9604 48.6841H59.9804C59.9104 48.6841 59.8904 48.6541 59.8904 48.6041V42.1941C59.8904 42.1441 59.9104 42.1141 59.9704 42.1141H63.8304C63.8904 42.1141 63.9104 42.1241 63.9204 42.1841L64.0304 43.1141C64.0404 43.1641 64.0204 43.2041 63.9604 43.2041H61.1004V44.7941H63.7004C63.7504 44.7941 63.7704 44.8041 63.7704 44.8641V45.8141C63.7704 45.8641 63.7404 45.8741 63.7004 45.8741H61.1004V47.5941H64.1304C64.1904 47.5941 64.2104 47.6241 64.2004 47.6741ZM69.6931 47.5841V48.4741C69.6931 48.5341 69.6731 48.5841 69.6231 48.6041C69.2931 48.7241 68.8031 48.7841 68.2431 48.7841C66.3931 48.7841 64.8131 47.6941 64.8131 45.4141C64.8131 43.4041 66.2131 42.0141 68.3931 42.0141C69.0431 42.0141 69.4431 42.0741 69.6931 42.1841C69.7331 42.2041 69.7531 42.2341 69.7531 42.2941V43.2441C69.7531 43.3241 69.7131 43.3241 69.6731 43.3041C69.3531 43.1541 68.8931 43.0841 68.3731 43.0841C66.9631 43.0841 66.0631 43.9841 66.0631 45.3841C66.0631 47.1141 67.3431 47.7041 68.3931 47.7041C68.8831 47.7041 69.2531 47.6641 69.6231 47.5341C69.6631 47.5141 69.6931 47.5241 69.6931 47.5841ZM71.9695 42.1941V48.5941C71.9695 48.6641 71.9495 48.6841 71.8895 48.6841H70.8395C70.7795 48.6841 70.7595 48.6541 70.7595 48.5941V42.1941C70.7595 42.1241 70.7895 42.1141 70.8395 42.1141H71.8895C71.9495 42.1141 71.9695 42.1341 71.9695 42.1941ZM73.4548 48.5941V42.2041C73.4548 42.1541 73.4648 42.1341 73.5248 42.1241C73.8148 42.1141 74.4948 42.0941 75.4148 42.0941C77.7648 42.0941 78.9448 43.4241 78.9448 45.2841C78.9448 47.7241 77.0848 48.7041 75.3948 48.7041C74.7648 48.7041 73.8448 48.7041 73.5248 48.6841C73.4848 48.6841 73.4548 48.6541 73.4548 48.5941ZM74.6648 43.1641V47.6441C74.8648 47.6541 75.0848 47.6541 75.3448 47.6541C76.7548 47.6541 77.7048 46.8341 77.7048 45.3141C77.7048 43.8641 76.7548 43.1441 75.4048 43.1441C75.1248 43.1441 74.9048 43.1541 74.6648 43.1641Z" fill="white"/>
<g filter="url(#filter1_d_96_120)">
<path d="M828 47C828 35.402 818.598 26 807 26C795.402 26 786 35.402 786 47C786 58.598 795.402 68 807 68C818.598 68 828 58.598 828 47Z" fill="white"/>
<path d="M827 47C827 35.9543 818.046 27 807 27C795.954 27 787 35.9543 787 47C787 58.0457 795.954 67 807 67C818.046 67 827 58.0457 827 47Z" stroke="#464646" stroke-width="2"/>
</g>
<path d="M807 65C816.941 65 825 56.9411 825 47C825 37.0589 816.941 29 807 29C797.059 29 789 37.0589 789 47C789 56.9411 797.059 65 807 65Z" fill="#FA0F00"/>
<path d="M801.2 48.6741L801.05 49.6041C801.04 49.6741 801.02 49.6841 800.96 49.6841H796.98C796.91 49.6841 796.89 49.6541 796.89 49.6041V43.1941C796.89 43.1441 796.91 43.1141 796.97 43.1141H800.83C800.89 43.1141 800.91 43.1241 800.92 43.1841L801.03 44.1141C801.04 44.1641 801.02 44.2041 800.96 44.2041H798.1V45.7941H800.7C800.75 45.7941 800.77 45.8041 800.77 45.8641V46.8141C800.77 46.8641 800.74 46.8741 800.7 46.8741H798.1V48.5941H801.13C801.19 48.5941 801.21 48.6241 801.2 48.6741ZM806.693 48.5841V49.4741C806.693 49.5341 806.673 49.5841 806.623 49.6041C806.293 49.7241 805.803 49.7841 805.243 49.7841C803.393 49.7841 801.813 48.6941 801.813 46.4141C801.813 44.4041 803.213 43.0141 805.393 43.0141C806.043 43.0141 806.443 43.0741 806.693 43.1841C806.733 43.2041 806.753 43.2341 806.753 43.2941V44.2441C806.753 44.3241 806.713 44.3241 806.673 44.3041C806.353 44.1541 805.893 44.0841 805.373 44.0841C803.963 44.0841 803.063 44.9841 803.063 46.3841C803.063 48.1141 804.343 48.7041 805.393 48.7041C805.883 48.7041 806.253 48.6641 806.623 48.5341C806.663 48.5141 806.693 48.5241 806.693 48.5841ZM808.97 43.1941V49.5941C808.97 49.6641 808.95 49.6841 808.89 49.6841H807.84C807.78 49.6841 807.76 49.6541 807.76 49.5941V43.1941C807.76 43.1241 807.79 43.1141 807.84 43.1141H808.89C808.95 43.1141 808.97 43.1341 808.97 43.1941ZM810.455 49.5941V43.2041C810.455 43.1541 810.465 43.1341 810.525 43.1241C810.815 43.1141 811.495 43.0941 812.415 43.0941C814.765 43.0941 815.945 44.4241 815.945 46.2841C815.945 48.7241 814.085 49.7041 812.395 49.7041C811.765 49.7041 810.845 49.7041 810.525 49.6841C810.485 49.6841 810.455 49.6541 810.455 49.5941ZM811.665 44.1641V48.6441C811.865 48.6541 812.085 48.6541 812.345 48.6541C813.755 48.6541 814.705 47.8341 814.705 46.3141C814.705 44.8641 813.755 44.1441 812.405 44.1441C812.125 44.1441 811.905 44.1541 811.665 44.1641Z" fill="white"/>
<g filter="url(#filter2_d_96_120)">
<path d="M873 46C873 34.402 863.598 25 852 25C840.402 25 831 34.402 831 46C831 57.598 840.402 67 852 67C863.598 67 873 57.598 873 46Z" fill="white"/>
<path d="M870.5 46C870.5 35.7827 862.217 27.5 852 27.5C841.783 27.5 833.5 35.7827 833.5 46C833.5 56.2173 841.783 64.5 852 64.5C862.217 64.5 870.5 56.2173 870.5 46Z" stroke="#464646" stroke-width="5"/>
</g>
<path d="M852 28C855.56 28 859.04 29.0557 862 31.0335C864.96 33.0114 867.267 35.8226 868.63 39.1117C869.992 42.4008 870.349 46.02 869.654 49.5116C868.96 53.0033 867.245 56.2106 864.728 58.7279C862.211 61.2453 859.003 62.9596 855.512 63.6541C852.02 64.3487 848.401 63.9922 845.112 62.6298C841.823 61.2675 839.011 58.9603 837.034 56.0003C835.056 53.0402 834 49.5601 834 46C834 41.2261 835.896 36.6477 839.272 33.2721C842.648 29.8964 847.226 28 852 28Z" fill="#007CDA"/>
<path d="M842.34 47.6741L842.19 48.6041C842.18 48.6741 842.16 48.6841 842.1 48.6841H838.12C838.05 48.6841 838.03 48.6541 838.03 48.6041V42.1941C838.03 42.1441 838.05 42.1141 838.11 42.1141H841.97C842.03 42.1141 842.05 42.1241 842.06 42.1841L842.17 43.1141C842.18 43.1641 842.16 43.2041 842.1 43.2041H839.24V44.7941H841.84C841.89 44.7941 841.91 44.8041 841.91 44.8641V45.8141C841.91 45.8641 841.88 45.8741 841.84 45.8741H839.24V47.5941H842.27C842.33 47.5941 842.35 47.6241 842.34 47.6741ZM843.603 42.1741C843.613 42.1141 843.633 42.1141 843.683 42.1141H845.283C845.343 42.1141 845.363 42.1341 845.383 42.1841C845.683 43.1941 846.553 46.1641 846.753 47.0941H846.763C846.973 46.2441 847.963 43.2141 848.273 42.1841C848.293 42.1441 848.303 42.1141 848.363 42.1141H849.923C849.973 42.1141 849.993 42.1241 850.003 42.1741L850.273 48.6041C850.283 48.6641 850.253 48.6841 850.203 48.6841H849.093C849.043 48.6841 849.013 48.6741 849.013 48.6141C848.963 46.4841 848.943 43.6041 848.953 42.9741H848.943C848.713 43.9341 847.683 47.2741 847.283 48.6041C847.273 48.6741 847.233 48.6841 847.193 48.6841H846.193C846.123 48.6841 846.103 48.6741 846.093 48.6141C845.663 47.0941 844.863 44.1841 844.583 42.9641H844.563C844.553 43.9741 844.473 46.5141 844.373 48.6141C844.373 48.6741 844.353 48.6841 844.293 48.6841H843.293C843.233 48.6841 843.213 48.6741 843.223 48.6041L843.603 42.1741ZM854.975 46.9541H852.585L852.035 48.6041C852.015 48.6641 851.985 48.6841 851.925 48.6841H850.925C850.865 48.6841 850.845 48.6541 850.855 48.5841L852.915 42.7241C852.955 42.6241 852.985 42.5241 853.005 42.1841C853.005 42.1441 853.025 42.1141 853.065 42.1141H854.455C854.505 42.1141 854.515 42.1241 854.525 42.1741L856.835 48.5941C856.845 48.6541 856.835 48.6841 856.775 48.6841H855.655C855.605 48.6841 855.575 48.6641 855.555 48.6241L854.975 46.9541ZM852.905 45.8641H854.655C854.445 45.2041 853.975 43.8141 853.775 43.1141H853.765C853.605 43.7841 853.205 44.9541 852.905 45.8641ZM858.83 42.1941V48.5941C858.83 48.6641 858.81 48.6841 858.75 48.6841H857.7C857.64 48.6841 857.62 48.6541 857.62 48.5941V42.1941C857.62 42.1241 857.65 42.1141 857.7 42.1141H858.75C858.81 42.1141 858.83 42.1341 858.83 42.1941ZM864.275 48.6841H860.415C860.335 48.6841 860.315 48.6541 860.315 48.5841V42.2041C860.315 42.1541 860.335 42.1141 860.395 42.1141H861.465C861.505 42.1141 861.525 42.1441 861.525 42.1841V47.5941H864.465C864.525 47.5941 864.545 47.6241 864.535 47.6641L864.365 48.6041C864.355 48.6741 864.325 48.6841 864.275 48.6841Z" fill="white"/>
<g filter="url(#filter3_d_96_120)">
<path d="M720 355C720 348.373 714.627 343 708 343C701.373 343 696 348.373 696 355C696 361.627 701.373 367 708 367C714.627 367 720 361.627 720 355Z" fill="white"/>
<path d="M719 355C719 348.925 714.075 344 708 344C701.925 344 697 348.925 697 355C697 361.075 701.925 366 708 366C714.075 366 719 361.075 719 355Z" stroke="#464646" stroke-width="2"/>
</g>
<path d="M726.888 361.916V354.224C726.888 354.164 726.912 354.128 726.972 354.128C727.428 354.116 728.316 354.092 729.192 354.092C731.52 354.092 732.384 355.388 732.384 356.708C732.384 358.616 730.908 359.444 729.096 359.444C728.712 359.444 728.616 359.444 728.34 359.444V361.904C728.34 361.964 728.316 362 728.244 362H726.984C726.924 362 726.888 361.976 726.888 361.916ZM728.34 355.376V358.16C728.544 358.172 728.7 358.172 729.096 358.172C730.104 358.172 730.956 357.836 730.956 356.744C730.956 355.868 730.332 355.352 729.228 355.352C728.808 355.352 728.472 355.364 728.34 355.376ZM737.011 359.372H734.575C734.611 360.212 735.163 360.884 736.387 360.884C736.927 360.884 737.419 360.788 737.875 360.596C737.911 360.572 737.947 360.584 737.947 360.644V361.64C737.947 361.712 737.923 361.748 737.875 361.772C737.419 361.988 736.891 362.12 736.075 362.12C733.891 362.12 733.111 360.584 733.111 359.108C733.111 357.44 734.119 355.964 735.931 355.964C737.707 355.964 738.391 357.356 738.391 358.496C738.391 358.832 738.379 359.108 738.343 359.24C738.331 359.288 738.307 359.312 738.247 359.324C738.079 359.36 737.599 359.372 737.011 359.372ZM734.575 358.34H736.363C736.819 358.34 736.975 358.34 737.023 358.328C737.023 358.292 737.023 358.244 737.023 358.232C737.023 357.884 736.783 357.116 735.871 357.116C735.043 357.116 734.671 357.752 734.575 358.34ZM739.518 356.084H740.646C740.718 356.084 740.754 356.108 740.778 356.18C740.838 356.336 740.886 356.636 740.898 356.9C741.306 356.396 741.99 355.964 742.818 355.964C742.89 355.964 742.914 355.976 742.914 356.048V357.32C742.914 357.38 742.89 357.404 742.806 357.404C741.954 357.38 741.246 357.68 740.97 358.04V361.904C740.97 361.976 740.934 362 740.862 362H739.614C739.53 362 739.506 361.964 739.506 361.904V357.764C739.506 357.248 739.494 356.552 739.446 356.156C739.446 356.096 739.458 356.084 739.518 356.084ZM747.259 357.476C746.887 357.272 746.287 357.128 745.759 357.128C745.123 357.128 744.907 357.392 744.907 357.644C744.907 357.908 745.087 358.088 745.855 358.388C747.223 358.892 747.691 359.432 747.691 360.284C747.691 361.412 746.803 362.12 745.327 362.12C744.619 362.12 743.995 361.988 743.635 361.784C743.575 361.748 743.551 361.724 743.551 361.652V360.512C743.551 360.452 743.599 360.428 743.647 360.452C744.163 360.788 744.823 360.932 745.363 360.932C745.987 360.932 746.287 360.716 746.287 360.404C746.287 360.104 746.059 359.912 745.315 359.612C744.007 359.132 743.539 358.592 743.539 357.728C743.539 356.816 744.283 355.964 745.783 355.964C746.479 355.964 747.007 356.06 747.295 356.204C747.355 356.24 747.367 356.288 747.367 356.348V357.404C747.367 357.464 747.331 357.5 747.259 357.476ZM748.764 361.892V356.168C748.764 356.108 748.8 356.084 748.86 356.084H750.132C750.204 356.084 750.228 356.096 750.228 356.168V361.904C750.228 361.976 750.204 362 750.12 362H748.884C748.8 362 748.764 361.964 748.764 361.892ZM749.496 355.28C749.004 355.28 748.68 354.944 748.68 354.452C748.68 353.96 749.028 353.624 749.508 353.624C750.024 353.624 750.324 353.972 750.324 354.452C750.324 354.944 750 355.28 749.496 355.28ZM755.169 357.476C754.797 357.272 754.197 357.128 753.669 357.128C753.033 357.128 752.817 357.392 752.817 357.644C752.817 357.908 752.997 358.088 753.765 358.388C755.133 358.892 755.601 359.432 755.601 360.284C755.601 361.412 754.713 362.12 753.237 362.12C752.529 362.12 751.905 361.988 751.545 361.784C751.485 361.748 751.461 361.724 751.461 361.652V360.512C751.461 360.452 751.509 360.428 751.557 360.452C752.073 360.788 752.733 360.932 753.273 360.932C753.897 360.932 754.197 360.716 754.197 360.404C754.197 360.104 753.969 359.912 753.225 359.612C751.917 359.132 751.449 358.592 751.449 357.728C751.449 356.816 752.193 355.964 753.693 355.964C754.389 355.964 754.917 356.06 755.205 356.204C755.265 356.24 755.277 356.288 755.277 356.348V357.404C755.277 357.464 755.241 357.5 755.169 357.476ZM759.575 360.944V361.808C759.575 361.88 759.563 361.928 759.503 361.952C759.179 362.072 758.879 362.12 758.483 362.12C757.499 362.12 756.911 361.64 756.911 360.452V357.296H756.155C756.095 357.284 756.071 357.26 756.071 357.188V356.18C756.071 356.108 756.095 356.084 756.167 356.084H756.923C756.935 355.664 756.983 354.908 757.043 354.608C757.055 354.548 757.079 354.512 757.139 354.5L758.351 354.332C758.411 354.32 758.435 354.332 758.435 354.392C758.399 354.788 758.375 355.496 758.375 356.084H759.539C759.599 356.084 759.623 356.108 759.623 356.168V357.212C759.623 357.272 759.599 357.296 759.539 357.296H758.363V360.14C758.363 360.668 758.531 360.92 759.047 360.92C759.203 360.92 759.335 360.908 759.503 360.872C759.539 360.86 759.575 360.872 759.575 360.944ZM764.093 359.372H761.657C761.693 360.212 762.245 360.884 763.469 360.884C764.009 360.884 764.501 360.788 764.957 360.596C764.993 360.572 765.029 360.584 765.029 360.644V361.64C765.029 361.712 765.005 361.748 764.957 361.772C764.501 361.988 763.973 362.12 763.157 362.12C760.973 362.12 760.193 360.584 760.193 359.108C760.193 357.44 761.201 355.964 763.013 355.964C764.789 355.964 765.473 357.356 765.473 358.496C765.473 358.832 765.461 359.108 765.425 359.24C765.413 359.288 765.389 359.312 765.329 359.324C765.161 359.36 764.681 359.372 764.093 359.372ZM761.657 358.34H763.445C763.901 358.34 764.057 358.34 764.105 358.328C764.105 358.292 764.105 358.244 764.105 358.232C764.105 357.884 763.865 357.116 762.953 357.116C762.125 357.116 761.753 357.752 761.657 358.34ZM766.588 361.904V357.464C766.588 357.056 766.564 356.408 766.54 356.168C766.54 356.108 766.552 356.084 766.624 356.084H767.716C767.8 356.084 767.836 356.108 767.86 356.168C767.896 356.276 767.92 356.432 767.944 356.624C768.46 356.192 769.036 355.964 769.684 355.964C770.584 355.964 771.688 356.42 771.688 358.34V361.892C771.688 361.976 771.652 362 771.592 362H770.344C770.272 362 770.236 361.964 770.236 361.892V358.472C770.236 357.68 769.9 357.224 769.204 357.224C768.724 357.224 768.328 357.404 768.04 357.716V361.904C768.04 361.964 768.004 362 767.944 362H766.684C766.612 362 766.588 361.964 766.588 361.904ZM775.993 360.944V361.808C775.993 361.88 775.981 361.928 775.921 361.952C775.597 362.072 775.297 362.12 774.901 362.12C773.917 362.12 773.329 361.64 773.329 360.452V357.296H772.573C772.513 357.284 772.489 357.26 772.489 357.188V356.18C772.489 356.108 772.513 356.084 772.585 356.084H773.341C773.353 355.664 773.401 354.908 773.461 354.608C773.473 354.548 773.497 354.512 773.557 354.5L774.769 354.332C774.829 354.32 774.853 354.332 774.853 354.392C774.817 354.788 774.793 355.496 774.793 356.084H775.957C776.017 356.084 776.041 356.108 776.041 356.168V357.212C776.041 357.272 776.017 357.296 775.957 357.296H774.781V360.14C774.781 360.668 774.949 360.92 775.465 360.92C775.621 360.92 775.753 360.908 775.921 360.872C775.957 360.86 775.993 360.872 775.993 360.944ZM781.309 354.212V361.892C781.309 361.976 781.285 362 781.213 362H779.953C779.881 362 779.857 361.964 779.857 361.892V354.212C779.857 354.128 779.893 354.116 779.953 354.116H781.213C781.285 354.116 781.309 354.14 781.309 354.212ZM783.091 361.892V354.224C783.091 354.164 783.103 354.14 783.175 354.128C783.523 354.116 784.339 354.092 785.443 354.092C788.263 354.092 789.679 355.688 789.679 357.92C789.679 360.848 787.447 362.024 785.419 362.024C784.663 362.024 783.559 362.024 783.175 362C783.127 362 783.091 361.964 783.091 361.892ZM784.543 355.376V360.752C784.783 360.764 785.047 360.764 785.359 360.764C787.051 360.764 788.191 359.78 788.191 357.956C788.191 356.216 787.051 355.352 785.431 355.352C785.095 355.352 784.831 355.364 784.543 355.376Z" fill="#464646"/>
<g filter="url(#filter4_d_96_120)">
<path d="M840 355C840 348.373 834.627 343 828 343C821.373 343 816 348.373 816 355C816 361.627 821.373 367 828 367C834.627 367 840 361.627 840 355Z" fill="white"/>
<path d="M839 355C839 348.925 834.075 344 828 344C821.925 344 817 348.925 817 355C817 361.075 821.925 366 828 366C834.075 366 839 361.075 839 355Z" stroke="#464646" stroke-width="2" stroke-dasharray="10 3"/>
</g>
<path d="M846.888 361.916V354.224C846.888 354.164 846.912 354.128 846.972 354.128C847.428 354.116 848.316 354.092 849.192 354.092C851.52 354.092 852.384 355.388 852.384 356.708C852.384 358.616 850.908 359.444 849.096 359.444C848.712 359.444 848.616 359.444 848.34 359.444V361.904C848.34 361.964 848.316 362 848.244 362H846.984C846.924 362 846.888 361.976 846.888 361.916ZM848.34 355.376V358.16C848.544 358.172 848.7 358.172 849.096 358.172C850.104 358.172 850.956 357.836 850.956 356.744C850.956 355.868 850.332 355.352 849.228 355.352C848.808 355.352 848.472 355.364 848.34 355.376ZM857.011 359.372H854.575C854.611 360.212 855.163 360.884 856.387 360.884C856.927 360.884 857.419 360.788 857.875 360.596C857.911 360.572 857.947 360.584 857.947 360.644V361.64C857.947 361.712 857.923 361.748 857.875 361.772C857.419 361.988 856.891 362.12 856.075 362.12C853.891 362.12 853.111 360.584 853.111 359.108C853.111 357.44 854.119 355.964 855.931 355.964C857.707 355.964 858.391 357.356 858.391 358.496C858.391 358.832 858.379 359.108 858.343 359.24C858.331 359.288 858.307 359.312 858.247 359.324C858.079 359.36 857.599 359.372 857.011 359.372ZM854.575 358.34H856.363C856.819 358.34 856.975 358.34 857.023 358.328C857.023 358.292 857.023 358.244 857.023 358.232C857.023 357.884 856.783 357.116 855.871 357.116C855.043 357.116 854.671 357.752 854.575 358.34ZM859.518 356.084H860.646C860.718 356.084 860.754 356.108 860.778 356.18C860.838 356.336 860.886 356.636 860.898 356.9C861.306 356.396 861.99 355.964 862.818 355.964C862.89 355.964 862.914 355.976 862.914 356.048V357.32C862.914 357.38 862.89 357.404 862.806 357.404C861.954 357.38 861.246 357.68 860.97 358.04V361.904C860.97 361.976 860.934 362 860.862 362H859.614C859.53 362 859.506 361.964 859.506 361.904V357.764C859.506 357.248 859.494 356.552 859.446 356.156C859.446 356.096 859.458 356.084 859.518 356.084ZM867.259 357.476C866.887 357.272 866.287 357.128 865.759 357.128C865.123 357.128 864.907 357.392 864.907 357.644C864.907 357.908 865.087 358.088 865.855 358.388C867.223 358.892 867.691 359.432 867.691 360.284C867.691 361.412 866.803 362.12 865.327 362.12C864.619 362.12 863.995 361.988 863.635 361.784C863.575 361.748 863.551 361.724 863.551 361.652V360.512C863.551 360.452 863.599 360.428 863.647 360.452C864.163 360.788 864.823 360.932 865.363 360.932C865.987 360.932 866.287 360.716 866.287 360.404C866.287 360.104 866.059 359.912 865.315 359.612C864.007 359.132 863.539 358.592 863.539 357.728C863.539 356.816 864.283 355.964 865.783 355.964C866.479 355.964 867.007 356.06 867.295 356.204C867.355 356.24 867.367 356.288 867.367 356.348V357.404C867.367 357.464 867.331 357.5 867.259 357.476ZM871.378 355.964C873.226 355.964 874.234 357.368 874.234 359.012C874.234 360.872 873.046 362.12 871.354 362.12C869.35 362.12 868.462 360.572 868.462 359.048C868.462 357.344 869.578 355.964 871.378 355.964ZM871.306 357.176C870.502 357.176 869.926 357.884 869.926 359.024C869.926 360.128 870.466 360.896 871.378 360.896C872.122 360.896 872.758 360.284 872.758 359.048C872.758 358.052 872.326 357.176 871.306 357.176ZM875.361 361.904V357.464C875.361 357.056 875.337 356.408 875.313 356.168C875.313 356.108 875.325 356.084 875.397 356.084H876.489C876.573 356.084 876.609 356.108 876.633 356.168C876.669 356.276 876.693 356.432 876.717 356.624C877.233 356.192 877.809 355.964 878.457 355.964C879.357 355.964 880.461 356.42 880.461 358.34V361.892C880.461 361.976 880.425 362 880.365 362H879.117C879.045 362 879.009 361.964 879.009 361.892V358.472C879.009 357.68 878.673 357.224 877.977 357.224C877.497 357.224 877.101 357.404 876.813 357.716V361.904C876.813 361.964 876.777 362 876.717 362H875.457C875.385 362 875.361 361.964 875.361 361.904ZM886.297 354.212V361.892C886.297 361.976 886.273 362 886.201 362H884.941C884.869 362 884.845 361.964 884.845 361.892V354.212C884.845 354.128 884.881 354.116 884.941 354.116H886.201C886.273 354.116 886.297 354.14 886.297 354.212ZM888.079 361.892V354.224C888.079 354.164 888.091 354.14 888.163 354.128C888.511 354.116 889.327 354.092 890.431 354.092C893.251 354.092 894.667 355.688 894.667 357.92C894.667 360.848 892.435 362.024 890.407 362.024C889.651 362.024 888.547 362.024 888.163 362C888.115 362 888.079 361.964 888.079 361.892ZM889.531 355.376V360.752C889.771 360.764 890.035 360.764 890.347 360.764C892.039 360.764 893.179 359.78 893.179 357.956C893.179 356.216 892.039 355.352 890.419 355.352C890.083 355.352 889.819 355.364 889.531 355.376Z" fill="#464646"/>
<g filter="url(#filter5_d_96_120)">
<path d="M950 355C950 348.373 944.627 343 938 343C931.373 343 926 348.373 926 355C926 361.627 931.373 367 938 367C944.627 367 950 361.627 950 355Z" fill="white"/>
<path d="M947.5 355C947.5 349.753 943.247 345.5 938 345.5C932.753 345.5 928.5 349.753 928.5 355C928.5 360.247 932.753 364.5 938 364.5C943.247 364.5 947.5 360.247 947.5 355Z" stroke="#464646" stroke-width="5"/>
</g>
<path d="M958.22 362H956.984C956.912 362 956.888 361.976 956.888 361.904V354.236C956.888 354.176 956.9 354.128 956.972 354.128C957.92 354.104 958.424 354.092 959.348 354.092C961.268 354.092 962.396 354.92 962.396 356.456C962.396 357.5 961.724 358.244 960.848 358.568C961.244 359.12 962.684 361.268 963.032 361.868C963.068 361.94 963.08 362 963.008 362H961.508C961.412 362 961.376 361.976 961.34 361.94C960.992 361.4 960.152 360.02 959.624 359.18C959.54 359.036 959.48 358.976 959.348 358.976H958.316V361.904C958.316 361.976 958.28 362 958.22 362ZM958.316 357.74H959.36C960.332 357.74 960.956 357.308 960.956 356.54C960.956 355.748 960.32 355.352 959.3 355.352C958.892 355.352 958.508 355.364 958.316 355.376V357.74ZM967.186 359.372H964.75C964.786 360.212 965.338 360.884 966.562 360.884C967.102 360.884 967.594 360.788 968.05 360.596C968.086 360.572 968.122 360.584 968.122 360.644V361.64C968.122 361.712 968.098 361.748 968.05 361.772C967.594 361.988 967.066 362.12 966.25 362.12C964.066 362.12 963.286 360.584 963.286 359.108C963.286 357.44 964.294 355.964 966.106 355.964C967.882 355.964 968.566 357.356 968.566 358.496C968.566 358.832 968.554 359.108 968.518 359.24C968.506 359.288 968.482 359.312 968.422 359.324C968.254 359.36 967.774 359.372 967.186 359.372ZM964.75 358.34H966.538C966.994 358.34 967.15 358.34 967.198 358.328C967.198 358.292 967.198 358.244 967.198 358.232C967.198 357.884 966.958 357.116 966.046 357.116C965.218 357.116 964.846 357.752 964.75 358.34ZM973.134 357.476C972.762 357.272 972.162 357.128 971.634 357.128C970.998 357.128 970.782 357.392 970.782 357.644C970.782 357.908 970.962 358.088 971.73 358.388C973.098 358.892 973.566 359.432 973.566 360.284C973.566 361.412 972.678 362.12 971.202 362.12C970.494 362.12 969.87 361.988 969.51 361.784C969.45 361.748 969.426 361.724 969.426 361.652V360.512C969.426 360.452 969.474 360.428 969.522 360.452C970.038 360.788 970.698 360.932 971.238 360.932C971.862 360.932 972.162 360.716 972.162 360.404C972.162 360.104 971.934 359.912 971.19 359.612C969.882 359.132 969.414 358.592 969.414 357.728C969.414 356.816 970.158 355.964 971.658 355.964C972.354 355.964 972.882 356.06 973.17 356.204C973.23 356.24 973.242 356.288 973.242 356.348V357.404C973.242 357.464 973.206 357.5 973.134 357.476ZM979.62 356.168V360.68C979.62 361.304 979.668 361.664 979.692 361.916C979.704 361.976 979.668 362 979.596 362H978.492C978.408 362 978.384 361.976 978.372 361.928C978.336 361.808 978.3 361.628 978.288 361.508C977.772 361.988 977.16 362.12 976.62 362.12C975.48 362.12 974.604 361.508 974.604 359.828V356.168C974.604 356.096 974.628 356.084 974.7 356.084H975.96C976.032 356.084 976.044 356.108 976.044 356.168V359.66C976.044 360.404 976.368 360.86 977.088 360.86C977.544 360.86 977.88 360.704 978.18 360.428V356.168C978.18 356.108 978.204 356.084 978.276 356.084H979.536C979.608 356.084 979.62 356.108 979.62 356.168ZM981.143 360.572V353.552C981.143 353.492 981.179 353.456 981.251 353.456H982.487C982.559 353.456 982.595 353.492 982.595 353.552V360.44C982.595 360.812 982.727 360.932 983.015 360.932C983.111 360.932 983.135 360.932 983.243 360.92C983.279 360.908 983.291 360.932 983.291 360.992V361.892C983.291 361.976 983.279 361.988 983.219 362.024C983.087 362.084 982.871 362.12 982.535 362.12C981.767 362.12 981.143 361.832 981.143 360.572ZM987.232 360.944V361.808C987.232 361.88 987.22 361.928 987.16 361.952C986.836 362.072 986.536 362.12 986.14 362.12C985.156 362.12 984.568 361.64 984.568 360.452V357.296H983.812C983.752 357.284 983.728 357.26 983.728 357.188V356.18C983.728 356.108 983.752 356.084 983.824 356.084H984.58C984.592 355.664 984.64 354.908 984.7 354.608C984.712 354.548 984.736 354.512 984.796 354.5L986.008 354.332C986.068 354.32 986.092 354.332 986.092 354.392C986.056 354.788 986.032 355.496 986.032 356.084H987.196C987.256 356.084 987.28 356.108 987.28 356.168V357.212C987.28 357.272 987.256 357.296 987.196 357.296H986.02V360.14C986.02 360.668 986.188 360.92 986.704 360.92C986.86 360.92 986.992 360.908 987.16 360.872C987.196 360.86 987.232 360.872 987.232 360.944ZM988.291 361.892V356.168C988.291 356.108 988.327 356.084 988.387 356.084H989.659C989.731 356.084 989.755 356.096 989.755 356.168V361.904C989.755 361.976 989.731 362 989.647 362H988.411C988.327 362 988.291 361.964 988.291 361.892ZM989.023 355.28C988.531 355.28 988.207 354.944 988.207 354.452C988.207 353.96 988.555 353.624 989.035 353.624C989.551 353.624 989.851 353.972 989.851 354.452C989.851 354.944 989.527 355.28 989.023 355.28ZM991.233 361.904V357.464C991.233 357.056 991.209 356.408 991.185 356.168C991.185 356.108 991.197 356.084 991.269 356.084H992.361C992.445 356.084 992.481 356.108 992.505 356.168C992.541 356.276 992.565 356.432 992.589 356.624C993.105 356.192 993.681 355.964 994.329 355.964C995.229 355.964 996.333 356.42 996.333 358.34V361.892C996.333 361.976 996.297 362 996.237 362H994.989C994.917 362 994.881 361.964 994.881 361.892V358.472C994.881 357.68 994.545 357.224 993.849 357.224C993.369 357.224 992.973 357.404 992.685 357.716V361.904C992.685 361.964 992.649 362 992.589 362H991.329C991.257 362 991.233 361.964 991.233 361.904ZM1000.38 361.964L999.071 361.904C998.723 362.144 998.495 362.528 998.495 362.708C998.495 363.128 999.071 363.596 1000.07 363.596C1001.21 363.596 1001.71 363.128 1001.71 362.672C1001.71 362.144 1001.11 362 1000.38 361.964ZM999.803 357.008C999.203 357.008 998.831 357.38 998.831 357.992C998.831 358.544 999.167 358.952 999.803 358.952C1000.4 358.952 1000.76 358.604 1000.76 358.016C1000.76 357.452 1000.47 357.008 999.803 357.008ZM999.467 360.692L1000.69 360.74C1002.33 360.824 1003.04 361.472 1003.04 362.456C1003.04 363.68 1001.84 364.664 999.971 364.664C998.039 364.664 997.163 363.692 997.163 362.816C997.163 362.432 997.487 361.94 998.279 361.256C998.099 360.992 998.015 360.68 998.027 360.356C998.027 360.08 998.099 359.816 998.243 359.576C997.751 359.264 997.415 358.748 997.415 358.016C997.415 356.864 998.291 355.964 999.803 355.964C1000.22 355.964 1000.61 356 1000.86 356.048C1000.97 356.072 1001.06 356.084 1001.13 356.084H1002.8C1002.86 356.084 1002.87 356.108 1002.87 356.156V357.14C1002.87 357.188 1002.86 357.212 1002.8 357.212C1002.57 357.212 1002.14 357.188 1001.88 357.152C1002.01 357.344 1002.14 357.632 1002.14 358.064C1002.14 359.348 1001.12 359.996 999.827 359.996C999.671 359.996 999.503 359.984 999.347 359.96C999.311 360.08 999.287 360.2 999.311 360.32C999.323 360.452 999.371 360.572 999.467 360.692ZM1008.13 354.212V361.892C1008.13 361.976 1008.11 362 1008.04 362H1006.78C1006.7 362 1006.68 361.964 1006.68 361.892V354.212C1006.68 354.128 1006.72 354.116 1006.78 354.116H1008.04C1008.11 354.116 1008.13 354.14 1008.13 354.212ZM1009.92 361.892V354.224C1009.92 354.164 1009.93 354.14 1010 354.128C1010.35 354.116 1011.16 354.092 1012.27 354.092C1015.09 354.092 1016.5 355.688 1016.5 357.92C1016.5 360.848 1014.27 362.024 1012.24 362.024C1011.49 362.024 1010.38 362.024 1010 362C1009.95 362 1009.92 361.964 1009.92 361.892ZM1011.37 355.376V360.752C1011.61 360.764 1011.87 360.764 1012.18 360.764C1013.88 360.764 1015.02 359.78 1015.02 357.956C1015.02 356.216 1013.88 355.352 1012.26 355.352C1011.92 355.352 1011.66 355.364 1011.37 355.376Z" fill="#464646"/>
<path d="M399.38 280.8L397.14 280.74C397 280.72 396.98 280.68 396.98 280.56V278.78C396.98 278.68 397.04 278.66 397.12 278.66H401.64C401.78 278.66 401.8 278.7 401.8 278.82V285.34C401.82 285.44 401.78 285.5 401.68 285.52C400.28 286.06 398.9 286.2 397.74 286.2C393.06 286.2 390.72 283.22 390.72 279.52C390.72 275.36 393.68 272.66 398.1 272.66C399.44 272.66 400.62 272.8 401.34 273.14C401.42 273.18 401.46 273.26 401.46 273.38V275.3C401.46 275.42 401.38 275.44 401.3 275.4C400.4 274.94 399.36 274.82 398.18 274.82C394.96 274.78 393.22 276.54 393.22 279.44C393.22 282.04 394.82 284.08 397.86 284.08C398.54 284.08 398.98 284.02 399.38 283.9V280.8ZM404.268 276.14H406.148C406.268 276.14 406.328 276.18 406.368 276.3C406.468 276.56 406.548 277.06 406.568 277.5C407.248 276.66 408.388 275.94 409.768 275.94C409.888 275.94 409.928 275.96 409.928 276.08V278.2C409.928 278.3 409.888 278.34 409.748 278.34C408.328 278.3 407.148 278.8 406.688 279.4V285.84C406.688 285.96 406.628 286 406.508 286H404.428C404.288 286 404.248 285.94 404.248 285.84V278.94C404.248 278.08 404.228 276.92 404.148 276.26C404.148 276.16 404.168 276.14 404.268 276.14ZM416.183 284.06V281.6C415.883 281.56 415.543 281.54 415.083 281.54C413.503 281.54 412.803 282.06 412.803 282.92C412.803 283.66 413.323 284.3 414.763 284.3C415.283 284.3 415.743 284.24 416.183 284.06ZM418.523 279.9V283.96C418.523 284.4 418.523 284.8 418.563 285.22C418.563 285.26 418.563 285.28 418.523 285.3C416.883 286 415.723 286.2 414.363 286.2C412.183 286.2 410.443 285.18 410.443 282.92C410.443 280.8 412.343 279.74 414.943 279.74C415.543 279.74 416.003 279.76 416.183 279.78V279.54C416.183 279.08 415.923 278.04 414.163 278.04C413.163 278.04 412.283 278.24 411.543 278.6C411.483 278.62 411.383 278.6 411.383 278.48V276.74C411.383 276.64 411.403 276.6 411.503 276.54C412.363 276.14 413.463 275.94 414.543 275.94C417.323 275.94 418.523 277.68 418.523 279.9ZM425.105 275.94C428.405 275.94 430.045 278.18 430.045 280.74C430.045 284.4 427.085 286.2 424.065 286.2C423.845 286.2 423.645 286.18 423.465 286.16V289.76C423.465 289.84 423.445 289.9 423.325 289.92C422.625 290 421.285 290.12 421.185 290.12C421.065 290.12 421.045 290.1 421.045 290V278.02C421.045 277.78 421.025 277.12 420.985 276.84C420.985 276.82 420.985 276.76 421.065 276.74C421.965 276.44 423.365 275.94 425.105 275.94ZM424.885 278C424.345 278 423.905 278.06 423.465 278.2V284.1C423.685 284.16 424.005 284.16 424.265 284.16C425.825 284.16 427.565 283.24 427.565 280.9C427.565 279.08 426.585 278 424.885 278ZM434.364 278.74V285.86C434.364 285.96 434.344 286 434.224 286H432.104C431.984 286 431.944 285.94 431.944 285.84V271.9C431.944 271.82 431.984 271.76 432.104 271.76H434.224C434.344 271.76 434.364 271.8 434.364 271.9V276.86C435.124 276.3 435.964 275.94 437.104 275.94C438.624 275.94 440.444 276.7 440.444 279.9V285.82C440.444 285.96 440.384 286 440.284 286H438.204C438.084 286 438.024 285.94 438.024 285.82V280.14C438.024 278.8 437.444 278.04 436.284 278.04C435.544 278.04 434.884 278.28 434.364 278.74ZM447.495 281.92H442.775C442.675 281.92 442.635 281.88 442.635 281.78V279.96C442.635 279.88 442.675 279.84 442.775 279.84H447.475C447.555 279.84 447.595 279.84 447.595 279.96V281.8C447.595 281.9 447.555 281.92 447.495 281.92ZM449.798 271.76H451.898C452.038 271.76 452.078 271.78 452.078 271.92L452.098 276.22C452.638 276.04 453.258 275.94 453.918 275.94C456.798 275.94 458.638 277.98 458.638 280.66C458.638 284.36 455.758 286.2 452.798 286.2C451.758 286.2 450.758 286.06 449.798 285.76C449.718 285.74 449.658 285.64 449.658 285.58V271.9C449.658 271.8 449.718 271.76 449.798 271.76ZM456.178 280.9C456.178 279 455.078 278 453.498 278C452.798 278 452.418 278.1 452.098 278.22V284.06C452.378 284.14 452.678 284.16 453.018 284.16C454.658 284.16 456.178 283.12 456.178 280.9ZM465.715 284.06V281.6C465.415 281.56 465.075 281.54 464.615 281.54C463.035 281.54 462.335 282.06 462.335 282.92C462.335 283.66 462.855 284.3 464.295 284.3C464.815 284.3 465.275 284.24 465.715 284.06ZM468.055 279.9V283.96C468.055 284.4 468.055 284.8 468.095 285.22C468.095 285.26 468.095 285.28 468.055 285.3C466.415 286 465.255 286.2 463.895 286.2C461.715 286.2 459.975 285.18 459.975 282.92C459.975 280.8 461.875 279.74 464.475 279.74C465.075 279.74 465.535 279.76 465.715 279.78V279.54C465.715 279.08 465.455 278.04 463.695 278.04C462.695 278.04 461.815 278.24 461.075 278.6C461.015 278.62 460.915 278.6 460.915 278.48V276.74C460.915 276.64 460.935 276.6 461.035 276.54C461.895 276.14 462.995 275.94 464.075 275.94C466.855 275.94 468.055 277.68 468.055 279.9ZM476.155 278.46C475.535 278.12 474.535 277.88 473.655 277.88C472.595 277.88 472.235 278.32 472.235 278.74C472.235 279.18 472.535 279.48 473.815 279.98C476.095 280.82 476.875 281.72 476.875 283.14C476.875 285.02 475.395 286.2 472.935 286.2C471.755 286.2 470.715 285.98 470.115 285.64C470.015 285.58 469.975 285.54 469.975 285.42V283.52C469.975 283.42 470.055 283.38 470.135 283.42C470.995 283.98 472.095 284.22 472.995 284.22C474.035 284.22 474.535 283.86 474.535 283.34C474.535 282.84 474.155 282.52 472.915 282.02C470.735 281.22 469.955 280.32 469.955 278.88C469.955 277.36 471.195 275.94 473.695 275.94C474.855 275.94 475.735 276.1 476.215 276.34C476.315 276.4 476.335 276.48 476.335 276.58V278.34C476.335 278.44 476.275 278.5 476.155 278.46ZM484.66 281.62H480.6C480.66 283.02 481.58 284.14 483.62 284.14C484.52 284.14 485.34 283.98 486.1 283.66C486.16 283.62 486.22 283.64 486.22 283.74V285.4C486.22 285.52 486.18 285.58 486.1 285.62C485.34 285.98 484.46 286.2 483.1 286.2C479.46 286.2 478.16 283.64 478.16 281.18C478.16 278.4 479.84 275.94 482.86 275.94C485.82 275.94 486.96 278.26 486.96 280.16C486.96 280.72 486.94 281.18 486.88 281.4C486.86 281.48 486.82 281.52 486.72 281.54C486.44 281.6 485.64 281.62 484.66 281.62ZM480.6 279.9H483.58C484.34 279.9 484.6 279.9 484.68 279.88C484.68 279.82 484.68 279.74 484.68 279.72C484.68 279.14 484.28 277.86 482.76 277.86C481.38 277.86 480.76 278.92 480.6 279.9ZM493.455 286.2C490.555 286.2 488.335 284.52 488.335 281.16C488.335 278.26 490.495 275.94 494.015 275.94C494.295 275.94 494.535 275.96 494.875 276V271.9C494.875 271.8 494.915 271.76 494.995 271.76H497.175C497.275 271.76 497.275 271.8 497.275 271.88V283.96C497.275 284.36 497.315 284.88 497.355 285.24C497.355 285.34 497.335 285.38 497.235 285.42C495.935 285.98 494.655 286.2 493.455 286.2ZM494.875 283.96V278.1C494.615 278 494.295 277.96 493.935 277.96C492.155 277.96 490.815 279.1 490.815 281.04C490.815 283.22 492.115 284.12 493.715 284.12C494.115 284.12 494.515 284.08 494.875 283.96ZM507.485 286.2C506.025 286.2 504.805 285.92 503.985 285.48C503.885 285.42 503.845 285.34 503.845 285.18V283.1C503.845 283.02 503.925 282.98 504.005 283.02C505.085 283.72 506.405 284.06 507.565 284.06C509.205 284.06 509.905 283.42 509.905 282.56C509.905 281.82 509.425 281.26 507.905 280.62L506.945 280.22C504.485 279.18 503.845 277.94 503.845 276.44C503.845 274.3 505.465 272.66 508.485 272.66C509.745 272.66 510.885 272.84 511.545 273.18C511.645 273.24 511.665 273.3 511.665 273.44V275.38C511.665 275.46 511.605 275.54 511.485 275.46C510.725 275.02 509.625 274.8 508.465 274.8C506.745 274.8 506.205 275.52 506.205 276.22C506.205 276.94 506.665 277.44 508.245 278.1L509.005 278.42C511.605 279.5 512.345 280.76 512.345 282.34C512.345 284.68 510.505 286.2 507.485 286.2ZM518.967 284.24V285.68C518.967 285.8 518.947 285.88 518.847 285.92C518.307 286.12 517.807 286.2 517.147 286.2C515.507 286.2 514.527 285.4 514.527 283.42V278.16H513.267C513.167 278.14 513.127 278.1 513.127 277.98V276.3C513.127 276.18 513.167 276.14 513.287 276.14H514.547C514.567 275.44 514.647 274.18 514.747 273.68C514.767 273.58 514.807 273.52 514.907 273.5L516.927 273.22C517.027 273.2 517.067 273.22 517.067 273.32C517.007 273.98 516.967 275.16 516.967 276.14H518.907C519.007 276.14 519.047 276.18 519.047 276.28V278.02C519.047 278.12 519.007 278.16 518.907 278.16H516.947V282.9C516.947 283.78 517.227 284.2 518.087 284.2C518.347 284.2 518.567 284.18 518.847 284.12C518.907 284.1 518.967 284.12 518.967 284.24ZM520.733 285.82V276.28C520.733 276.18 520.793 276.14 520.893 276.14H523.013C523.133 276.14 523.173 276.16 523.173 276.28V285.84C523.173 285.96 523.133 286 522.993 286H520.933C520.793 286 520.733 285.94 520.733 285.82ZM521.953 274.8C521.133 274.8 520.593 274.24 520.593 273.42C520.593 272.6 521.173 272.04 521.973 272.04C522.833 272.04 523.333 272.62 523.333 273.42C523.333 274.24 522.793 274.8 521.953 274.8ZM530.549 284.24V285.68C530.549 285.8 530.529 285.88 530.429 285.92C529.889 286.12 529.389 286.2 528.729 286.2C527.089 286.2 526.109 285.4 526.109 283.42V278.16H524.849C524.749 278.14 524.709 278.1 524.709 277.98V276.3C524.709 276.18 524.749 276.14 524.869 276.14H526.129C526.149 275.44 526.229 274.18 526.329 273.68C526.349 273.58 526.389 273.52 526.489 273.5L528.509 273.22C528.609 273.2 528.649 273.22 528.649 273.32C528.589 273.98 528.549 275.16 528.549 276.14H530.489C530.589 276.14 530.629 276.18 530.629 276.28V278.02C530.629 278.12 530.589 278.16 530.489 278.16H528.529V282.9C528.529 283.78 528.809 284.2 529.669 284.2C529.929 284.2 530.149 284.18 530.429 284.12C530.489 284.1 530.549 284.12 530.549 284.24ZM539.058 283.94V285.72C539.058 285.82 539.038 285.86 538.958 285.88C538.318 286.14 537.518 286.2 536.738 286.2C533.498 286.2 531.578 283.98 531.578 281.1C531.578 278.14 533.778 275.94 537.078 275.94C538.078 275.94 538.618 276.04 538.958 276.16C539.038 276.2 539.058 276.26 539.058 276.38L539.038 278.16C539.038 278.3 538.958 278.3 538.878 278.28C538.458 278.12 537.938 278.02 537.158 278.02C535.338 278.02 534.058 279.1 534.058 281.02C534.058 283.2 535.638 284.04 537.178 284.04C537.898 284.04 538.518 283.98 538.918 283.84C539.018 283.8 539.058 283.86 539.058 283.94ZM543.328 278.74V285.86C543.328 285.96 543.308 286 543.188 286H541.068C540.948 286 540.908 285.94 540.908 285.84V271.9C540.908 271.82 540.948 271.76 541.068 271.76H543.188C543.308 271.76 543.328 271.8 543.328 271.9V276.86C544.088 276.3 544.928 275.94 546.068 275.94C547.588 275.94 549.408 276.7 549.408 279.9V285.82C549.408 285.96 549.348 286 549.248 286H547.168C547.048 286 546.988 285.94 546.988 285.82V280.14C546.988 278.8 546.408 278.04 545.248 278.04C544.508 278.04 543.848 278.28 543.328 278.74ZM551.944 285.82V276.28C551.944 276.18 552.004 276.14 552.104 276.14H554.224C554.344 276.14 554.384 276.16 554.384 276.28V285.84C554.384 285.96 554.344 286 554.204 286H552.144C552.004 286 551.944 285.94 551.944 285.82ZM553.164 274.8C552.344 274.8 551.804 274.24 551.804 273.42C551.804 272.6 552.384 272.04 553.184 272.04C554.044 272.04 554.544 272.62 554.544 273.42C554.544 274.24 554.004 274.8 553.164 274.8ZM556.846 285.84V278.44C556.846 277.76 556.806 276.68 556.766 276.28C556.766 276.18 556.786 276.14 556.906 276.14H558.726C558.866 276.14 558.926 276.18 558.966 276.28C559.026 276.46 559.066 276.72 559.106 277.04C559.966 276.32 560.926 275.94 562.006 275.94C563.506 275.94 565.346 276.7 565.346 279.9V285.82C565.346 285.96 565.286 286 565.186 286H563.106C562.986 286 562.926 285.94 562.926 285.82V280.12C562.926 278.8 562.366 278.04 561.206 278.04C560.406 278.04 559.746 278.34 559.266 278.86V285.84C559.266 285.94 559.206 286 559.106 286H557.006C556.886 286 556.846 285.94 556.846 285.84ZM572.09 285.94L569.91 285.84C569.33 286.24 568.95 286.88 568.95 287.18C568.95 287.88 569.91 288.66 571.57 288.66C573.47 288.66 574.31 287.88 574.31 287.12C574.31 286.24 573.31 286 572.09 285.94ZM571.13 277.68C570.13 277.68 569.51 278.3 569.51 279.32C569.51 280.24 570.07 280.92 571.13 280.92C572.13 280.92 572.73 280.34 572.73 279.36C572.73 278.42 572.25 277.68 571.13 277.68ZM570.57 283.82L572.61 283.9C575.35 284.04 576.53 285.12 576.53 286.76C576.53 288.8 574.53 290.44 571.41 290.44C568.19 290.44 566.73 288.82 566.73 287.36C566.73 286.72 567.27 285.9 568.59 284.76C568.29 284.32 568.15 283.8 568.17 283.26C568.17 282.8 568.29 282.36 568.53 281.96C567.71 281.44 567.15 280.58 567.15 279.36C567.15 277.44 568.61 275.94 571.13 275.94C571.83 275.94 572.47 276 572.89 276.08C573.07 276.12 573.23 276.14 573.35 276.14H576.13C576.23 276.14 576.25 276.18 576.25 276.26V277.9C576.25 277.98 576.23 278.02 576.13 278.02C575.75 278.02 575.03 277.98 574.59 277.92C574.81 278.24 575.03 278.72 575.03 279.44C575.03 281.58 573.33 282.66 571.17 282.66C570.91 282.66 570.63 282.64 570.37 282.6C570.31 282.8 570.27 283 570.31 283.2C570.33 283.42 570.41 283.62 570.57 283.82Z" fill="#464646"/>
<mask id="mask3_96_120" style="mask-type:luminance" maskUnits="userSpaceOnUse" x="380" y="78" width="177" height="172">
<path d="M557 78H380V250H557V78Z" fill="white"/>
</mask>
<g mask="url(#mask3_96_120)">
<path d="M464.644 201.2H454.492C453.744 197.485 452.284 193.949 450.192 190.789L457.421 183.56C457.965 183.016 458.27 182.279 458.27 181.51C458.27 180.741 457.965 180.004 457.421 179.46L453.021 175.06C452.477 174.517 451.74 174.211 450.971 174.211C450.202 174.211 449.465 174.517 448.921 175.06L441.706 182.3C438.547 180.209 435.014 178.749 431.3 178V167.856C431.3 167.087 430.995 166.349 430.451 165.805C429.907 165.262 429.169 164.956 428.4 164.956H422.6C421.831 164.956 421.093 165.262 420.549 165.805C420.006 166.349 419.7 167.087 419.7 167.856V178.009C415.986 178.758 412.453 180.218 409.294 182.309L402.065 175.066C401.521 174.523 400.784 174.217 400.015 174.217C399.246 174.217 398.509 174.523 397.965 175.066L393.565 179.466C393.022 180.01 392.716 180.747 392.716 181.516C392.716 182.285 393.022 183.022 393.565 183.566L400.794 190.8C398.705 193.957 397.247 197.489 396.5 201.2H386.356C385.587 201.2 384.849 201.506 384.305 202.049C383.762 202.593 383.456 203.331 383.456 204.1V209.9C383.456 210.281 383.531 210.658 383.677 211.01C383.823 211.362 384.036 211.681 384.305 211.951C384.575 212.22 384.894 212.434 385.246 212.579C385.598 212.725 385.975 212.8 386.356 212.8H396.508C397.256 216.516 398.716 220.051 400.808 223.211L393.565 230.435C393.022 230.979 392.716 231.716 392.716 232.485C392.716 233.254 393.022 233.991 393.565 234.535L397.965 238.935C398.509 239.479 399.246 239.784 400.015 239.784C400.784 239.784 401.521 239.479 402.065 238.935L409.299 231.701C412.456 233.791 415.988 235.251 419.7 236V246.153C419.7 246.922 420.006 247.66 420.549 248.204C421.093 248.748 421.831 249.053 422.6 249.053H428.4C429.169 249.053 429.907 248.748 430.451 248.204C430.995 247.66 431.3 246.922 431.3 246.153V235.992C435.014 235.243 438.547 233.783 441.706 231.692L448.935 238.921C449.479 239.465 450.216 239.77 450.985 239.77C451.754 239.77 452.491 239.465 453.035 238.921L457.435 234.521C457.979 233.977 458.284 233.24 458.284 232.471C458.284 231.702 457.979 230.965 457.435 230.421L450.2 223.206C452.292 220.047 453.752 216.514 454.5 212.8H464.654C465.035 212.8 465.412 212.725 465.764 212.579C466.116 212.434 466.435 212.22 466.705 211.951C466.974 211.681 467.188 211.362 467.333 211.01C467.479 210.658 467.554 210.281 467.554 209.9V204.1C467.554 203.331 467.249 202.593 466.705 202.049C466.161 201.506 465.423 201.2 464.654 201.2H464.644ZM425.5 222.117C422.51 222.117 419.587 221.23 417.101 219.569C414.616 217.908 412.678 215.547 411.534 212.785C410.39 210.023 410.09 206.983 410.674 204.051C411.257 201.118 412.697 198.425 414.811 196.311C416.925 194.197 419.618 192.757 422.551 192.174C425.483 191.59 428.523 191.89 431.285 193.034C434.047 194.178 436.408 196.116 438.069 198.602C439.73 201.087 440.617 204.01 440.617 207C440.617 211.009 439.024 214.854 436.189 217.689C433.354 220.524 429.509 222.117 425.5 222.117Z" fill="#B1B1B1"/>
<path d="M551.452 149.218L538.074 143.757C539.089 138.457 539.07 133.01 538.017 127.718L551.443 122.071C552.452 121.646 553.251 120.837 553.665 119.823C554.079 118.809 554.073 117.673 553.65 116.663L550.2 108.5C549.776 107.491 548.969 106.692 547.957 106.278C546.944 105.864 545.809 105.868 544.8 106.291L531.37 111.924C528.323 107.471 524.444 103.648 519.946 100.668L525.4 87.2878C525.605 86.7853 525.709 86.2472 525.706 85.7045C525.703 85.1617 525.593 84.6248 525.383 84.1245C525.172 83.6242 524.865 83.1702 524.479 82.7885C524.094 82.4068 523.636 82.1048 523.134 81.8998L515.489 78.7838C514.986 78.5786 514.448 78.4744 513.905 78.4771C513.363 78.4798 512.826 78.5894 512.325 78.7997C511.825 79.0099 511.371 79.3166 510.989 79.7024C510.607 80.0881 510.305 80.5453 510.1 81.0478L504.639 94.4258C499.339 93.4108 493.892 93.4302 488.6 94.4828L482.948 81.0768C482.524 80.0683 481.717 79.2691 480.705 78.8549C479.692 78.4407 478.557 78.4454 477.548 78.8678L469.374 82.2998C468.364 82.7249 467.565 83.5332 467.151 84.5472C466.737 85.5612 466.743 86.6979 467.167 87.7078L472.8 101.139C468.345 104.186 464.523 108.067 461.544 112.567L448.166 107.106C447.151 106.693 446.014 106.699 445.004 107.124C443.995 107.549 443.195 108.357 442.781 109.371L439.661 117.015C439.248 118.029 439.254 119.166 439.679 120.176C440.103 121.186 440.912 121.986 441.926 122.4L455.3 127.861C454.285 133.161 454.306 138.607 455.361 143.9L441.936 149.547C440.926 149.972 440.127 150.78 439.713 151.794C439.299 152.808 439.305 153.945 439.729 154.955L443.164 163.115C443.587 164.123 444.394 164.923 445.407 165.337C446.419 165.751 447.555 165.746 448.564 165.324L462 159.676C465.047 164.13 468.927 167.952 473.426 170.933L467.965 184.31C467.552 185.324 467.558 186.461 467.983 187.471C468.407 188.481 469.216 189.281 470.23 189.695L477.874 192.815C478.888 193.228 480.025 193.222 481.035 192.797C482.045 192.372 482.845 191.564 483.259 190.55L488.72 177.172C494.02 178.188 499.466 178.168 504.759 177.115L510.406 190.541C510.829 191.549 511.636 192.349 512.649 192.763C513.661 193.177 514.797 193.172 515.806 192.75L523.971 189.315C524.98 188.89 525.779 188.081 526.193 187.067C526.607 186.054 526.601 184.917 526.178 183.907L520.569 170.486C525.026 167.44 528.851 163.56 531.834 159.06L545.212 164.521C545.714 164.726 546.251 164.83 546.793 164.828C547.335 164.825 547.871 164.716 548.371 164.506C548.871 164.296 549.325 163.99 549.706 163.604C550.088 163.219 550.39 162.763 550.595 162.261L553.715 154.617C554.13 153.603 554.126 152.465 553.703 151.454C553.279 150.443 552.472 149.642 551.458 149.226L551.452 149.218ZM496.689 155.818C492.731 155.817 488.863 154.644 485.573 152.445C482.282 150.246 479.718 147.12 478.204 143.464C476.69 139.808 476.294 135.785 477.067 131.903C477.839 128.022 479.745 124.457 482.544 121.659C485.342 118.861 488.908 116.956 492.789 116.184C496.671 115.412 500.694 115.809 504.35 117.324C508.006 118.838 511.13 121.403 513.329 124.694C515.527 127.985 516.7 131.853 516.7 135.811C516.7 138.439 516.182 141.041 515.176 143.468C514.171 145.896 512.697 148.102 510.839 149.96C508.98 151.818 506.774 153.292 504.346 154.297C501.919 155.303 499.317 155.82 496.689 155.82V155.818Z" fill="#B1B1B1"/>
</g>
<g filter="url(#filter6_d_96_120)">
<path d="M441 147C441 135.402 431.598 126 420 126C408.402 126 399 135.402 399 147C399 158.598 408.402 168 420 168C431.598 168 441 158.598 441 147Z" fill="white"/>
<path d="M440 147C440 135.954 431.046 127 420 127C408.954 127 400 135.954 400 147C400 158.046 408.954 167 420 167C431.046 167 440 158.046 440 147Z" stroke="#464646" stroke-width="2"/>
</g>
<path d="M420 165C429.941 165 438 156.941 438 147C438 137.059 429.941 129 420 129C410.059 129 402 137.059 402 147C402 156.941 410.059 165 420 165Z" fill="#FA0F00"/>
<g opacity="0.498">
<g filter="url(#filter7_d_96_120)">
<path d="M498 94C498 82.402 488.598 73 477 73C465.402 73 456 82.402 456 94C456 105.598 465.402 115 477 115C488.598 115 498 105.598 498 94Z" fill="white"/>
<path d="M497 94C497 82.9543 488.046 74 477 74C465.954 74 457 82.9543 457 94C457 105.046 465.954 114 477 114C488.046 114 497 105.046 497 94Z" stroke="#464646" stroke-width="2" stroke-dasharray="10 3"/>
</g>
<path d="M477 112C486.941 112 495 103.941 495 94C495 84.0589 486.941 76 477 76C467.059 76 459 84.0589 459 94C459 103.941 467.059 112 477 112Z" fill="#F8D904"/>
</g>
<g opacity="0.5">
<g filter="url(#filter8_d_96_120)">
<path d="M562 147C562 135.402 552.598 126 541 126C529.402 126 520 135.402 520 147C520 158.598 529.402 168 541 168C552.598 168 562 158.598 562 147Z" fill="white"/>
<path d="M561 147C561 135.954 552.046 127 541 127C529.954 127 521 135.954 521 147C521 158.046 529.954 167 541 167C552.046 167 561 158.046 561 147Z" stroke="#464646" stroke-width="2" stroke-dasharray="10 3"/>
</g>
<path d="M541 165C550.941 165 559 156.941 559 147C559 137.059 550.941 129 541 129C531.059 129 523 137.059 523 147C523 156.941 531.059 165 541 165Z" fill="#88E7FA"/>
</g>
<g opacity="0.5">
<g filter="url(#filter9_d_96_120)">
<path d="M560 94C560 82.402 550.598 73 539 73C527.402 73 518 82.402 518 94C518 105.598 527.402 115 539 115C550.598 115 560 105.598 560 94Z" fill="white"/>
<path d="M559 94C559 82.9543 550.046 74 539 74C527.954 74 519 82.9543 519 94C519 105.046 527.954 114 539 114C550.046 114 559 105.046 559 94Z" stroke="#464646" stroke-width="2" stroke-dasharray="10 3"/>
</g>
<path d="M539 112C548.941 112 557 103.941 557 94C557 84.0589 548.941 76 539 76C529.059 76 521 84.0589 521 94C521 103.941 529.059 112 539 112Z" fill="#4046CA"/>
</g>
<g filter="url(#filter10_d_96_120)">
<path d="M498 147C498 135.402 488.598 126 477 126C465.402 126 456 135.402 456 147C456 158.598 465.402 168 477 168C488.598 168 498 158.598 498 147Z" fill="white"/>
<path d="M497 147C497 135.954 488.046 127 477 127C465.954 127 457 135.954 457 147C457 158.046 465.954 167 477 167C488.046 167 497 158.046 497 147Z" stroke="#464646" stroke-width="2" stroke-dasharray="10 3"/>
</g>
<path d="M477 129C480.56 129 484.04 130.056 487 132.034C489.96 134.011 492.267 136.823 493.63 140.112C494.992 143.401 495.349 147.02 494.654 150.512C493.96 154.003 492.245 157.211 489.728 159.728C487.211 162.245 484.003 163.96 480.512 164.654C477.02 165.349 473.401 164.992 470.112 163.63C466.823 162.267 464.011 159.96 462.034 157C460.056 154.04 459 150.56 459 147C459 142.226 460.896 137.648 464.272 134.272C467.648 130.896 472.226 129 477 129Z" fill="#007CDA"/>
<g opacity="0.5">
<g filter="url(#filter11_d_96_120)">
<path d="M498 207C498 195.402 488.598 186 477 186C465.402 186 456 195.402 456 207C456 218.598 465.402 228 477 228C488.598 228 498 218.598 498 207Z" fill="white"/>
<path d="M497 207C497 195.954 488.046 187 477 187C465.954 187 457 195.954 457 207C457 218.046 465.954 227 477 227C488.046 227 497 218.046 497 207Z" stroke="#464646" stroke-width="2" stroke-dasharray="10 3"/>
</g>
<path d="M477 189C480.56 189 484.04 190.056 487 192.034C489.96 194.011 492.267 196.823 493.63 200.112C494.992 203.401 495.349 207.02 494.654 210.512C493.96 214.003 492.245 217.211 489.728 219.728C487.211 222.245 484.003 223.96 480.512 224.654C477.02 225.349 473.401 224.992 470.112 223.63C466.823 222.267 464.011 219.96 462.034 217C460.056 214.04 459 210.56 459 207C459 202.226 460.896 197.648 464.272 194.272C467.648 190.896 472.226 189 477 189Z" fill="#72E06A"/>
</g>
<path d="M440.5 147.5H456.5" stroke="#464646"/>
<path d="M476.5 168.5V186.5" stroke="#707070"/>
<path d="M521.5 147.5H497.5" stroke="#707070"/>
<path d="M477.5 115.5V126.5" stroke="#707070"/>
<path d="M539.5 126.5V113.5" stroke="#707070"/>
<g filter="url(#filter12_d_96_120)">
<path d="M527 42C527 30.402 517.598 21 506 21C494.402 21 485 30.402 485 42C485 53.598 494.402 63 506 63C517.598 63 527 53.598 527 42Z" fill="white"/>
<path d="M526 42C526 30.9543 517.046 22 506 22C494.954 22 486 30.9543 486 42C486 53.0457 494.954 62 506 62C517.046 62 526 53.0457 526 42Z" stroke="#464646" stroke-width="2" stroke-dasharray="10 3"/>
</g>
<path d="M506 24C509.56 24 513.04 25.0557 516 27.0335C518.96 29.0114 521.267 31.8226 522.63 35.1117C523.992 38.4008 524.349 42.02 523.654 45.5116C522.96 49.0033 521.245 52.2106 518.728 54.7279C516.211 57.2453 513.003 58.9596 509.512 59.6541C506.02 60.3487 502.401 59.9922 499.112 58.6298C495.823 57.2675 493.011 54.9603 491.034 52.0003C489.056 49.0402 488 45.5601 488 42C488 37.2261 489.896 32.6477 493.272 29.2721C496.648 25.8964 501.226 24 506 24Z" fill="#007CDA"/>
<path d="M496.34 43.6741L496.19 44.6041C496.18 44.6741 496.16 44.6841 496.1 44.6841H492.12C492.05 44.6841 492.03 44.6541 492.03 44.6041V38.1941C492.03 38.1441 492.05 38.1141 492.11 38.1141H495.97C496.03 38.1141 496.05 38.1241 496.06 38.1841L496.17 39.1141C496.18 39.1641 496.16 39.2041 496.1 39.2041H493.24V40.7941H495.84C495.89 40.7941 495.91 40.8041 495.91 40.8641V41.8141C495.91 41.8641 495.88 41.8741 495.84 41.8741H493.24V43.5941H496.27C496.33 43.5941 496.35 43.6241 496.34 43.6741ZM497.603 38.1741C497.613 38.1141 497.633 38.1141 497.683 38.1141H499.283C499.343 38.1141 499.363 38.1341 499.383 38.1841C499.683 39.1941 500.553 42.1641 500.753 43.0941H500.763C500.973 42.2441 501.963 39.2141 502.273 38.1841C502.293 38.1441 502.303 38.1141 502.363 38.1141H503.923C503.973 38.1141 503.993 38.1241 504.003 38.1741L504.273 44.6041C504.283 44.6641 504.253 44.6841 504.203 44.6841H503.093C503.043 44.6841 503.013 44.6741 503.013 44.6141C502.963 42.4841 502.943 39.6041 502.953 38.9741H502.943C502.713 39.9341 501.683 43.2741 501.283 44.6041C501.273 44.6741 501.233 44.6841 501.193 44.6841H500.193C500.123 44.6841 500.103 44.6741 500.093 44.6141C499.663 43.0941 498.863 40.1841 498.583 38.9641H498.563C498.553 39.9741 498.473 42.5141 498.373 44.6141C498.373 44.6741 498.353 44.6841 498.293 44.6841H497.293C497.233 44.6841 497.213 44.6741 497.223 44.6041L497.603 38.1741ZM508.975 42.9541H506.585L506.035 44.6041C506.015 44.6641 505.985 44.6841 505.925 44.6841H504.925C504.865 44.6841 504.845 44.6541 504.855 44.5841L506.915 38.7241C506.955 38.6241 506.985 38.5241 507.005 38.1841C507.005 38.1441 507.025 38.1141 507.065 38.1141H508.455C508.505 38.1141 508.515 38.1241 508.525 38.1741L510.835 44.5941C510.845 44.6541 510.835 44.6841 510.775 44.6841H509.655C509.605 44.6841 509.575 44.6641 509.555 44.6241L508.975 42.9541ZM506.905 41.8641H508.655C508.445 41.2041 507.975 39.8141 507.775 39.1141H507.765C507.605 39.7841 507.205 40.9541 506.905 41.8641ZM512.83 38.1941V44.5941C512.83 44.6641 512.81 44.6841 512.75 44.6841H511.7C511.64 44.6841 511.62 44.6541 511.62 44.5941V38.1941C511.62 38.1241 511.65 38.1141 511.7 38.1141H512.75C512.81 38.1141 512.83 38.1341 512.83 38.1941ZM518.275 44.6841H514.415C514.335 44.6841 514.315 44.6541 514.315 44.5841V38.2041C514.315 38.1541 514.335 38.1141 514.395 38.1141H515.465C515.505 38.1141 515.525 38.1441 515.525 38.1841V43.5941H518.465C518.525 43.5941 518.545 43.6241 518.535 43.6641L518.365 44.6041C518.355 44.6741 518.325 44.6841 518.275 44.6841Z" fill="white"/>
<path d="M419.356 46H418.192C418.12 46 418.084 45.988 418.084 45.892V38.2C418.084 38.14 418.108 38.116 418.168 38.116H419.86C419.956 38.116 419.968 38.14 420.004 38.2C420.892 39.784 422.728 43.168 423.148 44.068H423.16C423.148 43.732 423.124 43.336 423.124 42.208V38.212C423.124 38.152 423.16 38.116 423.232 38.116H424.384C424.468 38.116 424.492 38.152 424.492 38.224V45.892C424.492 45.976 424.456 46 424.372 46H422.848C422.764 46 422.728 45.976 422.692 45.916C422.068 44.692 419.872 40.816 419.404 39.652H419.392C419.44 40.264 419.452 40.792 419.452 41.884V45.892C419.452 45.964 419.428 46 419.356 46ZM429.027 44.836V43.36C428.847 43.336 428.643 43.324 428.367 43.324C427.419 43.324 426.999 43.636 426.999 44.152C426.999 44.596 427.311 44.98 428.175 44.98C428.487 44.98 428.763 44.944 429.027 44.836ZM430.431 42.34V44.776C430.431 45.04 430.431 45.28 430.455 45.532C430.455 45.556 430.455 45.568 430.431 45.58C429.447 46 428.751 46.12 427.935 46.12C426.627 46.12 425.583 45.508 425.583 44.152C425.583 42.88 426.723 42.244 428.283 42.244C428.643 42.244 428.919 42.256 429.027 42.268V42.124C429.027 41.848 428.871 41.224 427.815 41.224C427.215 41.224 426.687 41.344 426.243 41.56C426.207 41.572 426.147 41.56 426.147 41.488V40.444C426.147 40.384 426.159 40.36 426.219 40.324C426.735 40.084 427.395 39.964 428.043 39.964C429.711 39.964 430.431 41.008 430.431 42.34ZM433.3 46H432.04C431.968 46 431.944 45.964 431.944 45.892V41.356C431.944 40.888 431.92 40.396 431.896 40.168C431.884 40.108 431.92 40.084 431.992 40.084H433.096C433.156 40.084 433.18 40.096 433.216 40.156C433.252 40.252 433.276 40.444 433.288 40.636C433.852 40.156 434.404 39.964 435.04 39.964C435.748 39.964 436.264 40.228 436.588 40.756C437.104 40.312 437.74 39.964 438.556 39.964C439.552 39.964 440.584 40.492 440.584 42.304V45.904C440.584 45.976 440.536 46 440.476 46H439.24C439.156 46 439.132 45.964 439.132 45.892V42.436C439.132 41.752 438.856 41.212 438.124 41.212C437.656 41.212 437.248 41.416 436.948 41.704C436.972 41.836 436.984 42.16 436.984 42.412V45.904C436.984 45.964 436.972 46 436.9 46H435.652C435.58 46 435.544 45.976 435.544 45.892V42.4C435.544 41.608 435.184 41.224 434.536 41.224C434.104 41.224 433.756 41.368 433.396 41.668V45.904C433.396 45.976 433.372 46 433.3 46ZM445.621 43.372H443.185C443.221 44.212 443.773 44.884 444.997 44.884C445.537 44.884 446.029 44.788 446.485 44.596C446.521 44.572 446.557 44.584 446.557 44.644V45.64C446.557 45.712 446.533 45.748 446.485 45.772C446.029 45.988 445.501 46.12 444.685 46.12C442.501 46.12 441.721 44.584 441.721 43.108C441.721 41.44 442.729 39.964 444.541 39.964C446.317 39.964 447.001 41.356 447.001 42.496C447.001 42.832 446.989 43.108 446.953 43.24C446.941 43.288 446.917 43.312 446.857 43.324C446.689 43.36 446.209 43.372 445.621 43.372ZM443.185 42.34H444.973C445.429 42.34 445.585 42.34 445.633 42.328C445.633 42.292 445.633 42.244 445.633 42.232C445.633 41.884 445.393 41.116 444.481 41.116C443.653 41.116 443.281 41.752 443.185 42.34ZM451.569 41.476C451.197 41.272 450.597 41.128 450.069 41.128C449.433 41.128 449.217 41.392 449.217 41.644C449.217 41.908 449.397 42.088 450.165 42.388C451.533 42.892 452.001 43.432 452.001 44.284C452.001 45.412 451.113 46.12 449.637 46.12C448.929 46.12 448.305 45.988 447.945 45.784C447.885 45.748 447.861 45.724 447.861 45.652V44.512C447.861 44.452 447.909 44.428 447.957 44.452C448.473 44.788 449.133 44.932 449.673 44.932C450.297 44.932 450.597 44.716 450.597 44.404C450.597 44.104 450.369 43.912 449.625 43.612C448.317 43.132 447.849 42.592 447.849 41.728C447.849 40.816 448.593 39.964 450.093 39.964C450.789 39.964 451.317 40.06 451.605 40.204C451.665 40.24 451.677 40.288 451.677 40.348V41.404C451.677 41.464 451.641 41.5 451.569 41.476ZM455.545 39.964C457.525 39.964 458.509 41.308 458.509 42.844C458.509 45.04 456.733 46.12 454.921 46.12C454.789 46.12 454.669 46.108 454.561 46.096V48.256C454.561 48.304 454.549 48.34 454.477 48.352C454.057 48.4 453.253 48.472 453.193 48.472C453.121 48.472 453.109 48.46 453.109 48.4V41.212C453.109 41.068 453.097 40.672 453.073 40.504C453.073 40.492 453.073 40.456 453.121 40.444C453.661 40.264 454.501 39.964 455.545 39.964ZM455.413 41.2C455.089 41.2 454.825 41.236 454.561 41.32V44.86C454.693 44.896 454.885 44.896 455.041 44.896C455.977 44.896 457.021 44.344 457.021 42.94C457.021 41.848 456.433 41.2 455.413 41.2ZM462.742 44.836V43.36C462.562 43.336 462.358 43.324 462.082 43.324C461.134 43.324 460.714 43.636 460.714 44.152C460.714 44.596 461.026 44.98 461.89 44.98C462.202 44.98 462.478 44.944 462.742 44.836ZM464.146 42.34V44.776C464.146 45.04 464.146 45.28 464.17 45.532C464.17 45.556 464.17 45.568 464.146 45.58C463.162 46 462.466 46.12 461.65 46.12C460.342 46.12 459.298 45.508 459.298 44.152C459.298 42.88 460.438 42.244 461.998 42.244C462.358 42.244 462.634 42.256 462.742 42.268V42.124C462.742 41.848 462.586 41.224 461.53 41.224C460.93 41.224 460.402 41.344 459.958 41.56C459.922 41.572 459.862 41.56 459.862 41.488V40.444C459.862 40.384 459.874 40.36 459.934 40.324C460.45 40.084 461.11 39.964 461.758 39.964C463.426 39.964 464.146 41.008 464.146 42.34ZM469.728 44.764V45.832C469.728 45.892 469.716 45.916 469.668 45.928C469.284 46.084 468.804 46.12 468.336 46.12C466.392 46.12 465.24 44.788 465.24 43.06C465.24 41.284 466.56 39.964 468.54 39.964C469.14 39.964 469.464 40.024 469.668 40.096C469.716 40.12 469.728 40.156 469.728 40.228L469.716 41.296C469.716 41.38 469.668 41.38 469.62 41.368C469.368 41.272 469.056 41.212 468.588 41.212C467.496 41.212 466.728 41.86 466.728 43.012C466.728 44.32 467.676 44.824 468.6 44.824C469.032 44.824 469.404 44.788 469.644 44.704C469.704 44.68 469.728 44.716 469.728 44.764ZM474.308 43.372H471.872C471.908 44.212 472.46 44.884 473.684 44.884C474.224 44.884 474.716 44.788 475.172 44.596C475.208 44.572 475.244 44.584 475.244 44.644V45.64C475.244 45.712 475.22 45.748 475.172 45.772C474.716 45.988 474.188 46.12 473.372 46.12C471.188 46.12 470.408 44.584 470.408 43.108C470.408 41.44 471.416 39.964 473.228 39.964C475.004 39.964 475.688 41.356 475.688 42.496C475.688 42.832 475.676 43.108 475.64 43.24C475.628 43.288 475.604 43.312 475.544 43.324C475.376 43.36 474.896 43.372 474.308 43.372ZM471.872 42.34H473.66C474.116 42.34 474.272 42.34 474.32 42.328C474.32 42.292 474.32 42.244 474.32 42.232C474.32 41.884 474.08 41.116 473.168 41.116C472.34 41.116 471.968 41.752 471.872 42.34Z" fill="#464646"/>
</g>
</g>
<defs>
<filter id="filter0_d_96_120" x="41" y="20" width="58" height="58" filterUnits="userSpaceOnUse" color-interpolation-filters="sRGB">
<feFlood flood-opacity="0" result="BackgroundImageFix"/>
<feColorMatrix in="SourceAlpha" type="matrix" values="0 0 0 0 0 0 0 0 0 0 0 0 0 0 0 0 0 0 127 0" result="hardAlpha"/>
<feOffset dy="3"/>
<feGaussianBlur stdDeviation="4"/>
<feColorMatrix type="matrix" values="0 0 0 0 0 0 0 0 0 0 0 0 0 0 0 0 0 0 0.18 0"/>
<feBlend mode="normal" in2="BackgroundImageFix" result="effect1_dropShadow_96_120"/>
<feBlend mode="normal" in="SourceGraphic" in2="effect1_dropShadow_96_120" result="shape"/>
</filter>
<filter id="filter1_d_96_120" x="778" y="21" width="58" height="58" filterUnits="userSpaceOnUse" color-interpolation-filters="sRGB">
<feFlood flood-opacity="0" result="BackgroundImageFix"/>
<feColorMatrix in="SourceAlpha" type="matrix" values="0 0 0 0 0 0 0 0 0 0 0 0 0 0 0 0 0 0 127 0" result="hardAlpha"/>
<feOffset dy="3"/>
<feGaussianBlur stdDeviation="4"/>
<feColorMatrix type="matrix" values="0 0 0 0 0 0 0 0 0 0 0 0 0 0 0 0 0 0 0.18 0"/>
<feBlend mode="normal" in2="BackgroundImageFix" result="effect1_dropShadow_96_120"/>
<feBlend mode="normal" in="SourceGraphic" in2="effect1_dropShadow_96_120" result="shape"/>
</filter>
<filter id="filter2_d_96_120" x="823" y="20" width="58" height="58" filterUnits="userSpaceOnUse" color-interpolation-filters="sRGB">
<feFlood flood-opacity="0" result="BackgroundImageFix"/>
<feColorMatrix in="SourceAlpha" type="matrix" values="0 0 0 0 0 0 0 0 0 0 0 0 0 0 0 0 0 0 127 0" result="hardAlpha"/>
<feOffset dy="3"/>
<feGaussianBlur stdDeviation="4"/>
<feColorMatrix type="matrix" values="0 0 0 0 0 0 0 0 0 0 0 0 0 0 0 0 0 0 0.18 0"/>
<feBlend mode="normal" in2="BackgroundImageFix" result="effect1_dropShadow_96_120"/>
<feBlend mode="normal" in="SourceGraphic" in2="effect1_dropShadow_96_120" result="shape"/>
</filter>
<filter id="filter3_d_96_120" x="688" y="338" width="40" height="40" filterUnits="userSpaceOnUse" color-interpolation-filters="sRGB">
<feFlood flood-opacity="0" result="BackgroundImageFix"/>
<feColorMatrix in="SourceAlpha" type="matrix" values="0 0 0 0 0 0 0 0 0 0 0 0 0 0 0 0 0 0 127 0" result="hardAlpha"/>
<feOffset dy="3"/>
<feGaussianBlur stdDeviation="4"/>
<feColorMatrix type="matrix" values="0 0 0 0 0 0 0 0 0 0 0 0 0 0 0 0 0 0 0.18 0"/>
<feBlend mode="normal" in2="BackgroundImageFix" result="effect1_dropShadow_96_120"/>
<feBlend mode="normal" in="SourceGraphic" in2="effect1_dropShadow_96_120" result="shape"/>
</filter>
<filter id="filter4_d_96_120" x="808" y="338" width="40" height="40" filterUnits="userSpaceOnUse" color-interpolation-filters="sRGB">
<feFlood flood-opacity="0" result="BackgroundImageFix"/>
<feColorMatrix in="SourceAlpha" type="matrix" values="0 0 0 0 0 0 0 0 0 0 0 0 0 0 0 0 0 0 127 0" result="hardAlpha"/>
<feOffset dy="3"/>
<feGaussianBlur stdDeviation="4"/>
<feColorMatrix type="matrix" values="0 0 0 0 0 0 0 0 0 0 0 0 0 0 0 0 0 0 0.18 0"/>
<feBlend mode="normal" in2="BackgroundImageFix" result="effect1_dropShadow_96_120"/>
<feBlend mode="normal" in="SourceGraphic" in2="effect1_dropShadow_96_120" result="shape"/>
</filter>
<filter id="filter5_d_96_120" x="918" y="338" width="40" height="40" filterUnits="userSpaceOnUse" color-interpolation-filters="sRGB">
<feFlood flood-opacity="0" result="BackgroundImageFix"/>
<feColorMatrix in="SourceAlpha" type="matrix" values="0 0 0 0 0 0 0 0 0 0 0 0 0 0 0 0 0 0 127 0" result="hardAlpha"/>
<feOffset dy="3"/>
<feGaussianBlur stdDeviation="4"/>
<feColorMatrix type="matrix" values="0 0 0 0 0 0 0 0 0 0 0 0 0 0 0 0 0 0 0.18 0"/>
<feBlend mode="normal" in2="BackgroundImageFix" result="effect1_dropShadow_96_120"/>
<feBlend mode="normal" in="SourceGraphic" in2="effect1_dropShadow_96_120" result="shape"/>
</filter>
<filter id="filter6_d_96_120" x="391" y="121" width="58" height="58" filterUnits="userSpaceOnUse" color-interpolation-filters="sRGB">
<feFlood flood-opacity="0" result="BackgroundImageFix"/>
<feColorMatrix in="SourceAlpha" type="matrix" values="0 0 0 0 0 0 0 0 0 0 0 0 0 0 0 0 0 0 127 0" result="hardAlpha"/>
<feOffset dy="3"/>
<feGaussianBlur stdDeviation="4"/>
<feColorMatrix type="matrix" values="0 0 0 0 0 0 0 0 0 0 0 0 0 0 0 0 0 0 0.18 0"/>
<feBlend mode="normal" in2="BackgroundImageFix" result="effect1_dropShadow_96_120"/>
<feBlend mode="normal" in="SourceGraphic" in2="effect1_dropShadow_96_120" result="shape"/>
</filter>
<filter id="filter7_d_96_120" x="448" y="68" width="58" height="58" filterUnits="userSpaceOnUse" color-interpolation-filters="sRGB">
<feFlood flood-opacity="0" result="BackgroundImageFix"/>
<feColorMatrix in="SourceAlpha" type="matrix" values="0 0 0 0 0 0 0 0 0 0 0 0 0 0 0 0 0 0 127 0" result="hardAlpha"/>
<feOffset dy="3"/>
<feGaussianBlur stdDeviation="4"/>
<feColorMatrix type="matrix" values="0 0 0 0 0 0 0 0 0 0 0 0 0 0 0 0 0 0 0.18 0"/>
<feBlend mode="normal" in2="BackgroundImageFix" result="effect1_dropShadow_96_120"/>
<feBlend mode="normal" in="SourceGraphic" in2="effect1_dropShadow_96_120" result="shape"/>
</filter>
<filter id="filter8_d_96_120" x="512" y="121" width="58" height="58" filterUnits="userSpaceOnUse" color-interpolation-filters="sRGB">
<feFlood flood-opacity="0" result="BackgroundImageFix"/>
<feColorMatrix in="SourceAlpha" type="matrix" values="0 0 0 0 0 0 0 0 0 0 0 0 0 0 0 0 0 0 127 0" result="hardAlpha"/>
<feOffset dy="3"/>
<feGaussianBlur stdDeviation="4"/>
<feColorMatrix type="matrix" values="0 0 0 0 0 0 0 0 0 0 0 0 0 0 0 0 0 0 0.18 0"/>
<feBlend mode="normal" in2="BackgroundImageFix" result="effect1_dropShadow_96_120"/>
<feBlend mode="normal" in="SourceGraphic" in2="effect1_dropShadow_96_120" result="shape"/>
</filter>
<filter id="filter9_d_96_120" x="510" y="68" width="58" height="58" filterUnits="userSpaceOnUse" color-interpolation-filters="sRGB">
<feFlood flood-opacity="0" result="BackgroundImageFix"/>
<feColorMatrix in="SourceAlpha" type="matrix" values="0 0 0 0 0 0 0 0 0 0 0 0 0 0 0 0 0 0 127 0" result="hardAlpha"/>
<feOffset dy="3"/>
<feGaussianBlur stdDeviation="4"/>
<feColorMatrix type="matrix" values="0 0 0 0 0 0 0 0 0 0 0 0 0 0 0 0 0 0 0.18 0"/>
<feBlend mode="normal" in2="BackgroundImageFix" result="effect1_dropShadow_96_120"/>
<feBlend mode="normal" in="SourceGraphic" in2="effect1_dropShadow_96_120" result="shape"/>
</filter>
<filter id="filter10_d_96_120" x="448" y="121" width="58" height="58" filterUnits="userSpaceOnUse" color-interpolation-filters="sRGB">
<feFlood flood-opacity="0" result="BackgroundImageFix"/>
<feColorMatrix in="SourceAlpha" type="matrix" values="0 0 0 0 0 0 0 0 0 0 0 0 0 0 0 0 0 0 127 0" result="hardAlpha"/>
<feOffset dy="3"/>
<feGaussianBlur stdDeviation="4"/>
<feColorMatrix type="matrix" values="0 0 0 0 0 0 0 0 0 0 0 0 0 0 0 0 0 0 0.18 0"/>
<feBlend mode="normal" in2="BackgroundImageFix" result="effect1_dropShadow_96_120"/>
<feBlend mode="normal" in="SourceGraphic" in2="effect1_dropShadow_96_120" result="shape"/>
</filter>
<filter id="filter11_d_96_120" x="448" y="181" width="58" height="58" filterUnits="userSpaceOnUse" color-interpolation-filters="sRGB">
<feFlood flood-opacity="0" result="BackgroundImageFix"/>
<feColorMatrix in="SourceAlpha" type="matrix" values="0 0 0 0 0 0 0 0 0 0 0 0 0 0 0 0 0 0 127 0" result="hardAlpha"/>
<feOffset dy="3"/>
<feGaussianBlur stdDeviation="4"/>
<feColorMatrix type="matrix" values="0 0 0 0 0 0 0 0 0 0 0 0 0 0 0 0 0 0 0.18 0"/>
<feBlend mode="normal" in2="BackgroundImageFix" result="effect1_dropShadow_96_120"/>
<feBlend mode="normal" in="SourceGraphic" in2="effect1_dropShadow_96_120" result="shape"/>
</filter>
<filter id="filter12_d_96_120" x="477" y="16" width="58" height="58" filterUnits="userSpaceOnUse" color-interpolation-filters="sRGB">
<feFlood flood-opacity="0" result="BackgroundImageFix"/>
<feColorMatrix in="SourceAlpha" type="matrix" values="0 0 0 0 0 0 0 0 0 0 0 0 0 0 0 0 0 0 127 0" result="hardAlpha"/>
<feOffset dy="3"/>
<feGaussianBlur stdDeviation="4"/>
<feColorMatrix type="matrix" values="0 0 0 0 0 0 0 0 0 0 0 0 0 0 0 0 0 0 0.18 0"/>
<feBlend mode="normal" in2="BackgroundImageFix" result="effect1_dropShadow_96_120"/>
<feBlend mode="normal" in="SourceGraphic" in2="effect1_dropShadow_96_120" result="shape"/>
</filter>
<clipPath id="clip0_96_120">
<rect width="1024" height="378" fill="white"/>
</clipPath>
</defs>
</svg>
