<svg xmlns="http://www.w3.org/2000/svg" width="20" height="20" viewBox="0 0 20 20" alt="segmentAudience icon" focusable="false" aria-hidden="true" role="img" class="   Zm1 Fn1 _va1"><path fill="var(--iconPrimary, var(--lightningcss-light, rgb(41, 41, 41)) var(--lightningcss-dark, rgb(219, 219, 219)))" d="M10.059 11.998c-2.09 0-3.788-1.784-3.788-3.977s1.699-3.979 3.788-3.979 3.788 1.785 3.788 3.979-1.7 3.977-3.788 3.977m0-6.456c-1.262 0-2.288 1.112-2.288 2.479s1.026 2.477 2.288 2.477 2.288-1.111 2.288-2.477-1.027-2.479-2.288-2.479M4.553 17.998q-.04.001-.081-.004c-.412-.045-.71-.415-.665-.827.276-2.546 2.963-4.467 6.252-4.467 3.264 0 6.01 1.966 6.253 4.476.04.413-.263.78-.675.818-.415.043-.779-.263-.819-.674-.165-1.72-2.3-3.12-4.76-3.12-2.479 0-4.57 1.374-4.76 3.13-.042.383-.367.668-.745.668M.75 14.998c-.137 0-.276-.037-.4-.115-.35-.22-.455-.685-.234-1.035.856-1.358 2.44-2.312 4.345-2.615.413-.07.793.213.859.622s-.214.794-.623.859c-1.457.232-2.696.955-3.313 1.934-.142.226-.386.35-.635.35M4.187 9.998q-.08 0-.16-.018C2.279 9.602 1.01 7.963 1.01 6.086c0-2.193 1.699-3.978 3.787-3.978.685 0 1.356.194 1.94.56.351.22.458.683.238 1.034-.22.35-.684.455-1.034.237-.345-.216-.74-.33-1.144-.33-1.26 0-2.287 1.11-2.287 2.477 0 1.177.771 2.198 1.834 2.43.405.088.662.487.574.891-.076.352-.387.591-.732.591M19.25 14.998c-.249 0-.492-.124-.634-.35-.617-.98-1.856-1.702-3.313-1.934-.409-.065-.688-.45-.623-.859.066-.409.45-.692.86-.622 1.904.303 3.488 1.257 4.344 2.615.221.35.116.814-.234 1.035-.124.078-.263.115-.4.115M15.813 9.998c-.345 0-.656-.24-.732-.59-.088-.405.169-.804.574-.892 1.063-.232 1.834-1.253 1.834-2.43 0-1.366-1.026-2.478-2.287-2.478-.403 0-.799.115-1.144.331-.35.218-.814.114-1.034-.237s-.113-.814.238-1.034c.584-.366 1.255-.56 1.94-.56 2.088 0 3.787 1.785 3.787 3.978 0 1.877-1.268 3.516-3.016 3.894q-.08.018-.16.018"></path></svg>